<svg xmlns="http://www.w3.org/2000/svg" xmlns:xlink="http://www.w3.org/1999/xlink" contentStyleType="text/css" data-diagram-type="SEQUENCE" height="1049px" preserveAspectRatio="none" style="width:989px;height:1049px;background:#FFFFFF;" version="1.1" viewBox="0 0 989 1049" width="989px" zoomAndPan="magnify"><?plantuml 1.2026.3beta6?><defs/><g><g class="title" data-source-line="1"><text fill="#000000" font-family="sans-serif" font-size="14" font-weight="700" lengthAdjust="spacing" textLength="499.2148" x="241.5649" y="27.9951">S1: EndUser plays question sequence with branching + scoring</text></g><rect fill="none" height="46.2656" style="stroke:#000000;stroke-width:1.5;" width="342.5811" x="20" y="193.8594"/><rect fill="none" height="462.7969" style="stroke:#000000;stroke-width:1.5;" width="963.3447" x="10" y="428.9219"/><rect fill="none" height="133.6641" style="stroke:#000000;stroke-width:1.5;" width="943.3447" x="20" y="540.4531"/><rect fill="none" height="125.3359" style="stroke:#000000;stroke-width:1.5;" width="464.9063" x="352.5811" y="717.25"/><g class="participant-lifeline" data-entity-uid="part1" data-qualified-name="EndUser" data-source-line="3" id="part1-lifeline"><g><title>EndUser</title><rect fill="#000000" fill-opacity="0.00000" height="848.3906" width="8" x="58.2578" y="118.5938"/><line style="stroke:#181818;stroke-width:0.5;stroke-dasharray:5,5;" x1="62" x2="62" y1="118.5938" y2="966.9844"/></g></g><g class="participant-lifeline" data-entity-uid="part2" data-qualified-name="GameApp" data-source-line="4" id="part2-lifeline"><g><title>GameApp</title><rect fill="#000000" fill-opacity="0.00000" height="848.3906" width="8" x="161.9717" y="118.5938"/><line style="stroke:#181818;stroke-width:0.5;stroke-dasharray:5,5;" x1="165.457" x2="165.457" y1="118.5938" y2="966.9844"/></g></g><g class="participant-lifeline" data-entity-uid="part3" data-qualified-name="MenuController" data-source-line="5" id="part3-lifeline"><g><title>MenuController</title><rect fill="#000000" fill-opacity="0.00000" height="848.3906" width="8" x="287.7754" y="118.5938"/><line style="stroke:#181818;stroke-width:0.5;stroke-dasharray:5,5;" x1="290.9697" x2="290.9697" y1="118.5938" y2="966.9844"/></g></g><g class="participant-lifeline" data-entity-uid="part4" data-qualified-name="GameSession" data-source-line="6" id="part4-lifeline"><g><title>GameSession</title><rect fill="#000000" fill-opacity="0.00000" height="848.3906" width="8" x="413.1284" y="118.5938"/><line style="stroke:#181818;stroke-width:0.5;stroke-dasharray:5,5;" x1="416.5811" x2="416.5811" y1="118.5938" y2="966.9844"/></g></g><g class="participant-lifeline" data-entity-uid="part5" data-qualified-name="QuestionBank" data-source-line="7" id="part5-lifeline"><g><title>QuestionBank</title><rect fill="#000000" fill-opacity="0.00000" height="848.3906" width="8" x="591.793" y="118.5938"/><line style="stroke:#181818;stroke-width:0.5;stroke-dasharray:5,5;" x1="594.9023" x2="594.9023" y1="118.5938" y2="966.9844"/></g></g><g class="participant-lifeline" data-entity-uid="part6" data-qualified-name="FeedbackAnimator" data-source-line="8" id="part6-lifeline"><g><title>FeedbackAnimator</title><rect fill="#000000" fill-opacity="0.00000" height="848.3906" width="8" x="730.5854" y="118.5938"/><line style="stroke:#181818;stroke-width:0.5;stroke-dasharray:5,5;" x1="733.6836" x2="733.6836" y1="118.5938" y2="966.9844"/></g></g><g class="participant-lifeline" data-entity-uid="part7" data-qualified-name="SidekickAssistant" data-source-line="9" id="part7-lifeline"><g><title>SidekickAssistant</title><rect fill="#000000" fill-opacity="0.00000" height="848.3906" width="8" x="881.416" y="118.5938"/><line style="stroke:#181818;stroke-width:0.5;stroke-dasharray:5,5;" x1="884.4873" x2="884.4873" y1="118.5938" y2="966.9844"/></g></g><g class="participant participant-head" data-entity-uid="part1" data-qualified-name="EndUser" data-source-line="3" id="part1-head"><text fill="#000000" font-family="sans-serif" font-size="14" lengthAdjust="spacing" textLength="58.5156" x="30" y="115.292">EndUser</text><ellipse cx="62.2578" cy="50.7969" fill="#E2E2F0" rx="8" ry="8" style="stroke:#181818;stroke-width:0.5;"/><path d="M62.2578,58.7969 L62.2578,85.7969 M49.2578,66.7969 L75.2578,66.7969 M62.2578,85.7969 L49.2578,100.7969 M62.2578,85.7969 L75.2578,100.7969" fill="none" style="stroke:#181818;stroke-width:0.5;"/></g><g class="participant participant-tail" data-entity-uid="part1" data-qualified-name="EndUser" data-source-line="3" id="part1-tail"><text fill="#000000" font-family="sans-serif" font-size="14" lengthAdjust="spacing" textLength="58.5156" x="30" y="978.9795">EndUser</text><ellipse cx="62.2578" cy="990.7813" fill="#E2E2F0" rx="8" ry="8" style="stroke:#181818;stroke-width:0.5;"/><path d="M62.2578,998.7813 L62.2578,1025.7813 M49.2578,1006.7813 L75.2578,1006.7813 M62.2578,1025.7813 L49.2578,1040.7813 M62.2578,1025.7813 L75.2578,1040.7813" fill="none" style="stroke:#181818;stroke-width:0.5;"/></g><g class="participant participant-head" data-entity-uid="part2" data-qualified-name="GameApp" data-source-line="4" id="part2-head"><rect fill="#E2E2F0" height="30.2969" rx="2.5" ry="2.5" style="stroke:#181818;stroke-width:0.5;" width="83.0293" x="124.457" y="87.2969"/><text fill="#000000" font-family="sans-serif" font-size="14" lengthAdjust="spacing" textLength="69.0293" x="131.457" y="107.292">GameApp</text></g><g class="participant participant-tail" data-entity-uid="part2" data-qualified-name="GameApp" data-source-line="4" id="part2-tail"><rect fill="#E2E2F0" height="30.2969" rx="2.5" ry="2.5" style="stroke:#181818;stroke-width:0.5;" width="83.0293" x="124.457" y="965.9844"/><text fill="#000000" font-family="sans-serif" font-size="14" lengthAdjust="spacing" textLength="69.0293" x="131.457" y="985.9795">GameApp</text></g><g class="participant participant-head" data-entity-uid="part3" data-qualified-name="MenuController" data-source-line="5" id="part3-head"><rect fill="#E2E2F0" height="30.2969" rx="2.5" ry="2.5" style="stroke:#181818;stroke-width:0.5;" width="121.6113" x="230.9697" y="87.2969"/><text fill="#000000" font-family="sans-serif" font-size="14" lengthAdjust="spacing" textLength="107.6113" x="237.9697" y="107.292">MenuController</text></g><g class="participant participant-tail" data-entity-uid="part3" data-qualified-name="MenuController" data-source-line="5" id="part3-tail"><rect fill="#E2E2F0" height="30.2969" rx="2.5" ry="2.5" style="stroke:#181818;stroke-width:0.5;" width="121.6113" x="230.9697" y="965.9844"/><text fill="#000000" font-family="sans-serif" font-size="14" lengthAdjust="spacing" textLength="107.6113" x="237.9697" y="985.9795">MenuController</text></g><g class="participant participant-head" data-entity-uid="part4" data-qualified-name="GameSession" data-source-line="6" id="part4-head"><rect fill="#E2E2F0" height="30.2969" rx="2.5" ry="2.5" style="stroke:#181818;stroke-width:0.5;" width="109.0947" x="362.5811" y="87.2969"/><text fill="#000000" font-family="sans-serif" font-size="14" lengthAdjust="spacing" textLength="95.0947" x="369.5811" y="107.292">GameSession</text></g><g class="participant participant-tail" data-entity-uid="part4" data-qualified-name="GameSession" data-source-line="6" id="part4-tail"><rect fill="#E2E2F0" height="30.2969" rx="2.5" ry="2.5" style="stroke:#181818;stroke-width:0.5;" width="109.0947" x="362.5811" y="965.9844"/><text fill="#000000" font-family="sans-serif" font-size="14" lengthAdjust="spacing" textLength="95.0947" x="369.5811" y="985.9795">GameSession</text></g><g class="participant participant-head" data-entity-uid="part5" data-qualified-name="QuestionBank" data-source-line="7" id="part5-head"><rect fill="#E2E2F0" height="30.2969" rx="2.5" ry="2.5" style="stroke:#181818;stroke-width:0.5;" width="111.7813" x="539.9023" y="87.2969"/><text fill="#000000" font-family="sans-serif" font-size="14" lengthAdjust="spacing" textLength="97.7813" x="546.9023" y="107.292">QuestionBank</text></g><g class="participant participant-tail" data-entity-uid="part5" data-qualified-name="QuestionBank" data-source-line="7" id="part5-tail"><rect fill="#E2E2F0" height="30.2969" rx="2.5" ry="2.5" style="stroke:#181818;stroke-width:0.5;" width="111.7813" x="539.9023" y="965.9844"/><text fill="#000000" font-family="sans-serif" font-size="14" lengthAdjust="spacing" textLength="97.7813" x="546.9023" y="985.9795">QuestionBank</text></g><g class="participant participant-head" data-entity-uid="part6" data-qualified-name="FeedbackAnimator" data-source-line="8" id="part6-head"><rect fill="#E2E2F0" height="30.2969" rx="2.5" ry="2.5" style="stroke:#181818;stroke-width:0.5;" width="145.8037" x="661.6836" y="87.2969"/><text fill="#000000" font-family="sans-serif" font-size="14" lengthAdjust="spacing" textLength="131.8037" x="668.6836" y="107.292">FeedbackAnimator</text></g><g class="participant participant-tail" data-entity-uid="part6" data-qualified-name="FeedbackAnimator" data-source-line="8" id="part6-tail"><rect fill="#E2E2F0" height="30.2969" rx="2.5" ry="2.5" style="stroke:#181818;stroke-width:0.5;" width="145.8037" x="661.6836" y="965.9844"/><text fill="#000000" font-family="sans-serif" font-size="14" lengthAdjust="spacing" textLength="131.8037" x="668.6836" y="985.9795">FeedbackAnimator</text></g><g class="participant participant-head" data-entity-uid="part7" data-qualified-name="SidekickAssistant" data-source-line="9" id="part7-head"><rect fill="#E2E2F0" height="30.2969" rx="2.5" ry="2.5" style="stroke:#181818;stroke-width:0.5;" width="135.8574" x="817.4873" y="87.2969"/><text fill="#000000" font-family="sans-serif" font-size="14" lengthAdjust="spacing" textLength="121.8574" x="824.4873" y="107.292">SidekickAssistant</text></g><g class="participant participant-tail" data-entity-uid="part7" data-qualified-name="SidekickAssistant" data-source-line="9" id="part7-tail"><rect fill="#E2E2F0" height="30.2969" rx="2.5" ry="2.5" style="stroke:#181818;stroke-width:0.5;" width="135.8574" x="817.4873" y="965.9844"/><text fill="#000000" font-family="sans-serif" font-size="14" lengthAdjust="spacing" textLength="121.8574" x="824.4873" y="985.9795">SidekickAssistant</text></g><g class="message" data-entity-1="part1" data-entity-2="part2" data-source-line="11" id="msg1"><polygon fill="#181818" points="153.9717,145.7266,163.9717,149.7266,153.9717,153.7266,157.9717,149.7266" style="stroke:#181818;stroke-width:1;"/><line style="stroke:#181818;stroke-width:1;" x1="62.2578" x2="159.9717" y1="149.7266" y2="149.7266"/><text fill="#000000" font-family="sans-serif" font-size="13" lengthAdjust="spacing" textLength="79.7139" x="69.2578" y="144.6606">OpenProject</text></g><g class="message" data-entity-1="part2" data-entity-2="part3" data-source-line="12" id="msg2"><polygon fill="#181818" points="279.7754,174.8594,289.7754,178.8594,279.7754,182.8594,283.7754,178.8594" style="stroke:#181818;stroke-width:1;"/><line style="stroke:#181818;stroke-width:1;" x1="165.9717" x2="285.7754" y1="178.8594" y2="178.8594"/><text fill="#000000" font-family="sans-serif" font-size="13" lengthAdjust="spacing" textLength="57.5796" x="172.9717" y="173.7935">PlayIntro</text></g><path d="M20,193.8594 L84.4429,193.8594 L84.4429,200.9922 L74.4429,210.9922 L20,210.9922 L20,193.8594" fill="#EEEEEE" style="stroke:#000000;stroke-width:1.5;"/><rect fill="none" height="46.2656" style="stroke:#000000;stroke-width:1.5;" width="342.5811" x="20" y="193.8594"/><text fill="#000000" font-family="sans-serif" font-size="13" font-weight="700" lengthAdjust="spacing" textLength="19.4429" x="35" y="206.9263">alt</text><text fill="#000000" font-family="sans-serif" font-size="11" font-weight="700" lengthAdjust="spacing" textLength="67.1011" x="99.4429" y="206.0698">[SkipIntro]</text><g class="message" data-entity-1="part1" data-entity-2="part3" data-source-line="14" id="msg3"><polygon fill="#181818" points="279.7754,228.125,289.7754,232.125,279.7754,236.125,283.7754,232.125" style="stroke:#181818;stroke-width:1;"/><line style="stroke:#181818;stroke-width:1;" x1="62.2578" x2="285.7754" y1="232.125" y2="232.125"/><text fill="#000000" font-family="sans-serif" font-size="13" lengthAdjust="spacing" textLength="58.1128" x="69.2578" y="227.0591">SkipIntro</text></g><g class="message" data-entity-1="part3" data-entity-2="part2" data-source-line="16" id="msg4"><polygon fill="#181818" points="176.9717,264.2578,166.9717,268.2578,176.9717,272.2578,172.9717,268.2578" style="stroke:#181818;stroke-width:1;"/><line style="stroke:#181818;stroke-width:1;" x1="170.9717" x2="290.7754" y1="268.2578" y2="268.2578"/><text fill="#000000" font-family="sans-serif" font-size="13" lengthAdjust="spacing" textLength="101.8037" x="182.9717" y="263.1919">ShowMainMenu</text></g><g class="message" data-entity-1="part1" data-entity-2="part3" data-source-line="18" id="msg5"><polygon fill="#181818" points="279.7754,293.3906,289.7754,297.3906,279.7754,301.3906,283.7754,297.3906" style="stroke:#181818;stroke-width:1;"/><line style="stroke:#181818;stroke-width:1;" x1="62.2578" x2="285.7754" y1="297.3906" y2="297.3906"/><text fill="#000000" font-family="sans-serif" font-size="13" lengthAdjust="spacing" textLength="70.459" x="69.2578" y="292.3247">StartGame</text></g><g class="message" data-entity-1="part3" data-entity-2="part2" data-source-line="19" id="msg6"><polygon fill="#181818" points="176.9717,322.5234,166.9717,326.5234,176.9717,330.5234,172.9717,326.5234" style="stroke:#181818;stroke-width:1;"/><line style="stroke:#181818;stroke-width:1;" x1="170.9717" x2="290.7754" y1="326.5234" y2="326.5234"/><text fill="#000000" font-family="sans-serif" font-size="13" lengthAdjust="spacing" textLength="70.459" x="182.9717" y="321.4575">StartGame</text></g><g class="message" data-entity-1="part2" data-entity-2="part5" data-source-line="20" id="msg7"><polygon fill="#181818" points="583.793,351.6563,593.793,355.6563,583.793,359.6563,587.793,355.6563" style="stroke:#181818;stroke-width:1;"/><line style="stroke:#181818;stroke-width:1;" x1="165.9717" x2="589.793" y1="355.6563" y2="355.6563"/><text fill="#000000" font-family="sans-serif" font-size="13" lengthAdjust="spacing" textLength="92.606" x="172.9717" y="350.5903">reloadIfStale()</text></g><g class="message" data-entity-1="part5" data-entity-2="part2" data-source-line="21" id="msg8"><polygon fill="#181818" points="176.9717,380.7891,166.9717,384.7891,176.9717,388.7891,172.9717,384.7891" style="stroke:#181818;stroke-width:1;"/><line style="stroke:#181818;stroke-width:1;stroke-dasharray:2,2;" x1="170.9717" x2="594.793" y1="384.7891" y2="384.7891"/><text fill="#000000" font-family="sans-serif" font-size="13" lengthAdjust="spacing" textLength="199.2148" x="182.9717" y="379.7231">questionsReady(version, etag)</text></g><g class="message" data-entity-1="part2" data-entity-2="part4" data-source-line="23" id="msg9"><polygon fill="#181818" points="405.1284,409.9219,415.1284,413.9219,405.1284,417.9219,409.1284,413.9219" style="stroke:#181818;stroke-width:1;"/><line style="stroke:#181818;stroke-width:1;" x1="165.9717" x2="411.1284" y1="413.9219" y2="413.9219"/><text fill="#000000" font-family="sans-serif" font-size="13" lengthAdjust="spacing" textLength="40.4219" x="172.9717" y="408.856">start()</text></g><path d="M10,428.9219 L86.624,428.9219 L86.624,436.0547 L76.624,446.0547 L10,446.0547 L10,428.9219" fill="#EEEEEE" style="stroke:#000000;stroke-width:1.5;"/><rect fill="none" height="462.7969" style="stroke:#000000;stroke-width:1.5;" width="963.3447" x="10" y="428.9219"/><text fill="#000000" font-family="sans-serif" font-size="13" font-weight="700" lengthAdjust="spacing" textLength="31.624" x="25" y="441.9888">loop</text><text fill="#000000" font-family="sans-serif" font-size="11" font-weight="700" lengthAdjust="spacing" textLength="121.5747" x="101.624" y="441.1323">[For each question]</text><g class="message" data-entity-1="part4" data-entity-2="part5" data-source-line="25" id="msg10"><polygon fill="#181818" points="583.793,463.1875,593.793,467.1875,583.793,471.1875,587.793,467.1875" style="stroke:#181818;stroke-width:1;"/><line style="stroke:#181818;stroke-width:1;" x1="417.1284" x2="589.793" y1="467.1875" y2="467.1875"/><text fill="#000000" font-family="sans-serif" font-size="13" lengthAdjust="spacing" textLength="101.499" x="424.1284" y="462.1216">getQuestion(id)</text></g><g class="message" data-entity-1="part5" data-entity-2="part4" data-source-line="26" id="msg11"><polygon fill="#181818" points="428.1284,492.3203,418.1284,496.3203,428.1284,500.3203,424.1284,496.3203" style="stroke:#181818;stroke-width:1;"/><line style="stroke:#181818;stroke-width:1;stroke-dasharray:2,2;" x1="422.1284" x2="594.793" y1="496.3203" y2="496.3203"/><text fill="#000000" font-family="sans-serif" font-size="13" lengthAdjust="spacing" textLength="58.1445" x="434.1284" y="491.2544">Question</text></g><g class="message" data-entity-1="part4" data-entity-2="part6" data-source-line="27" id="msg12"><polygon fill="#181818" points="722.5854,521.4531,732.5854,525.4531,722.5854,529.4531,726.5854,525.4531" style="stroke:#181818;stroke-width:1;"/><line style="stroke:#181818;stroke-width:1;" x1="417.1284" x2="728.5854" y1="525.4531" y2="525.4531"/><text fill="#000000" font-family="sans-serif" font-size="13" lengthAdjust="spacing" textLength="208.0444" x="424.1284" y="520.3872">showMessage(prompt+choices)</text></g><path d="M20,540.4531 L89.4512,540.4531 L89.4512,547.5859 L79.4512,557.5859 L20,557.5859 L20,540.4531" fill="#EEEEEE" style="stroke:#000000;stroke-width:1.5;"/><rect fill="none" height="133.6641" style="stroke:#000000;stroke-width:1.5;" width="943.3447" x="20" y="540.4531"/><text fill="#000000" font-family="sans-serif" font-size="13" font-weight="700" lengthAdjust="spacing" textLength="24.4512" x="35" y="553.52">opt</text><text fill="#000000" font-family="sans-serif" font-size="11" font-weight="700" lengthAdjust="spacing" textLength="57.8682" x="104.4512" y="552.6636">[GetHint]</text><g class="message" data-entity-1="part1" data-entity-2="part4" data-source-line="30" id="msg13"><polygon fill="#181818" points="405.1284,574.7188,415.1284,578.7188,405.1284,582.7188,409.1284,578.7188" style="stroke:#181818;stroke-width:1;"/><line style="stroke:#181818;stroke-width:1;" x1="62.2578" x2="411.1284" y1="578.7188" y2="578.7188"/><text fill="#000000" font-family="sans-serif" font-size="13" lengthAdjust="spacing" textLength="86.5693" x="69.2578" y="573.6528">requestHint()</text></g><g class="message" data-entity-1="part4" data-entity-2="part7" data-source-line="31" id="msg14"><polygon fill="#181818" points="873.416,603.8516,883.416,607.8516,873.416,611.8516,877.416,607.8516" style="stroke:#181818;stroke-width:1;"/><line style="stroke:#181818;stroke-width:1;" x1="417.1284" x2="879.416" y1="607.8516" y2="607.8516"/><text fill="#000000" font-family="sans-serif" font-size="13" lengthAdjust="spacing" textLength="162.2588" x="424.1284" y="602.7856">getAnswerHint(question)</text></g><g class="message" data-entity-1="part7" data-entity-2="part4" data-source-line="32" id="msg15"><polygon fill="#181818" points="428.1284,632.9844,418.1284,636.9844,428.1284,640.9844,424.1284,636.9844" style="stroke:#181818;stroke-width:1;"/><line style="stroke:#181818;stroke-width:1;stroke-dasharray:2,2;" x1="422.1284" x2="884.416" y1="636.9844" y2="636.9844"/><text fill="#000000" font-family="sans-serif" font-size="13" lengthAdjust="spacing" textLength="53.917" x="434.1284" y="631.9185">hintText</text></g><g class="message" data-entity-1="part4" data-entity-2="part6" data-source-line="33" id="msg16"><polygon fill="#181818" points="722.5854,662.1172,732.5854,666.1172,722.5854,670.1172,726.5854,666.1172" style="stroke:#181818;stroke-width:1;"/><line style="stroke:#181818;stroke-width:1;" x1="417.1284" x2="728.5854" y1="666.1172" y2="666.1172"/><text fill="#000000" font-family="sans-serif" font-size="13" lengthAdjust="spacing" textLength="154.6353" x="424.1284" y="661.0513">showMessage(hintText)</text></g><g class="message" data-entity-1="part1" data-entity-2="part4" data-source-line="36" id="msg17"><polygon fill="#181818" points="405.1284,698.25,415.1284,702.25,405.1284,706.25,409.1284,702.25" style="stroke:#181818;stroke-width:1;"/><line style="stroke:#181818;stroke-width:1;" x1="62.2578" x2="411.1284" y1="702.25" y2="702.25"/><text fill="#000000" font-family="sans-serif" font-size="13" lengthAdjust="spacing" textLength="180.7749" x="69.2578" y="697.1841">submitAnswer(choiceIndex)</text></g><path d="M352.5811,717.25 L417.0239,717.25 L417.0239,724.3828 L407.0239,734.3828 L352.5811,734.3828 L352.5811,717.25" fill="#EEEEEE" style="stroke:#000000;stroke-width:1.5;"/><rect fill="none" height="125.3359" style="stroke:#000000;stroke-width:1.5;" width="464.9063" x="352.5811" y="717.25"/><text fill="#000000" font-family="sans-serif" font-size="13" font-weight="700" lengthAdjust="spacing" textLength="19.4429" x="367.5811" y="730.3169">alt</text><text fill="#000000" font-family="sans-serif" font-size="11" font-weight="700" lengthAdjust="spacing" textLength="55.7734" x="432.0239" y="729.4604">[Correct]</text><g class="message" data-entity-1="part4" data-entity-2="part6" data-source-line="38" id="msg18"><polygon fill="#181818" points="722.5854,751.5156,732.5854,755.5156,722.5854,759.5156,726.5854,755.5156" style="stroke:#181818;stroke-width:1;"/><line style="stroke:#181818;stroke-width:1;" x1="417.1284" x2="728.5854" y1="755.5156" y2="755.5156"/><text fill="#000000" font-family="sans-serif" font-size="13" lengthAdjust="spacing" textLength="85.6299" x="424.1284" y="750.4497">playCorrect()</text></g><line style="stroke:#000000;stroke-width:1;stroke-dasharray:2,2;" x1="352.5811" x2="817.4873" y1="764.5156" y2="764.5156"/><text fill="#000000" font-family="sans-serif" font-size="11" font-weight="700" lengthAdjust="spacing" textLength="66.145" x="357.5811" y="774.7261">[Incorrect]</text><g class="message" data-entity-1="part4" data-entity-2="part6" data-source-line="40" id="msg19"><polygon fill="#181818" points="722.5854,795.4531,732.5854,799.4531,722.5854,803.4531,726.5854,799.4531" style="stroke:#181818;stroke-width:1;"/><line style="stroke:#181818;stroke-width:1;" x1="417.1284" x2="728.5854" y1="799.4531" y2="799.4531"/><text fill="#000000" font-family="sans-serif" font-size="13" lengthAdjust="spacing" textLength="95.7734" x="424.1284" y="794.3872">playIncorrect()</text></g><path d="M422,812.4531 L422,837.4531 L597,837.4531 L597,822.4531 L587,812.4531 L422,812.4531" fill="#FEFFDD" style="stroke:#181818;stroke-width:0.5;"/><path d="M587,812.4531 L587,822.4531 L597,822.4531 L587,812.4531" fill="#FEFFDD" style="stroke:#181818;stroke-width:0.5;"/><text fill="#000000" font-family="sans-serif" font-size="13" lengthAdjust="spacing" textLength="154.521" x="428" y="829.52">FR-005: retry, no points</text><g class="message" data-entity-1="part4" data-entity-2="part4" data-source-line="45" id="msg20"><line style="stroke:#181818;stroke-width:1;" x1="417.1284" x2="459.1284" y1="870.7188" y2="870.7188"/><line style="stroke:#181818;stroke-width:1;" x1="459.1284" x2="459.1284" y1="870.7188" y2="883.7188"/><line style="stroke:#181818;stroke-width:1;" x1="418.1284" x2="459.1284" y1="883.7188" y2="883.7188"/><polygon fill="#181818" points="428.1284,879.7188,418.1284,883.7188,428.1284,887.7188,424.1284,883.7188" style="stroke:#181818;stroke-width:1;"/><text fill="#000000" font-family="sans-serif" font-size="13" lengthAdjust="spacing" textLength="164.6646" x="424.1284" y="865.6528">advance(nextQuestionId)</text></g><g class="message" data-entity-1="part4" data-entity-2="part6" data-source-line="48" id="msg21"><polygon fill="#181818" points="722.5854,915.8516,732.5854,919.8516,722.5854,923.8516,726.5854,919.8516" style="stroke:#181818;stroke-width:1;"/><line style="stroke:#181818;stroke-width:1;" x1="417.1284" x2="728.5854" y1="919.8516" y2="919.8516"/><text fill="#000000" font-family="sans-serif" font-size="13" lengthAdjust="spacing" textLength="184.5264" x="424.1284" y="914.7856">showMessage(results+rank)</text></g><g class="message" data-entity-1="part1" data-entity-2="part3" data-source-line="49" id="msg22"><polygon fill="#181818" points="279.7754,944.9844,289.7754,948.9844,279.7754,952.9844,283.7754,948.9844" style="stroke:#181818;stroke-width:1;"/><line style="stroke:#181818;stroke-width:1;" x1="62.2578" x2="285.7754" y1="948.9844" y2="948.9844"/><text fill="#000000" font-family="sans-serif" font-size="13" lengthAdjust="spacing" textLength="69.1704" x="69.2578" y="943.9185">ReplayExit</text></g><?plantuml-src bLJ1Sjem4BthAtPoCaEOIG-zvD0PcWafXqmJQ3z0o1kisaYgj0Ju-ww4JIoSqiOdUVNUxhwdbKXJWx3yT0ltflmPq8Dhv270xoq6qjP0G5uQXR3JLC7AIwCgRTOmXg2ivvKGKf7r7LyuwKahxQGXk7gG6vmwTmKoGBlE0OzejdVMaBTDWpxXyj0mtn93uCvEETl_7FZSzlzLcZeX-u4SEaCiLrBLKwCtafKa-7amfonrYRNcNQuSY4E9CuWAqPaw-TB9Xrluxj0yUViB5Oakoe1SD-EU-2JcyL_8Xc1PQtVy0-Yb7R3US6XASRQTzR6ixEvHQXCnMQl3dCJg8_5olXEgfwhlEsCyDbQMynV6DbYCHBOzoT9r8nWMACj3yOe-7lCr8CdrIFHhzAQ0UI6smQaRQntCU39HgkgKZTthmuSThf6wIA7B4UFVxV6jtlDVCvyFKMmkUiu8kSR2URjnD5QLrGe3ImAmZk01wPlcuG783ZelwZ49Yi1YbA1djGV3U9GsDM67Fj4wHuxq8Nweb2y-_S0zlLVl7rexQYmMvr9Sq1QsgurkEosExinDYVl8ZJVXpdeVxyx_TH7VivQHdC8c8CoD-d2I4wSrt5X2y7fT4TYNx2M2zCqMavkRp_6eo1-k6GxEiWiXRRC7AK5hnw27t15PllAxYuLX1xjnc_Di9YS_TX0UmxQXCEQ7l1vTlFGBZAhlzvh-0000?></g></svg>