<svg xmlns="http://www.w3.org/2000/svg" xmlns:xlink="http://www.w3.org/1999/xlink" contentStyleType="text/css" data-diagram-type="DESCRIPTION" height="757px" preserveAspectRatio="none" style="width:1583px;height:757px;background:#FFFFFF;" version="1.1" viewBox="0 0 1583 757" width="1583px" zoomAndPan="magnify"><defs/><g><!--cluster BC--><g class="cluster" data-entity="BC" data-source-line="1" data-uid="ent0002" id="cluster_BC"><rect fill="none" height="113.3" rx="2.5" ry="2.5" style="stroke:#181818;stroke-width:1;" width="533" x="326" y="185.29"/><polygon fill="none" points="842,190.29,842,204.29,854,204.29,854,196.29,848,190.29,842,190.29" style="stroke:#181818;stroke-width:1;"/><line style="stroke:#181818;stroke-width:1;" x1="848" x2="848" y1="190.29" y2="196.29"/><line style="stroke:#181818;stroke-width:1;" x1="854" x2="848" y1="196.29" y2="196.29"/><text fill="#000000" font-family="sans-serif" font-size="14" font-weight="bold" lengthAdjust="spacing" textLength="115.7598" x="534.6201" y="200.2851">Browser Client</text></g><!--cluster WS--><g class="cluster" data-entity="WS" data-source-line="7" data-uid="ent0006" id="cluster_WS"><rect fill="none" height="113.3" rx="2.5" ry="2.5" style="stroke:#181818;stroke-width:1;" width="566" x="905" y="363.59"/><polygon fill="none" points="1454,368.59,1454,382.59,1466,382.59,1466,374.59,1460,368.59,1454,368.59" style="stroke:#181818;stroke-width:1;"/><line style="stroke:#181818;stroke-width:1;" x1="1460" x2="1460" y1="368.59" y2="374.59"/><line style="stroke:#181818;stroke-width:1;" x1="1466" x2="1460" y1="374.59" y2="374.59"/><text fill="#000000" font-family="sans-serif" font-size="14" font-weight="bold" lengthAdjust="spacing" textLength="91.8408" x="1142.0796" y="378.5851">Web Server</text></g><!--cluster DB--><g class="cluster" data-entity="DB" data-source-line="13" data-uid="ent0010" id="cluster_DB"><rect fill="none" height="113.29" rx="2.5" ry="2.5" style="stroke:#181818;stroke-width:1;" width="451" x="7" y="541.89"/><polygon fill="none" points="441,546.89,441,560.89,453,560.89,453,552.89,447,546.89,441,546.89" style="stroke:#181818;stroke-width:1;"/><line style="stroke:#181818;stroke-width:1;" x1="447" x2="447" y1="546.89" y2="552.89"/><line style="stroke:#181818;stroke-width:1;" x1="453" x2="447" y1="552.89" y2="552.89"/><text fill="#000000" font-family="sans-serif" font-size="14" font-weight="bold" lengthAdjust="spacing" textLength="175.4102" x="144.7949" y="556.8851">Database/File Storage</text></g><!--cluster ER--><g class="cluster" data-entity="ER" data-source-line="18" data-uid="ent0013" id="cluster_ER"><rect fill="none" height="113.29" rx="2.5" ry="2.5" style="stroke:#181818;stroke-width:1;" width="384" x="498" y="541.89"/><polygon fill="none" points="865,546.89,865,560.89,877,560.89,877,552.89,871,546.89,865,546.89" style="stroke:#181818;stroke-width:1;"/><line style="stroke:#181818;stroke-width:1;" x1="871" x2="871" y1="546.89" y2="552.89"/><line style="stroke:#181818;stroke-width:1;" x1="877" x2="871" y1="552.89" y2="552.89"/><text fill="#000000" font-family="sans-serif" font-size="14" font-weight="bold" lengthAdjust="spacing" textLength="151.9971" x="614.0015" y="556.8851">External Resources</text></g><!--cluster TF--><g class="cluster" data-entity="TF" data-source-line="23" data-uid="ent0016" id="cluster_TF"><rect fill="none" height="113.29" rx="2.5" ry="2.5" style="stroke:#181818;stroke-width:1;" width="468" x="453" y="7"/><polygon fill="none" points="904,12,904,26,916,26,916,18,910,12,904,12" style="stroke:#181818;stroke-width:1;"/><line style="stroke:#181818;stroke-width:1;" x1="910" x2="910" y1="12" y2="18"/><line style="stroke:#181818;stroke-width:1;" x1="916" x2="910" y1="18" y2="18"/><text fill="#000000" font-family="sans-serif" font-size="14" font-weight="bold" lengthAdjust="spacing" textLength="152.4961" x="610.752" y="21.9951">Testing Framework</text></g><!--entity UI Controller--><g class="entity" data-entity="UI Controller" data-source-line="2" data-uid="ent0003" id="entity_UI Controller"><rect fill="#F1F1F1" height="46.2969" rx="2.5" ry="2.5" style="stroke:#181818;stroke-width:0.5;" width="127.999" x="350" y="228.29"/><rect fill="#F1F1F1" height="10" style="stroke:#181818;stroke-width:0.5;" width="15" x="457.999" y="233.29"/><rect fill="#F1F1F1" height="2" style="stroke:#181818;stroke-width:0.5;" width="4" x="455.999" y="235.29"/><rect fill="#F1F1F1" height="2" style="stroke:#181818;stroke-width:0.5;" width="4" x="455.999" y="239.29"/><text fill="#000000" font-family="sans-serif" font-size="14" lengthAdjust="spacing" textLength="87.999" x="365" y="261.2851">UI Controller</text></g><!--entity Flash Player--><g class="entity" data-entity="Flash Player" data-source-line="3" data-uid="ent0004" id="entity_Flash Player"><rect fill="#F1F1F1" height="46.2969" rx="2.5" ry="2.5" style="stroke:#181818;stroke-width:0.5;" width="124.7041" x="512.65" y="228.29"/><rect fill="#F1F1F1" height="10" style="stroke:#181818;stroke-width:0.5;" width="15" x="617.3541" y="233.29"/><rect fill="#F1F1F1" height="2" style="stroke:#181818;stroke-width:0.5;" width="4" x="615.3541" y="235.29"/><rect fill="#F1F1F1" height="2" style="stroke:#181818;stroke-width:0.5;" width="4" x="615.3541" y="239.29"/><text fill="#000000" font-family="sans-serif" font-size="14" lengthAdjust="spacing" textLength="84.7041" x="527.65" y="261.2851">Flash Player</text></g><!--entity Input Validator--><g class="entity" data-entity="Input Validator" data-source-line="4" data-uid="ent0005" id="entity_Input Validator"><rect fill="#F1F1F1" height="46.2969" rx="2.5" ry="2.5" style="stroke:#181818;stroke-width:0.5;" width="143.9131" x="672.04" y="228.29"/><rect fill="#F1F1F1" height="10" style="stroke:#181818;stroke-width:0.5;" width="15" x="795.9531" y="233.29"/><rect fill="#F1F1F1" height="2" style="stroke:#181818;stroke-width:0.5;" width="4" x="793.9531" y="235.29"/><rect fill="#F1F1F1" height="2" style="stroke:#181818;stroke-width:0.5;" width="4" x="793.9531" y="239.29"/><text fill="#000000" font-family="sans-serif" font-size="14" lengthAdjust="spacing" textLength="103.9131" x="687.04" y="261.2851">Input Validator</text></g><!--entity Content Delivery--><g class="entity" data-entity="Content Delivery" data-source-line="8" data-uid="ent0007" id="entity_Content Delivery"><rect fill="#F1F1F1" height="46.2969" rx="2.5" ry="2.5" style="stroke:#181818;stroke-width:0.5;" width="158.2412" x="947.88" y="406.59"/><rect fill="#F1F1F1" height="10" style="stroke:#181818;stroke-width:0.5;" width="15" x="1086.1212" y="411.59"/><rect fill="#F1F1F1" height="2" style="stroke:#181818;stroke-width:0.5;" width="4" x="1084.1212" y="413.59"/><rect fill="#F1F1F1" height="2" style="stroke:#181818;stroke-width:0.5;" width="4" x="1084.1212" y="417.59"/><text fill="#000000" font-family="sans-serif" font-size="14" lengthAdjust="spacing" textLength="118.2412" x="962.88" y="439.5851">Content Delivery</text></g><!--entity Admin API--><g class="entity" data-entity="Admin API" data-source-line="9" data-uid="ent0008" id="entity_Admin API"><rect fill="#F1F1F1" height="46.2969" rx="2.5" ry="2.5" style="stroke:#181818;stroke-width:0.5;" width="111.4629" x="1141.27" y="406.59"/><rect fill="#F1F1F1" height="10" style="stroke:#181818;stroke-width:0.5;" width="15" x="1232.7329" y="411.59"/><rect fill="#F1F1F1" height="2" style="stroke:#181818;stroke-width:0.5;" width="4" x="1230.7329" y="413.59"/><rect fill="#F1F1F1" height="2" style="stroke:#181818;stroke-width:0.5;" width="4" x="1230.7329" y="417.59"/><text fill="#000000" font-family="sans-serif" font-size="14" lengthAdjust="spacing" textLength="71.4629" x="1156.27" y="439.5851">Admin API</text></g><!--entity Session Manager--><g class="entity" data-entity="Session Manager" data-source-line="10" data-uid="ent0009" id="entity_Session Manager"><rect fill="#F1F1F1" height="46.2969" rx="2.5" ry="2.5" style="stroke:#181818;stroke-width:0.5;" width="159.2324" x="1287.38" y="406.59"/><rect fill="#F1F1F1" height="10" style="stroke:#181818;stroke-width:0.5;" width="15" x="1426.6124" y="411.59"/><rect fill="#F1F1F1" height="2" style="stroke:#181818;stroke-width:0.5;" width="4" x="1424.6124" y="413.59"/><rect fill="#F1F1F1" height="2" style="stroke:#181818;stroke-width:0.5;" width="4" x="1424.6124" y="417.59"/><text fill="#000000" font-family="sans-serif" font-size="14" lengthAdjust="spacing" textLength="119.2324" x="1302.38" y="439.5851">Session Manager</text></g><!--entity Questions Repository--><g class="entity" data-entity="Questions Repository" data-source-line="14" data-uid="ent0011" id="entity_Questions Repository"><rect fill="#F1F1F1" height="46.2969" rx="2.5" ry="2.5" style="stroke:#181818;stroke-width:0.5;" width="189.4336" x="31.28" y="584.89"/><rect fill="#F1F1F1" height="10" style="stroke:#181818;stroke-width:0.5;" width="15" x="200.7136" y="589.89"/><rect fill="#F1F1F1" height="2" style="stroke:#181818;stroke-width:0.5;" width="4" x="198.7136" y="591.89"/><rect fill="#F1F1F1" height="2" style="stroke:#181818;stroke-width:0.5;" width="4" x="198.7136" y="595.89"/><text fill="#000000" font-family="sans-serif" font-size="14" lengthAdjust="spacing" textLength="149.4336" x="46.28" y="617.8851">Questions Repository</text></g><!--entity Storyline Configs--><g class="entity" data-entity="Storyline Configs" data-source-line="15" data-uid="ent0012" id="entity_Storyline Configs"><rect fill="#F1F1F1" height="46.2969" rx="2.5" ry="2.5" style="stroke:#181818;stroke-width:0.5;" width="158.9111" x="255.54" y="584.89"/><rect fill="#F1F1F1" height="10" style="stroke:#181818;stroke-width:0.5;" width="15" x="394.4511" y="589.89"/><rect fill="#F1F1F1" height="2" style="stroke:#181818;stroke-width:0.5;" width="4" x="392.4511" y="591.89"/><rect fill="#F1F1F1" height="2" style="stroke:#181818;stroke-width:0.5;" width="4" x="392.4511" y="595.89"/><text fill="#000000" font-family="sans-serif" font-size="14" lengthAdjust="spacing" textLength="118.9111" x="270.54" y="617.8851">Storyline Configs</text></g><!--entity S2S Projects--><g class="entity" data-entity="S2S Projects" data-source-line="19" data-uid="ent0014" id="entity_S2S Projects"><rect fill="#F1F1F1" height="46.2969" rx="2.5" ry="2.5" style="stroke:#181818;stroke-width:0.5;" width="126.8779" x="521.56" y="584.89"/><rect fill="#F1F1F1" height="10" style="stroke:#181818;stroke-width:0.5;" width="15" x="628.4379" y="589.89"/><rect fill="#F1F1F1" height="2" style="stroke:#181818;stroke-width:0.5;" width="4" x="626.4379" y="591.89"/><rect fill="#F1F1F1" height="2" style="stroke:#181818;stroke-width:0.5;" width="4" x="626.4379" y="595.89"/><text fill="#000000" font-family="sans-serif" font-size="14" lengthAdjust="spacing" textLength="86.8779" x="536.56" y="617.8851">S2S Projects</text></g><!--entity Educational APIs--><g class="entity" data-entity="Educational APIs" data-source-line="20" data-uid="ent0015" id="entity_Educational APIs"><rect fill="#F1F1F1" height="46.2969" rx="2.5" ry="2.5" style="stroke:#181818;stroke-width:0.5;" width="156.0605" x="682.97" y="584.89"/><rect fill="#F1F1F1" height="10" style="stroke:#181818;stroke-width:0.5;" width="15" x="819.0305" y="589.89"/><rect fill="#F1F1F1" height="2" style="stroke:#181818;stroke-width:0.5;" width="4" x="817.0305" y="591.89"/><rect fill="#F1F1F1" height="2" style="stroke:#181818;stroke-width:0.5;" width="4" x="817.0305" y="595.89"/><text fill="#000000" font-family="sans-serif" font-size="14" lengthAdjust="spacing" textLength="116.0605" x="697.97" y="617.8851">Educational APIs</text></g><!--entity Load Balancer Sim--><g class="entity" data-entity="Load Balancer Sim" data-source-line="24" data-uid="ent0017" id="entity_Load Balancer Sim"><rect fill="#F1F1F1" height="46.2969" rx="2.5" ry="2.5" style="stroke:#181818;stroke-width:0.5;" width="170.7373" x="476.63" y="50"/><rect fill="#F1F1F1" height="10" style="stroke:#181818;stroke-width:0.5;" width="15" x="627.3673" y="55"/><rect fill="#F1F1F1" height="2" style="stroke:#181818;stroke-width:0.5;" width="4" x="625.3673" y="57"/><rect fill="#F1F1F1" height="2" style="stroke:#181818;stroke-width:0.5;" width="4" x="625.3673" y="61"/><text fill="#000000" font-family="sans-serif" font-size="14" lengthAdjust="spacing" textLength="130.7373" x="491.63" y="82.9951">Load Balancer Sim</text></g><!--entity Compatibility Checker--><g class="entity" data-entity="Compatibility Checker" data-source-line="25" data-uid="ent0018" id="entity_Compatibility Checker"><rect fill="#F1F1F1" height="46.2969" rx="2.5" ry="2.5" style="stroke:#181818;stroke-width:0.5;" width="195.0391" x="682.48" y="50"/><rect fill="#F1F1F1" height="10" style="stroke:#181818;stroke-width:0.5;" width="15" x="857.5191" y="55"/><rect fill="#F1F1F1" height="2" style="stroke:#181818;stroke-width:0.5;" width="4" x="855.5191" y="57"/><rect fill="#F1F1F1" height="2" style="stroke:#181818;stroke-width:0.5;" width="4" x="855.5191" y="61"/><text fill="#000000" font-family="sans-serif" font-size="14" lengthAdjust="spacing" textLength="155.0391" x="697.48" y="82.9951">Compatibility Checker</text></g><!--entity PE--><g class="entity" data-entity="PE" data-source-line="34" data-uid="ent0024" id="entity_PE"><ellipse cx="414" cy="429.74" fill="#F1F1F1" rx="8" ry="8" style="stroke:#181818;stroke-width:0.5;"/><text fill="#000000" font-family="sans-serif" font-size="14" lengthAdjust="spacing" textLength="103.8857" x="362.0571" y="459.7351">IPhysicsEngine</text></g><!--entity SE--><g class="entity" data-entity="SE" data-source-line="35" data-uid="ent0025" id="entity_SE"><ellipse cx="1094" cy="608.04" fill="#F1F1F1" rx="8" ry="8" style="stroke:#181818;stroke-width:0.5;"/><text fill="#000000" font-family="sans-serif" font-size="14" lengthAdjust="spacing" textLength="114.3584" x="1036.8208" y="638.0351">IStorylineEngine</text></g><!--entity AA--><g class="entity" data-entity="AA" data-source-line="36" data-uid="ent0026" id="entity_AA"><ellipse cx="1362" cy="608.04" fill="#F1F1F1" rx="8" ry="8" style="stroke:#181818;stroke-width:0.5;"/><text fill="#000000" font-family="sans-serif" font-size="14" lengthAdjust="spacing" textLength="71.1416" x="1326.4292" y="638.0351">IAdminAPI</text></g><!--entity Velocity Calculator--><g class="entity" data-entity="Velocity Calculator" data-source-line="42" data-uid="ent0030" id="entity_Velocity Calculator"><rect fill="#F1F1F1" height="46.2969" rx="2.5" ry="2.5" style="stroke:#181818;stroke-width:0.5;" width="171.5508" x="458.22" y="406.59"/><rect fill="#F1F1F1" height="10" style="stroke:#181818;stroke-width:0.5;" width="15" x="609.7708" y="411.59"/><rect fill="#F1F1F1" height="2" style="stroke:#181818;stroke-width:0.5;" width="4" x="607.7708" y="413.59"/><rect fill="#F1F1F1" height="2" style="stroke:#181818;stroke-width:0.5;" width="4" x="607.7708" y="417.59"/><text fill="#000000" font-family="sans-serif" font-size="14" lengthAdjust="spacing" textLength="131.5508" x="473.22" y="439.5851">Velocity Calculator</text></g><!--entity Narrative Generator--><g class="entity" data-entity="Narrative Generator" data-source-line="43" data-uid="ent0032" id="entity_Narrative Generator"><rect fill="#F1F1F1" height="46.2969" rx="2.5" ry="2.5" style="stroke:#181818;stroke-width:0.5;" width="180.9639" x="1137.52" y="584.89"/><rect fill="#F1F1F1" height="10" style="stroke:#181818;stroke-width:0.5;" width="15" x="1298.4839" y="589.89"/><rect fill="#F1F1F1" height="2" style="stroke:#181818;stroke-width:0.5;" width="4" x="1296.4839" y="591.89"/><rect fill="#F1F1F1" height="2" style="stroke:#181818;stroke-width:0.5;" width="4" x="1296.4839" y="595.89"/><text fill="#000000" font-family="sans-serif" font-size="14" lengthAdjust="spacing" textLength="140.9639" x="1152.52" y="617.8851">Narrative Generator</text></g><!--entity Web Form Handler--><g class="entity" data-entity="Web Form Handler" data-source-line="44" data-uid="ent0034" id="entity_Web Form Handler"><rect fill="#F1F1F1" height="46.2969" rx="2.5" ry="2.5" style="stroke:#181818;stroke-width:0.5;" width="171.3799" x="1406.31" y="584.89"/><rect fill="#F1F1F1" height="10" style="stroke:#181818;stroke-width:0.5;" width="15" x="1557.6899" y="589.89"/><rect fill="#F1F1F1" height="2" style="stroke:#181818;stroke-width:0.5;" width="4" x="1555.6899" y="591.89"/><rect fill="#F1F1F1" height="2" style="stroke:#181818;stroke-width:0.5;" width="4" x="1555.6899" y="595.89"/><text fill="#000000" font-family="sans-serif" font-size="14" lengthAdjust="spacing" textLength="131.3799" x="1421.31" y="617.8851">Web Form Handler</text></g><g class="entity" data-entity="GMN36" data-source-line="46" data-uid="ent0037" id="entity_GMN36"><path d="M664.35,409.61 L664.35,449.8756 L817.6542,449.8756 L817.6542,419.61 L807.6542,409.61 L664.35,409.61" fill="#FEFFDD" style="stroke:#181818;stroke-width:0.5;"/><path d="M807.6542,409.61 L807.6542,419.61 L817.6542,419.61 L807.6542,409.61" fill="#FEFFDD" style="stroke:#181818;stroke-width:1;"/><text fill="#000000" font-family="sans-serif" font-size="13" lengthAdjust="spacing" textLength="115.7305" x="670.35" y="426.6769">Handles real-time</text><text fill="#000000" font-family="sans-serif" font-size="13" lengthAdjust="spacing" textLength="132.3042" x="670.35" y="441.8097">velocity calculations</text></g><g class="entity" data-entity="GMN39" data-source-line="47" data-uid="ent0040" id="entity_GMN39"><path d="M909.81,587.9 L909.81,628.1656 A0,0 0 0 0 909.81,628.1656 L1050.1904,628.1656 A0,0 0 0 0 1050.1904,628.1656 L1050.1904,612.04 L1084.79,608.04 L1050.1904,604.04 L1050.1904,597.9 L1040.1904,587.9 L909.81,587.9 A0,0 0 0 0 909.81,587.9" fill="#FEFFDD" style="stroke:#181818;stroke-width:0.5;"/><path d="M1040.1904,587.9 L1040.1904,597.9 L1050.1904,597.9 L1040.1904,587.9" fill="#FEFFDD" style="stroke:#181818;stroke-width:0.5;"/><text fill="#000000" font-family="sans-serif" font-size="13" lengthAdjust="spacing" textLength="119.3804" x="915.81" y="604.9669">Manages adaptive</text><text fill="#000000" font-family="sans-serif" font-size="13" lengthAdjust="spacing" textLength="96.7827" x="915.81" y="620.0997">storyline paths</text></g><g class="entity" data-entity="GMN42" data-source-line="48" data-uid="ent0043" id="entity_GMN42"><path d="M1294.74,710.18 L1294.74,750.4456 A0,0 0 0 0 1294.74,750.4456 L1429.2678,750.4456 A0,0 0 0 0 1429.2678,750.4456 L1429.2678,720.18 L1419.2678,710.18 L1366,710.18 L1362,617.3 L1358,710.18 L1294.74,710.18 A0,0 0 0 0 1294.74,710.18" fill="#FEFFDD" style="stroke:#181818;stroke-width:0.5;"/><path d="M1419.2678,710.18 L1419.2678,720.18 L1429.2678,720.18 L1419.2678,710.18" fill="#FEFFDD" style="stroke:#181818;stroke-width:0.5;"/><text fill="#000000" font-family="sans-serif" font-size="13" lengthAdjust="spacing" textLength="113.5278" x="1300.74" y="727.2469">Secured question</text><text fill="#000000" font-family="sans-serif" font-size="13" lengthAdjust="spacing" textLength="107.9165" x="1300.74" y="742.3797">update interface</text></g><!--link BC to WS--><g class="link" data-entity-1="BC" data-entity-2="WS" data-source-line="28" data-uid="lnk19" id="link_BC_WS"><path d="M842.7251,298.9147 C842.6923,299.4973 842.6625,300.0819 842.6357,300.6683 C842.5821,301.841 842.5409,303.0209 842.5134,304.2061 C842.4582,306.5765 842.4574,308.9682 842.5209,311.367 C842.775,320.9625 844.0575,330.6725 847,339.59 C854.48,362.265 870.1975,383.89 884.4175,400.1625 C891.5275,408.2988 898.2631,415.0969 903.4075,420.0191 C903.729,420.3267 904.0443,420.627 904.3531,420.9199 C904.5075,421.0663 900.2978,417.0916 900.4489,417.2342" fill="none" id="BC-to-WS" style="stroke:#181818;stroke-width:1;"/><polygon fill="#181818" points="904.8114,421.3535,901.0138,412.2663,901.176,417.9208,895.5214,418.0829,904.8114,421.3535" style="stroke:#181818;stroke-width:1;"/><text fill="#000000" font-family="sans-serif" font-size="13" lengthAdjust="spacing" textLength="97.792" x="848" y="335.6569">HTTP Requests</text></g><!--link WS to DB--><g class="link" data-entity-1="WS" data-entity-2="DB" data-source-line="29" data-uid="lnk20" id="link_WS_DB"><path d="M904.9765,439.8586 C904.839,440.0076 904.6999,440.158 904.5592,440.3097 C904.2778,440.6132 903.9902,440.9223 903.6964,441.2365 C903.1087,441.8651 902.4963,442.5147 901.8602,443.1832 C900.5878,444.5202 899.2201,445.9329 897.7646,447.405 C894.8534,450.3492 891.5903,453.5306 888.0338,456.8175 C873.8075,469.965 854.885,484.8 835,492.89 C817.98,499.81 521.82,516.55 506,525.89 C487.725,536.68 474.015,556.055 464.735,573.1675 C462.415,577.4456 460.3719,581.5823 458.6035,585.4082 C458.493,585.6473 458.3835,585.8852 458.2752,586.1218 C458.221,586.2401 460.6559,580.8987 460.6023,581.0164" fill="none" id="WS-to-DB" style="stroke:#181818;stroke-width:1;"/><polygon fill="#181818" points="458.1134,586.4758,465.4863,579.9459,460.1875,581.9263,458.2071,576.6274,458.1134,586.4758" style="stroke:#181818;stroke-width:1;"/><text fill="#000000" font-family="sans-serif" font-size="13" lengthAdjust="spacing" textLength="109.9922" x="760" y="513.9569">Data Persistence</text></g><!--link WS to ER--><g class="link" data-entity-1="WS" data-entity-2="ER" data-source-line="30" data-uid="lnk21" id="link_WS_ER"><path d="M904.9684,467.0433 C904.9074,467.3192 904.8461,467.5961 904.7846,467.8741 C904.6617,468.43 904.5378,468.99 904.413,469.554 C904.1635,470.6821 903.9104,471.826 903.6541,472.9846 C902.6289,477.6191 901.5517,482.4883 900.44,487.5141 C898.2164,497.5656 895.8544,508.2431 893.4925,518.92 C891.1306,529.5969 888.7689,540.2731 886.546,550.3221 C885.4345,555.3467 884.3577,560.2144 883.333,564.8469 C883.0768,566.0051 882.8239,567.1485 882.5745,568.2761 C882.4498,568.8398 882.3259,569.3996 882.203,569.9553 C882.1416,570.2331 883.3762,564.6515 883.3152,564.9272" fill="none" id="WS-to-ER" style="stroke:#181818;stroke-width:1;"/><polygon fill="#181818" points="882.0194,570.7856,887.8688,562.862,883.0993,565.9036,880.0576,561.1341,882.0194,570.7856" style="stroke:#181818;stroke-width:1;"/><text fill="#000000" font-family="sans-serif" font-size="13" lengthAdjust="spacing" textLength="55.7388" x="897" y="513.9569">API Calls</text></g><!--link TF to WS--><g class="link" data-entity-1="TF" data-entity-2="WS" data-source-line="31" data-uid="lnk22" id="link_TF_WS"><path d="M921.0455,85.2216 C921.1501,85.3741 921.2554,85.528 921.3613,85.6831 C921.5732,85.9934 921.7877,86.309 922.0047,86.6296 C922.4388,87.2709 922.8827,87.9325 923.3353,88.6134 C925.1454,91.3372 927.0928,94.37 929.0913,97.645 C937.085,110.745 945.895,127.72 950,144.29 C970.86,228.55 997.3,266.81 950,339.59 C945.23,346.93 937.58,340.85 932,347.59 C929.14,351.0463 926.6941,354.8553 924.6038,358.8811 C924.0813,359.8875 923.581,360.9075 923.102,361.9389 C922.8625,362.4546 925.0416,357.4799 924.8127,358.0011" fill="none" id="TF-to-WS" style="stroke:#181818;stroke-width:1;"/><polygon fill="#181818" points="922.3993,363.4943,929.6815,356.8633,924.4105,358.9166,922.3572,353.6455,922.3993,363.4943" style="stroke:#181818;stroke-width:1;"/><text fill="#000000" font-family="sans-serif" font-size="13" lengthAdjust="spacing" textLength="95.2275" x="977" y="256.0069">Test Scenarios</text></g><!--link TF to BC--><g class="link" data-entity-1="TF" data-entity-2="BC" data-source-line="32" data-uid="lnk23" id="link_TF_BC"><path d="M905.2614,120.303 C905.0801,120.7049 904.8946,121.1049 904.7049,121.5027 C904.3255,122.2984 903.9292,123.0853 903.5153,123.8615 C902.6874,125.4141 901.789,126.9242 900.8141,128.3771 C898.8644,131.283 896.6088,133.96 894,136.29 C879.5,149.24 863.42,129.34 851,144.29 C843.58,153.22 839.8119,164.1838 838.3477,175.6394 C837.9816,178.5033 837.7595,181.3979 837.6604,184.2992 C837.6542,184.4806 837.8218,178.6644 837.8165,178.8458" fill="none" id="TF-to-BC" style="stroke:#181818;stroke-width:1;"/><polygon fill="#181818" points="837.6433,184.8433,841.9015,175.9626,837.7877,179.8454,833.9048,175.7315,837.6433,184.8433" style="stroke:#181818;stroke-width:1;"/><text fill="#000000" font-family="sans-serif" font-size="13" lengthAdjust="spacing" textLength="93.1963" x="852" y="157.3569">UI Automation</text></g><!--link UI Controller to PE--><g class="link" data-entity-1="UI Controller" data-entity-2="PE" data-source-line="38" data-uid="lnk27" id="link_UI Controller_PE"><path d="M414,274.77 C414,314.24 414,394.62 414,420.51" fill="none" id="UI Controller-PE" style="stroke:#181818;stroke-width:1;"/></g><!--link Content Delivery to SE--><g class="link" data-entity-1="Content Delivery" data-entity-2="SE" data-source-line="39" data-uid="lnk28" id="link_Content Delivery_SE"><path d="M1037.4,453.17 C1046.08,472.3 1058.53,500.62 1068,525.89 C1077.86,552.21 1087.41,584.16 1091.67,598.88" fill="none" id="Content Delivery-SE" style="stroke:#181818;stroke-width:1;"/></g><!--link Admin API to AA--><g class="link" data-entity-1="Admin API" data-entity-2="AA" data-source-line="40" data-uid="lnk29" id="link_Admin API_AA"><path d="M1220.5,453.29 C1234.27,465.84 1252.37,481.22 1270,492.89 C1297.35,510.98 1314.66,500.99 1336,525.89 C1354.68,547.68 1359.98,583.04 1361.45,598.9" fill="none" id="Admin API-AA" style="stroke:#181818;stroke-width:1;"/></g><!--link PE to Velocity Calculator--><g class="link" data-entity-1="PE" data-entity-2="Velocity Calculator" data-source-line="42" data-uid="lnk31" id="link_PE_Velocity Calculator"><path d="M423.39,429.74 C434.86,429.74 446.32,429.74 457.79,429.74" fill="none" id="PE-Velocity Calculator" style="stroke:#181818;stroke-width:1;"/></g><!--link SE to Narrative Generator--><g class="link" data-entity-1="SE" data-entity-2="Narrative Generator" data-source-line="43" data-uid="lnk33" id="link_SE_Narrative Generator"><path d="M1103.42,608.04 C1114.78,608.04 1126.13,608.04 1137.49,608.04" fill="none" id="SE-Narrative Generator" style="stroke:#181818;stroke-width:1;"/></g><!--link AA to Web Form Handler--><g class="link" data-entity-1="AA" data-entity-2="Web Form Handler" data-source-line="44" data-uid="lnk35" id="link_AA_Web Form Handler"><path d="M1371.39,608.04 C1383.02,608.04 1394.64,608.04 1406.26,608.04" fill="none" id="AA-Web Form Handler" style="stroke:#181818;stroke-width:1;"/></g><!--link PE to GMN36--><g class="link" data-entity-1="PE" data-entity-2="GMN36" data-source-line="46" data-uid="lnk38" id="link_PE_GMN36"><path d="M414.4,420.29 C415.91,398.42 423.23,345.1 458.5,331.09 C493.82,317.07 593.96,317.63 629.5,331.09 C670.83,346.75 706.7,385.5 725.96,409.51" fill="none" id="PE-GMN36" style="stroke:#181818;stroke-width:1;stroke-dasharray:7,7;"/></g><!--SRC=[PLF1Rjim3BtxAuZSWm4x-Z30IUmrm3PuTTOUcXuOcKcqob8gokc2OVy-IdQDDZrQZtnyV7n67_GULO3PmhiN9WzBeyc66I33OWb_Cu27NsjOEXkyCuRyOtof3F8HQeENyM5jJts0EpIwnU3axL-MuSHzJpjeo9_99zxxPk2Df38BLcIqO9V4LBITjb3Kw_JL4BDs5hwZnGDTywumu0wPFbNQ43GoM8hIYDLY6F6p9mv2m71B9yTQIeOniVXYjAMusbuV-8gw_1F8MpJInwxtYZZnbhS3R_EvWTgxtwG29xwoxHN6IT8Yug_fDb66FK3biQCNvvyIswOQsBuvR6611gsI2pIwUnpiwKv2kTD6XmiiZwIUHWVaCFFvb-XZ3ZURJIqYd-EYdCbJH6Jz7A8xK9DdpMApebTGTiYZHbYYCPo9Y8aioeH6aKMltGJ9k1ma14KVN9UMp38jf_Eo6y5iNHylh1MNzY1-fiNgybt1PFQRakPzIJgxY4fOKMJPLUf4I6Jzc9a82DURtCINo52NC8U7Ep9E9GFHgDuCwMmIz0EzbtNE15_9aX-WeeXGJ6pbV0StQDkK-iowGE3ruHZ0xKLBFc8Cdj3CW-veQy-lqzGuBMPlQ3MqJvsDT0vnPi0MJr70rlAKHxdvSMpPkI2EnwQYoEKFKhsd5fx7J6zjVvA_ZM3oyJy0]--></g></svg>