<svg xmlns="http://www.w3.org/2000/svg" xmlns:xlink="http://www.w3.org/1999/xlink" contentStyleType="text/css" data-diagram-type="DESCRIPTION" height="758px" preserveAspectRatio="none" style="width:3434px;height:758px;background:#FFFFFF;" version="1.1" viewBox="0 0 3434 758" width="3434px" zoomAndPan="magnify"><defs/><g><!--cluster Flash Integration--><g class="cluster" data-entity="Flash Integration" data-source-line="1" data-uid="ent0002" id="cluster_Flash Integration"><path d="M1905.5,378.89 L2042.2959,378.89 A3.75,3.75 0 0 1 2044.7959,381.39 L2051.7959,401.1869 L2420.5,401.1869 A2.5,2.5 0 0 1 2423,403.6869 L2423,489.69 A2.5,2.5 0 0 1 2420.5,492.19 L1905.5,492.19 A2.5,2.5 0 0 1 1903,489.69 L1903,381.39 A2.5,2.5 0 0 1 1905.5,378.89" fill="none" style="stroke:#000000;stroke-width:1.5;"/><line style="stroke:#000000;stroke-width:1.5;" x1="1903" x2="2051.7959" y1="401.1869" y2="401.1869"/><text fill="#000000" font-family="sans-serif" font-size="14" font-weight="bold" lengthAdjust="spacing" textLength="135.7959" x="1907" y="393.8851">Flash Integration</text></g><!--cluster Admin Interface--><g class="cluster" data-entity="Admin Interface" data-source-line="6" data-uid="ent0005" id="cluster_Admin Interface"><path d="M579.5,417.68 L707.1836,417.68 A3.75,3.75 0 0 1 709.6836,420.18 L716.6836,439.9769 L1210.5,439.9769 A2.5,2.5 0 0 1 1213,442.4769 L1213,642.98 A2.5,2.5 0 0 1 1210.5,645.48 L579.5,645.48 A2.5,2.5 0 0 1 577,642.98 L577,420.18 A2.5,2.5 0 0 1 579.5,417.68" fill="none" style="stroke:#000000;stroke-width:1.5;"/><line style="stroke:#000000;stroke-width:1.5;" x1="577" x2="716.6836" y1="439.9769" y2="439.9769"/><text fill="#000000" font-family="sans-serif" font-size="14" font-weight="bold" lengthAdjust="spacing" textLength="126.6836" x="581" y="432.6751">Admin Interface</text></g><!--cluster Physics Engine--><g class="cluster" data-entity="Physics Engine" data-source-line="12" data-uid="ent0009" id="cluster_Physics Engine"><path d="M1255.5,417.68 L1374.3037,417.68 A3.75,3.75 0 0 1 1376.8037,420.18 L1383.8037,439.9769 L1860.5,439.9769 A2.5,2.5 0 0 1 1863,442.4769 L1863,642.98 A2.5,2.5 0 0 1 1860.5,645.48 L1255.5,645.48 A2.5,2.5 0 0 1 1253,642.98 L1253,420.18 A2.5,2.5 0 0 1 1255.5,417.68" fill="none" style="stroke:#000000;stroke-width:1.5;"/><line style="stroke:#000000;stroke-width:1.5;" x1="1253" x2="1383.8037" y1="439.9769" y2="439.9769"/><text fill="#000000" font-family="sans-serif" font-size="14" font-weight="bold" lengthAdjust="spacing" textLength="117.8037" x="1257" y="432.6751">Physics Engine</text></g><!--cluster Storyline Engine--><g class="cluster" data-entity="Storyline Engine" data-source-line="18" data-uid="ent0013" id="cluster_Storyline Engine"><path d="M2780.5,417.68 L2911.6699,417.68 A3.75,3.75 0 0 1 2914.1699,420.18 L2921.1699,439.9769 L3424.5,439.9769 A2.5,2.5 0 0 1 3427,442.4769 L3427,642.98 A2.5,2.5 0 0 1 3424.5,645.48 L2780.5,645.48 A2.5,2.5 0 0 1 2778,642.98 L2778,420.18 A2.5,2.5 0 0 1 2780.5,417.68" fill="none" style="stroke:#000000;stroke-width:1.5;"/><line style="stroke:#000000;stroke-width:1.5;" x1="2778" x2="2921.1699" y1="439.9769" y2="439.9769"/><text fill="#000000" font-family="sans-serif" font-size="14" font-weight="bold" lengthAdjust="spacing" textLength="130.1699" x="2782" y="432.6751">Storyline Engine</text></g><!--cluster Math Umbrella--><g class="cluster" data-entity="Math Umbrella" data-source-line="24" data-uid="ent0017" id="cluster_Math Umbrella"><path d="M2100.5,6 L2217.834,6 A3.75,3.75 0 0 1 2220.334,8.5 L2227.334,28.2969 L2537.5,28.2969 A2.5,2.5 0 0 1 2540,30.7969 L2540,223.09 A2.5,2.5 0 0 1 2537.5,225.59 L2100.5,225.59 A2.5,2.5 0 0 1 2098,223.09 L2098,8.5 A2.5,2.5 0 0 1 2100.5,6" fill="none" style="stroke:#000000;stroke-width:1.5;"/><line style="stroke:#000000;stroke-width:1.5;" x1="2098" x2="2227.334" y1="28.2969" y2="28.2969"/><text fill="#000000" font-family="sans-serif" font-size="14" font-weight="bold" lengthAdjust="spacing" textLength="116.334" x="2102" y="20.9951">Math Umbrella</text></g><!--cluster Core Modules--><g class="cluster" data-entity="Core Modules" data-source-line="30" data-uid="ent0021" id="cluster_Core Modules"><path d="M2355.5,532.19 L2463.8311,532.19 A3.75,3.75 0 0 1 2466.3311,534.69 L2473.3311,554.4869 L2735.5,554.4869 A2.5,2.5 0 0 1 2738,556.9869 L2738,749.28 A2.5,2.5 0 0 1 2735.5,751.78 L2355.5,751.78 A2.5,2.5 0 0 1 2353,749.28 L2353,534.69 A2.5,2.5 0 0 1 2355.5,532.19" fill="none" style="stroke:#000000;stroke-width:1.5;"/><line style="stroke:#000000;stroke-width:1.5;" x1="2353" x2="2473.3311" y1="554.4869" y2="554.4869"/><text fill="#000000" font-family="sans-serif" font-size="14" font-weight="bold" lengthAdjust="spacing" textLength="107.3311" x="2357" y="547.1851">Core Modules</text></g><!--cluster Testing & Compatibility--><g class="cluster" data-entity="Testing . Compatibility" data-source-line="37" data-uid="ent0026" id="cluster_Testing . Compatibility"><path d="M8.5,265.59 L195.9912,265.59 A3.75,3.75 0 0 1 198.4912,268.09 L205.4912,287.8869 L534.5,287.8869 A2.5,2.5 0 0 1 537,290.3869 L537,489.69 A2.5,2.5 0 0 1 534.5,492.19 L8.5,492.19 A2.5,2.5 0 0 1 6,489.69 L6,268.09 A2.5,2.5 0 0 1 8.5,265.59" fill="none" style="stroke:#000000;stroke-width:1.5;"/><line style="stroke:#000000;stroke-width:1.5;" x1="6" x2="205.4912" y1="287.8869" y2="287.8869"/><text fill="#000000" font-family="sans-serif" font-size="14" font-weight="bold" lengthAdjust="spacing" textLength="186.4912" x="10" y="280.5851">Testing &amp; Compatibility</text></g><!--entity Flash Player Module--><g class="entity" data-entity="Flash Player Module" data-source-line="2" data-uid="ent0003" id="entity_Flash Player Module"><rect fill="#F1F1F1" height="46.2969" rx="2.5" ry="2.5" style="stroke:#181818;stroke-width:0.5;" width="180.0615" x="1926.97" y="421.89"/><rect fill="#F1F1F1" height="10" style="stroke:#181818;stroke-width:0.5;" width="15" x="2087.0315" y="426.89"/><rect fill="#F1F1F1" height="2" style="stroke:#181818;stroke-width:0.5;" width="4" x="2085.0315" y="428.89"/><rect fill="#F1F1F1" height="2" style="stroke:#181818;stroke-width:0.5;" width="4" x="2085.0315" y="432.89"/><text fill="#000000" font-family="sans-serif" font-size="14" lengthAdjust="spacing" textLength="140.0615" x="1941.97" y="454.8851">Flash Player Module</text></g><!--entity Browser Compatibility Layer--><g class="entity" data-entity="Browser Compatibility Layer" data-source-line="3" data-uid="ent0004" id="entity_Browser Compatibility Layer"><rect fill="#F1F1F1" height="46.2969" rx="2.5" ry="2.5" style="stroke:#181818;stroke-width:0.5;" width="238.126" x="2141.94" y="421.89"/><rect fill="#F1F1F1" height="10" style="stroke:#181818;stroke-width:0.5;" width="15" x="2360.066" y="426.89"/><rect fill="#F1F1F1" height="2" style="stroke:#181818;stroke-width:0.5;" width="4" x="2358.066" y="428.89"/><rect fill="#F1F1F1" height="2" style="stroke:#181818;stroke-width:0.5;" width="4" x="2358.066" y="432.89"/><text fill="#000000" font-family="sans-serif" font-size="14" lengthAdjust="spacing" textLength="198.126" x="2156.94" y="454.8851">Browser Compatibility Layer</text></g><!--entity Authentication Module--><g class="entity" data-entity="Authentication Module" data-source-line="7" data-uid="ent0006" id="entity_Authentication Module"><rect fill="#F1F1F1" height="46.2969" rx="2.5" ry="2.5" style="stroke:#181818;stroke-width:0.5;" width="198.1289" x="600.94" y="575.19"/><rect fill="#F1F1F1" height="10" style="stroke:#181818;stroke-width:0.5;" width="15" x="779.0689" y="580.19"/><rect fill="#F1F1F1" height="2" style="stroke:#181818;stroke-width:0.5;" width="4" x="777.0689" y="582.19"/><rect fill="#F1F1F1" height="2" style="stroke:#181818;stroke-width:0.5;" width="4" x="777.0689" y="586.19"/><text fill="#000000" font-family="sans-serif" font-size="14" lengthAdjust="spacing" textLength="158.1289" x="615.94" y="608.1851">Authentication Module</text></g><!--entity Web Form Handler--><g class="entity" data-entity="Web Form Handler" data-source-line="8" data-uid="ent0007" id="entity_Web Form Handler"><rect fill="#F1F1F1" height="46.2969" rx="2.5" ry="2.5" style="stroke:#181818;stroke-width:0.5;" width="171.3799" x="834.31" y="575.19"/><rect fill="#F1F1F1" height="10" style="stroke:#181818;stroke-width:0.5;" width="15" x="985.6899" y="580.19"/><rect fill="#F1F1F1" height="2" style="stroke:#181818;stroke-width:0.5;" width="4" x="983.6899" y="582.19"/><rect fill="#F1F1F1" height="2" style="stroke:#181818;stroke-width:0.5;" width="4" x="983.6899" y="586.19"/><text fill="#000000" font-family="sans-serif" font-size="14" lengthAdjust="spacing" textLength="131.3799" x="849.31" y="608.1851">Web Form Handler</text></g><!--entity Data Validation--><g class="entity" data-entity="Data Validation" data-source-line="9" data-uid="ent0008" id="entity_Data Validation"><rect fill="#F1F1F1" height="46.2969" rx="2.5" ry="2.5" style="stroke:#181818;stroke-width:0.5;" width="148.0967" x="1040.95" y="575.19"/><rect fill="#F1F1F1" height="10" style="stroke:#181818;stroke-width:0.5;" width="15" x="1169.0467" y="580.19"/><rect fill="#F1F1F1" height="2" style="stroke:#181818;stroke-width:0.5;" width="4" x="1167.0467" y="582.19"/><rect fill="#F1F1F1" height="2" style="stroke:#181818;stroke-width:0.5;" width="4" x="1167.0467" y="586.19"/><text fill="#000000" font-family="sans-serif" font-size="14" lengthAdjust="spacing" textLength="108.0967" x="1055.95" y="608.1851">Data Validation</text></g><!--entity Input Processor--><g class="entity" data-entity="Input Processor" data-source-line="13" data-uid="ent0010" id="entity_Input Processor"><rect fill="#F1F1F1" height="46.2969" rx="2.5" ry="2.5" style="stroke:#181818;stroke-width:0.5;" width="148.6846" x="1276.66" y="575.19"/><rect fill="#F1F1F1" height="10" style="stroke:#181818;stroke-width:0.5;" width="15" x="1405.3446" y="580.19"/><rect fill="#F1F1F1" height="2" style="stroke:#181818;stroke-width:0.5;" width="4" x="1403.3446" y="582.19"/><rect fill="#F1F1F1" height="2" style="stroke:#181818;stroke-width:0.5;" width="4" x="1403.3446" y="586.19"/><text fill="#000000" font-family="sans-serif" font-size="14" lengthAdjust="spacing" textLength="108.6846" x="1291.66" y="608.1851">Input Processor</text></g><!--entity Velocity Calculator--><g class="entity" data-entity="Velocity Calculator" data-source-line="14" data-uid="ent0011" id="entity_Velocity Calculator"><rect fill="#F1F1F1" height="46.2969" rx="2.5" ry="2.5" style="stroke:#181818;stroke-width:0.5;" width="171.5508" x="1460.22" y="575.19"/><rect fill="#F1F1F1" height="10" style="stroke:#181818;stroke-width:0.5;" width="15" x="1611.7708" y="580.19"/><rect fill="#F1F1F1" height="2" style="stroke:#181818;stroke-width:0.5;" width="4" x="1609.7708" y="582.19"/><rect fill="#F1F1F1" height="2" style="stroke:#181818;stroke-width:0.5;" width="4" x="1609.7708" y="586.19"/><text fill="#000000" font-family="sans-serif" font-size="14" lengthAdjust="spacing" textLength="131.5508" x="1475.22" y="608.1851">Velocity Calculator</text></g><!--entity Rendering Adapter--><g class="entity" data-entity="Rendering Adapter" data-source-line="15" data-uid="ent0012" id="entity_Rendering Adapter"><rect fill="#F1F1F1" height="46.2969" rx="2.5" ry="2.5" style="stroke:#181818;stroke-width:0.5;" width="172.3574" x="1666.82" y="575.19"/><rect fill="#F1F1F1" height="10" style="stroke:#181818;stroke-width:0.5;" width="15" x="1819.1774" y="580.19"/><rect fill="#F1F1F1" height="2" style="stroke:#181818;stroke-width:0.5;" width="4" x="1817.1774" y="582.19"/><rect fill="#F1F1F1" height="2" style="stroke:#181818;stroke-width:0.5;" width="4" x="1817.1774" y="586.19"/><text fill="#000000" font-family="sans-serif" font-size="14" lengthAdjust="spacing" textLength="132.3574" x="1681.82" y="608.1851">Rendering Adapter</text></g><!--entity Decision Tree Manager--><g class="entity" data-entity="Decision Tree Manager" data-source-line="19" data-uid="ent0014" id="entity_Decision Tree Manager"><rect fill="#F1F1F1" height="46.2969" rx="2.5" ry="2.5" style="stroke:#181818;stroke-width:0.5;" width="201.4033" x="2802.3" y="575.19"/><rect fill="#F1F1F1" height="10" style="stroke:#181818;stroke-width:0.5;" width="15" x="2983.7033" y="580.19"/><rect fill="#F1F1F1" height="2" style="stroke:#181818;stroke-width:0.5;" width="4" x="2981.7033" y="582.19"/><rect fill="#F1F1F1" height="2" style="stroke:#181818;stroke-width:0.5;" width="4" x="2981.7033" y="586.19"/><text fill="#000000" font-family="sans-serif" font-size="14" lengthAdjust="spacing" textLength="161.4033" x="2817.3" y="608.1851">Decision Tree Manager</text></g><!--entity Narrative Generator--><g class="entity" data-entity="Narrative Generator" data-source-line="20" data-uid="ent0015" id="entity_Narrative Generator"><rect fill="#F1F1F1" height="46.2969" rx="2.5" ry="2.5" style="stroke:#181818;stroke-width:0.5;" width="180.9639" x="3038.52" y="575.19"/><rect fill="#F1F1F1" height="10" style="stroke:#181818;stroke-width:0.5;" width="15" x="3199.4839" y="580.19"/><rect fill="#F1F1F1" height="2" style="stroke:#181818;stroke-width:0.5;" width="4" x="3197.4839" y="582.19"/><rect fill="#F1F1F1" height="2" style="stroke:#181818;stroke-width:0.5;" width="4" x="3197.4839" y="586.19"/><text fill="#000000" font-family="sans-serif" font-size="14" lengthAdjust="spacing" textLength="140.9639" x="3053.52" y="608.1851">Narrative Generator</text></g><!--entity Content Loader--><g class="entity" data-entity="Content Loader" data-source-line="21" data-uid="ent0016" id="entity_Content Loader"><rect fill="#F1F1F1" height="46.2969" rx="2.5" ry="2.5" style="stroke:#181818;stroke-width:0.5;" width="148.3291" x="3254.84" y="575.19"/><rect fill="#F1F1F1" height="10" style="stroke:#181818;stroke-width:0.5;" width="15" x="3383.1691" y="580.19"/><rect fill="#F1F1F1" height="2" style="stroke:#181818;stroke-width:0.5;" width="4" x="3381.1691" y="582.19"/><rect fill="#F1F1F1" height="2" style="stroke:#181818;stroke-width:0.5;" width="4" x="3381.1691" y="586.19"/><text fill="#000000" font-family="sans-serif" font-size="14" lengthAdjust="spacing" textLength="108.3291" x="3269.84" y="608.1851">Content Loader</text></g><!--entity Link Dispatcher--><g class="entity" data-entity="Link Dispatcher" data-source-line="25" data-uid="ent0018" id="entity_Link Dispatcher"><rect fill="#F1F1F1" height="46.2969" rx="2.5" ry="2.5" style="stroke:#181818;stroke-width:0.5;" width="148.9785" x="2121.51" y="49"/><rect fill="#F1F1F1" height="10" style="stroke:#181818;stroke-width:0.5;" width="15" x="2250.4885" y="54"/><rect fill="#F1F1F1" height="2" style="stroke:#181818;stroke-width:0.5;" width="4" x="2248.4885" y="56"/><rect fill="#F1F1F1" height="2" style="stroke:#181818;stroke-width:0.5;" width="4" x="2248.4885" y="60"/><text fill="#000000" font-family="sans-serif" font-size="14" lengthAdjust="spacing" textLength="108.9785" x="2136.51" y="81.9951">Link Dispatcher</text></g><!--entity External API Gateway--><g class="entity" data-entity="External API Gateway" data-source-line="26" data-uid="ent0019" id="entity_External API Gateway"><rect fill="#F1F1F1" height="46.2969" rx="2.5" ry="2.5" style="stroke:#181818;stroke-width:0.5;" width="191.2246" x="2305.39" y="49"/><rect fill="#F1F1F1" height="10" style="stroke:#181818;stroke-width:0.5;" width="15" x="2476.6146" y="54"/><rect fill="#F1F1F1" height="2" style="stroke:#181818;stroke-width:0.5;" width="4" x="2474.6146" y="56"/><rect fill="#F1F1F1" height="2" style="stroke:#181818;stroke-width:0.5;" width="4" x="2474.6146" y="60"/><text fill="#000000" font-family="sans-serif" font-size="14" lengthAdjust="spacing" textLength="151.2246" x="2320.39" y="81.9951">External API Gateway</text></g><!--entity Security Sandbox--><g class="entity" data-entity="Security Sandbox" data-source-line="27" data-uid="ent0020" id="entity_Security Sandbox"><rect fill="#F1F1F1" height="46.2969" rx="2.5" ry="2.5" style="stroke:#181818;stroke-width:0.5;" width="162.9033" x="2121.55" y="155.3"/><rect fill="#F1F1F1" height="10" style="stroke:#181818;stroke-width:0.5;" width="15" x="2264.4533" y="160.3"/><rect fill="#F1F1F1" height="2" style="stroke:#181818;stroke-width:0.5;" width="4" x="2262.4533" y="162.3"/><rect fill="#F1F1F1" height="2" style="stroke:#181818;stroke-width:0.5;" width="4" x="2262.4533" y="166.3"/><text fill="#000000" font-family="sans-serif" font-size="14" lengthAdjust="spacing" textLength="122.9033" x="2136.55" y="188.2951">Security Sandbox</text></g><!--entity State Manager--><g class="entity" data-entity="State Manager" data-source-line="31" data-uid="ent0022" id="entity_State Manager"><rect fill="#F1F1F1" height="46.2969" rx="2.5" ry="2.5" style="stroke:#181818;stroke-width:0.5;" width="142.874" x="2396.56" y="575.19"/><rect fill="#F1F1F1" height="10" style="stroke:#181818;stroke-width:0.5;" width="15" x="2519.434" y="580.19"/><rect fill="#F1F1F1" height="2" style="stroke:#181818;stroke-width:0.5;" width="4" x="2517.434" y="582.19"/><rect fill="#F1F1F1" height="2" style="stroke:#181818;stroke-width:0.5;" width="4" x="2517.434" y="586.19"/><text fill="#000000" font-family="sans-serif" font-size="14" lengthAdjust="spacing" textLength="102.874" x="2411.56" y="608.1851">State Manager</text></g><!--entity Event Handler--><g class="entity" data-entity="Event Handler" data-source-line="32" data-uid="ent0023" id="entity_Event Handler"><rect fill="#F1F1F1" height="46.2969" rx="2.5" ry="2.5" style="stroke:#181818;stroke-width:0.5;" width="139.6816" x="2574.16" y="575.19"/><rect fill="#F1F1F1" height="10" style="stroke:#181818;stroke-width:0.5;" width="15" x="2693.8416" y="580.19"/><rect fill="#F1F1F1" height="2" style="stroke:#181818;stroke-width:0.5;" width="4" x="2691.8416" y="582.19"/><rect fill="#F1F1F1" height="2" style="stroke:#181818;stroke-width:0.5;" width="4" x="2691.8416" y="586.19"/><text fill="#000000" font-family="sans-serif" font-size="14" lengthAdjust="spacing" textLength="99.6816" x="2589.16" y="608.1851">Event Handler</text></g><!--entity Local Storage--><g class="entity" data-entity="Local Storage" data-source-line="33" data-uid="ent0024" id="entity_Local Storage"><rect fill="#F1F1F1" height="46.2969" rx="2.5" ry="2.5" style="stroke:#181818;stroke-width:0.5;" width="135.7578" x="2388.12" y="681.48"/><rect fill="#F1F1F1" height="10" style="stroke:#181818;stroke-width:0.5;" width="15" x="2503.8778" y="686.48"/><rect fill="#F1F1F1" height="2" style="stroke:#181818;stroke-width:0.5;" width="4" x="2501.8778" y="688.48"/><rect fill="#F1F1F1" height="2" style="stroke:#181818;stroke-width:0.5;" width="4" x="2501.8778" y="692.48"/><text fill="#000000" font-family="sans-serif" font-size="14" lengthAdjust="spacing" textLength="95.7578" x="2403.12" y="714.4751">Local Storage</text></g><!--entity Score Calculator--><g class="entity" data-entity="Score Calculator" data-source-line="34" data-uid="ent0025" id="entity_Score Calculator"><rect fill="#F1F1F1" height="46.2969" rx="2.5" ry="2.5" style="stroke:#181818;stroke-width:0.5;" width="155.0625" x="2558.47" y="681.48"/><rect fill="#F1F1F1" height="10" style="stroke:#181818;stroke-width:0.5;" width="15" x="2693.5325" y="686.48"/><rect fill="#F1F1F1" height="2" style="stroke:#181818;stroke-width:0.5;" width="4" x="2691.5325" y="688.48"/><rect fill="#F1F1F1" height="2" style="stroke:#181818;stroke-width:0.5;" width="4" x="2691.5325" y="692.48"/><text fill="#000000" font-family="sans-serif" font-size="14" lengthAdjust="spacing" textLength="115.0625" x="2573.47" y="714.4751">Score Calculator</text></g><!--entity Cross-Browser Test Suite--><g class="entity" data-entity="Cross-Browser Test Suite" data-source-line="38" data-uid="ent0027" id="entity_Cross-Browser Test Suite"><rect fill="#F1F1F1" height="46.2969" rx="2.5" ry="2.5" style="stroke:#181818;stroke-width:0.5;" width="215.376" x="30.31" y="308.59"/><rect fill="#F1F1F1" height="10" style="stroke:#181818;stroke-width:0.5;" width="15" x="225.686" y="313.59"/><rect fill="#F1F1F1" height="2" style="stroke:#181818;stroke-width:0.5;" width="4" x="223.686" y="315.59"/><rect fill="#F1F1F1" height="2" style="stroke:#181818;stroke-width:0.5;" width="4" x="223.686" y="319.59"/><text fill="#000000" font-family="sans-serif" font-size="14" lengthAdjust="spacing" textLength="175.376" x="45.31" y="341.5851">Cross-Browser Test Suite</text></g><!--entity Load Testing Framework--><g class="entity" data-entity="Load Testing Framework" data-source-line="39" data-uid="ent0028" id="entity_Load Testing Framework"><rect fill="#F1F1F1" height="46.2969" rx="2.5" ry="2.5" style="stroke:#181818;stroke-width:0.5;" width="212.8467" x="280.58" y="308.59"/><rect fill="#F1F1F1" height="10" style="stroke:#181818;stroke-width:0.5;" width="15" x="473.4267" y="313.59"/><rect fill="#F1F1F1" height="2" style="stroke:#181818;stroke-width:0.5;" width="4" x="471.4267" y="315.59"/><rect fill="#F1F1F1" height="2" style="stroke:#181818;stroke-width:0.5;" width="4" x="471.4267" y="319.59"/><text fill="#000000" font-family="sans-serif" font-size="14" lengthAdjust="spacing" textLength="172.8467" x="295.58" y="341.5851">Load Testing Framework</text></g><!--entity Fault Injection Module--><g class="entity" data-entity="Fault Injection Module" data-source-line="40" data-uid="ent0029" id="entity_Fault Injection Module"><rect fill="#F1F1F1" height="46.2969" rx="2.5" ry="2.5" style="stroke:#181818;stroke-width:0.5;" width="194.7109" x="40.64" y="421.89"/><rect fill="#F1F1F1" height="10" style="stroke:#181818;stroke-width:0.5;" width="15" x="215.3509" y="426.89"/><rect fill="#F1F1F1" height="2" style="stroke:#181818;stroke-width:0.5;" width="4" x="213.3509" y="428.89"/><rect fill="#F1F1F1" height="2" style="stroke:#181818;stroke-width:0.5;" width="4" x="213.3509" y="432.89"/><text fill="#000000" font-family="sans-serif" font-size="14" lengthAdjust="spacing" textLength="154.7109" x="55.64" y="454.8851">Fault Injection Module</text></g><!--link Flash Integration to Core Modules--><g class="link" data-entity-1="Flash Integration" data-entity-2="Core Modules" data-source-line="43" data-uid="lnk30" id="link_Flash Integration_Core Modules"><path d="M2406.4347,492.2243 C2406.3447,492.4272 2406.2538,492.6297 2406.162,492.8318 C2405.7946,493.64 2405.412,494.4413 2405.0136,495.2339 C2404.2169,496.8191 2403.3568,498.3695 2402.4286,499.8715 C2400.572,502.8753 2398.4425,505.685 2396,508.19 C2388.15,516.24 2379.17,507.53 2372,516.19 C2369.1888,519.5838 2366.897,523.3455 2365.0403,527.3363 C2364.5761,528.334 2364.139,529.346 2363.7279,530.3702 C2363.5223,530.8822 2365.4166,525.7744 2365.2238,526.2923" fill="none" id="Flash Integration-to-Core Modules" style="stroke:#181818;stroke-width:1;"/><polygon fill="#181818" points="2363.1304,531.9152,2370.0192,524.8764,2364.8749,527.2294,2362.5219,522.0852,2363.1304,531.9152" style="stroke:#181818;stroke-width:1;"/></g><!--link Admin Interface to Core Modules--><g class="link" data-entity-1="Admin Interface" data-entity-2="Core Modules" data-source-line="44" data-uid="lnk31" id="link_Admin Interface_Core Modules"><path d="M1213.0221,492.2436 C1213.3264,492.441 1213.6314,492.6377 1213.9372,492.8336 C1223.7213,499.1031 1234.25,504.6 1245,508.19 C1277.15,518.92 1821.23,513.27 1855,516.19 C1967.575,525.9 2092.985,545.9475 2190.79,563.685 C2239.6925,572.5537 2281.6938,580.845 2311.7388,586.9778 C2326.7613,590.0442 2338.7947,592.571 2347.2072,594.3606 C2349.3103,594.808 2345.3207,593.9501 2346.9614,594.3023" fill="none" id="Admin Interface-to-Core Modules" style="stroke:#181818;stroke-width:1;"/><polygon fill="#181818" points="2352.8278,595.5614,2344.8676,589.7618,2347.9391,594.5121,2343.1887,597.5836,2352.8278,595.5614" style="stroke:#181818;stroke-width:1;"/></g><!--link Physics Engine to Core Modules--><g class="link" data-entity-1="Physics Engine" data-entity-2="Core Modules" data-source-line="45" data-uid="lnk32" id="link_Physics Engine_Core Modules"><path d="M1863.3755,492.3406 C1865.6367,493.1681 1867.9055,493.9893 1870.1792,494.8025 C1874.7265,496.4289 1879.2929,498.0231 1883.8554,499.5711 C1892.9805,502.6669 1902.09,505.5775 1911,508.19 C2008.06,536.64 2119.5675,558.8025 2207.3,573.9137 C2251.1663,581.4694 2289.0888,587.2622 2316.2897,591.1967 C2329.8902,593.164 2340.8102,594.6667 2348.4527,595.6929 C2349.408,595.8211 2350.3121,595.942 2351.1638,596.0553 C2351.5897,596.112 2352.0024,596.1668 2352.402,596.2198 C2352.6017,596.2462 2346.8499,595.4857 2347.0431,595.5113" fill="none" id="Physics Engine-to-Core Modules" style="stroke:#181818;stroke-width:1;"/><polygon fill="#181818" points="2352.9913,596.2978,2344.5933,591.1525,2348.0344,595.6424,2343.5446,599.0835,2352.9913,596.2978" style="stroke:#181818;stroke-width:1;"/></g><!--link Storyline Engine to Core Modules--><g class="link" data-entity-1="Storyline Engine" data-entity-2="Core Modules" data-source-line="46" data-uid="lnk33" id="link_Storyline Engine_Core Modules"><path d="M2777.3858,485.5061 C2776.5304,485.6127 2775.6743,485.7192 2774.8175,485.8257 C2761.1078,487.5296 2747.2134,489.2184 2733.2116,490.8756 C2677.2044,497.5044 2619.48,503.6275 2565,508.19 C2554.31,509.08 2379.93,508.96 2372,516.19 C2368.7413,519.1575 2366.1105,522.5963 2364.0034,526.3486 C2363.4766,527.2867 2362.9825,528.2444 2362.5196,529.2192 C2362.2881,529.7066 2362.0644,530.1983 2361.8483,530.694 C2361.7402,530.9418 2361.6341,531.1906 2361.5297,531.4404 C2361.4776,531.5653 2363.6953,526.1362 2363.644,526.2615" fill="none" id="Storyline Engine-to-Core Modules" style="stroke:#181818;stroke-width:1;"/><polygon fill="#181818" points="2361.3747,531.8158,2368.4816,524.9973,2363.2658,527.1872,2361.0759,521.9715,2361.3747,531.8158" style="stroke:#181818;stroke-width:1;"/></g><!--link Math Umbrella to Core Modules--><g class="link" data-entity-1="Math Umbrella" data-entity-2="Core Modules" data-source-line="47" data-uid="lnk34" id="link_Math Umbrella_Core Modules"><path d="M2516.0236,226.0133 C2515.9176,226.5986 2515.811,227.183 2515.7038,227.7667 C2514.8456,232.4357 2513.945,237.0525 2513,241.59 C2487.72,362.95 2525.53,427.99 2431,508.19 C2410.82,525.31 2390.71,497.47 2372,516.19 C2368.8838,519.3063 2366.3609,522.8577 2364.3335,526.6931 C2363.8267,527.652 2363.3508,528.6286 2362.9043,529.6206 C2362.6811,530.1166 2362.4652,530.6165 2362.2565,531.1199 C2362.1522,531.3716 2364.2669,526.0489 2364.1661,526.3024" fill="none" id="Math Umbrella-to-Core Modules" style="stroke:#181818;stroke-width:1;"/><polygon fill="#181818" points="2361.9488,531.8776,2368.9916,524.9929,2363.7965,527.2316,2361.5578,522.0365,2361.9488,531.8776" style="stroke:#181818;stroke-width:1;"/></g><!--link Testing & Compatibility to Flash Integration--><g class="link" data-entity-1="Testing . Compatibility" data-entity-2="Flash Integration" data-source-line="48" data-uid="lnk35" id="link_Testing . Compatibility_Flash Integration"><path d="M537.0865,332.7312 C537.6185,332.7307 538.176,332.7301 538.7589,332.7296 C539.9246,332.7285 541.1915,332.7274 542.558,332.7262 C545.291,332.7239 548.4222,332.7214 551.938,332.719 C566.0011,332.7093 586.2174,332.6998 611.715,332.6996 C662.7104,332.6993 734.8314,332.736 821.1041,332.882 C993.6494,333.1741 1222.8013,333.9031 1452.7675,335.6462 C1912.7,339.1325 2375.89,346.675 2396,362.89 C2399.4925,365.705 2402.4178,369.0281 2404.8621,372.695 C2406.0842,374.5285 2407.1861,376.4479 2408.1785,378.4327 C2408.2405,378.5568 2405.6572,395.5924 2405.7184,395.7169" fill="none" id="Testing &amp; Compatibility-to-Flash Integration" style="stroke:#181818;stroke-width:1;"/><polygon fill="#181818" points="2408.3633,401.1025,2407.9863,391.2609,2406.1592,396.6145,2400.8055,394.7874,2408.3633,401.1025" style="stroke:#181818;stroke-width:1;"/></g><!--link Testing & Compatibility to Physics Engine--><g class="link" data-entity-1="Testing . Compatibility" data-entity-2="Physics Engine" data-source-line="49" data-uid="lnk36" id="link_Testing . Compatibility_Physics Engine"><path d="M537.1335,332.7636 C538.1013,332.7675 539.1521,332.7721 540.2844,332.7774 C542.549,332.7881 545.1393,332.8018 548.0413,332.8194 C559.6495,332.8899 576.2466,333.0232 596.9456,333.2758 C638.3438,333.7809 696.15,334.7631 763.27,336.6738 C897.51,340.495 1069.005,348.03 1221,362.89 C1339.09,374.435 1470.9425,394.4975 1573.84,411.785 C1580.2711,412.8655 1586.5891,413.9351 1592.7835,414.9911 C1595.8808,415.5191 1598.9471,416.0438 1601.9813,416.5646 C1603.4983,416.8251 1599.0945,438.3629 1600.5953,438.6214" fill="none" id="Testing &amp; Compatibility-to-Physics Engine" style="stroke:#181818;stroke-width:1;"/><polygon fill="#181818" points="1606.5082,439.64,1598.3178,434.1702,1601.5808,438.7912,1596.9598,442.0541,1606.5082,439.64" style="stroke:#181818;stroke-width:1;"/></g><!--link Admin Interface to Data Validation--><g class="link" data-entity-1="Admin Interface" data-entity-2="Data Validation" data-source-line="50" data-uid="lnk37" id="link_Admin Interface_Data Validation"><path d="M1159.97,446.15 C1158.94,449.6 1135.6105,528.029 1123.3505,569.249" fill="none" id="Admin Interface-to-Data Validation" style="stroke:#181818;stroke-width:1;stroke-dasharray:7,7;"/><polygon fill="#181818" points="1121.64,575,1128.0398,567.5138,1123.0654,570.2075,1120.3718,565.2331,1121.64,575" style="stroke:#181818;stroke-width:1;"/></g><!--link Physics Engine to Rendering Adapter--><g class="link" data-entity-1="Physics Engine" data-entity-2="Rendering Adapter" data-source-line="51" data-uid="lnk38" id="link_Physics Engine_Rendering Adapter"><path d="M1753,446.15 C1753,449.6 1753,527.78 1753,569" fill="none" id="Physics Engine-to-Rendering Adapter" style="stroke:#181818;stroke-width:1;stroke-dasharray:7,7;"/><polygon fill="#181818" points="1753,575,1757,566,1753,570,1749,566,1753,575" style="stroke:#181818;stroke-width:1;"/></g><!--link Storyline Engine to Content Loader--><g class="link" data-entity-1="Storyline Engine" data-entity-2="Content Loader" data-source-line="52" data-uid="lnk39" id="link_Storyline Engine_Content Loader"><path d="M3057.08,446.06 C3060.33,446.84 3164.82,472.21 3237,516.19 C3263.92,532.59 3286.2402,552.8847 3303.8502,570.6847" fill="none" id="Storyline Engine-to-Content Loader" style="stroke:#181818;stroke-width:1;stroke-dasharray:7,7;"/><polygon fill="#181818" points="3308.07,574.95,3304.5838,565.7388,3304.5535,571.3955,3298.8967,571.3652,3308.07,574.95" style="stroke:#181818;stroke-width:1;"/></g><!--SRC=[XLFBJiCm4BpdArOSkBMVW5JI1vLQL14eXwg7hRCqfeuTsGvjXFXtxDI590tYkXxFx8p71R83xWbkfW9D1dDfQQ_HSYLlu3C2s9pdAu4LQLYgj1IqzVDxhOx6ZMAL5mw_uuBR2XOUjes-egYu48_IdCkQMByXeq0xAcr6qd9MQpM9Nsa7KwLpU42P2i_cXcEq26iKFAtnROLLLXdE34padikBm5mMfOMLLeoCKMUMDGd5_9en2bOAj67-H38bpUKUHYaMjkiWSRXAEEgsmfWODtxvPqq4IvGEVEPxHEqp_22OaIJzenChbuAqi52OTaMMQ3DuoNUQXC2WiE3o06DkNC0i2zoJazjFee3HQWupj7J4gZv8Y9NQcqjSRZjrQjF7IbD8sGJsnBhRhRqd7twxPkuBnPoK3y21pZBCCpK3RCeyax4-nzjsBu9Yh9KnWqjpF1QIabiAKfZ2vVvKOqv7fG_rqHHBOLs5tecrskAKDrUztS9WSEUp_ZMyZJQT5lQ3saNgntJBq8zglMO_v8-e0lZQrdytEiltM1uExtf-qfNh6jRp9Ngirz1Egxy1]--></g></svg>