<svg xmlns="http://www.w3.org/2000/svg" xmlns:xlink="http://www.w3.org/1999/xlink" contentStyleType="text/css" data-diagram-type="CLASS" height="474px" preserveAspectRatio="none" style="width:1323px;height:474px;background:#FFFFFF;" version="1.1" viewBox="0 0 1323 474" width="1323px" zoomAndPan="magnify"><defs/><g><!--class PhysicsEngine--><g class="entity" data-entity="PhysicsEngine" data-source-line="1" data-uid="ent0002" id="entity_PhysicsEngine"><rect fill="#F1F1F1" height="80.5938" rx="2.5" ry="2.5" style="stroke:#181818;stroke-width:0.5;" width="289.4297" x="70.65" y="23.3"/><ellipse cx="161.2364" cy="39.3" fill="#ADD1B2" rx="11" ry="11" style="stroke:#181818;stroke-width:1;"/><path d="M164.2052,44.9406 Q163.6271,45.2375 162.9864,45.3781 Q162.3458,45.5344 161.6427,45.5344 Q159.1427,45.5344 157.8146,43.8938 Q156.5021,42.2375 156.5021,39.1125 Q156.5021,35.9875 157.8146,34.3313 Q159.1427,32.675 161.6427,32.675 Q162.3458,32.675 162.9864,32.8313 Q163.6427,32.9875 164.2052,33.2844 L164.2052,36.0031 Q163.5802,35.425 162.9864,35.1594 Q162.3927,34.8781 161.7677,34.8781 Q160.4239,34.8781 159.7364,35.9563 Q159.0489,37.0188 159.0489,39.1125 Q159.0489,41.2063 159.7364,42.2844 Q160.4239,43.3469 161.7677,43.3469 Q162.3927,43.3469 162.9864,43.0813 Q163.5802,42.8 164.2052,42.2219 L164.2052,44.9406 Z " fill="#000000"/><text fill="#000000" font-family="sans-serif" font-size="14" lengthAdjust="spacing" textLength="99.7568" x="181.7364" y="44.1467">PhysicsEngine</text><line style="stroke:#181818;stroke-width:0.5;" x1="71.65" x2="359.0797" y1="55.3" y2="55.3"/><line style="stroke:#181818;stroke-width:0.5;" x1="71.65" x2="359.0797" y1="63.3" y2="63.3"/><ellipse cx="81.65" cy="76.9484" fill="#84BE84" rx="3" ry="3" style="stroke:#038048;stroke-width:1;"/><text fill="#000000" font-family="sans-serif" font-size="14" lengthAdjust="spacing" textLength="263.4297" x="90.65" y="80.2951">calculateVelocity(fraction: float): void</text><ellipse cx="81.65" cy="93.2453" fill="#84BE84" rx="3" ry="3" style="stroke:#038048;stroke-width:1;"/><text fill="#000000" font-family="sans-serif" font-size="14" lengthAdjust="spacing" textLength="225.6611" x="90.65" y="96.592">updateSpaceshipPosition(): void</text></g><!--class InputProcessingModule--><g class="entity" data-entity="InputProcessingModule" data-source-line="6" data-uid="ent0003" id="entity_InputProcessingModule"><rect fill="#F1F1F1" height="96.8906" rx="2.5" ry="2.5" style="stroke:#181818;stroke-width:0.5;" width="416.7217" x="7" y="197.19"/><ellipse cx="129.876" cy="213.19" fill="#ADD1B2" rx="11" ry="11" style="stroke:#181818;stroke-width:1;"/><path d="M132.8447,218.8306 Q132.2666,219.1275 131.626,219.2681 Q130.9854,219.4244 130.2822,219.4244 Q127.7822,219.4244 126.4541,217.7838 Q125.1416,216.1275 125.1416,213.0025 Q125.1416,209.8775 126.4541,208.2213 Q127.7822,206.565 130.2822,206.565 Q130.9854,206.565 131.626,206.7213 Q132.2822,206.8775 132.8447,207.1744 L132.8447,209.8931 Q132.2197,209.315 131.626,209.0494 Q131.0322,208.7681 130.4072,208.7681 Q129.0635,208.7681 128.376,209.8463 Q127.6885,210.9088 127.6885,213.0025 Q127.6885,215.0963 128.376,216.1744 Q129.0635,217.2369 130.4072,217.2369 Q131.0322,217.2369 131.626,216.9713 Q132.2197,216.69 132.8447,216.1119 L132.8447,218.8306 Z " fill="#000000"/><text fill="#000000" font-family="sans-serif" font-size="14" lengthAdjust="spacing" textLength="162.4697" x="150.376" y="218.0367">InputProcessingModule</text><line style="stroke:#181818;stroke-width:0.5;" x1="8" x2="422.7217" y1="229.19" y2="229.19"/><line style="stroke:#181818;stroke-width:0.5;" x1="8" x2="422.7217" y1="237.19" y2="237.19"/><ellipse cx="18" cy="250.8384" fill="#84BE84" rx="3" ry="3" style="stroke:#038048;stroke-width:1;"/><text fill="#000000" font-family="sans-serif" font-size="14" lengthAdjust="spacing" textLength="390.7217" x="27" y="254.1851">validateFraction(numerator: int, denominator: int): bool</text><ellipse cx="18" cy="267.1353" fill="#84BE84" rx="3" ry="3" style="stroke:#038048;stroke-width:1;"/><text fill="#000000" font-family="sans-serif" font-size="14" lengthAdjust="spacing" textLength="260.5107" x="27" y="270.482">convertToDecimal(fraction: str): float</text><ellipse cx="18" cy="283.4322" fill="#84BE84" rx="3" ry="3" style="stroke:#038048;stroke-width:1;"/><text fill="#000000" font-family="sans-serif" font-size="14" lengthAdjust="spacing" textLength="195.4668" x="27" y="286.7789">displayErrorMessage(): void</text></g><!--class AdminInterface--><g class="entity" data-entity="AdminInterface" data-source-line="12" data-uid="ent0004" id="entity_AdminInterface"><rect fill="#F1F1F1" height="113.1875" rx="2.5" ry="2.5" style="stroke:#181818;stroke-width:0.5;" width="304.3389" x="416.19" y="7"/><ellipse cx="510.3379" cy="23" fill="#ADD1B2" rx="11" ry="11" style="stroke:#181818;stroke-width:1;"/><path d="M513.3067,28.6406 Q512.7286,28.9375 512.0879,29.0781 Q511.4473,29.2344 510.7442,29.2344 Q508.2442,29.2344 506.9161,27.5938 Q505.6036,25.9375 505.6036,22.8125 Q505.6036,19.6875 506.9161,18.0313 Q508.2442,16.375 510.7442,16.375 Q511.4473,16.375 512.0879,16.5313 Q512.7442,16.6875 513.3067,16.9844 L513.3067,19.7031 Q512.6817,19.125 512.0879,18.8594 Q511.4942,18.5781 510.8692,18.5781 Q509.5254,18.5781 508.8379,19.6563 Q508.1504,20.7188 508.1504,22.8125 Q508.1504,24.9063 508.8379,25.9844 Q509.5254,27.0469 510.8692,27.0469 Q511.4942,27.0469 512.0879,26.7813 Q512.6817,26.5 513.3067,25.9219 L513.3067,28.6406 Z " fill="#000000"/><text fill="#000000" font-family="sans-serif" font-size="14" lengthAdjust="spacing" textLength="107.543" x="530.8379" y="27.8467">AdminInterface</text><line style="stroke:#181818;stroke-width:0.5;" x1="417.19" x2="719.5289" y1="39" y2="39"/><rect fill="none" height="6" style="stroke:#C82930;stroke-width:1;" width="6" x="424.19" y="49.6484"/><text fill="#000000" font-family="sans-serif" font-size="14" lengthAdjust="spacing" textLength="123.8809" x="436.19" y="55.9951">authToken: string</text><line style="stroke:#181818;stroke-width:0.5;" x1="417.19" x2="719.5289" y1="63.2969" y2="63.2969"/><ellipse cx="427.19" cy="76.9453" fill="#84BE84" rx="3" ry="3" style="stroke:#038048;stroke-width:1;"/><text fill="#000000" font-family="sans-serif" font-size="14" lengthAdjust="spacing" textLength="278.3389" x="436.19" y="80.292">authenticateAdmin(password: str): bool</text><ellipse cx="427.19" cy="93.2422" fill="#84BE84" rx="3" ry="3" style="stroke:#038048;stroke-width:1;"/><text fill="#000000" font-family="sans-serif" font-size="14" lengthAdjust="spacing" textLength="200.5527" x="436.19" y="96.5889">launchQuestionEditor(): void</text><ellipse cx="427.19" cy="109.5391" fill="#84BE84" rx="3" ry="3" style="stroke:#038048;stroke-width:1;"/><text fill="#000000" font-family="sans-serif" font-size="14" lengthAdjust="spacing" textLength="140.4854" x="436.19" y="112.8857">saveUpdates(): void</text></g><!--class StorylineEngine--><g class="entity" data-entity="StorylineEngine" data-source-line="19" data-uid="ent0005" id="entity_StorylineEngine"><rect fill="#F1F1F1" height="96.8906" rx="2.5" ry="2.5" style="stroke:#181818;stroke-width:0.5;" width="314.6885" x="756.02" y="15.15"/><ellipse cx="853.9995" cy="31.15" fill="#ADD1B2" rx="11" ry="11" style="stroke:#181818;stroke-width:1;"/><path d="M856.9682,36.7906 Q856.3901,37.0875 855.7495,37.2281 Q855.1089,37.3844 854.4057,37.3844 Q851.9057,37.3844 850.5776,35.7438 Q849.2651,34.0875 849.2651,30.9625 Q849.2651,27.8375 850.5776,26.1813 Q851.9057,24.525 854.4057,24.525 Q855.1089,24.525 855.7495,24.6813 Q856.4057,24.8375 856.9682,25.1344 L856.9682,27.8531 Q856.3432,27.275 855.7495,27.0094 Q855.1557,26.7281 854.5307,26.7281 Q853.187,26.7281 852.4995,27.8063 Q851.812,28.8688 851.812,30.9625 Q851.812,33.0563 852.4995,34.1344 Q853.187,35.1969 854.5307,35.1969 Q855.1557,35.1969 855.7495,34.9313 Q856.3432,34.65 856.9682,34.0719 L856.9682,36.7906 Z " fill="#000000"/><text fill="#000000" font-family="sans-serif" font-size="14" lengthAdjust="spacing" textLength="110.2295" x="874.4995" y="35.9967">StorylineEngine</text><line style="stroke:#181818;stroke-width:0.5;" x1="757.02" x2="1069.7085" y1="47.15" y2="47.15"/><line style="stroke:#181818;stroke-width:0.5;" x1="757.02" x2="1069.7085" y1="55.15" y2="55.15"/><ellipse cx="767.02" cy="68.7984" fill="#84BE84" rx="3" ry="3" style="stroke:#038048;stroke-width:1;"/><text fill="#000000" font-family="sans-serif" font-size="14" lengthAdjust="spacing" textLength="288.6885" x="776.02" y="72.1451">evaluateUserResponse(answer: str): void</text><ellipse cx="767.02" cy="85.0953" fill="#84BE84" rx="3" ry="3" style="stroke:#038048;stroke-width:1;"/><text fill="#000000" font-family="sans-serif" font-size="14" lengthAdjust="spacing" textLength="172.7646" x="776.02" y="88.442">loadDynamicPath(): void</text><ellipse cx="767.02" cy="101.3922" fill="#84BE84" rx="3" ry="3" style="stroke:#038048;stroke-width:1;"/><text fill="#000000" font-family="sans-serif" font-size="14" lengthAdjust="spacing" textLength="167.4736" x="776.02" y="104.7389">generateNarrative(): str</text></g><!--class QuestionRepository--><g class="entity" data-entity="QuestionRepository" data-source-line="25" data-uid="ent0006" id="entity_QuestionRepository"><rect fill="#F1F1F1" height="96.8906" rx="2.5" ry="2.5" style="stroke:#181818;stroke-width:0.5;" width="260.3018" x="621.21" y="197.19"/><ellipse cx="678.2662" cy="213.19" fill="#ADD1B2" rx="11" ry="11" style="stroke:#181818;stroke-width:1;"/><path d="M681.2349,218.8306 Q680.6568,219.1275 680.0162,219.2681 Q679.3755,219.4244 678.6724,219.4244 Q676.1724,219.4244 674.8443,217.7838 Q673.5318,216.1275 673.5318,213.0025 Q673.5318,209.8775 674.8443,208.2213 Q676.1724,206.565 678.6724,206.565 Q679.3755,206.565 680.0162,206.7213 Q680.6724,206.8775 681.2349,207.1744 L681.2349,209.8931 Q680.6099,209.315 680.0162,209.0494 Q679.4224,208.7681 678.7974,208.7681 Q677.4537,208.7681 676.7662,209.8463 Q676.0787,210.9088 676.0787,213.0025 Q676.0787,215.0963 676.7662,216.1744 Q677.4537,217.2369 678.7974,217.2369 Q679.4224,217.2369 680.0162,216.9713 Q680.6099,216.69 681.2349,216.1119 L681.2349,218.8306 Z " fill="#000000"/><text fill="#000000" font-family="sans-serif" font-size="14" lengthAdjust="spacing" textLength="137.6895" x="698.7662" y="218.0367">QuestionRepository</text><line style="stroke:#181818;stroke-width:0.5;" x1="622.21" x2="880.5118" y1="229.19" y2="229.19"/><rect fill="none" height="6" style="stroke:#C82930;stroke-width:1;" width="6" x="629.21" y="239.8384"/><text fill="#000000" font-family="sans-serif" font-size="14" lengthAdjust="spacing" textLength="97.5078" x="641.21" y="246.1851">questions: list</text><line style="stroke:#181818;stroke-width:0.5;" x1="622.21" x2="880.5118" y1="253.4869" y2="253.4869"/><ellipse cx="632.21" cy="267.1353" fill="#84BE84" rx="3" ry="3" style="stroke:#038048;stroke-width:1;"/><text fill="#000000" font-family="sans-serif" font-size="14" lengthAdjust="spacing" textLength="234.3018" x="641.21" y="270.482">addQuestion(question: dict): void</text><ellipse cx="632.21" cy="283.4322" fill="#84BE84" rx="3" ry="3" style="stroke:#038048;stroke-width:1;"/><text fill="#000000" font-family="sans-serif" font-size="14" lengthAdjust="spacing" textLength="168.8271" x="641.21" y="286.7789">validateQuestion(): bool</text></g><!--class IntroductoryMovieModule--><g class="entity" data-entity="IntroductoryMovieModule" data-source-line="31" data-uid="ent0007" id="entity_IntroductoryMovieModule"><rect fill="#F1F1F1" height="96.8906" rx="2.5" ry="2.5" style="stroke:#181818;stroke-width:0.5;" width="210.7051" x="1106.01" y="15.15"/><ellipse cx="1121.01" cy="31.15" fill="#ADD1B2" rx="11" ry="11" style="stroke:#181818;stroke-width:1;"/><path d="M1123.9788,36.7906 Q1123.4006,37.0875 1122.76,37.2281 Q1122.1194,37.3844 1121.4163,37.3844 Q1118.9163,37.3844 1117.5881,35.7438 Q1116.2756,34.0875 1116.2756,30.9625 Q1116.2756,27.8375 1117.5881,26.1813 Q1118.9163,24.525 1121.4163,24.525 Q1122.1194,24.525 1122.76,24.6813 Q1123.4163,24.8375 1123.9788,25.1344 L1123.9788,27.8531 Q1123.3538,27.275 1122.76,27.0094 Q1122.1663,26.7281 1121.5413,26.7281 Q1120.1975,26.7281 1119.51,27.8063 Q1118.8225,28.8688 1118.8225,30.9625 Q1118.8225,33.0563 1119.51,34.1344 Q1120.1975,35.1969 1121.5413,35.1969 Q1122.1663,35.1969 1122.76,34.9313 Q1123.3538,34.65 1123.9788,34.0719 L1123.9788,36.7906 Z " fill="#000000"/><text fill="#000000" font-family="sans-serif" font-size="14" lengthAdjust="spacing" textLength="178.7051" x="1135.01" y="35.9967">IntroductoryMovieModule</text><line style="stroke:#181818;stroke-width:0.5;" x1="1107.01" x2="1315.7151" y1="47.15" y2="47.15"/><line style="stroke:#181818;stroke-width:0.5;" x1="1107.01" x2="1315.7151" y1="55.15" y2="55.15"/><ellipse cx="1117.01" cy="68.7984" fill="#84BE84" rx="3" ry="3" style="stroke:#038048;stroke-width:1;"/><text fill="#000000" font-family="sans-serif" font-size="14" lengthAdjust="spacing" textLength="120.791" x="1126.01" y="72.1451">playMovie(): void</text><ellipse cx="1117.01" cy="85.0953" fill="#84BE84" rx="3" ry="3" style="stroke:#038048;stroke-width:1;"/><text fill="#000000" font-family="sans-serif" font-size="14" lengthAdjust="spacing" textLength="121.3857" x="1126.01" y="88.442">stopMovie(): void</text><ellipse cx="1117.01" cy="101.3922" fill="#84BE84" rx="3" ry="3" style="stroke:#038048;stroke-width:1;"/><text fill="#000000" font-family="sans-serif" font-size="14" lengthAdjust="spacing" textLength="178.2539" x="1126.01" y="104.7389">checkSkipRequest(): bool</text></g><!--class LocalStorageManager--><g class="entity" data-entity="LocalStorageManager" data-source-line="37" data-uid="ent0008" id="entity_LocalStorageManager"><rect fill="#F1F1F1" height="96.8906" rx="2.5" ry="2.5" style="stroke:#181818;stroke-width:0.5;" width="216.2988" x="107.21" y="371.08"/><ellipse cx="136.4413" cy="387.08" fill="#ADD1B2" rx="11" ry="11" style="stroke:#181818;stroke-width:1;"/><path d="M139.41,392.7206 Q138.8319,393.0175 138.1913,393.1581 Q137.5506,393.3144 136.8475,393.3144 Q134.3475,393.3144 133.0194,391.6738 Q131.7069,390.0175 131.7069,386.8925 Q131.7069,383.7675 133.0194,382.1113 Q134.3475,380.455 136.8475,380.455 Q137.5506,380.455 138.1913,380.6113 Q138.8475,380.7675 139.41,381.0644 L139.41,383.7831 Q138.785,383.205 138.1913,382.9394 Q137.5975,382.6581 136.9725,382.6581 Q135.6288,382.6581 134.9413,383.7363 Q134.2538,384.7988 134.2538,386.8925 Q134.2538,388.9863 134.9413,390.0644 Q135.6288,391.1269 136.9725,391.1269 Q137.5975,391.1269 138.1913,390.8613 Q138.785,390.58 139.41,390.0019 L139.41,392.7206 Z " fill="#000000"/><text fill="#000000" font-family="sans-serif" font-size="14" lengthAdjust="spacing" textLength="152.6738" x="153.6038" y="391.9267">LocalStorageManager</text><line style="stroke:#181818;stroke-width:0.5;" x1="108.21" x2="322.5088" y1="403.08" y2="403.08"/><line style="stroke:#181818;stroke-width:0.5;" x1="108.21" x2="322.5088" y1="411.08" y2="411.08"/><ellipse cx="118.21" cy="424.7284" fill="#84BE84" rx="3" ry="3" style="stroke:#038048;stroke-width:1;"/><text fill="#000000" font-family="sans-serif" font-size="14" lengthAdjust="spacing" textLength="190.2988" x="127.21" y="428.0751">storeScore(score: int): void</text><ellipse cx="118.21" cy="441.0253" fill="#84BE84" rx="3" ry="3" style="stroke:#038048;stroke-width:1;"/><text fill="#000000" font-family="sans-serif" font-size="14" lengthAdjust="spacing" textLength="132.877" x="127.21" y="444.372">retrieveScore(): int</text><ellipse cx="118.21" cy="457.3222" fill="#84BE84" rx="3" ry="3" style="stroke:#038048;stroke-width:1;"/><text fill="#000000" font-family="sans-serif" font-size="14" lengthAdjust="spacing" textLength="139.6377" x="127.21" y="460.6689">validateData(): bool</text></g><!--class StateManager--><g class="entity" data-entity="StateManager" data-source-line="47" data-uid="ent0013" id="entity_StateManager"><rect fill="#F1F1F1" height="48" rx="2.5" ry="2.5" style="stroke:#181818;stroke-width:0.5;" width="130.4238" x="1146.15" y="221.63"/><ellipse cx="1161.15" cy="237.63" fill="#ADD1B2" rx="11" ry="11" style="stroke:#181818;stroke-width:1;"/><path d="M1164.1188,243.2706 Q1163.5406,243.5675 1162.9,243.7081 Q1162.2594,243.8644 1161.5563,243.8644 Q1159.0563,243.8644 1157.7281,242.2238 Q1156.4156,240.5675 1156.4156,237.4425 Q1156.4156,234.3175 1157.7281,232.6613 Q1159.0563,231.005 1161.5563,231.005 Q1162.2594,231.005 1162.9,231.1613 Q1163.5563,231.3175 1164.1188,231.6144 L1164.1188,234.3331 Q1163.4938,233.755 1162.9,233.4894 Q1162.3063,233.2081 1161.6813,233.2081 Q1160.3375,233.2081 1159.65,234.2863 Q1158.9625,235.3488 1158.9625,237.4425 Q1158.9625,239.5363 1159.65,240.6144 Q1160.3375,241.6769 1161.6813,241.6769 Q1162.3063,241.6769 1162.9,241.4113 Q1163.4938,241.13 1164.1188,240.5519 L1164.1188,243.2706 Z " fill="#000000"/><text fill="#000000" font-family="sans-serif" font-size="14" lengthAdjust="spacing" textLength="98.4238" x="1175.15" y="242.4767">StateManager</text><line style="stroke:#181818;stroke-width:0.5;" x1="1147.15" x2="1275.5738" y1="253.63" y2="253.63"/><line style="stroke:#181818;stroke-width:0.5;" x1="1147.15" x2="1275.5738" y1="261.63" y2="261.63"/></g><!--class MainMenuModule--><g class="entity" data-entity="MainMenuModule" data-source-line="48" data-uid="ent0015" id="entity_MainMenuModule"><rect fill="#F1F1F1" height="48" rx="2.5" ry="2.5" style="stroke:#181818;stroke-width:0.5;" width="154.7666" x="1133.98" y="395.52"/><ellipse cx="1148.98" cy="411.52" fill="#ADD1B2" rx="11" ry="11" style="stroke:#181818;stroke-width:1;"/><path d="M1151.9488,417.1606 Q1151.3706,417.4575 1150.73,417.5981 Q1150.0894,417.7544 1149.3863,417.7544 Q1146.8863,417.7544 1145.5581,416.1138 Q1144.2456,414.4575 1144.2456,411.3325 Q1144.2456,408.2075 1145.5581,406.5513 Q1146.8863,404.895 1149.3863,404.895 Q1150.0894,404.895 1150.73,405.0513 Q1151.3863,405.2075 1151.9488,405.5044 L1151.9488,408.2231 Q1151.3238,407.645 1150.73,407.3794 Q1150.1363,407.0981 1149.5113,407.0981 Q1148.1675,407.0981 1147.48,408.1763 Q1146.7925,409.2388 1146.7925,411.3325 Q1146.7925,413.4263 1147.48,414.5044 Q1148.1675,415.5669 1149.5113,415.5669 Q1150.1363,415.5669 1150.73,415.3013 Q1151.3238,415.02 1151.9488,414.4419 L1151.9488,417.1606 Z " fill="#000000"/><text fill="#000000" font-family="sans-serif" font-size="14" lengthAdjust="spacing" textLength="122.7666" x="1162.98" y="416.3667">MainMenuModule</text><line style="stroke:#181818;stroke-width:0.5;" x1="1134.98" x2="1287.7466" y1="427.52" y2="427.52"/><line style="stroke:#181818;stroke-width:0.5;" x1="1134.98" x2="1287.7466" y1="435.52" y2="435.52"/></g><!--link PhysicsEngine to InputProcessingModule--><g class="link" data-entity-1="PhysicsEngine" data-entity-2="InputProcessingModule" data-source-line="43" data-uid="lnk9" id="link_PhysicsEngine_InputProcessingModule"><path codeLine="43" d="M215.36,104.11 C215.36,131.43 215.36,161.94 215.36,190.9" fill="none" id="PhysicsEngine-to-InputProcessingModule" style="stroke:#181818;stroke-width:1;"/><polygon fill="#181818" points="215.36,196.9,219.36,187.9,215.36,191.9,211.36,187.9,215.36,196.9" style="stroke:#181818;stroke-width:1;"/><text fill="#000000" font-family="sans-serif" font-size="13" lengthAdjust="spacing" textLength="29.7832" x="216.36" y="163.2569">uses</text></g><!--link InputProcessingModule to LocalStorageManager--><g class="link" data-entity-1="InputProcessingModule" data-entity-2="LocalStorageManager" data-source-line="44" data-uid="lnk10" id="link_InputProcessingModule_LocalStorageManager"><path codeLine="44" d="M215.36,294.52 C215.36,318.26 215.36,340.86 215.36,364.6" fill="none" id="InputProcessingModule-to-LocalStorageManager" style="stroke:#181818;stroke-width:1;"/><polygon fill="#181818" points="215.36,370.6,219.36,361.6,215.36,365.6,211.36,361.6,215.36,370.6" style="stroke:#181818;stroke-width:1;"/><text fill="#000000" font-family="sans-serif" font-size="13" lengthAdjust="spacing" textLength="29.7832" x="216.36" y="337.1469">uses</text></g><!--link AdminInterface to QuestionRepository--><g class="link" data-entity-1="AdminInterface" data-entity-2="QuestionRepository" data-source-line="45" data-uid="lnk11" id="link_AdminInterface_QuestionRepository"><path codeLine="45" d="M625.26,120.57 C650.13,145.04 674.7116,169.2334 698.5516,192.6734" fill="none" id="AdminInterface-to-QuestionRepository" style="stroke:#181818;stroke-width:1;"/><polygon fill="#181818" points="702.83,196.88,699.2168,187.7179,699.2647,193.3745,693.608,193.4224,702.83,196.88" style="stroke:#181818;stroke-width:1;"/><text fill="#000000" font-family="sans-serif" font-size="13" lengthAdjust="spacing" textLength="59.8584" x="672.36" y="163.2569">manages</text></g><!--link StorylineEngine to QuestionRepository--><g class="link" data-entity-1="StorylineEngine" data-entity-2="QuestionRepository" data-source-line="46" data-uid="lnk12" id="link_StorylineEngine_QuestionRepository"><path codeLine="46" d="M870.37,112.37 C846.85,138.52 821.7931,166.3596 798.2831,192.4896" fill="none" id="StorylineEngine-to-QuestionRepository" style="stroke:#181818;stroke-width:1;"/><polygon fill="#181818" points="794.27,196.95,803.2633,192.9349,797.6143,193.233,797.3161,187.584,794.27,196.95" style="stroke:#181818;stroke-width:1;"/><text fill="#000000" font-family="sans-serif" font-size="13" lengthAdjust="spacing" textLength="55.7642" x="833.36" y="163.2569">depends</text></g><!--link IntroductoryMovieModule to StateManager--><g class="link" data-entity-1="IntroductoryMovieModule" data-entity-2="StateManager" data-source-line="47" data-uid="lnk14" id="link_IntroductoryMovieModule_StateManager"><path codeLine="47" d="M1211.36,112.37 C1211.36,147.58 1211.36,187.94 1211.36,215.39" fill="none" id="IntroductoryMovieModule-to-StateManager" style="stroke:#181818;stroke-width:1;"/><polygon fill="#181818" points="1211.36,221.39,1215.36,212.39,1211.36,216.39,1207.36,212.39,1211.36,221.39" style="stroke:#181818;stroke-width:1;"/><text fill="#000000" font-family="sans-serif" font-size="13" lengthAdjust="spacing" textLength="50.6733" x="1212.36" y="163.2569">triggers</text></g><!--link StateManager to MainMenuModule--><g class="link" data-entity-1="StateManager" data-entity-2="MainMenuModule" data-source-line="48" data-uid="lnk16" id="link_StateManager_MainMenuModule"><path codeLine="48" d="M1211.36,269.82 C1211.36,302.62 1211.36,356.26 1211.36,389.16" fill="none" id="StateManager-to-MainMenuModule" style="stroke:#181818;stroke-width:1;"/><polygon fill="#181818" points="1211.36,395.16,1215.36,386.16,1211.36,390.16,1207.36,386.16,1211.36,395.16" style="stroke:#181818;stroke-width:1;"/><text fill="#000000" font-family="sans-serif" font-size="13" lengthAdjust="spacing" textLength="85.8901" x="1212.36" y="337.1469">transitions to</text></g><!--SRC=[TLHBZjim3Dtx55ewQ7C1BmeCa1GOe1waoKpthCJ4GXH98qeU14LFD4VeBYShvTX9d8yNSa0_yZq-Kf46YCIYsPEMDBSRRL7yAGG_NoGOcGn4_8N6IHttvJg0ZDhPIgoDWpYfHEkqEgAJLmnTUP18ZVOBHpf3om7qjoXan_LiVOgBu1X7scvgfv8vSRPWTAxplMSgRTfXWEX29RIDNuL2wtRQdY9S_hTpfbViR8iXlhePIhq3So6OOfZqiezOfSaRsCz3SA5cAR31MwrFYhcURSImvhvwaLD8iNbrMpoMvHwE5NCORTIIzNU9fUSQ7oweWVwir42oilcPaBAykTBSJpdoaw35jyvJkjMrOlZUyAp64qEsBt766s5O8dbd2Kkmz85Xa70cO2lKR6zXf-K2OZDctw3DjkCB17xfjlE6Avmb3DgNwFEeMSzWptl_XIfXDFLsWr93HZa0Ag6q76_HCFyJTd3jOdrYu9MHcR5shSRn0kMPTk4hDwFpTyAoGRbTRRLVOYVgbkw7uskGxURzgC7o6GOghXbm9VaeAP_3FfxB1-JrmBO7JJh0kCyPHBWa7L_4wVJRW-jIYKH8nVsFEUsUxaeSFdFQuLznjTWvuyv0Ax7hKgcuNhY72OTFXHwjoYIFHfMJLv6xFmjZdpRyAnDTn3Em1crhjEdKU0oyqTr_2ude_WC0]--></g></svg>