<svg xmlns="http://www.w3.org/2000/svg" xmlns:xlink="http://www.w3.org/1999/xlink" contentStyleType="text/css" data-diagram-type="STATE" height="527px" preserveAspectRatio="none" style="width:398px;height:527px;background:#FFFFFF;" version="1.1" viewBox="0 0 398 527" width="398px" zoomAndPan="magnify"><defs/><g><ellipse cx="133.08" cy="16" fill="#222222" rx="10" ry="10" style="stroke:#222222;stroke-width:1;"/><g id="Idle"><rect fill="#F1F1F1" height="50" rx="12.5" ry="12.5" style="stroke:#181818;stroke-width:0.5;" width="50" x="108.08" y="103"/><line style="stroke:#181818;stroke-width:0.5;" x1="108.08" x2="158.08" y1="129.2969" y2="129.2969"/><text fill="#000000" font-family="sans-serif" font-size="14" lengthAdjust="spacing" textLength="25.5186" x="120.3207" y="120.9951">Idle</text></g><g id="Playing"><rect fill="#F1F1F1" height="50" rx="12.5" ry="12.5" style="stroke:#181818;stroke-width:0.5;" width="70.8457" x="97.66" y="230"/><line style="stroke:#181818;stroke-width:0.5;" x1="97.66" x2="168.5057" y1="256.2969" y2="256.2969"/><text fill="#000000" font-family="sans-serif" font-size="14" lengthAdjust="spacing" textLength="50.8457" x="107.66" y="247.9951">Playing</text></g><g id="Skipped"><rect fill="#F1F1F1" height="50" rx="12.5" ry="12.5" style="stroke:#181818;stroke-width:0.5;" width="76.1572" x="9" y="372"/><line style="stroke:#181818;stroke-width:0.5;" x1="9" x2="85.1572" y1="398.2969" y2="398.2969"/><text fill="#000000" font-family="sans-serif" font-size="14" lengthAdjust="spacing" textLength="56.1572" x="19" y="389.9951">Skipped</text></g><g id="Completed"><rect fill="#F1F1F1" height="50" rx="12.5" ry="12.5" style="stroke:#181818;stroke-width:0.5;" width="96.3574" x="170.9" y="372"/><line style="stroke:#181818;stroke-width:0.5;" x1="170.9" x2="267.2574" y1="398.2969" y2="398.2969"/><text fill="#000000" font-family="sans-serif" font-size="14" lengthAdjust="spacing" textLength="76.3574" x="180.9" y="389.9951">Completed</text></g><ellipse cx="133.08" cy="510" fill="none" rx="11" ry="11" style="stroke:#222222;stroke-width:1;"/><ellipse cx="133.08" cy="510" fill="#222222" rx="6" ry="6" style="stroke:#222222;stroke-width:1;"/><!--link *start* to Idle--><g class="link" data-entity-1=".start." data-entity-2="Idle" data-source-line="1" data-uid="lnk4" id="link_.start._Idle"><path d="M133.08,26.38 C133.08,43.11 133.08,72.59 133.08,96.63" fill="none" id="*start*-to-Idle" style="stroke:#181818;stroke-width:1;"/><polygon fill="#181818" points="133.08,102.63,137.08,93.63,133.08,97.63,129.08,93.63,133.08,102.63" style="stroke:#181818;stroke-width:1;"/><text fill="#000000" font-family="sans-serif" font-size="13" lengthAdjust="spacing" textLength="79.2759" x="134.08" y="69.0669">Initialization</text></g><!--link Idle to Playing--><g class="link" data-entity-1="Idle" data-entity-2="Playing" data-source-line="2" data-uid="lnk6" id="link_Idle_Playing"><path d="M133.08,153.4 C133.08,175.42 133.08,201.66 133.08,223.66" fill="none" id="Idle-to-Playing" style="stroke:#181818;stroke-width:1;"/><polygon fill="#181818" points="133.08,229.66,137.08,220.66,133.08,224.66,129.08,220.66,133.08,229.66" style="stroke:#181818;stroke-width:1;"/><text fill="#000000" font-family="sans-serif" font-size="13" lengthAdjust="spacing" textLength="185.2119" x="134.08" y="196.0669">onSystemStart / playMovie()</text></g><!--link Playing to Skipped--><g class="link" data-entity-1="Playing" data-entity-2="Skipped" data-source-line="3" data-uid="lnk8" id="link_Playing_Skipped"><path d="M97.19,262.29 C70.32,269.08 35.34,282.82 18.08,310 C6,329.02 13.2143,348.5737 24.8043,366.5937" fill="none" id="Playing-to-Skipped" style="stroke:#181818;stroke-width:1;"/><polygon fill="#181818" points="28.05,371.64,26.5457,361.9067,25.3453,367.4347,19.8173,366.2343,28.05,371.64" style="stroke:#181818;stroke-width:1;"/><text fill="#000000" font-family="sans-serif" font-size="13" lengthAdjust="spacing" textLength="178.6865" x="19.08" y="323.0669">onMouseClick / stopMovie()</text><text fill="#000000" font-family="sans-serif" font-size="13" lengthAdjust="spacing" textLength="94.8467" x="65.1322" y="338.1997">logSkipEvent()</text></g><!--link Playing to Completed--><g class="link" data-entity-1="Playing" data-entity-2="Completed" data-source-line="4" data-uid="lnk10" id="link_Playing_Completed"><path d="M168.88,274.41 C182.67,283.3 197.22,295.28 206.08,310 C217.29,328.63 219.9375,347.5104 220.1575,365.7204" fill="none" id="Playing-to-Completed" style="stroke:#181818;stroke-width:1;"/><polygon fill="#181818" points="220.23,371.72,224.121,362.6723,220.1696,366.7204,216.1216,362.769,220.23,371.72" style="stroke:#181818;stroke-width:1;"/><text fill="#000000" font-family="sans-serif" font-size="13" lengthAdjust="spacing" textLength="168.708" x="218.08" y="323.0669">onMovieEnd / stopMovie()</text><text fill="#000000" font-family="sans-serif" font-size="13" lengthAdjust="spacing" textLength="154.5146" x="229.309" y="338.1997">triggerMenuTransition()</text></g><!--link Skipped to *end*--><g class="link" data-entity-1="Skipped" data-entity-2=".end." data-source-line="5" data-uid="lnk12" id="link_Skipped_.end."><path d="M65.95,422.36 C85.14,447.12 110.1139,479.368 122.8739,495.828" fill="none" id="Skipped-to-*end*" style="stroke:#181818;stroke-width:1;"/><polygon fill="#181818" points="126.55,500.57,124.1972,491.0063,123.4866,496.6183,117.8746,495.9077,126.55,500.57" style="stroke:#181818;stroke-width:1;"/><text fill="#000000" font-family="sans-serif" font-size="13" lengthAdjust="spacing" textLength="40.8091" x="101.08" y="465.0669">onExit</text></g><!--link Completed to *end*--><g class="link" data-entity-1="Completed" data-entity-2=".end." data-source-line="6" data-uid="lnk13" id="link_Completed_.end."><path d="M200.21,422.36 C181.02,447.12 156.0343,479.3666 143.2843,495.8266" fill="none" id="Completed-to-*end*" style="stroke:#181818;stroke-width:1;"/><polygon fill="#181818" points="139.61,500.57,148.2837,495.9044,142.6719,496.6172,141.9591,491.0054,139.61,500.57" style="stroke:#181818;stroke-width:1;"/><text fill="#000000" font-family="sans-serif" font-size="13" lengthAdjust="spacing" textLength="208.1523" x="177.08" y="465.0669">onExit / transitionToMainMenu()</text></g><!--SRC=[PSyn2uCm40NWtL-HKGlIlKCNSN0857Ip7K8zv31UGd9AxQzl8jM2NVFU-xYqfuV8ywkeEWtY8Yf2HgNnhHWD9UjhZ6zQBKXzQ1Yg5yymrgmSYxEm8P5cHaYpP6l5HJsWjT2j2sac3uN6vn06detz3iITX3Pzh9Op41-8menM0-z8s9JK_HFiiE_1IQ2fSOeynjk3jPqGhJRyCohb2pdvmSSeuBmJZP4AAR9fzW40]--></g></svg>