<svg xmlns="http://www.w3.org/2000/svg" xmlns:xlink="http://www.w3.org/1999/xlink" contentStyleType="text/css" data-diagram-type="DESCRIPTION" height="383px" preserveAspectRatio="none" style="width:1793px;height:383px;background:#FFFFFF;" version="1.1" viewBox="0 0 1793 383" width="1793px" zoomAndPan="magnify"><defs/><g><!--cluster client--><g class="cluster" data-entity="client" data-source-line="3" data-uid="ent0002" id="cluster_client"><polygon fill="none" points="14,14,24,4,428,4,428,218,418,228,14,228,14,14" style="stroke:#181818;stroke-width:1;"/><line style="stroke:#181818;stroke-width:1;" x1="418" x2="428" y1="14" y2="4"/><line style="stroke:#181818;stroke-width:1;" x1="14" x2="418" y1="14" y2="14"/><line style="stroke:#181818;stroke-width:1;" x1="418" x2="418" y1="14" y2="228"/><text fill="#000000" font-family="sans-serif" font-size="14" font-weight="bold" lengthAdjust="spacing" textLength="103.7354" x="165.1323" y="29.9951">Client Device</text></g><!--cluster server--><g class="cluster" data-entity="server" data-source-line="9" data-uid="ent0006" id="cluster_server"><polygon fill="none" points="436,152,446,142,980,142,980,356,970,366,436,366,436,152" style="stroke:#181818;stroke-width:1;"/><line style="stroke:#181818;stroke-width:1;" x1="970" x2="980" y1="152" y2="142"/><line style="stroke:#181818;stroke-width:1;" x1="436" x2="970" y1="152" y2="152"/><line style="stroke:#181818;stroke-width:1;" x1="970" x2="970" y1="152" y2="366"/><text fill="#000000" font-family="sans-serif" font-size="14" font-weight="bold" lengthAdjust="spacing" textLength="91.8408" x="658.0796" y="167.9951">Web Server</text></g><!--cluster db--><g class="cluster" data-entity="db" data-source-line="16" data-uid="ent0011" id="cluster_db"><polygon fill="none" points="988,290,998,280,1400,280,1400,356,1390,366,988,366,988,290" style="stroke:#181818;stroke-width:1;"/><line style="stroke:#181818;stroke-width:1;" x1="1390" x2="1400" y1="290" y2="280"/><line style="stroke:#181818;stroke-width:1;" x1="988" x2="1390" y1="290" y2="290"/><line style="stroke:#181818;stroke-width:1;" x1="1390" x2="1390" y1="290" y2="366"/><text fill="#000000" font-family="sans-serif" font-size="14" font-weight="bold" lengthAdjust="spacing" textLength="131.3867" x="1124.3066" y="305.9951">Database Server</text></g><!--cluster ext--><g class="cluster" data-entity="ext" data-source-line="21" data-uid="ent0014" id="cluster_ext"><polygon fill="none" points="1408,290,1418,280,1776,280,1776,356,1766,366,1408,366,1408,290" style="stroke:#181818;stroke-width:1;"/><line style="stroke:#181818;stroke-width:1;" x1="1766" x2="1776" y1="290" y2="280"/><line style="stroke:#181818;stroke-width:1;" x1="1408" x2="1766" y1="290" y2="290"/><line style="stroke:#181818;stroke-width:1;" x1="1766" x2="1766" y1="290" y2="366"/><text fill="#000000" font-family="sans-serif" font-size="14" font-weight="bold" lengthAdjust="spacing" textLength="137.3066" x="1519.3467" y="305.9951">External Services</text></g><!--entity Browser (Flash Support)--><g class="entity" data-entity="Browser .Flash Support." data-source-line="4" data-uid="ent0003" id="entity_Browser .Flash Support."><rect fill="#F1F1F1" height="46.2969" rx="2.5" ry="2.5" style="stroke:#181818;stroke-width:0.5;" width="208.8955" x="22.5" y="36"/><rect fill="#F1F1F1" height="10" style="stroke:#181818;stroke-width:0.5;" width="15" x="211.3955" y="41"/><rect fill="#F1F1F1" height="2" style="stroke:#181818;stroke-width:0.5;" width="4" x="209.3955" y="43"/><rect fill="#F1F1F1" height="2" style="stroke:#181818;stroke-width:0.5;" width="4" x="209.3955" y="47"/><text fill="#000000" font-family="sans-serif" font-size="14" lengthAdjust="spacing" textLength="168.8955" x="37.5" y="68.9951">Browser (Flash Support)</text></g><!--entity Local Storage--><g class="entity" data-entity="Local Storage" data-source-line="5" data-uid="ent0004" id="entity_Local Storage"><rect fill="#F1F1F1" height="46.2969" rx="2.5" ry="2.5" style="stroke:#181818;stroke-width:0.5;" width="135.7578" x="284" y="36"/><rect fill="#F1F1F1" height="10" style="stroke:#181818;stroke-width:0.5;" width="15" x="399.7578" y="41"/><rect fill="#F1F1F1" height="2" style="stroke:#181818;stroke-width:0.5;" width="4" x="397.7578" y="43"/><rect fill="#F1F1F1" height="2" style="stroke:#181818;stroke-width:0.5;" width="4" x="397.7578" y="47"/><text fill="#000000" font-family="sans-serif" font-size="14" lengthAdjust="spacing" textLength="95.7578" x="299" y="68.9951">Local Storage</text></g><!--entity Physics Engine--><g class="entity" data-entity="Physics Engine" data-source-line="6" data-uid="ent0005" id="entity_Physics Engine"><rect fill="#F1F1F1" height="46.2969" rx="2.5" ry="2.5" style="stroke:#181818;stroke-width:0.5;" width="144.207" x="55" y="174"/><rect fill="#F1F1F1" height="10" style="stroke:#181818;stroke-width:0.5;" width="15" x="179.207" y="179"/><rect fill="#F1F1F1" height="2" style="stroke:#181818;stroke-width:0.5;" width="4" x="177.207" y="181"/><rect fill="#F1F1F1" height="2" style="stroke:#181818;stroke-width:0.5;" width="4" x="177.207" y="185"/><text fill="#000000" font-family="sans-serif" font-size="14" lengthAdjust="spacing" textLength="104.207" x="70" y="206.9951">Physics Engine</text></g><!--entity Content Delivery Server--><g class="entity" data-entity="Content Delivery Server" data-source-line="10" data-uid="ent0007" id="entity_Content Delivery Server"><rect fill="#F1F1F1" height="46.2969" rx="2.5" ry="2.5" style="stroke:#181818;stroke-width:0.5;" width="208.6016" x="444.5" y="174"/><rect fill="#F1F1F1" height="10" style="stroke:#181818;stroke-width:0.5;" width="15" x="633.1016" y="179"/><rect fill="#F1F1F1" height="2" style="stroke:#181818;stroke-width:0.5;" width="4" x="631.1016" y="181"/><rect fill="#F1F1F1" height="2" style="stroke:#181818;stroke-width:0.5;" width="4" x="631.1016" y="185"/><text fill="#000000" font-family="sans-serif" font-size="14" lengthAdjust="spacing" textLength="168.6016" x="459.5" y="206.9951">Content Delivery Server</text></g><!--entity Admin Interface--><g class="entity" data-entity="Admin Interface" data-source-line="11" data-uid="ent0008" id="entity_Admin Interface"><rect fill="#F1F1F1" height="46.2969" rx="2.5" ry="2.5" style="stroke:#181818;stroke-width:0.5;" width="151.9932" x="820" y="174"/><rect fill="#F1F1F1" height="10" style="stroke:#181818;stroke-width:0.5;" width="15" x="951.9932" y="179"/><rect fill="#F1F1F1" height="2" style="stroke:#181818;stroke-width:0.5;" width="4" x="949.9932" y="181"/><rect fill="#F1F1F1" height="2" style="stroke:#181818;stroke-width:0.5;" width="4" x="949.9932" y="185"/><text fill="#000000" font-family="sans-serif" font-size="14" lengthAdjust="spacing" textLength="111.9932" x="835" y="206.9951">Admin Interface</text></g><!--entity Backend Server--><g class="entity" data-entity="Backend Server" data-source-line="12" data-uid="ent0009" id="entity_Backend Server"><rect fill="#F1F1F1" height="46.2969" rx="2.5" ry="2.5" style="stroke:#181818;stroke-width:0.5;" width="150.7217" x="473.5" y="312"/><rect fill="#F1F1F1" height="10" style="stroke:#181818;stroke-width:0.5;" width="15" x="604.2217" y="317"/><rect fill="#F1F1F1" height="2" style="stroke:#181818;stroke-width:0.5;" width="4" x="602.2217" y="319"/><rect fill="#F1F1F1" height="2" style="stroke:#181818;stroke-width:0.5;" width="4" x="602.2217" y="323"/><text fill="#000000" font-family="sans-serif" font-size="14" lengthAdjust="spacing" textLength="110.7217" x="488.5" y="344.9951">Backend Server</text></g><!--entity File Storage System--><g class="entity" data-entity="File Storage System" data-source-line="13" data-uid="ent0010" id="entity_File Storage System"><rect fill="#F1F1F1" height="46.2969" rx="2.5" ry="2.5" style="stroke:#181818;stroke-width:0.5;" width="180.3281" x="643" y="312"/><rect fill="#F1F1F1" height="10" style="stroke:#181818;stroke-width:0.5;" width="15" x="803.3281" y="317"/><rect fill="#F1F1F1" height="2" style="stroke:#181818;stroke-width:0.5;" width="4" x="801.3281" y="319"/><rect fill="#F1F1F1" height="2" style="stroke:#181818;stroke-width:0.5;" width="4" x="801.3281" y="323"/><text fill="#000000" font-family="sans-serif" font-size="14" lengthAdjust="spacing" textLength="140.3281" x="658" y="344.9951">File Storage System</text></g><!--entity Question Repository--><g class="entity" data-entity="Question Repository" data-source-line="17" data-uid="ent0012" id="entity_Question Repository"><rect fill="#F1F1F1" height="46.2969" rx="2.5" ry="2.5" style="stroke:#181818;stroke-width:0.5;" width="182.1396" x="1210" y="312"/><rect fill="#F1F1F1" height="10" style="stroke:#181818;stroke-width:0.5;" width="15" x="1372.1396" y="317"/><rect fill="#F1F1F1" height="2" style="stroke:#181818;stroke-width:0.5;" width="4" x="1370.1396" y="319"/><rect fill="#F1F1F1" height="2" style="stroke:#181818;stroke-width:0.5;" width="4" x="1370.1396" y="323"/><text fill="#000000" font-family="sans-serif" font-size="14" lengthAdjust="spacing" textLength="142.1396" x="1225" y="344.9951">Question Repository</text></g><!--entity Storyline Content--><g class="entity" data-entity="Storyline Content" data-source-line="18" data-uid="ent0013" id="entity_Storyline Content"><rect fill="#F1F1F1" height="46.2969" rx="2.5" ry="2.5" style="stroke:#181818;stroke-width:0.5;" width="162.377" x="1030" y="312"/><rect fill="#F1F1F1" height="10" style="stroke:#181818;stroke-width:0.5;" width="15" x="1172.377" y="317"/><rect fill="#F1F1F1" height="2" style="stroke:#181818;stroke-width:0.5;" width="4" x="1170.377" y="319"/><rect fill="#F1F1F1" height="2" style="stroke:#181818;stroke-width:0.5;" width="4" x="1170.377" y="323"/><text fill="#000000" font-family="sans-serif" font-size="14" lengthAdjust="spacing" textLength="122.377" x="1045" y="344.9951">Storyline Content</text></g><!--entity S2S Resources--><g class="entity" data-entity="S2S Resources" data-source-line="22" data-uid="ent0015" id="entity_S2S Resources"><rect fill="#F1F1F1" height="46.2969" rx="2.5" ry="2.5" style="stroke:#181818;stroke-width:0.5;" width="143.5645" x="1624" y="312"/><rect fill="#F1F1F1" height="10" style="stroke:#181818;stroke-width:0.5;" width="15" x="1747.5645" y="317"/><rect fill="#F1F1F1" height="2" style="stroke:#181818;stroke-width:0.5;" width="4" x="1745.5645" y="319"/><rect fill="#F1F1F1" height="2" style="stroke:#181818;stroke-width:0.5;" width="4" x="1745.5645" y="323"/><text fill="#000000" font-family="sans-serif" font-size="14" lengthAdjust="spacing" textLength="103.5645" x="1639" y="344.9951">S2S Resources</text></g><!--entity Educational APIs--><g class="entity" data-entity="Educational APIs" data-source-line="23" data-uid="ent0016" id="entity_Educational APIs"><rect fill="#F1F1F1" height="46.2969" rx="2.5" ry="2.5" style="stroke:#181818;stroke-width:0.5;" width="156.0605" x="1450" y="312"/><rect fill="#F1F1F1" height="10" style="stroke:#181818;stroke-width:0.5;" width="15" x="1586.0605" y="317"/><rect fill="#F1F1F1" height="2" style="stroke:#181818;stroke-width:0.5;" width="4" x="1584.0605" y="319"/><rect fill="#F1F1F1" height="2" style="stroke:#181818;stroke-width:0.5;" width="4" x="1584.0605" y="323"/><text fill="#000000" font-family="sans-serif" font-size="14" lengthAdjust="spacing" textLength="116.0605" x="1465" y="344.9951">Educational APIs</text></g><g class="link" data-entity-1="client" data-entity-2="server" data-uid="lnk17" id="link_client_server"><polygon fill="#181818" points="661.2212,141.3448,656.8924,132.4982,657.389,138.1333,651.754,138.6299,661.2212,141.3448" style="stroke:#181818;stroke-width:1;"/><path d="M428.2552,110.2582 C444.0137,108.3028 459.4945,105.5912 474.8432,103.0657 C505.5405,98.0148 535.7092,93.7085 566.5138,97.6848 C581.9161,99.673 597.4774,103.7318 613.3433,110.8036 C621.2762,114.3395 629.2852,118.6286 637.3886,123.7887 C641.4403,126.3688 645.5156,129.1666 649.6167,132.1969 C651.6673,133.7121 653.7243,135.2854 655.7881,136.9186 C656.82,137.7352 657.8536,138.5668 658.8889,139.4136 C659.4065,139.837 659.9246,140.2643 660.4431,140.6953 C660.7024,140.9108 656.3631,137.2735 656.6225,137.491" fill="none" style="stroke:#181818;stroke-width:1;"/><text fill="#000000" font-family="sans-serif" font-size="13" lengthAdjust="spacing" textLength="79.625" x="659.2102" y="114.0669">HTTP/HTTPS</text><text fill="#000000" font-family="sans-serif" font-size="13" lengthAdjust="spacing" textLength="100.0454" x="649" y="129.1997">(Flash Content)</text></g><g class="link" data-entity-1="server" data-entity-2="db" data-uid="lnk18" id="link_server_db"><polygon fill="#181818" points="987.919,283.5531,984.6323,274.2689,984.48,279.9237,978.8252,279.7714,987.919,283.5531" style="stroke:#181818;stroke-width:1;"/><path d="M980.0406,277.7235 C980.3427,277.8553 980.6375,277.9908 980.925,278.1304 C982.0747,278.6884 983.105,279.3093 984,280 C984.831,280.6413 985.6275,281.3209 986.3909,282.0345 C986.7726,282.3913 987.1461,282.7566 987.5114,283.1299 C987.6028,283.2232 987.6936,283.317 987.7839,283.4113 C987.8291,283.4585 983.7472,279.1504 983.7921,279.1978" fill="none" style="stroke:#181818;stroke-width:1;"/><text fill="#000000" font-family="sans-serif" font-size="13" lengthAdjust="spacing" textLength="139.7183" x="905" y="252.0669">Database Connection</text><text fill="#000000" font-family="sans-serif" font-size="13" lengthAdjust="spacing" textLength="134.145" x="907.7866" y="267.1997">(MySQL/PostgreSQL)</text></g><g class="link" data-entity-1="server" data-entity-2="ext" data-uid="lnk19" id="link_server_ext"><polygon fill="#181818" points="1407.8742,283.2901,1404.3054,274.1106,1404.3259,279.7674,1398.6691,279.7879,1407.8742,283.2901" style="stroke:#181818;stroke-width:1;"/><path d="M980.5405,230.0772 C999.2899,230.8496 1020.3347,233.0686 1046,238 C1090.8621,246.62 1098.0875,263.6468 1143,272 C1157.2622,274.6526 1392.2217,271.5313 1404,280 C1404.8523,280.6128 1405.6683,281.2662 1406.4496,281.9558 C1406.8402,282.3006 1407.2222,282.6544 1407.5957,283.0168 C1407.6891,283.1073 1403.5239,278.9712 1403.6162,279.0629" fill="none" style="stroke:#181818;stroke-width:1;"/><text fill="#000000" font-family="sans-serif" font-size="13" lengthAdjust="spacing" textLength="55.7388" x="1145" y="252.0669">API Calls</text><text fill="#000000" font-family="sans-serif" font-size="13" lengthAdjust="spacing" textLength="51.8921" x="1146.9233" y="267.1997">(HTTPS)</text></g><g class="link" data-entity-1="client" data-entity-2="ext" data-uid="lnk20" id="link_client_ext"><polygon fill="#181818" points="1407.9163,284.3442,1405.4879,274.7994,1404.8217,280.4169,1399.2042,279.7507,1407.9163,284.3442" style="stroke:#181818;stroke-width:1;"/><path d="M428.9795,96.7776 C430.5616,96.8157 432.1493,96.8528 433.7422,96.8888 C459.2278,97.466 486.0431,97.791 512.9022,97.9708 C620.3386,98.6899 728.4742,97.0855 755,100 C857.8564,111.3014 883.7267,116.4575 984,142 C1174.4044,190.5015 1262.5011,143.6758 1404,280 C1404.747,280.7196 1405.4662,281.4696 1406.1588,282.2464 C1406.5051,282.6347 1406.8447,283.0298 1407.1778,283.431 C1407.3444,283.6317 1407.5093,283.8339 1407.6725,284.0376 C1407.7542,284.1394 1404.1219,279.5289 1404.2028,279.6315" fill="none" style="stroke:#181818;stroke-width:1;"/><text fill="#000000" font-family="sans-serif" font-size="13" lengthAdjust="spacing" textLength="91.6919" x="1339.241" y="194.0669">External Links</text><text fill="#000000" font-family="sans-serif" font-size="13" lengthAdjust="spacing" textLength="94.1738" x="1338" y="209.1997">(New Window)</text></g><g class="link" data-entity-1="server" data-entity-2="server" data-uid="lnk21" id="link_server_server"><polygon fill="#181818" points="688.2534,205.4855,693.9466,213.5221,692.5516,208.04,698.0338,206.645,688.2534,205.4855" style="stroke:#181818;stroke-width:1;"/><path d="M688.2534,188.5145 C696.652,183.5231 706,186.3516 706,197 C706,207.6484 701.8099,213.5423 693.4113,208.5509" fill="none" style="stroke:#181818;stroke-width:1;"/><text fill="#000000" font-family="sans-serif" font-size="13" lengthAdjust="spacing" textLength="92.7393" x="708" y="194.0669">Load Balancer</text><text fill="#000000" font-family="sans-serif" font-size="13" lengthAdjust="spacing" textLength="60.4741" x="724.1326" y="209.1997">(Internal)</text></g><!--SRC=[LP4nRy8m48LtViMLgHaGKaU6Ia11HKghq20nj1qEvmeMZXtP3X1L_UyzEm65nRBExxxtxlnGMToN20eRKtjm9NdKE1XeKn0CvqgIzl129obe2EX0j9NV0S3dp9gp8mkFIuNk07bTLSRwv3kyfKQWWjmRnbEiP8V6IU5WeVTIS-dlQhAb7UHaJsIZWulNrc5kj6y3ACd5fjD5thGefOOL2-mFYjPZXk98kkZBbbBHDGVaZVDKzhnVqECE7VK35BlMV5sJyz9e-A3AECc89X83h54y0tJnUhp5XUFeC3dpU6Sk4kdIRIn_ofdcJ6tvAS8MHIqmk73FD5kvoEgMF1ezNxSnWTVD9Xk78__ItS8x-sJGYOAUmq_WDXKhD8c0vwQt9b-duymulxV4rxk-474I4i0SbN8iZrv9FqkhkOsOIdqCmdSwmrRgmfplYBVagS42PgXG2xAiZr_6WEGV]--></g></svg>