<svg xmlns="http://www.w3.org/2000/svg" xmlns:xlink="http://www.w3.org/1999/xlink" contentStyleType="text/css" data-diagram-type="DESCRIPTION" height="441px" preserveAspectRatio="none" style="width:1926px;height:441px;background:#FFFFFF;" version="1.1" viewBox="0 0 1926 441" width="1926px" zoomAndPan="magnify"><defs/><g><!--cluster browser--><g class="cluster" data-entity="browser" data-source-line="3" data-uid="ent0002" id="cluster_browser"><path d="M16.5,4 L122.1924,4 A3.75,3.75 0 0 1 124.6924,6.5 L131.6924,26.2969 L435.5,26.2969 A2.5,2.5 0 0 1 438,28.7969 L438,215.5 A2.5,2.5 0 0 1 435.5,218 L16.5,218 A2.5,2.5 0 0 1 14,215.5 L14,6.5 A2.5,2.5 0 0 1 16.5,4" fill="none" style="stroke:#000000;stroke-width:1.5;"/><line style="stroke:#000000;stroke-width:1.5;" x1="14" x2="131.6924" y1="26.2969" y2="26.2969"/><text fill="#000000" font-family="sans-serif" font-size="14" font-weight="bold" lengthAdjust="spacing" textLength="104.6924" x="18" y="18.9951">Web Browser</text></g><!--cluster app--><g class="cluster" data-entity="app" data-source-line="10" data-uid="ent0007" id="cluster_app"><path d="M448.5,137 L635.5127,137 A3.75,3.75 0 0 1 638.0127,139.5 L645.0127,159.2969 L1118.5,159.2969 A2.5,2.5 0 0 1 1121,161.7969 L1121,348.5 A2.5,2.5 0 0 1 1118.5,351 L448.5,351 A2.5,2.5 0 0 1 446,348.5 L446,139.5 A2.5,2.5 0 0 1 448.5,137" fill="none" style="stroke:#000000;stroke-width:1.5;"/><line style="stroke:#000000;stroke-width:1.5;" x1="446" x2="645.0127" y1="159.2969" y2="159.2969"/><text fill="#000000" font-family="sans-serif" font-size="14" font-weight="bold" lengthAdjust="spacing" textLength="186.0127" x="450" y="151.9951">Web Application Server</text></g><!--cluster database--><g class="cluster" data-entity="database" data-source-line="18" data-uid="ent0013" id="cluster_database"><path d="M86.5,270 L162.0049,270 A3.75,3.75 0 0 1 164.5049,272.5 L171.5049,292.2969 L397.5,292.2969 A2.5,2.5 0 0 1 400,294.7969 L400,431.5 A2.5,2.5 0 0 1 397.5,434 L86.5,434 A2.5,2.5 0 0 1 84,431.5 L84,272.5 A2.5,2.5 0 0 1 86.5,270" fill="none" style="stroke:#000000;stroke-width:1.5;"/><line style="stroke:#000000;stroke-width:1.5;" x1="84" x2="171.5049" y1="292.2969" y2="292.2969"/><text fill="#000000" font-family="sans-serif" font-size="14" font-weight="bold" lengthAdjust="spacing" textLength="74.5049" x="88" y="284.9951">Database</text></g><!--cluster files--><g class="cluster" data-entity="files" data-source-line="24" data-uid="ent0017" id="cluster_files"><path d="M1131.5,270 L1228.292,270 A3.75,3.75 0 0 1 1230.792,272.5 L1237.792,292.2969 L1474.5,292.2969 A2.5,2.5 0 0 1 1477,294.7969 L1477,348.5 A2.5,2.5 0 0 1 1474.5,351 L1131.5,351 A2.5,2.5 0 0 1 1129,348.5 L1129,272.5 A2.5,2.5 0 0 1 1131.5,270" fill="none" style="stroke:#000000;stroke-width:1.5;"/><line style="stroke:#000000;stroke-width:1.5;" x1="1129" x2="1237.792" y1="292.2969" y2="292.2969"/><text fill="#000000" font-family="sans-serif" font-size="14" font-weight="bold" lengthAdjust="spacing" textLength="95.792" x="1133" y="284.9951">File Storage</text></g><!--cluster apis--><g class="cluster" data-entity="apis" data-source-line="29" data-uid="ent0020" id="cluster_apis"><path d="M1487.5,270 L1593.9102,270 A3.75,3.75 0 0 1 1596.4102,272.5 L1603.4102,292.2969 L1916.5,292.2969 A2.5,2.5 0 0 1 1919,294.7969 L1919,348.5 A2.5,2.5 0 0 1 1916.5,351 L1487.5,351 A2.5,2.5 0 0 1 1485,348.5 L1485,272.5 A2.5,2.5 0 0 1 1487.5,270" fill="none" style="stroke:#000000;stroke-width:1.5;"/><line style="stroke:#000000;stroke-width:1.5;" x1="1485" x2="1603.4102" y1="292.2969" y2="292.2969"/><text fill="#000000" font-family="sans-serif" font-size="14" font-weight="bold" lengthAdjust="spacing" textLength="105.4102" x="1489" y="284.9951">External APIs</text></g><!--entity Flash Player Integration--><g class="entity" data-entity="Flash Player Integration" data-source-line="4" data-uid="ent0003" id="entity_Flash Player Integration"><rect fill="#F1F1F1" height="46.2969" rx="2.5" ry="2.5" style="stroke:#181818;stroke-width:0.5;" width="206.2979" x="22" y="31"/><rect fill="#F1F1F1" height="10" style="stroke:#181818;stroke-width:0.5;" width="15" x="208.2979" y="36"/><rect fill="#F1F1F1" height="2" style="stroke:#181818;stroke-width:0.5;" width="4" x="206.2979" y="38"/><rect fill="#F1F1F1" height="2" style="stroke:#181818;stroke-width:0.5;" width="4" x="206.2979" y="42"/><text fill="#000000" font-family="sans-serif" font-size="14" lengthAdjust="spacing" textLength="166.2979" x="37" y="63.9951">Flash Player Integration</text></g><!--entity Game Interface--><g class="entity" data-entity="Game Interface" data-source-line="5" data-uid="ent0004" id="entity_Game Interface"><rect fill="#F1F1F1" height="46.2969" rx="2.5" ry="2.5" style="stroke:#181818;stroke-width:0.5;" width="148.8076" x="246.5" y="31"/><rect fill="#F1F1F1" height="10" style="stroke:#181818;stroke-width:0.5;" width="15" x="375.3076" y="36"/><rect fill="#F1F1F1" height="2" style="stroke:#181818;stroke-width:0.5;" width="4" x="373.3076" y="38"/><rect fill="#F1F1F1" height="2" style="stroke:#181818;stroke-width:0.5;" width="4" x="373.3076" y="42"/><text fill="#000000" font-family="sans-serif" font-size="14" lengthAdjust="spacing" textLength="108.8076" x="261.5" y="63.9951">Game Interface</text></g><!--entity Local Storage Manager--><g class="entity" data-entity="Local Storage Manager" data-source-line="6" data-uid="ent0005" id="entity_Local Storage Manager"><rect fill="#F1F1F1" height="46.2969" rx="2.5" ry="2.5" style="stroke:#181818;stroke-width:0.5;" width="201.5742" x="42" y="164"/><rect fill="#F1F1F1" height="10" style="stroke:#181818;stroke-width:0.5;" width="15" x="223.5742" y="169"/><rect fill="#F1F1F1" height="2" style="stroke:#181818;stroke-width:0.5;" width="4" x="221.5742" y="171"/><rect fill="#F1F1F1" height="2" style="stroke:#181818;stroke-width:0.5;" width="4" x="221.5742" y="175"/><text fill="#000000" font-family="sans-serif" font-size="14" lengthAdjust="spacing" textLength="161.5742" x="57" y="196.9951">Local Storage Manager</text></g><!--entity Event Handler--><g class="entity" data-entity="Event Handler" data-source-line="7" data-uid="ent0006" id="entity_Event Handler"><rect fill="#F1F1F1" height="46.2969" rx="2.5" ry="2.5" style="stroke:#181818;stroke-width:0.5;" width="139.6816" x="262" y="164"/><rect fill="#F1F1F1" height="10" style="stroke:#181818;stroke-width:0.5;" width="15" x="381.6816" y="169"/><rect fill="#F1F1F1" height="2" style="stroke:#181818;stroke-width:0.5;" width="4" x="379.6816" y="171"/><rect fill="#F1F1F1" height="2" style="stroke:#181818;stroke-width:0.5;" width="4" x="379.6816" y="175"/><text fill="#000000" font-family="sans-serif" font-size="14" lengthAdjust="spacing" textLength="99.6816" x="277" y="196.9951">Event Handler</text></g><!--entity Physics Engine--><g class="entity" data-entity="Physics Engine" data-source-line="11" data-uid="ent0008" id="entity_Physics Engine"><rect fill="#F1F1F1" height="46.2969" rx="2.5" ry="2.5" style="stroke:#181818;stroke-width:0.5;" width="144.207" x="454" y="164"/><rect fill="#F1F1F1" height="10" style="stroke:#181818;stroke-width:0.5;" width="15" x="578.207" y="169"/><rect fill="#F1F1F1" height="2" style="stroke:#181818;stroke-width:0.5;" width="4" x="576.207" y="171"/><rect fill="#F1F1F1" height="2" style="stroke:#181818;stroke-width:0.5;" width="4" x="576.207" y="175"/><text fill="#000000" font-family="sans-serif" font-size="14" lengthAdjust="spacing" textLength="104.207" x="469" y="196.9951">Physics Engine</text></g><!--entity Storyline Engine--><g class="entity" data-entity="Storyline Engine" data-source-line="12" data-uid="ent0009" id="entity_Storyline Engine"><rect fill="#F1F1F1" height="46.2969" rx="2.5" ry="2.5" style="stroke:#181818;stroke-width:0.5;" width="154.6797" x="616.5" y="164"/><rect fill="#F1F1F1" height="10" style="stroke:#181818;stroke-width:0.5;" width="15" x="751.1797" y="169"/><rect fill="#F1F1F1" height="2" style="stroke:#181818;stroke-width:0.5;" width="4" x="749.1797" y="171"/><rect fill="#F1F1F1" height="2" style="stroke:#181818;stroke-width:0.5;" width="4" x="749.1797" y="175"/><text fill="#000000" font-family="sans-serif" font-size="14" lengthAdjust="spacing" textLength="114.6797" x="631.5" y="196.9951">Storyline Engine</text></g><!--entity Admin Interface--><g class="entity" data-entity="Admin Interface" data-source-line="13" data-uid="ent0010" id="entity_Admin Interface"><rect fill="#F1F1F1" height="46.2969" rx="2.5" ry="2.5" style="stroke:#181818;stroke-width:0.5;" width="151.9932" x="790" y="164"/><rect fill="#F1F1F1" height="10" style="stroke:#181818;stroke-width:0.5;" width="15" x="921.9932" y="169"/><rect fill="#F1F1F1" height="2" style="stroke:#181818;stroke-width:0.5;" width="4" x="919.9932" y="171"/><rect fill="#F1F1F1" height="2" style="stroke:#181818;stroke-width:0.5;" width="4" x="919.9932" y="175"/><text fill="#000000" font-family="sans-serif" font-size="14" lengthAdjust="spacing" textLength="111.9932" x="805" y="196.9951">Admin Interface</text></g><!--entity Security Gateway--><g class="entity" data-entity="Security Gateway" data-source-line="14" data-uid="ent0011" id="entity_Security Gateway"><rect fill="#F1F1F1" height="46.2969" rx="2.5" ry="2.5" style="stroke:#181818;stroke-width:0.5;" width="163.7852" x="454" y="297"/><rect fill="#F1F1F1" height="10" style="stroke:#181818;stroke-width:0.5;" width="15" x="597.7852" y="302"/><rect fill="#F1F1F1" height="2" style="stroke:#181818;stroke-width:0.5;" width="4" x="595.7852" y="304"/><rect fill="#F1F1F1" height="2" style="stroke:#181818;stroke-width:0.5;" width="4" x="595.7852" y="308"/><text fill="#000000" font-family="sans-serif" font-size="14" lengthAdjust="spacing" textLength="123.7852" x="469" y="329.9951">Security Gateway</text></g><!--entity Content Delivery--><g class="entity" data-entity="Content Delivery" data-source-line="15" data-uid="ent0012" id="entity_Content Delivery"><rect fill="#F1F1F1" height="46.2969" rx="2.5" ry="2.5" style="stroke:#181818;stroke-width:0.5;" width="158.2412" x="636" y="297"/><rect fill="#F1F1F1" height="10" style="stroke:#181818;stroke-width:0.5;" width="15" x="774.2412" y="302"/><rect fill="#F1F1F1" height="2" style="stroke:#181818;stroke-width:0.5;" width="4" x="772.2412" y="304"/><rect fill="#F1F1F1" height="2" style="stroke:#181818;stroke-width:0.5;" width="4" x="772.2412" y="308"/><text fill="#000000" font-family="sans-serif" font-size="14" lengthAdjust="spacing" textLength="118.2412" x="651" y="329.9951">Content Delivery</text></g><!--entity Questions--><g class="entity" data-entity="Questions" data-source-line="19" data-uid="ent0014" id="entity_Questions"><rect fill="#F1F1F1" height="46.2969" rx="2.5" ry="2.5" style="stroke:#181818;stroke-width:0.5;" width="109.9111" x="92" y="297"/><rect fill="#F1F1F1" height="10" style="stroke:#181818;stroke-width:0.5;" width="15" x="181.9111" y="302"/><rect fill="#F1F1F1" height="2" style="stroke:#181818;stroke-width:0.5;" width="4" x="179.9111" y="304"/><rect fill="#F1F1F1" height="2" style="stroke:#181818;stroke-width:0.5;" width="4" x="179.9111" y="308"/><text fill="#000000" font-family="sans-serif" font-size="14" lengthAdjust="spacing" textLength="69.9111" x="107" y="329.9951">Questions</text></g><!--entity User Progress--><g class="entity" data-entity="User Progress" data-source-line="20" data-uid="ent0015" id="entity_User Progress"><rect fill="#F1F1F1" height="46.2969" rx="2.5" ry="2.5" style="stroke:#181818;stroke-width:0.5;" width="136.9678" x="220.5" y="297"/><rect fill="#F1F1F1" height="10" style="stroke:#181818;stroke-width:0.5;" width="15" x="337.4678" y="302"/><rect fill="#F1F1F1" height="2" style="stroke:#181818;stroke-width:0.5;" width="4" x="335.4678" y="304"/><rect fill="#F1F1F1" height="2" style="stroke:#181818;stroke-width:0.5;" width="4" x="335.4678" y="308"/><text fill="#000000" font-family="sans-serif" font-size="14" lengthAdjust="spacing" textLength="96.9678" x="235.5" y="329.9951">User Progress</text></g><!--entity Narrative Paths--><g class="entity" data-entity="Narrative Paths" data-source-line="21" data-uid="ent0016" id="entity_Narrative Paths"><rect fill="#F1F1F1" height="46.2969" rx="2.5" ry="2.5" style="stroke:#181818;stroke-width:0.5;" width="148.5479" x="92.5" y="380"/><rect fill="#F1F1F1" height="10" style="stroke:#181818;stroke-width:0.5;" width="15" x="221.0479" y="385"/><rect fill="#F1F1F1" height="2" style="stroke:#181818;stroke-width:0.5;" width="4" x="219.0479" y="387"/><rect fill="#F1F1F1" height="2" style="stroke:#181818;stroke-width:0.5;" width="4" x="219.0479" y="391"/><text fill="#000000" font-family="sans-serif" font-size="14" lengthAdjust="spacing" textLength="108.5479" x="107.5" y="412.9951">Narrative Paths</text></g><!--entity Flash Movies--><g class="entity" data-entity="Flash Movies" data-source-line="25" data-uid="ent0018" id="entity_Flash Movies"><rect fill="#F1F1F1" height="46.2969" rx="2.5" ry="2.5" style="stroke:#181818;stroke-width:0.5;" width="129.8652" x="1339" y="297"/><rect fill="#F1F1F1" height="10" style="stroke:#181818;stroke-width:0.5;" width="15" x="1448.8652" y="302"/><rect fill="#F1F1F1" height="2" style="stroke:#181818;stroke-width:0.5;" width="4" x="1446.8652" y="304"/><rect fill="#F1F1F1" height="2" style="stroke:#181818;stroke-width:0.5;" width="4" x="1446.8652" y="308"/><text fill="#000000" font-family="sans-serif" font-size="14" lengthAdjust="spacing" textLength="89.8652" x="1354" y="329.9951">Flash Movies</text></g><!--entity System Configs--><g class="entity" data-entity="System Configs" data-source-line="26" data-uid="ent0019" id="entity_System Configs"><rect fill="#F1F1F1" height="46.2969" rx="2.5" ry="2.5" style="stroke:#181818;stroke-width:0.5;" width="148.8691" x="1171.5" y="297"/><rect fill="#F1F1F1" height="10" style="stroke:#181818;stroke-width:0.5;" width="15" x="1300.3691" y="302"/><rect fill="#F1F1F1" height="2" style="stroke:#181818;stroke-width:0.5;" width="4" x="1298.3691" y="304"/><rect fill="#F1F1F1" height="2" style="stroke:#181818;stroke-width:0.5;" width="4" x="1298.3691" y="308"/><text fill="#000000" font-family="sans-serif" font-size="14" lengthAdjust="spacing" textLength="108.8691" x="1186.5" y="329.9951">System Configs</text></g><!--entity S2S Math Resources--><g class="entity" data-entity="S2S Math Resources" data-source-line="30" data-uid="ent0021" id="entity_S2S Math Resources"><rect fill="#F1F1F1" height="46.2969" rx="2.5" ry="2.5" style="stroke:#181818;stroke-width:0.5;" width="183.0352" x="1727.5" y="297"/><rect fill="#F1F1F1" height="10" style="stroke:#181818;stroke-width:0.5;" width="15" x="1890.5352" y="302"/><rect fill="#F1F1F1" height="2" style="stroke:#181818;stroke-width:0.5;" width="4" x="1888.5352" y="304"/><rect fill="#F1F1F1" height="2" style="stroke:#181818;stroke-width:0.5;" width="4" x="1888.5352" y="308"/><text fill="#000000" font-family="sans-serif" font-size="14" lengthAdjust="spacing" textLength="143.0352" x="1742.5" y="329.9951">S2S Math Resources</text></g><!--entity Educational Content--><g class="entity" data-entity="Educational Content" data-source-line="31" data-uid="ent0022" id="entity_Educational Content"><rect fill="#F1F1F1" height="46.2969" rx="2.5" ry="2.5" style="stroke:#181818;stroke-width:0.5;" width="182.2969" x="1527" y="297"/><rect fill="#F1F1F1" height="10" style="stroke:#181818;stroke-width:0.5;" width="15" x="1689.2969" y="302"/><rect fill="#F1F1F1" height="2" style="stroke:#181818;stroke-width:0.5;" width="4" x="1687.2969" y="304"/><rect fill="#F1F1F1" height="2" style="stroke:#181818;stroke-width:0.5;" width="4" x="1687.2969" y="308"/><text fill="#000000" font-family="sans-serif" font-size="14" lengthAdjust="spacing" textLength="142.2969" x="1542" y="329.9951">Educational Content</text></g><g class="link" data-entity-1="browser" data-entity-2="app" data-uid="lnk23" id="link_browser_app"><polygon fill="#181818" points="950.5043,136.5899,946.0833,127.7891,946.6387,133.4186,941.0092,133.974,950.5043,136.5899" style="stroke:#181818;stroke-width:1;"/><path d="M438.4471,55.3347 C439.1011,55.3506 439.7729,55.3672 440.4624,55.3845 C441.8414,55.4191 443.2909,55.4566 444.8085,55.4971 C450.879,55.659 458.0397,55.8695 466.1416,56.1408 C482.3454,56.6834 502.3141,57.4692 524.8557,58.5966 C569.9389,60.8513 625.3136,64.4722 681.4437,70.2453 C737.5739,76.0185 794.4594,83.9438 842.5641,94.8076 C866.6165,100.2394 888.4737,106.4059 906.9437,113.4052 C916.1787,116.9049 924.5669,120.6128 931.9593,124.5411 C935.6554,126.5053 939.1027,128.5246 942.2824,130.6006 C943.8722,131.6386 945.3951,132.6907 946.8488,133.7572 C947.5757,134.2905 948.2853,134.8273 948.9772,135.3678 C949.3232,135.638 949.6648,135.9091 950.0019,136.1812 C950.1705,136.3172 945.6992,132.6479 945.8656,132.7843" fill="none" style="stroke:#181818;stroke-width:1;"/><text fill="#000000" font-family="sans-serif" font-size="13" lengthAdjust="spacing" textLength="97.792" x="955.2505" y="109.0669">HTTP Requests</text><text fill="#000000" font-family="sans-serif" font-size="13" lengthAdjust="spacing" textLength="126.293" x="941" y="124.1997">(Gameplay, Admin)</text></g><g class="link" data-entity-1="app" data-entity-2="database" data-uid="lnk24" id="link_app_database"><polygon fill="#181818" points="400.0112,300.7982,409.1749,297.1889,403.5182,297.2344,403.4728,291.5777,400.0112,300.7982" style="stroke:#181818;stroke-width:1;"/><path d="M445.4689,268.7243 C445.2111,268.8076 444.9586,268.8913 444.7113,268.9752 C443.7223,269.3112 442.8176,269.6527 442,270 C431.6871,274.3803 421.8284,281.2537 413.2592,288.4819 C408.9747,292.096 405.0125,295.7987 401.4771,299.3228 C401.0351,299.7633 400.5999,300.201 400.1715,300.6354 C400.118,300.6897 404.273,296.4674 404.2196,296.5216" fill="none" style="stroke:#181818;stroke-width:1;"/><text fill="#000000" font-family="sans-serif" font-size="13" lengthAdjust="spacing" textLength="113.2358" x="925.2417" y="242.0669">CRUD Operations</text><text fill="#000000" font-family="sans-serif" font-size="13" lengthAdjust="spacing" textLength="135.7192" x="914" y="257.1997">(Questions/Progress)</text></g><g class="link" data-entity-1="app" data-entity-2="files" data-uid="lnk25" id="link_app_files"><polygon fill="#181818" points="1128.9642,274.9615,1127.0413,265.3022,1126.0805,270.8769,1120.5059,269.9161,1128.9642,274.9615" style="stroke:#181818;stroke-width:1;"/><path d="M1121.3056,266.0801 C1121.4852,266.2643 1121.6642,266.4487 1121.8427,266.6336 C1122.1997,267.0033 1122.5547,267.3744 1122.9076,267.747 C1123.6135,268.4922 1124.3111,269.2432 1125,270 C1126.2216,271.3419 1127.3738,272.7684 1128.4599,274.2585 C1128.5957,274.4448 1128.7304,274.632 1128.8641,274.8202 C1128.8976,274.8673 1125.4705,270.0128 1125.5038,270.0599" fill="none" style="stroke:#181818;stroke-width:1;"/><text fill="#000000" font-family="sans-serif" font-size="13" lengthAdjust="spacing" textLength="72.5347" x="1145.0979" y="242.0669">Read/Write</text><text fill="#000000" font-family="sans-serif" font-size="13" lengthAdjust="spacing" textLength="128.7305" x="1117" y="257.1997">(Configs &amp; Content)</text></g><g class="link" data-entity-1="app" data-entity-2="apis" data-uid="lnk26" id="link_app_apis"><polygon fill="#181818" points="1484.8777,273.3071,1481.3432,264.1143,1481.3425,269.7712,1475.6857,269.7705,1484.8777,273.3071" style="stroke:#181818;stroke-width:1;"/><path d="M1121.1897,204.5729 C1122.8832,204.811 1124.5821,205.052 1126.2861,205.2959 C1139.9177,207.2466 1153.8694,209.3796 1167.8963,211.7031 C1195.95,216.3503 1224.3044,221.76 1251,228 C1297.942,238.9725 1306.6681,252.8543 1354,262 C1367.8823,264.6824 1469.518,261.7492 1481,270 C1481.7648,270.5496 1482.5004,271.1337 1483.208,271.7487 C1483.5618,272.0562 1483.9085,272.3715 1484.2484,272.694 C1484.4184,272.8552 1484.5866,273.0183 1484.7531,273.1831 C1484.7947,273.2243 1480.5941,269.0226 1480.6355,269.064" fill="none" style="stroke:#181818;stroke-width:1;"/><text fill="#000000" font-family="sans-serif" font-size="13" lengthAdjust="spacing" textLength="96.332" x="1356" y="242.0669">API Integration</text><text fill="#000000" font-family="sans-serif" font-size="13" lengthAdjust="spacing" textLength="51.8921" x="1378.22" y="257.1997">(HTTPS)</text></g><g class="link" data-entity-1="browser" data-entity-2="apis" data-uid="lnk27" id="link_browser_apis"><polygon fill="#181818" points="1484.9055,269.8671,1484.6942,260.0205,1482.7773,265.3427,1477.4551,263.4257,1484.9055,269.8671" style="stroke:#181818;stroke-width:1;"/><path d="M438.3373,55.397 C438.6942,55.406 439.0565,55.4152 439.4242,55.4246 C440.1596,55.4433 440.9166,55.4626 441.6948,55.4826 C443.2512,55.5226 444.8926,55.5651 446.6162,55.6101 C453.5108,55.7902 461.7219,56.0111 471.0799,56.2738 C489.7959,56.7992 513.0996,57.4921 539.6337,58.3614 C592.7021,60.1 658.6924,62.5442 726.7476,65.7658 C862.858,72.2092 1007.2278,81.7624 1073,95 C1248.8283,130.3881 1313.1578,116.9532 1454,228 C1467.1953,238.4038 1477.0532,253.5268 1484.2396,268.4671 C1484.4641,268.934 1482.1322,263.9714 1482.3516,264.4378" fill="none" style="stroke:#181818;stroke-width:1;"/><text fill="#000000" font-family="sans-serif" font-size="13" lengthAdjust="spacing" textLength="76.7368" x="1450.7185" y="184.0669">Direct Links</text><text fill="#000000" font-family="sans-serif" font-size="13" lengthAdjust="spacing" textLength="94.1738" x="1442" y="199.1997">(New Window)</text></g><g class="link" data-entity-1="app" data-entity-2="app" data-uid="lnk28" id="link_app_app"><polygon fill="#181818" points="976.2534,195.4855,981.9466,203.5221,980.5516,198.04,986.0338,196.645,976.2534,195.4855" style="stroke:#181818;stroke-width:1;"/><path d="M976.2534,178.5145 C984.652,173.5231 994,176.3516 994,187 C994,197.6484 989.8099,203.5423 981.4113,198.5509" fill="none" style="stroke:#181818;stroke-width:1;"/><text fill="#000000" font-family="sans-serif" font-size="13" lengthAdjust="spacing" textLength="92.7393" x="1007.1465" y="184.0669">Load Balancer</text><text fill="#000000" font-family="sans-serif" font-size="13" lengthAdjust="spacing" textLength="115.0322" x="996" y="199.1997">(Internal Routing)</text></g><!--SRC=[TLDDRzim3BtdLt0v30smei2EEHH8c_G3I3itRf5BBupCE49bIPFafCQm_pvASTf6xKwMHVBnyJtgctLODmWAEzC6y0q5r3WOM1GlM1CCbxI22sTsdjmGqCDgVuO_0m1X6ciqwG33AuL-0mN3SEnM1weT1cdqy3Zj6XjAORT6GLbmRWGgA8DniVCTywYvwN7ER1i_DwWh5MD_CwOJQvKKgJEKvBOzQRGs9rniEY-5XvckfSwPH0wTulklmvEgaVg_OvGaMYT31zSOQ8TT5huqNCU7AId9_BhZ8QOOS8MU4ksg_ycvFxJauuW-WtwAnXJEr8vy7hj75ntP4XGODlwuwvLKT10-TLxpXV_QupkpbPIZbvqFr03FjfPr1ZvxPPqqEpifRdrlX_m4NluisVAmWGLvqphngSMiQlV6CbAlOUfpMCZJq_FaynXk7XyBXlaTLVBF-YGkdUND_079kD4WfiNqDtt7SBbuci8lI_kjZLLl8fyT57qltCipvYPOdItPREA2VdZuVg3tdfy67aS1FhuDhebKor4sGygTIaSYm5pgbyZcddQmbBeoku-eSTgvmGekKA4Mv3WphMKKQS4FMkfwz0y0]--></g></svg>