<svg xmlns="http://www.w3.org/2000/svg" xmlns:xlink="http://www.w3.org/1999/xlink" contentStyleType="text/css" data-diagram-type="SEQUENCE" height="428px" preserveAspectRatio="none" style="width:813px;height:428px;background:#FFFFFF;" version="1.1" viewBox="0 0 813 428" width="813px" zoomAndPan="magnify"><defs/><g><g><title>AdminInterface</title><rect fill="#FFFFFF" height="308.1328" style="stroke:#181818;stroke-width:1;" width="10" x="227.9355" y="67.4297"/></g><g><title>BackendServer</title><rect fill="#FFFFFF" height="257.8672" style="stroke:#181818;stroke-width:1;" width="10" x="438.3262" y="96.5625"/></g><g><title>FileStorageSystem</title><rect fill="#FFFFFF" height="29.1328" style="stroke:#181818;stroke-width:1;" width="10" x="598.0625" y="208.0938"/></g><g><title>DataValidator</title><rect fill="#FFFFFF" height="53.2656" style="stroke:#181818;stroke-width:1;" width="10" x="736.0962" y="125.6953"/></g><rect fill="none" height="206.7344" style="stroke:#000000;stroke-width:1.5;" width="644.252" x="162.1641" y="140.6953"/><g><title>Admin</title><rect fill="#000000" fill-opacity="0.00000" height="357.2656" width="8" x="30.4321" y="36.2969"/><line style="stroke:#181818;stroke-width:0.5;stroke-dasharray:5,5;" x1="34" x2="34" y1="36.2969" y2="393.5625"/></g><g><title>AdminInterface</title><rect fill="#000000" fill-opacity="0.00000" height="357.2656" width="8" x="228.9355" y="36.2969"/><line style="stroke:#181818;stroke-width:0.5;stroke-dasharray:5,5;" x1="232.1641" x2="232.1641" y1="36.2969" y2="393.5625"/></g><g><title>BackendServer</title><rect fill="#000000" fill-opacity="0.00000" height="357.2656" width="8" x="439.3262" y="36.2969"/><line style="stroke:#181818;stroke-width:0.5;stroke-dasharray:5,5;" x1="443.1904" x2="443.1904" y1="36.2969" y2="393.5625"/></g><g><title>FileStorageSystem</title><rect fill="#000000" fill-opacity="0.00000" height="357.2656" width="8" x="599.0625" y="36.2969"/><line style="stroke:#181818;stroke-width:0.5;stroke-dasharray:5,5;" x1="602.3486" x2="602.3486" y1="36.2969" y2="393.5625"/></g><g><title>DataValidator</title><rect fill="#000000" fill-opacity="0.00000" height="357.2656" width="8" x="737.0962" y="36.2969"/><line style="stroke:#181818;stroke-width:0.5;stroke-dasharray:5,5;" x1="740.7764" x2="740.7764" y1="36.2969" y2="393.5625"/></g><g class="participant participant-head" data-participant="Admin"><rect fill="#E2E2F0" height="30.2969" rx="2.5" ry="2.5" style="stroke:#181818;stroke-width:0.5;" width="58.8643" x="5" y="5"/><text fill="#000000" font-family="sans-serif" font-size="14" lengthAdjust="spacing" textLength="44.8643" x="12" y="24.9951">Admin</text></g><g class="participant participant-tail" data-participant="Admin"><rect fill="#E2E2F0" height="30.2969" rx="2.5" ry="2.5" style="stroke:#181818;stroke-width:0.5;" width="58.8643" x="5" y="392.5625"/><text fill="#000000" font-family="sans-serif" font-size="14" lengthAdjust="spacing" textLength="44.8643" x="12" y="412.5576">Admin</text></g><g class="participant participant-head" data-participant="AdminInterface"><rect fill="#E2E2F0" height="30.2969" rx="2.5" ry="2.5" style="stroke:#181818;stroke-width:0.5;" width="121.543" x="172.1641" y="5"/><text fill="#000000" font-family="sans-serif" font-size="14" lengthAdjust="spacing" textLength="107.543" x="179.1641" y="24.9951">AdminInterface</text></g><g class="participant participant-tail" data-participant="AdminInterface"><rect fill="#E2E2F0" height="30.2969" rx="2.5" ry="2.5" style="stroke:#181818;stroke-width:0.5;" width="121.543" x="172.1641" y="392.5625"/><text fill="#000000" font-family="sans-serif" font-size="14" lengthAdjust="spacing" textLength="107.543" x="179.1641" y="412.5576">AdminInterface</text></g><g class="participant participant-head" data-participant="BackendServer"><rect fill="#E2E2F0" height="30.2969" rx="2.5" ry="2.5" style="stroke:#181818;stroke-width:0.5;" width="120.2715" x="383.1904" y="5"/><text fill="#000000" font-family="sans-serif" font-size="14" lengthAdjust="spacing" textLength="106.2715" x="390.1904" y="24.9951">BackendServer</text></g><g class="participant participant-tail" data-participant="BackendServer"><rect fill="#E2E2F0" height="30.2969" rx="2.5" ry="2.5" style="stroke:#181818;stroke-width:0.5;" width="120.2715" x="383.1904" y="392.5625"/><text fill="#000000" font-family="sans-serif" font-size="14" lengthAdjust="spacing" textLength="106.2715" x="390.1904" y="412.5576">BackendServer</text></g><g class="participant participant-head" data-participant="FileStorageSystem"><rect fill="#E2E2F0" height="30.2969" rx="2.5" ry="2.5" style="stroke:#181818;stroke-width:0.5;" width="145.4277" x="530.3486" y="5"/><text fill="#000000" font-family="sans-serif" font-size="14" lengthAdjust="spacing" textLength="131.4277" x="537.3486" y="24.9951">FileStorageSystem</text></g><g class="participant participant-tail" data-participant="FileStorageSystem"><rect fill="#E2E2F0" height="30.2969" rx="2.5" ry="2.5" style="stroke:#181818;stroke-width:0.5;" width="145.4277" x="530.3486" y="392.5625"/><text fill="#000000" font-family="sans-serif" font-size="14" lengthAdjust="spacing" textLength="131.4277" x="537.3486" y="412.5576">FileStorageSystem</text></g><g class="participant participant-head" data-participant="DataValidator"><rect fill="#E2E2F0" height="30.2969" rx="2.5" ry="2.5" style="stroke:#181818;stroke-width:0.5;" width="110.6396" x="685.7764" y="5"/><text fill="#000000" font-family="sans-serif" font-size="14" lengthAdjust="spacing" textLength="96.6396" x="692.7764" y="24.9951">DataValidator</text></g><g class="participant participant-tail" data-participant="DataValidator"><rect fill="#E2E2F0" height="30.2969" rx="2.5" ry="2.5" style="stroke:#181818;stroke-width:0.5;" width="110.6396" x="685.7764" y="392.5625"/><text fill="#000000" font-family="sans-serif" font-size="14" lengthAdjust="spacing" textLength="96.6396" x="692.7764" y="412.5576">DataValidator</text></g><g><title>AdminInterface</title><rect fill="#FFFFFF" height="308.1328" style="stroke:#181818;stroke-width:1;" width="10" x="227.9355" y="67.4297"/></g><g><title>BackendServer</title><rect fill="#FFFFFF" height="257.8672" style="stroke:#181818;stroke-width:1;" width="10" x="438.3262" y="96.5625"/></g><g><title>FileStorageSystem</title><rect fill="#FFFFFF" height="29.1328" style="stroke:#181818;stroke-width:1;" width="10" x="598.0625" y="208.0938"/></g><g><title>DataValidator</title><rect fill="#FFFFFF" height="53.2656" style="stroke:#181818;stroke-width:1;" width="10" x="736.0962" y="125.6953"/></g><g class="message" data-participant-1="Admin" data-participant-2="AdminInterface"><polygon fill="#181818" points="215.9355,63.4297,225.9355,67.4297,215.9355,71.4297,219.9355,67.4297" style="stroke:#181818;stroke-width:1;"/><line style="stroke:#181818;stroke-width:1;" x1="34.4321" x2="221.9355" y1="67.4297" y2="67.4297"/><text fill="#000000" font-family="sans-serif" font-size="13" lengthAdjust="spacing" textLength="174.5034" x="41.4321" y="62.3638">submitQuestion(formData)</text></g><g class="message" data-participant-1="AdminInterface" data-participant-2="BackendServer"><polygon fill="#181818" points="426.3262,92.5625,436.3262,96.5625,426.3262,100.5625,430.3262,96.5625" style="stroke:#181818;stroke-width:1;"/><line style="stroke:#181818;stroke-width:1;" x1="237.9355" x2="432.3262" y1="96.5625" y2="96.5625"/><text fill="#000000" font-family="sans-serif" font-size="13" lengthAdjust="spacing" textLength="181.3906" x="244.9355" y="91.4966">saveQuestionRequest(data)</text></g><g class="message" data-participant-1="BackendServer" data-participant-2="DataValidator"><polygon fill="#181818" points="724.0962,121.6953,734.0962,125.6953,724.0962,129.6953,728.0962,125.6953" style="stroke:#181818;stroke-width:1;"/><line style="stroke:#181818;stroke-width:1;" x1="448.3262" x2="730.0962" y1="125.6953" y2="125.6953"/><text fill="#000000" font-family="sans-serif" font-size="13" lengthAdjust="spacing" textLength="184.0566" x="455.3262" y="120.6294">validateCompleteness(data)</text></g><path d="M162.1641,140.6953 L226.6069,140.6953 L226.6069,147.8281 L216.6069,157.8281 L162.1641,157.8281 L162.1641,140.6953" fill="#EEEEEE" style="stroke:#000000;stroke-width:1.5;"/><rect fill="none" height="206.7344" style="stroke:#000000;stroke-width:1.5;" width="644.252" x="162.1641" y="140.6953"/><text fill="#000000" font-family="sans-serif" font-size="13" font-weight="bold" lengthAdjust="spacing" textLength="19.4429" x="177.1641" y="153.7622">alt</text><text fill="#000000" font-family="sans-serif" font-size="11" font-weight="bold" lengthAdjust="spacing" textLength="119.4585" x="241.6069" y="152.9058">[validation passed]</text><g class="message" data-participant-1="DataValidator" data-participant-2="BackendServer"><polygon fill="#181818" points="459.3262,174.9609,449.3262,178.9609,459.3262,182.9609,455.3262,178.9609" style="stroke:#181818;stroke-width:1;"/><line style="stroke:#181818;stroke-width:1;stroke-dasharray:2,2;" x1="453.3262" x2="740.0962" y1="178.9609" y2="178.9609"/><text fill="#000000" font-family="sans-serif" font-size="13" lengthAdjust="spacing" textLength="31.1353" x="465.3262" y="173.895">valid</text></g><g class="message" data-participant-1="BackendServer" data-participant-2="FileStorageSystem"><polygon fill="#181818" points="586.0625,204.0938,596.0625,208.0938,586.0625,212.0938,590.0625,208.0938" style="stroke:#181818;stroke-width:1;"/><line style="stroke:#181818;stroke-width:1;" x1="448.3262" x2="592.0625" y1="208.0938" y2="208.0938"/><text fill="#000000" font-family="sans-serif" font-size="13" lengthAdjust="spacing" textLength="130.7363" x="455.3262" y="203.0278">storeQuestion(data)</text></g><g class="message" data-participant-1="FileStorageSystem" data-participant-2="BackendServer"><polygon fill="#181818" points="459.3262,233.2266,449.3262,237.2266,459.3262,241.2266,455.3262,237.2266" style="stroke:#181818;stroke-width:1;"/><line style="stroke:#181818;stroke-width:1;stroke-dasharray:2,2;" x1="453.3262" x2="602.0625" y1="237.2266" y2="237.2266"/><text fill="#000000" font-family="sans-serif" font-size="13" lengthAdjust="spacing" textLength="41.4185" x="465.3262" y="232.1606">stored</text></g><g class="message" data-participant-1="BackendServer" data-participant-2="AdminInterface"><polygon fill="#181818" points="248.9355,262.3594,238.9355,266.3594,248.9355,270.3594,244.9355,266.3594" style="stroke:#181818;stroke-width:1;"/><line style="stroke:#181818;stroke-width:1;stroke-dasharray:2,2;" x1="242.9355" x2="437.3262" y1="266.3594" y2="266.3594"/><text fill="#000000" font-family="sans-serif" font-size="13" lengthAdjust="spacing" textLength="50.8511" x="254.9355" y="261.2935">success</text></g><line style="stroke:#000000;stroke-width:1;stroke-dasharray:2,2;" x1="162.1641" x2="806.416" y1="275.3594" y2="275.3594"/><text fill="#000000" font-family="sans-serif" font-size="11" font-weight="bold" lengthAdjust="spacing" textLength="110.8164" x="167.1641" y="285.5698">[validation failed]</text><g class="message" data-participant-1="DataValidator" data-participant-2="BackendServer"><polygon fill="#181818" points="459.3262,306.2969,449.3262,310.2969,459.3262,314.2969,455.3262,310.2969" style="stroke:#181818;stroke-width:1;"/><line style="stroke:#181818;stroke-width:1;stroke-dasharray:2,2;" x1="453.3262" x2="740.0962" y1="310.2969" y2="310.2969"/><text fill="#000000" font-family="sans-serif" font-size="13" lengthAdjust="spacing" textLength="42.9863" x="465.3262" y="305.231">invalid</text></g><g class="message" data-participant-1="BackendServer" data-participant-2="AdminInterface"><polygon fill="#181818" points="248.9355,335.4297,238.9355,339.4297,248.9355,343.4297,244.9355,339.4297" style="stroke:#181818;stroke-width:1;"/><line style="stroke:#181818;stroke-width:1;stroke-dasharray:2,2;" x1="242.9355" x2="437.3262" y1="339.4297" y2="339.4297"/><text fill="#000000" font-family="sans-serif" font-size="13" lengthAdjust="spacing" textLength="93.1772" x="254.9355" y="334.3638">error(reasons)</text></g><g class="message" data-participant-1="AdminInterface" data-participant-2="Admin"><polygon fill="#181818" points="45.4321,371.5625,35.4321,375.5625,45.4321,379.5625,41.4321,375.5625" style="stroke:#181818;stroke-width:1;"/><line style="stroke:#181818;stroke-width:1;stroke-dasharray:2,2;" x1="39.4321" x2="231.9355" y1="375.5625" y2="375.5625"/><text fill="#000000" font-family="sans-serif" font-size="13" lengthAdjust="spacing" textLength="135.9541" x="51.4321" y="370.4966">confirmation or error</text></g><!--SRC=[dP9DRiGW38Ntd89bPZ4NwA9IVrIfopPIzouu5Mg0ZF54wkrhCiqeG2fLPGNO_dX-U09YPzm4WVMTzIwegRvv3emqWC4YT0_c4uFjaMQa8lBaHkmv4dnW_vKOVH5z18Ot69q5IL5gUK4VRwkdz8rEvtVl-EMCYLqCtH39vzg30iDk1iPQdQeG0Yr4PYRCk19VyPHtdIsXPL-g90Yoq2_8-RB7X-Yd4Ha3fbGpgvvXvBLCTEW9KaAhjAmIVjpfOAbRSYt-ni_HHdVpAzaEEL_z-16TYw_WzYjpk4NjALtWZTIMk2TtVnwC4MyLZWctzWqWoB_Qvy8_3TnJX4IHEa98CQI3acobDj1oakhXN872CJ4CZlob7H6-SBUailOR]--></g></svg>