<svg xmlns="http://www.w3.org/2000/svg" xmlns:xlink="http://www.w3.org/1999/xlink" contentStyleType="text/css" data-diagram-type="SEQUENCE" height="356px" preserveAspectRatio="none" style="width:713px;height:356px;background:#FFFFFF;" version="1.1" viewBox="0 0 713 356" width="713px" zoomAndPan="magnify"><defs/><g><g><title>IntroductoryMovieModule</title><rect fill="#FFFFFF" height="154.6641" style="stroke:#181818;stroke-width:1;" width="10" x="155.2515" y="112.4297"/></g><g><title>EventHandler</title><rect fill="#FFFFFF" height="125.5313" style="stroke:#181818;stroke-width:1;" width="10" x="316.2197" y="141.5625"/></g><g><title>StateManager</title><rect fill="#FFFFFF" height="67.2656" style="stroke:#181818;stroke-width:1;" width="10" x="499.9185" y="199.8281"/></g><g><title>MainMenuModule</title><rect fill="#FFFFFF" height="38.1328" style="stroke:#181818;stroke-width:1;" width="10" x="634.5137" y="228.9609"/></g><g><title>User</title><rect fill="#000000" fill-opacity="0.00000" height="194.7969" width="8" x="19.9551" y="81.2969"/><line style="stroke:#181818;stroke-width:0.5;stroke-dasharray:5,5;" x1="23" x2="23" y1="81.2969" y2="276.0938"/></g><g><title>IntroductoryMovieModule</title><rect fill="#000000" fill-opacity="0.00000" height="194.7969" width="8" x="156.2515" y="81.2969"/><line style="stroke:#181818;stroke-width:0.5;stroke-dasharray:5,5;" x1="159.8989" x2="159.8989" y1="81.2969" y2="276.0938"/></g><g><title>EventHandler</title><rect fill="#000000" fill-opacity="0.00000" height="194.7969" width="8" x="317.2197" y="81.2969"/><line style="stroke:#181818;stroke-width:0.5;stroke-dasharray:5,5;" x1="320.604" x2="320.604" y1="81.2969" y2="276.0938"/></g><g><title>StateManager</title><rect fill="#000000" fill-opacity="0.00000" height="194.7969" width="8" x="500.9185" y="81.2969"/><line style="stroke:#181818;stroke-width:0.5;stroke-dasharray:5,5;" x1="504.7065" x2="504.7065" y1="81.2969" y2="276.0938"/></g><g><title>MainMenuModule</title><rect fill="#000000" fill-opacity="0.00000" height="194.7969" width="8" x="635.5137" y="81.2969"/><line style="stroke:#181818;stroke-width:0.5;stroke-dasharray:5,5;" x1="639.1304" x2="639.1304" y1="81.2969" y2="276.0938"/></g><g class="participant participant-head" data-participant="User"><text fill="#000000" font-family="sans-serif" font-size="14" lengthAdjust="spacing" textLength="31.9102" x="5" y="77.9951">User</text><ellipse cx="23.9551" cy="13.5" fill="#E2E2F0" rx="8" ry="8" style="stroke:#181818;stroke-width:0.5;"/><path d="M23.9551,21.5 L23.9551,48.5 M10.9551,29.5 L36.9551,29.5 M23.9551,48.5 L10.9551,63.5 M23.9551,48.5 L36.9551,63.5" fill="none" style="stroke:#181818;stroke-width:0.5;"/></g><g class="participant participant-tail" data-participant="User"><text fill="#000000" font-family="sans-serif" font-size="14" lengthAdjust="spacing" textLength="31.9102" x="5" y="288.0889">User</text><ellipse cx="23.9551" cy="299.8906" fill="#E2E2F0" rx="8" ry="8" style="stroke:#181818;stroke-width:0.5;"/><path d="M23.9551,307.8906 L23.9551,334.8906 M10.9551,315.8906 L36.9551,315.8906 M23.9551,334.8906 L10.9551,349.8906 M23.9551,334.8906 L36.9551,349.8906" fill="none" style="stroke:#181818;stroke-width:0.5;"/></g><g class="participant participant-head" data-participant="IntroductoryMovieModule"><rect fill="#E2E2F0" height="30.2969" rx="2.5" ry="2.5" style="stroke:#181818;stroke-width:0.5;" width="192.7051" x="63.8989" y="50"/><text fill="#000000" font-family="sans-serif" font-size="14" lengthAdjust="spacing" textLength="178.7051" x="70.8989" y="69.9951">IntroductoryMovieModule</text></g><g class="participant participant-tail" data-participant="IntroductoryMovieModule"><rect fill="#E2E2F0" height="30.2969" rx="2.5" ry="2.5" style="stroke:#181818;stroke-width:0.5;" width="192.7051" x="63.8989" y="275.0938"/><text fill="#000000" font-family="sans-serif" font-size="14" lengthAdjust="spacing" textLength="178.7051" x="70.8989" y="295.0889">IntroductoryMovieModule</text></g><g class="participant participant-head" data-participant="EventHandler"><rect fill="#E2E2F0" height="30.2969" rx="2.5" ry="2.5" style="stroke:#181818;stroke-width:0.5;" width="109.2314" x="266.604" y="50"/><text fill="#000000" font-family="sans-serif" font-size="14" lengthAdjust="spacing" textLength="95.2314" x="273.604" y="69.9951">EventHandler</text></g><g class="participant participant-tail" data-participant="EventHandler"><rect fill="#E2E2F0" height="30.2969" rx="2.5" ry="2.5" style="stroke:#181818;stroke-width:0.5;" width="109.2314" x="266.604" y="275.0938"/><text fill="#000000" font-family="sans-serif" font-size="14" lengthAdjust="spacing" textLength="95.2314" x="273.604" y="295.0889">EventHandler</text></g><g class="participant participant-head" data-participant="StateManager"><rect fill="#E2E2F0" height="30.2969" rx="2.5" ry="2.5" style="stroke:#181818;stroke-width:0.5;" width="112.4238" x="448.7065" y="50"/><text fill="#000000" font-family="sans-serif" font-size="14" lengthAdjust="spacing" textLength="98.4238" x="455.7065" y="69.9951">StateManager</text></g><g class="participant participant-tail" data-participant="StateManager"><rect fill="#E2E2F0" height="30.2969" rx="2.5" ry="2.5" style="stroke:#181818;stroke-width:0.5;" width="112.4238" x="448.7065" y="275.0938"/><text fill="#000000" font-family="sans-serif" font-size="14" lengthAdjust="spacing" textLength="98.4238" x="455.7065" y="295.0889">StateManager</text></g><g class="participant participant-head" data-participant="MainMenuModule"><rect fill="#E2E2F0" height="30.2969" rx="2.5" ry="2.5" style="stroke:#181818;stroke-width:0.5;" width="136.7666" x="571.1304" y="50"/><text fill="#000000" font-family="sans-serif" font-size="14" lengthAdjust="spacing" textLength="122.7666" x="578.1304" y="69.9951">MainMenuModule</text></g><g class="participant participant-tail" data-participant="MainMenuModule"><rect fill="#E2E2F0" height="30.2969" rx="2.5" ry="2.5" style="stroke:#181818;stroke-width:0.5;" width="136.7666" x="571.1304" y="275.0938"/><text fill="#000000" font-family="sans-serif" font-size="14" lengthAdjust="spacing" textLength="122.7666" x="578.1304" y="295.0889">MainMenuModule</text></g><g><title>IntroductoryMovieModule</title><rect fill="#FFFFFF" height="154.6641" style="stroke:#181818;stroke-width:1;" width="10" x="155.2515" y="112.4297"/></g><g><title>EventHandler</title><rect fill="#FFFFFF" height="125.5313" style="stroke:#181818;stroke-width:1;" width="10" x="316.2197" y="141.5625"/></g><g><title>StateManager</title><rect fill="#FFFFFF" height="67.2656" style="stroke:#181818;stroke-width:1;" width="10" x="499.9185" y="199.8281"/></g><g><title>MainMenuModule</title><rect fill="#FFFFFF" height="38.1328" style="stroke:#181818;stroke-width:1;" width="10" x="634.5137" y="228.9609"/></g><g class="message" data-participant-1="User" data-participant-2="IntroductoryMovieModule"><polygon fill="#181818" points="143.2515,108.4297,153.2515,112.4297,143.2515,116.4297,147.2515,112.4297" style="stroke:#181818;stroke-width:1;"/><line style="stroke:#181818;stroke-width:1;" x1="23.9551" x2="149.2515" y1="112.4297" y2="112.4297"/><text fill="#000000" font-family="sans-serif" font-size="13" lengthAdjust="spacing" textLength="112.2964" x="30.9551" y="107.3638">auto-plays movie</text></g><g class="message" data-participant-1="User" data-participant-2="EventHandler"><polygon fill="#181818" points="304.2197,137.5625,314.2197,141.5625,304.2197,145.5625,308.2197,141.5625" style="stroke:#181818;stroke-width:1;"/><line style="stroke:#181818;stroke-width:1;" x1="23.9551" x2="310.2197" y1="141.5625" y2="141.5625"/><text fill="#000000" font-family="sans-serif" font-size="13" lengthAdjust="spacing" textLength="117.2476" x="30.9551" y="136.4966">mouse click (skip)</text></g><g class="message" data-participant-1="EventHandler" data-participant-2="IntroductoryMovieModule"><polygon fill="#181818" points="176.2515,166.6953,166.2515,170.6953,176.2515,174.6953,172.2515,170.6953" style="stroke:#181818;stroke-width:1;"/><line style="stroke:#181818;stroke-width:1;" x1="170.2515" x2="315.2197" y1="170.6953" y2="170.6953"/><text fill="#000000" font-family="sans-serif" font-size="13" lengthAdjust="spacing" textLength="96.2241" x="182.2515" y="165.6294">stopPlayback()</text></g><g class="message" data-participant-1="EventHandler" data-participant-2="StateManager"><polygon fill="#181818" points="487.9185,195.8281,497.9185,199.8281,487.9185,203.8281,491.9185,199.8281" style="stroke:#181818;stroke-width:1;"/><line style="stroke:#181818;stroke-width:1;" x1="326.2197" x2="493.9185" y1="199.8281" y2="199.8281"/><text fill="#000000" font-family="sans-serif" font-size="13" lengthAdjust="spacing" textLength="154.6987" x="333.2197" y="194.7622">transitionToMainMenu()</text></g><g class="message" data-participant-1="StateManager" data-participant-2="MainMenuModule"><polygon fill="#181818" points="622.5137,224.9609,632.5137,228.9609,622.5137,232.9609,626.5137,228.9609" style="stroke:#181818;stroke-width:1;"/><line style="stroke:#181818;stroke-width:1;" x1="509.9185" x2="628.5137" y1="228.9609" y2="228.9609"/><text fill="#000000" font-family="sans-serif" font-size="13" lengthAdjust="spacing" textLength="91.9966" x="516.9185" y="223.895">displayMenu()</text></g><g class="message" data-participant-1="MainMenuModule" data-participant-2="User"><polygon fill="#181818" points="34.9551,254.0938,24.9551,258.0938,34.9551,262.0938,30.9551,258.0938" style="stroke:#181818;stroke-width:1;"/><line style="stroke:#181818;stroke-width:1;stroke-dasharray:2,2;" x1="28.9551" x2="633.5137" y1="258.0938" y2="258.0938"/><text fill="#000000" font-family="sans-serif" font-size="13" lengthAdjust="spacing" textLength="81.6436" x="40.9551" y="253.0278">shows menu</text></g><!--SRC=[VP0nRiCm34LtdqAZC_W26R8LQ0O11PeSW9M5bB132XBb8BSl5QIjfI0P1V8_VZrmmj4SauzTW2ZeC029sPD47dCPNYqlwAs-Pb_jl2sUv1red9lmfu1u2mIdPc01oNhATrXNpffXz-oQsHh8maEOuPhCkGmwS8ABufys_8Ekwodfp3bvusPqa-dJX67ppwf-KkLUbal2uKExVO6R-ir3SAr1joK29HHaEl2lY7vLeh9MPPLLcrFQYAbeQI6DuIOsAEccHxj_yqMTwkm7]--></g></svg>