<svg xmlns="http://www.w3.org/2000/svg" xmlns:xlink="http://www.w3.org/1999/xlink" contentStyleType="text/css" data-diagram-type="ACTIVITY" height="396px" preserveAspectRatio="none" style="width:566px;height:396px;background:#FFFFFF;" version="1.1" viewBox="0 0 566 396" width="566px" zoomAndPan="magnify"><defs/><g><ellipse cx="228.7739" cy="20" fill="#222222" rx="10" ry="10" style="stroke:#222222;stroke-width:1;"/><rect fill="#F1F1F1" height="33.9688" rx="12.5" ry="12.5" style="stroke:#181818;stroke-width:0.5;" width="295.877" x="80.8354" y="50"/><text fill="#000000" font-family="sans-serif" font-size="12" lengthAdjust="spacing" textLength="275.877" x="90.8354" y="71.1387">User inputs fraction (numerator/denominator)</text><polygon fill="#F1F1F1" points="176.2151,103.9688,281.3328,103.9688,293.3328,115.9688,281.3328,127.9688,176.2151,127.9688,164.2151,115.9688,176.2151,103.9688" style="stroke:#181818;stroke-width:0.5;"/><text fill="#000000" font-family="sans-serif" font-size="11" lengthAdjust="spacing" textLength="105.1177" x="176.2151" y="119.7769">Denominator zero?</text><text fill="#000000" font-family="sans-serif" font-size="11" lengthAdjust="spacing" textLength="19.0083" x="145.2068" y="113.3745">yes</text><text fill="#000000" font-family="sans-serif" font-size="11" lengthAdjust="spacing" textLength="13.7017" x="293.3328" y="113.3745">no</text><rect fill="#F1F1F1" height="33.9688" rx="12.5" ry="12.5" style="stroke:#181818;stroke-width:0.5;" width="155.3164" x="11" y="137.9688"/><text fill="#000000" font-family="sans-serif" font-size="12" lengthAdjust="spacing" textLength="135.3164" x="21" y="159.1074">Display error message</text><rect fill="#F1F1F1" height="33.9688" rx="12.5" ry="12.5" style="stroke:#181818;stroke-width:0.5;" width="115.7129" x="30.8018" y="206.9375"/><text fill="#000000" font-family="sans-serif" font-size="12" lengthAdjust="spacing" textLength="95.7129" x="40.8018" y="228.0762">Prompt re-entry</text><ellipse cx="88.6582" cy="286.9063" fill="none" rx="11" ry="11" style="stroke:#222222;stroke-width:1;"/><ellipse cx="88.6582" cy="286.9063" fill="#222222" rx="6" ry="6" style="stroke:#222222;stroke-width:1;"/><polygon fill="#F1F1F1" points="313.6936,137.9688,424.0857,137.9688,436.0857,149.9688,424.0857,161.9688,313.6936,161.9688,301.6936,149.9688,313.6936,137.9688" style="stroke:#181818;stroke-width:0.5;"/><text fill="#000000" font-family="sans-serif" font-size="11" lengthAdjust="spacing" textLength="110.3921" x="313.6936" y="153.7769">Non-integer values?</text><text fill="#000000" font-family="sans-serif" font-size="11" lengthAdjust="spacing" textLength="19.0083" x="282.6853" y="147.3745">yes</text><text fill="#000000" font-family="sans-serif" font-size="11" lengthAdjust="spacing" textLength="13.7017" x="436.0857" y="147.3745">no</text><rect fill="#F1F1F1" height="33.9688" rx="12.5" ry="12.5" style="stroke:#181818;stroke-width:0.5;" width="155.3164" x="196.3164" y="171.9688"/><text fill="#000000" font-family="sans-serif" font-size="12" lengthAdjust="spacing" textLength="135.3164" x="206.3164" y="193.1074">Display error message</text><rect fill="#F1F1F1" height="33.9688" rx="12.5" ry="12.5" style="stroke:#181818;stroke-width:0.5;" width="115.7129" x="216.1182" y="240.9375"/><text fill="#000000" font-family="sans-serif" font-size="12" lengthAdjust="spacing" textLength="95.7129" x="226.1182" y="262.0762">Prompt re-entry</text><ellipse cx="273.9746" cy="320.9063" fill="none" rx="11" ry="11" style="stroke:#222222;stroke-width:1;"/><ellipse cx="273.9746" cy="320.9063" fill="#222222" rx="6" ry="6" style="stroke:#222222;stroke-width:1;"/><rect fill="#F1F1F1" height="33.9688" rx="12.5" ry="12.5" style="stroke:#181818;stroke-width:0.5;" width="184.3438" x="371.6328" y="171.9688"/><text fill="#000000" font-family="sans-serif" font-size="12" lengthAdjust="spacing" textLength="164.3438" x="381.6328" y="193.1074">Convert fraction to decimal</text><rect fill="#F1F1F1" height="33.9688" rx="12.5" ry="12.5" style="stroke:#181818;stroke-width:0.5;" width="177.998" x="374.8057" y="240.9375"/><text fill="#000000" font-family="sans-serif" font-size="12" lengthAdjust="spacing" textLength="157.998" x="384.8057" y="262.0762">Update spaceship velocity</text><rect fill="#F1F1F1" height="33.9688" rx="12.5" ry="12.5" style="stroke:#181818;stroke-width:0.5;" width="167.6855" x="379.9619" y="309.9063"/><text fill="#000000" font-family="sans-serif" font-size="12" lengthAdjust="spacing" textLength="147.6855" x="389.9619" y="331.0449">Render updated velocity</text><ellipse cx="463.8047" cy="374.875" fill="none" rx="11" ry="11" style="stroke:#222222;stroke-width:1;"/><ellipse cx="463.8047" cy="374.875" fill="#222222" rx="6" ry="6" style="stroke:#222222;stroke-width:1;"/><line style="stroke:#181818;stroke-width:1;" x1="228.7739" x2="228.7739" y1="30" y2="50"/><polygon fill="#181818" points="224.7739,40,228.7739,50,232.7739,40,228.7739,44" style="stroke:#181818;stroke-width:1;"/><line style="stroke:#181818;stroke-width:1;" x1="88.6582" x2="88.6582" y1="171.9375" y2="206.9375"/><polygon fill="#181818" points="84.6582,196.9375,88.6582,206.9375,92.6582,196.9375,88.6582,200.9375" style="stroke:#181818;stroke-width:1;"/><line style="stroke:#181818;stroke-width:1;" x1="88.6582" x2="88.6582" y1="240.9063" y2="275.9063"/><polygon fill="#181818" points="84.6582,265.9063,88.6582,275.9063,92.6582,265.9063,88.6582,269.9063" style="stroke:#181818;stroke-width:1;"/><line style="stroke:#181818;stroke-width:1;" x1="273.9746" x2="273.9746" y1="205.9375" y2="240.9375"/><polygon fill="#181818" points="269.9746,230.9375,273.9746,240.9375,277.9746,230.9375,273.9746,234.9375" style="stroke:#181818;stroke-width:1;"/><line style="stroke:#181818;stroke-width:1;" x1="273.9746" x2="273.9746" y1="274.9063" y2="309.9063"/><polygon fill="#181818" points="269.9746,299.9063,273.9746,309.9063,277.9746,299.9063,273.9746,303.9063" style="stroke:#181818;stroke-width:1;"/><line style="stroke:#181818;stroke-width:1;" x1="463.8047" x2="463.8047" y1="205.9375" y2="240.9375"/><polygon fill="#181818" points="459.8047,230.9375,463.8047,240.9375,467.8047,230.9375,463.8047,234.9375" style="stroke:#181818;stroke-width:1;"/><line style="stroke:#181818;stroke-width:1;" x1="463.8047" x2="463.8047" y1="274.9063" y2="309.9063"/><polygon fill="#181818" points="459.8047,299.9063,463.8047,309.9063,467.8047,299.9063,463.8047,303.9063" style="stroke:#181818;stroke-width:1;"/><line style="stroke:#181818;stroke-width:1;" x1="463.8047" x2="463.8047" y1="343.875" y2="363.875"/><polygon fill="#181818" points="459.8047,353.875,463.8047,363.875,467.8047,353.875,463.8047,357.875" style="stroke:#181818;stroke-width:1;"/><line style="stroke:#181818;stroke-width:1;" x1="301.6936" x2="273.9746" y1="149.9688" y2="149.9688"/><line style="stroke:#181818;stroke-width:1;" x1="273.9746" x2="273.9746" y1="149.9688" y2="171.9688"/><polygon fill="#181818" points="269.9746,161.9688,273.9746,171.9688,277.9746,161.9688,273.9746,165.9688" style="stroke:#181818;stroke-width:1;"/><line style="stroke:#181818;stroke-width:1;" x1="436.0857" x2="463.8047" y1="149.9688" y2="149.9688"/><line style="stroke:#181818;stroke-width:1;" x1="463.8047" x2="463.8047" y1="149.9688" y2="171.9688"/><polygon fill="#181818" points="459.8047,161.9688,463.8047,171.9688,467.8047,161.9688,463.8047,165.9688" style="stroke:#181818;stroke-width:1;"/><line style="stroke:#181818;stroke-width:1;" x1="164.2151" x2="88.6582" y1="115.9688" y2="115.9688"/><line style="stroke:#181818;stroke-width:1;" x1="88.6582" x2="88.6582" y1="115.9688" y2="137.9688"/><polygon fill="#181818" points="84.6582,127.9688,88.6582,137.9688,92.6582,127.9688,88.6582,131.9688" style="stroke:#181818;stroke-width:1;"/><line style="stroke:#181818;stroke-width:1;" x1="293.3328" x2="368.8896" y1="115.9688" y2="115.9688"/><line style="stroke:#181818;stroke-width:1;" x1="368.8896" x2="368.8896" y1="115.9688" y2="137.9688"/><polygon fill="#181818" points="364.8896,127.9688,368.8896,137.9688,372.8896,127.9688,368.8896,131.9688" style="stroke:#181818;stroke-width:1;"/><line style="stroke:#181818;stroke-width:1;" x1="228.7739" x2="228.7739" y1="83.9688" y2="103.9688"/><polygon fill="#181818" points="224.7739,93.9688,228.7739,103.9688,232.7739,93.9688,228.7739,97.9688" style="stroke:#181818;stroke-width:1;"/><!--SRC=[XP2nQiD038PtFuN6U0ZTdQ53CvTIo0CSlj_9WIqTacnmdxvd6-gKf5I34D8lVPBCWthLN0nAYVFeHfs6rfCm7NWSeC55No9OXiHBN9-grD7Xl6Ve2oglDVaDfMc6rHKLQyx9SXzcWceH3J0BLvosseVAa9qKHx3hl6ND9LVe3GKjsv05zIvyJEoubXsdq8-mHzX_mB-XF-0b-0rVczw49wZlRt6XY3ODeRyRVSanECXoQ66tb6b2BstoEqZp2OxbX76LnYUAVGsEgQjM_mq0]--></g></svg>