<svg xmlns="http://www.w3.org/2000/svg" xmlns:xlink="http://www.w3.org/1999/xlink" contentStyleType="text/css" data-diagram-type="DESCRIPTION" height="426px" preserveAspectRatio="none" style="width:1592px;height:426px;background:#FFFFFF;" version="1.1" viewBox="0 0 1592 426" width="1592px" zoomAndPan="magnify"><defs/><g><!--cluster Space Fractions System--><g class="cluster" data-entity="Space Fractions System" data-source-line="6" data-uid="ent0005" id="cluster_Space Fractions System"><rect fill="none" height="240" rx="2.5" ry="2.5" style="stroke:#181818;stroke-width:1;" width="1438.21" x="148.68" y="7"/><text fill="#000000" font-family="sans-serif" font-size="14" font-weight="bold" lengthAdjust="spacing" textLength="189.0342" x="773.2679" y="21.9951">Space Fractions System</text></g><!--entity UC1--><g class="entity" data-entity="UC1" data-source-line="7" data-uid="ent0006" id="entity_UC1"><ellipse cx="508.9717" cy="209.0043" fill="#F1F1F1" rx="64.0217" ry="15.2043" style="stroke:#181818;stroke-width:0.5;"/><text fill="#000000" font-family="sans-serif" font-size="14" lengthAdjust="spacing" textLength="90.8564" x="463.5435" y="213.6528">Start System</text></g><!--entity UC2--><g class="entity" data-entity="UC2" data-source-line="8" data-uid="ent0007" id="entity_UC2"><ellipse cx="793.4131" cy="119.0026" fill="#F1F1F1" rx="95.4131" ry="21.4826" style="stroke:#181818;stroke-width:0.5;"/><text fill="#000000" font-family="sans-serif" font-size="14" lengthAdjust="spacing" textLength="165.8945" x="710.4658" y="123.6511">Play Introductory Movie</text></g><!--entity UC3--><g class="entity" data-entity="UC3" data-source-line="9" data-uid="ent0008" id="entity_UC3"><ellipse cx="242.325" cy="127.0036" fill="#F1F1F1" rx="56.495" ry="14.5236" style="stroke:#181818;stroke-width:0.5;"/><text fill="#000000" font-family="sans-serif" font-size="14" lengthAdjust="spacing" textLength="75.6533" x="204.4983" y="131.6521">Skip Movie</text></g><!--entity UC4--><g class="entity" data-entity="UC4" data-source-line="10" data-uid="ent0009" id="entity_UC4"><ellipse cx="793.4074" cy="196.0035" fill="#F1F1F1" rx="80.7174" ry="18.5435" style="stroke:#181818;stroke-width:0.5;"/><text fill="#000000" font-family="sans-serif" font-size="14" lengthAdjust="spacing" textLength="132.3643" x="727.2253" y="200.6519">Display Main Menu</text></g><!--entity UC5--><g class="entity" data-entity="UC5" data-source-line="11" data-uid="ent0010" id="entity_UC5"><ellipse cx="1124.7384" cy="136.0017" fill="#F1F1F1" rx="61.7084" ry="14.7417" style="stroke:#181818;stroke-width:0.5;"/><text fill="#000000" font-family="sans-serif" font-size="14" lengthAdjust="spacing" textLength="84.54" x="1082.4684" y="140.6501">Access Help</text></g><!--entity UC6--><g class="entity" data-entity="UC6" data-source-line="12" data-uid="ent0011" id="entity_UC6"><ellipse cx="1124.7418" cy="64.0044" fill="#F1F1F1" rx="97.1718" ry="21.8344" style="stroke:#181818;stroke-width:0.5;"/><text fill="#000000" font-family="sans-serif" font-size="14" lengthAdjust="spacing" textLength="169.8047" x="1039.8395" y="68.6528">Visit External Resources</text></g><!--entity UC7--><g class="entity" data-entity="UC7" data-source-line="13" data-uid="ent0012" id="entity_UC7"><ellipse cx="1124.7413" cy="200.0036" fill="#F1F1F1" rx="59.8013" ry="14.5236" style="stroke:#181818;stroke-width:0.5;"/><text fill="#000000" font-family="sans-serif" font-size="14" lengthAdjust="spacing" textLength="80.3291" x="1084.5767" y="204.6521">Start Game</text></g><!--entity UC8--><g class="entity" data-entity="UC8" data-source-line="14" data-uid="ent0013" id="entity_UC8"><ellipse cx="1465.7682" cy="141.0036" fill="#F1F1F1" rx="105.1182" ry="23.4236" style="stroke:#181818;stroke-width:0.5;"/><text fill="#000000" font-family="sans-serif" font-size="14" lengthAdjust="spacing" textLength="187.2773" x="1372.1295" y="145.6521">Answer Fraction Questions</text></g><!--entity UC9--><g class="entity" data-entity="UC9" data-source-line="15" data-uid="ent0014" id="entity_UC9"><ellipse cx="1465.7672" cy="214.9994" fill="#F1F1F1" rx="65.7972" ry="15.5594" style="stroke:#181818;stroke-width:0.5;"/><text fill="#000000" font-family="sans-serif" font-size="14" lengthAdjust="spacing" textLength="95.5732" x="1417.9806" y="219.6479">Display Score</text></g><!--entity UC10--><g class="entity" data-entity="UC10" data-source-line="16" data-uid="ent0015" id="entity_UC10"><ellipse cx="242.3234" cy="59.9967" fill="#F1F1F1" rx="77.6334" ry="17.9267" style="stroke:#181818;stroke-width:0.5;"/><text fill="#000000" font-family="sans-serif" font-size="14" lengthAdjust="spacing" textLength="125.0635" x="179.7917" y="64.6451">Update Questions</text></g><!--entity UC11--><g class="entity" data-entity="UC11" data-source-line="17" data-uid="ent0016" id="entity_UC11"><ellipse cx="508.9746" cy="57.0049" fill="#F1F1F1" rx="63.7246" ry="15.1449" style="stroke:#181818;stroke-width:0.5;"/><text fill="#000000" font-family="sans-serif" font-size="14" lengthAdjust="spacing" textLength="90.0566" x="463.9463" y="61.6534">Authenticate</text></g><!--entity UC12--><g class="entity" data-entity="UC12" data-source-line="18" data-uid="ent0017" id="entity_UC12"><ellipse cx="1465.7669" cy="62.0014" fill="#F1F1F1" rx="89.7069" ry="20.3414" style="stroke:#181818;stroke-width:0.5;"/><text fill="#000000" font-family="sans-serif" font-size="14" lengthAdjust="spacing" textLength="153.0771" x="1389.2283" y="66.6498">Open External Project</text></g><!--entity User--><g class="entity" data-entity="User" data-source-line="2" data-uid="ent0002" id="entity_User"><ellipse cx="242.3151" cy="295.35" fill="#F1F1F1" rx="8" ry="8" style="stroke:#181818;stroke-width:0.5;"/><path d="M242.3151,303.35 L242.3151,330.35 M229.3151,311.35 L255.3151,311.35 M242.3151,330.35 L229.3151,345.35 M242.3151,330.35 L255.3151,345.35" fill="none" style="stroke:#181818;stroke-width:0.5;"/><text fill="#000000" font-family="sans-serif" font-size="14" lengthAdjust="spacing" textLength="31.9102" x="226.36" y="359.8451">User</text></g><!--entity Administrator--><g class="entity" data-entity="Administrator" data-source-line="3" data-uid="ent0003" id="entity_Administrator"><ellipse cx="53.8413" cy="30.35" fill="#F1F1F1" rx="8" ry="8" style="stroke:#181818;stroke-width:0.5;"/><path d="M53.8413,38.35 L53.8413,65.35 M40.8413,46.35 L66.8413,46.35 M53.8413,65.35 L40.8413,80.35 M53.8413,65.35 L66.8413,80.35" fill="none" style="stroke:#181818;stroke-width:0.5;"/><text fill="#000000" font-family="sans-serif" font-size="14" lengthAdjust="spacing" textLength="95.6826" x="6" y="94.8451">Administrator</text></g><!--entity External--><g class="entity" data-entity="External" data-source-line="4" data-uid="ent0004" id="entity_External"><ellipse cx="1124.7365" cy="271.35" fill="#F1F1F1" rx="8" ry="8" style="stroke:#181818;stroke-width:0.5;"/><path d="M1124.7365,279.35 L1124.7365,306.35 M1111.7365,287.35 L1137.7365,287.35 M1124.7365,306.35 L1111.7365,321.35 M1124.7365,306.35 L1137.7365,321.35" fill="none" style="stroke:#181818;stroke-width:0.5;"/><text fill="#000000" font-family="sans-serif" font-size="14" lengthAdjust="spacing" textLength="221.833" x="1013.82" y="335.8451">External Educational Resources</text></g><!--link UC1 to UC2--><g class="link" data-entity-1="UC1" data-entity-2="UC2" data-source-line="20" data-uid="lnk18" id="link_UC1_UC2"><path d="M547.03,196.46 C564.06,190.75 584.52,183.95 602.99,178 C647.41,163.68 692.1357,149.7558 729.8057,138.1558" fill="none" id="UC1-to-UC2" style="stroke:#181818;stroke-width:1;"/><polygon fill="#181818" points="735.54,136.39,725.7614,135.2158,730.7614,137.8615,728.1158,142.8616,735.54,136.39" style="stroke:#181818;stroke-width:1;"/><text fill="#000000" font-family="sans-serif" font-size="13" lengthAdjust="spacing" textLength="63.0068" x="603.99" y="155.0669">&#171;include&#187;</text></g><!--link UC3 to UC2--><g class="link" data-entity-1="UC3" data-entity-2="UC2" data-source-line="21" data-uid="lnk19" id="link_UC3_UC2"><path d="M298.99,126.19 C392.64,124.82 576.7206,122.1477 691.6906,120.4677" fill="none" id="UC3-to-UC2" style="stroke:#181818;stroke-width:1;stroke-dasharray:7,7;"/><polygon fill="#181818" points="697.69,120.38,688.6325,116.5119,692.6905,120.4531,688.7494,124.5111,697.69,120.38" style="stroke:#181818;stroke-width:1;"/><text fill="#000000" font-family="sans-serif" font-size="13" lengthAdjust="spacing" textLength="61.1851" x="478.47" y="119.0669">&#171;extend&#187;</text></g><!--link UC1 to UC4--><g class="link" data-entity-1="UC1" data-entity-2="UC4" data-source-line="22" data-uid="lnk20" id="link_UC1_UC4"><path d="M572.3,206.13 C613.97,204.21 663.1363,201.945 707.8163,199.895" fill="none" id="UC1-to-UC4" style="stroke:#181818;stroke-width:1;"/><polygon fill="#181818" points="713.81,199.62,704.6361,196.0367,708.8153,199.8492,705.0028,204.0283,713.81,199.62" style="stroke:#181818;stroke-width:1;"/><text fill="#000000" font-family="sans-serif" font-size="13" lengthAdjust="spacing" textLength="63.0068" x="603.99" y="199.0669">&#171;include&#187;</text></g><!--link UC4 to UC5--><g class="link" data-entity-1="UC4" data-entity-2="UC5" data-source-line="23" data-uid="lnk21" id="link_UC4_UC5"><path d="M857.9,184.43 C921.17,172.9 1011.0773,156.5259 1068.7373,146.0159" fill="none" id="UC4-to-UC5" style="stroke:#181818;stroke-width:1;"/><polygon fill="#181818" points="1074.64,144.94,1065.0686,142.6187,1069.721,145.8366,1066.5032,150.4891,1074.64,144.94" style="stroke:#181818;stroke-width:1;"/><text fill="#000000" font-family="sans-serif" font-size="13" lengthAdjust="spacing" textLength="63.0068" x="919.82" y="159.0669">&#171;include&#187;</text></g><!--link UC4 to UC6--><g class="link" data-entity-1="UC4" data-entity-2="UC6" data-source-line="24" data-uid="lnk22" id="link_UC4_UC6"><path d="M838.49,180.42 C854.65,174.15 872.88,166.41 888.82,158 C902.99,150.52 904.51,145.22 918.82,138 C965.76,114.32 1016.417,96.3421 1058.147,83.2021" fill="none" id="UC4-to-UC6" style="stroke:#181818;stroke-width:1;"/><polygon fill="#181818" points="1063.87,81.4,1054.0841,80.2878,1059.1008,82.9017,1056.4869,87.9184,1063.87,81.4" style="stroke:#181818;stroke-width:1;"/><text fill="#000000" font-family="sans-serif" font-size="13" lengthAdjust="spacing" textLength="63.0068" x="919.82" y="108.0669">&#171;include&#187;</text></g><!--link UC4 to UC7--><g class="link" data-entity-1="UC4" data-entity-2="UC7" data-source-line="25" data-uid="lnk23" id="link_UC4_UC7"><path d="M874.13,196.97 C932.85,197.68 1005.4304,198.5678 1058.6204,199.2078" fill="none" id="UC4-to-UC7" style="stroke:#181818;stroke-width:1;"/><polygon fill="#181818" points="1064.62,199.28,1055.6688,195.172,1059.6204,199.2198,1055.5725,203.1714,1064.62,199.28" style="stroke:#181818;stroke-width:1;"/><text fill="#000000" font-family="sans-serif" font-size="13" lengthAdjust="spacing" textLength="63.0068" x="919.82" y="194.0669">&#171;include&#187;</text></g><!--link UC7 to UC8--><g class="link" data-entity-1="UC7" data-entity-2="UC8" data-source-line="26" data-uid="lnk24" id="link_UC7_UC8"><path d="M1174.31,191.55 C1228.42,182.13 1310.9089,167.7789 1375.9989,156.4489" fill="none" id="UC7-to-UC8" style="stroke:#181818;stroke-width:1;"/><polygon fill="#181818" points="1381.91,155.42,1372.3574,153.0226,1376.9841,156.2774,1373.7293,160.9041,1381.91,155.42" style="stroke:#181818;stroke-width:1;"/><text fill="#000000" font-family="sans-serif" font-size="13" lengthAdjust="spacing" textLength="63.0068" x="1266.65" y="162.0669">&#171;include&#187;</text></g><!--link UC7 to UC9--><g class="link" data-entity-1="UC7" data-entity-2="UC9" data-source-line="27" data-uid="lnk25" id="link_UC7_UC9"><path d="M1184.02,202.58 C1244.32,205.25 1332.2459,209.1348 1394.6259,211.8948" fill="none" id="UC7-to-UC9" style="stroke:#181818;stroke-width:1;"/><polygon fill="#181818" points="1400.62,212.16,1391.8056,207.7661,1395.6249,211.939,1391.452,215.7583,1400.62,212.16" style="stroke:#181818;stroke-width:1;"/><text fill="#000000" font-family="sans-serif" font-size="13" lengthAdjust="spacing" textLength="63.0068" x="1266.65" y="203.0669">&#171;include&#187;</text></g><!--link UC10 to UC11--><g class="link" data-entity-1="UC10" data-entity-2="UC11" data-source-line="28" data-uid="lnk26" id="link_UC10_UC11"><path d="M320.22,59.13 C359.9,58.68 401.7004,58.2089 439.1304,57.7789" fill="none" id="UC10-to-UC11" style="stroke:#181818;stroke-width:1;"/><polygon fill="#181818" points="445.13,57.71,436.0846,53.8137,440.1303,57.7674,436.1765,61.8131,445.13,57.71" style="stroke:#181818;stroke-width:1;"/><text fill="#000000" font-family="sans-serif" font-size="13" lengthAdjust="spacing" textLength="63.0068" x="350.95" y="55.0669">&#171;include&#187;</text></g><!--link UC6 to UC12--><g class="link" data-entity-1="UC6" data-entity-2="UC12" data-source-line="29" data-uid="lnk27" id="link_UC6_UC12"><path d="M1221.98,63.43 C1270.34,63.15 1322.5401,62.8355 1369.8401,62.5555" fill="none" id="UC6-to-UC12" style="stroke:#181818;stroke-width:1;"/><polygon fill="#181818" points="1375.84,62.52,1366.8165,58.5733,1370.8401,62.5496,1366.8638,66.5732,1375.84,62.52" style="stroke:#181818;stroke-width:1;"/><text fill="#000000" font-family="sans-serif" font-size="13" lengthAdjust="spacing" textLength="63.0068" x="1266.65" y="59.0669">&#171;include&#187;</text></g><!--link User to UC1--><g class="link" data-entity-1="User" data-entity-2="UC1" data-source-line="32" data-uid="lnk28" id="link_User_UC1"><path d="M258.52,311.87 C278.31,295.41 314.57,267.37 349.95,251 C383.83,235.33 418.7287,225.9159 450.3687,219.2559" fill="none" id="User-to-UC1" style="stroke:#181818;stroke-width:1;"/><polygon fill="#181818" points="456.24,218.02,446.6091,215.9596,451.3472,219.0499,448.2569,223.788,456.24,218.02" style="stroke:#181818;stroke-width:1;"/></g><!--link User to UC4--><g class="link" data-entity-1="User" data-entity-2="UC4" data-source-line="33" data-uid="lnk29" id="link_User_UC4"><path d="M258.57,321.42 C327.68,305.18 607.439,239.4521 730.129,210.6321" fill="none" id="User-to-UC4" style="stroke:#181818;stroke-width:1;"/><polygon fill="#181818" points="735.97,209.26,726.2938,207.4241,731.1025,210.4034,728.1232,215.2121,735.97,209.26" style="stroke:#181818;stroke-width:1;"/></g><!--link User to UC7--><g class="link" data-entity-1="User" data-entity-2="UC7" data-source-line="34" data-uid="lnk30" id="link_User_UC7"><path d="M258.48,323.4 C288.41,320.23 357.19,312.85 414.95,306 C485.26,297.66 502.89,295.91 572.99,286 C758.41,259.8 972.26,225.0466 1068.52,209.1666" fill="none" id="User-to-UC7" style="stroke:#181818;stroke-width:1;"/><polygon fill="#181818" points="1074.44,208.19,1064.9089,205.7083,1069.5067,209.0038,1066.2111,213.6016,1074.44,208.19" style="stroke:#181818;stroke-width:1;"/></g><!--link User to UC9--><g class="link" data-entity-1="User" data-entity-2="UC9" data-source-line="35" data-uid="lnk31" id="link_User_UC9"><path d="M258.74,334.71 C298.43,358.72 408.01,419 507.97,419 C507.97,419 507.97,419 1125.74,419 C1271.71,419 1404.966,282.9264 1447.386,235.1564" fill="none" id="User-to-UC9" style="stroke:#181818;stroke-width:1;"/><polygon fill="#181818" points="1451.37,230.67,1442.4031,234.7437,1448.05,234.4087,1448.385,240.0556,1451.37,230.67" style="stroke:#181818;stroke-width:1;"/></g><!--link Administrator to UC10--><g class="link" data-entity-1="Administrator" data-entity-2="UC10" data-source-line="36" data-uid="lnk32" id="link_Administrator_UC10"><path d="M101.9,60 C120.89,60 137.29,60 158.53,60" fill="none" id="Administrator-to-UC10" style="stroke:#181818;stroke-width:1;"/><polygon fill="#181818" points="164.53,60,155.53,56,159.53,60,155.53,64,164.53,60" style="stroke:#181818;stroke-width:1;"/></g><!--reverse link External to UC12--><g class="link" data-entity-1="External" data-entity-2="UC12" data-source-line="37" data-uid="lnk33" id="link_External_UC12"><path d="M1241.7174,274.6357 C1276.2674,262.0457 1306.1,245.2 1330.65,217 C1365.9,176.51 1324.62,139.79 1360.65,100 C1370.6,89.02 1383.98,81.2 1397.83,75.65" fill="none" id="External-backto-UC12" style="stroke:#181818;stroke-width:1;"/><polygon fill="#181818" points="1236.08,276.69,1245.9056,277.3669,1240.7778,274.9781,1243.1666,269.8504,1236.08,276.69" style="stroke:#181818;stroke-width:1;"/></g><!--SRC=[VPF9JiCm48RlVefHJd08QjfqGrMb2ifog5YYShUSeJMaTcGxG8LuTvp4JbE8wjFCVFFFOiiPlXem4XJVR0saN24pN0f2cP4ArXgLCnVfZWkkZQBMSx5W-MLG2Ph1CYqOBONMVaOj2yLG1q0r-1H2oj9KR3A48CafGxXHj6gc8TbhWxi0lWdOSvOOgemBdfT5rbTHJHupkeTxOPIq3Uq8UrZ93uukgU_axpm_YW_g-3NNUQbVKIvWXQ9mEAxnWjcPDTnXbZimhC4BrzmqYnpsSrcZzj2tTEUxZbrPeJzHDSl2Ku6wsjgbJOw7IvXKliAqHkiyfGR_2QEUQr2OBGh3xGDuOUIkwo57SHZyKSat-mO-fq-g96j16CxBwuDBcCsuO5cHudpkw032YnP6Mqsa3VNQk5CREpeyIKSdwRYJZXsTdAJJJXhr78wYJZxo-E-5_11I_WYFsqxSTiPjPqgEleuNzqZpBhCmhBhz0W00]--></g></svg>