<svg xmlns="http://www.w3.org/2000/svg" xmlns:xlink="http://www.w3.org/1999/xlink" contentStyleType="text/css" data-diagram-type="DESCRIPTION" height="295px" preserveAspectRatio="none" style="width:711px;height:295px;background:#FFFFFF;" version="1.1" viewBox="0 0 711 295" width="711px" zoomAndPan="magnify"><defs/><g><!--cluster sf--><g class="cluster" data-entity="sf" data-source-line="1" data-uid="ent0002" id="cluster_sf"><path d="M8.5,6 L198.5342,6 A3.75,3.75 0 0 1 201.0342,8.5 L208.0342,28.2969 L701.5,28.2969 A2.5,2.5 0 0 1 704,30.7969 L704,286.41 A2.5,2.5 0 0 1 701.5,288.91 L8.5,288.91 A2.5,2.5 0 0 1 6,286.41 L6,8.5 A2.5,2.5 0 0 1 8.5,6" fill="none" style="stroke:#000000;stroke-width:1.5;"/><line style="stroke:#000000;stroke-width:1.5;" x1="6" x2="208.0342" y1="28.2969" y2="28.2969"/><text fill="#000000" font-family="sans-serif" font-size="14" font-weight="bold" lengthAdjust="spacing" textLength="189.0342" x="10" y="20.9951">Space Fractions System</text></g><!--entity ui--><g class="entity" data-entity="ui" data-source-line="2" data-uid="ent0003" id="entity_ui"><path d="M32.98,93.72 L60.7456,93.72 A3.75,3.75 0 0 1 63.2456,96.22 L70.2456,116.0169 L157.0191,116.0169 A2.5,2.5 0 0 1 159.5191,118.5169 L159.5191,146.8138 A2.5,2.5 0 0 1 157.0191,149.3138 L32.98,149.3138 A2.5,2.5 0 0 1 30.48,146.8138 L30.48,96.22 A2.5,2.5 0 0 1 32.98,93.72" fill="#F1F1F1" style="stroke:#181818;stroke-width:0.5;"/><line style="stroke:#181818;stroke-width:0.5;" x1="30.48" x2="70.2456" y1="116.0169" y2="116.0169"/><text fill="#000000" font-family="sans-serif" font-size="14" font-weight="bold" lengthAdjust="spacing" textLength="14.7656" x="40.48" y="109.7151">ui</text><text fill="#000000" font-family="sans-serif" font-size="14" lengthAdjust="spacing" textLength="99.0391" x="40.48" y="136.012">User Interface</text></g><!--entity wbi--><g class="entity" data-entity="wbi" data-source-line="3" data-uid="ent0004" id="entity_wbi"><path d="M196.52,93.72 L237.2739,93.72 A3.75,3.75 0 0 1 239.7739,96.22 L246.7739,116.0169 L381.4809,116.0169 A2.5,2.5 0 0 1 383.9809,118.5169 L383.9809,146.8138 A2.5,2.5 0 0 1 381.4809,149.3138 L196.52,149.3138 A2.5,2.5 0 0 1 194.02,146.8138 L194.02,96.22 A2.5,2.5 0 0 1 196.52,93.72" fill="#F1F1F1" style="stroke:#181818;stroke-width:0.5;"/><line style="stroke:#181818;stroke-width:0.5;" x1="194.02" x2="246.7739" y1="116.0169" y2="116.0169"/><text fill="#000000" font-family="sans-serif" font-size="14" font-weight="bold" lengthAdjust="spacing" textLength="27.7539" x="204.02" y="109.7151">wbi</text><text fill="#000000" font-family="sans-serif" font-size="14" lengthAdjust="spacing" textLength="159.9609" x="204.02" y="136.012">Web Browser Interface</text></g><!--entity cs--><g class="entity" data-entity="cs" data-source-line="4" data-uid="ent0005" id="entity_cs"><path d="M421.82,93.72 L451.4518,93.72 A3.75,3.75 0 0 1 453.9518,96.22 L460.9518,116.0169 L536.1862,116.0169 A2.5,2.5 0 0 1 538.6862,118.5169 L538.6862,146.8138 A2.5,2.5 0 0 1 536.1862,149.3138 L421.82,149.3138 A2.5,2.5 0 0 1 419.32,146.8138 L419.32,96.22 A2.5,2.5 0 0 1 421.82,93.72" fill="#F1F1F1" style="stroke:#181818;stroke-width:0.5;"/><line style="stroke:#181818;stroke-width:0.5;" x1="419.32" x2="460.9518" y1="116.0169" y2="116.0169"/><text fill="#000000" font-family="sans-serif" font-size="14" font-weight="bold" lengthAdjust="spacing" textLength="16.6318" x="429.32" y="109.7151">cs</text><text fill="#000000" font-family="sans-serif" font-size="14" lengthAdjust="spacing" textLength="89.3662" x="429.32" y="136.012">Core System</text></g><!--entity se--><g class="entity" data-entity="se" data-source-line="5" data-uid="ent0006" id="entity_se"><path d="M32.01,209.32 L62.8381,209.32 A3.75,3.75 0 0 1 65.3381,211.82 L72.3381,231.6169 L161.9963,231.6169 A2.5,2.5 0 0 1 164.4963,234.1169 L164.4963,262.4138 A2.5,2.5 0 0 1 161.9963,264.9138 L32.01,264.9138 A2.5,2.5 0 0 1 29.51,262.4138 L29.51,211.82 A2.5,2.5 0 0 1 32.01,209.32" fill="#F1F1F1" style="stroke:#181818;stroke-width:0.5;"/><line style="stroke:#181818;stroke-width:0.5;" x1="29.51" x2="72.3381" y1="231.6169" y2="231.6169"/><text fill="#000000" font-family="sans-serif" font-size="14" font-weight="bold" lengthAdjust="spacing" textLength="17.8281" x="39.51" y="225.3151">se</text><text fill="#000000" font-family="sans-serif" font-size="14" lengthAdjust="spacing" textLength="104.9863" x="39.51" y="251.612">Scoring Engine</text></g><!--entity qms--><g class="entity" data-entity="qms" data-source-line="6" data-uid="ent0007" id="entity_qms"><path d="M201.53,209.32 L247.4724,209.32 A3.75,3.75 0 0 1 249.9724,211.82 L256.9724,231.6169 L442.4773,231.6169 A2.5,2.5 0 0 1 444.9773,234.1169 L444.9773,262.4138 A2.5,2.5 0 0 1 442.4773,264.9138 L201.53,264.9138 A2.5,2.5 0 0 1 199.03,262.4138 L199.03,211.82 A2.5,2.5 0 0 1 201.53,209.32" fill="#F1F1F1" style="stroke:#181818;stroke-width:0.5;"/><line style="stroke:#181818;stroke-width:0.5;" x1="199.03" x2="256.9724" y1="231.6169" y2="231.6169"/><text fill="#000000" font-family="sans-serif" font-size="14" font-weight="bold" lengthAdjust="spacing" textLength="32.9424" x="209.03" y="225.3151">qms</text><text fill="#000000" font-family="sans-serif" font-size="14" lengthAdjust="spacing" textLength="215.9473" x="209.03" y="251.612">Question Management System</text></g><!--entity ai--><g class="entity" data-entity="ai" data-source-line="7" data-uid="ent0008" id="entity_ai"><path d="M482.86,209.32 L510.1061,209.32 A3.75,3.75 0 0 1 512.6061,211.82 L519.6061,231.6169 L677.1383,231.6169 A2.5,2.5 0 0 1 679.6383,234.1169 L679.6383,262.4138 A2.5,2.5 0 0 1 677.1383,264.9138 L482.86,264.9138 A2.5,2.5 0 0 1 480.36,262.4138 L480.36,211.82 A2.5,2.5 0 0 1 482.86,209.32" fill="#F1F1F1" style="stroke:#181818;stroke-width:0.5;"/><line style="stroke:#181818;stroke-width:0.5;" x1="480.36" x2="519.6061" y1="231.6169" y2="231.6169"/><text fill="#000000" font-family="sans-serif" font-size="14" font-weight="bold" lengthAdjust="spacing" textLength="14.2461" x="490.36" y="225.3151">ai</text><text fill="#000000" font-family="sans-serif" font-size="14" lengthAdjust="spacing" textLength="169.2783" x="490.36" y="251.612">Administrative Interface</text></g><!--link sf to ui--><g class="link" data-entity-1="sf" data-entity-2="ui" data-source-line="10" data-uid="lnk9" id="link_sf_ui"><path d="M288.59,33.86 C283.09,35.77 223.38,56.58 177,77.72 C166.48,82.52 166.0594,104.8048 155.5494,110.2148" fill="none" id="sf-to-ui" style="stroke:#181818;stroke-width:1;"/><polygon fill="#181818" points="144.88,115.7069,152.0454,116.5173,155.5494,110.2148,148.384,109.4044,144.88,115.7069" style="stroke:#181818;stroke-width:1;"/></g><!--link sf to wbi--><g class="link" data-entity-1="sf" data-entity-2="wbi" data-source-line="11" data-uid="lnk10" id="link_sf_wbi"><path d="M289,33.97 C289,37.11 289,79.6469 289,103.8569" fill="none" id="sf-to-wbi" style="stroke:#181818;stroke-width:1;"/><polygon fill="#181818" points="289,115.8569,293,109.8569,289,103.8569,285,109.8569,289,115.8569" style="stroke:#181818;stroke-width:1;"/></g><!--link sf to cs--><g class="link" data-entity-1="sf" data-entity-2="cs" data-source-line="12" data-uid="lnk11" id="link_sf_cs"><path d="M289.41,33.86 C294.93,35.72 354.84,56.1 401,77.72 C411.07,82.44 411.0911,82.1882 421.0911,87.5882" fill="none" id="sf-to-cs" style="stroke:#181818;stroke-width:1;"/><polygon fill="#181818" points="431.65,93.29,428.2712,86.9195,421.0911,87.5882,424.47,93.9587,431.65,93.29" style="stroke:#181818;stroke-width:1;"/></g><!--link cs to se--><g class="link" data-entity-1="cs" data-entity-2="se" data-source-line="13" data-uid="lnk12" id="link_cs_se"><path d="M419.08,143.53 C412.99,145.54 406.88,147.5 401,149.32 C304.56,179.06 278.81,180.81 182,209.32 C176.36,210.98 181.9948,231.5258 176.1448,233.3158" fill="none" id="cs-to-se" style="stroke:#181818;stroke-width:1;"/><polygon fill="#181818" points="164.67,236.8269,171.5778,238.8963,176.1448,233.3158,169.2371,231.2464,164.67,236.8269" style="stroke:#181818;stroke-width:1;"/></g><!--link cs to qms--><g class="link" data-entity-1="cs" data-entity-2="qms" data-source-line="14" data-uid="lnk13" id="link_cs_qms"><path d="M441.39,149.73 C416.63,167.65 394.053,206.2838 369.293,224.1938" fill="none" id="cs-to-qms" style="stroke:#181818;stroke-width:1;"/><polygon fill="#181818" points="359.57,231.2269,366.7758,230.9513,369.293,224.1938,362.0871,224.4694,359.57,231.2269" style="stroke:#181818;stroke-width:1;"/></g><!--link cs to ai--><g class="link" data-entity-1="cs" data-entity-2="ai" data-source-line="15" data-uid="lnk14" id="link_cs_ai"><path d="M503.19,149.73 C519.18,167.71 532.0867,204.5188 548.0367,222.4588" fill="none" id="cs-to-ai" style="stroke:#181818;stroke-width:1;"/><polygon fill="#181818" points="556.01,231.4269,555.0127,224.2851,548.0367,222.4588,549.034,229.6006,556.01,231.4269" style="stroke:#181818;stroke-width:1;"/></g><!--SRC=[PO_12i8m38RlVOhWKTX3g2Xuy213F6Sr6q7QpgPpYFZkjhD2fxUFv4lofqTznOvWKVUe2NOUTM1d1Ug7138BG05fuQa0-gzw4lAmju5y6sScPU1IE5C3Q-_6VsziPkB6UIelQIcxjNQURGTRsx7zp0kLmd4WIMdXW3OM3DbGRhkPsRhLnR1b2Hu3t-ad6B9wAHK_hQfb-YPJofinPjCoKGoHALt8YFm6]--></g></svg>