<svg xmlns="http://www.w3.org/2000/svg" xmlns:xlink="http://www.w3.org/1999/xlink" contentStyleType="text/css" data-diagram-type="DESCRIPTION" height="552px" preserveAspectRatio="none" style="width:678px;height:552px;background:#FFFFFF;" version="1.1" viewBox="0 0 678 552" width="678px" zoomAndPan="magnify"><defs/><g><!--entity ui--><g class="entity" data-entity="ui" data-source-line="1" data-uid="ent0002" id="entity_ui"><rect fill="#F1F1F1" height="46.2969" rx="2.5" ry="2.5" style="stroke:#181818;stroke-width:0.5;" width="139.0391" x="175.97" y="7"/><rect fill="#F1F1F1" height="10" style="stroke:#181818;stroke-width:0.5;" width="15" x="295.0091" y="12"/><rect fill="#F1F1F1" height="2" style="stroke:#181818;stroke-width:0.5;" width="4" x="293.0091" y="14"/><rect fill="#F1F1F1" height="2" style="stroke:#181818;stroke-width:0.5;" width="4" x="293.0091" y="18"/><text fill="#000000" font-family="sans-serif" font-size="14" lengthAdjust="spacing" textLength="99.0391" x="190.97" y="39.9951">User Interface</text></g><!--entity wbi--><g class="entity" data-entity="wbi" data-source-line="2" data-uid="ent0003" id="entity_wbi"><rect fill="#F1F1F1" height="46.2969" rx="2.5" ry="2.5" style="stroke:#181818;stroke-width:0.5;" width="199.9609" x="145.51" y="130.29"/><rect fill="#F1F1F1" height="10" style="stroke:#181818;stroke-width:0.5;" width="15" x="325.4709" y="135.29"/><rect fill="#F1F1F1" height="2" style="stroke:#181818;stroke-width:0.5;" width="4" x="323.4709" y="137.29"/><rect fill="#F1F1F1" height="2" style="stroke:#181818;stroke-width:0.5;" width="4" x="323.4709" y="141.29"/><text fill="#000000" font-family="sans-serif" font-size="14" lengthAdjust="spacing" textLength="159.9609" x="160.51" y="163.2851">Web Browser Interface</text></g><!--entity cs--><g class="entity" data-entity="cs" data-source-line="3" data-uid="ent0004" id="entity_cs"><rect fill="#F1F1F1" height="46.2969" rx="2.5" ry="2.5" style="stroke:#181818;stroke-width:0.5;" width="129.3662" x="180.81" y="253.59"/><rect fill="#F1F1F1" height="10" style="stroke:#181818;stroke-width:0.5;" width="15" x="290.1762" y="258.59"/><rect fill="#F1F1F1" height="2" style="stroke:#181818;stroke-width:0.5;" width="4" x="288.1762" y="260.59"/><rect fill="#F1F1F1" height="2" style="stroke:#181818;stroke-width:0.5;" width="4" x="288.1762" y="264.59"/><text fill="#000000" font-family="sans-serif" font-size="14" lengthAdjust="spacing" textLength="89.3662" x="195.81" y="286.5851">Core System</text></g><!--entity se--><g class="entity" data-entity="se" data-source-line="4" data-uid="ent0005" id="entity_se"><rect fill="#F1F1F1" height="46.2969" rx="2.5" ry="2.5" style="stroke:#181818;stroke-width:0.5;" width="144.9863" x="7" y="376.89"/><rect fill="#F1F1F1" height="10" style="stroke:#181818;stroke-width:0.5;" width="15" x="131.9863" y="381.89"/><rect fill="#F1F1F1" height="2" style="stroke:#181818;stroke-width:0.5;" width="4" x="129.9863" y="383.89"/><rect fill="#F1F1F1" height="2" style="stroke:#181818;stroke-width:0.5;" width="4" x="129.9863" y="387.89"/><text fill="#000000" font-family="sans-serif" font-size="14" lengthAdjust="spacing" textLength="104.9863" x="22" y="409.8851">Scoring Engine</text></g><!--entity qms--><g class="entity" data-entity="qms" data-source-line="5" data-uid="ent0006" id="entity_qms"><rect fill="#F1F1F1" height="46.2969" rx="2.5" ry="2.5" style="stroke:#181818;stroke-width:0.5;" width="255.9473" x="288.52" y="500.18"/><rect fill="#F1F1F1" height="10" style="stroke:#181818;stroke-width:0.5;" width="15" x="524.4673" y="505.18"/><rect fill="#F1F1F1" height="2" style="stroke:#181818;stroke-width:0.5;" width="4" x="522.4673" y="507.18"/><rect fill="#F1F1F1" height="2" style="stroke:#181818;stroke-width:0.5;" width="4" x="522.4673" y="511.18"/><text fill="#000000" font-family="sans-serif" font-size="14" lengthAdjust="spacing" textLength="215.9473" x="303.52" y="533.1751">Question Management System</text></g><!--entity ai--><g class="entity" data-entity="ai" data-source-line="6" data-uid="ent0007" id="entity_ai"><rect fill="#F1F1F1" height="46.2969" rx="2.5" ry="2.5" style="stroke:#181818;stroke-width:0.5;" width="209.2783" x="311.85" y="376.89"/><rect fill="#F1F1F1" height="10" style="stroke:#181818;stroke-width:0.5;" width="15" x="501.1283" y="381.89"/><rect fill="#F1F1F1" height="2" style="stroke:#181818;stroke-width:0.5;" width="4" x="499.1283" y="383.89"/><rect fill="#F1F1F1" height="2" style="stroke:#181818;stroke-width:0.5;" width="4" x="499.1283" y="387.89"/><text fill="#000000" font-family="sans-serif" font-size="14" lengthAdjust="spacing" textLength="169.2783" x="326.85" y="409.8851">Administrative Interface</text></g><!--link ui to wbi--><g class="link" data-entity-1="ui" data-entity-2="wbi" data-source-line="8" data-uid="lnk8" id="link_ui_wbi"><path d="M245.49,53.67 C245.49,75.46 245.49,100.28 245.49,122.03" fill="none" id="ui-to-wbi" style="stroke:#181818;stroke-width:1;"/><polygon fill="#181818" points="245.49,130.03,248.49,122.03,242.49,122.03,245.49,130.03" style="stroke:#181818;stroke-width:1;"/><text fill="#000000" font-family="sans-serif" font-size="13" lengthAdjust="spacing" textLength="29.7832" x="246.49" y="96.3569">uses</text></g><!--link wbi to cs--><g class="link" data-entity-1="wbi" data-entity-2="cs" data-source-line="9" data-uid="lnk9" id="link_wbi_cs"><path d="M245.49,176.97 C245.49,198.76 245.49,223.58 245.49,245.33" fill="none" id="wbi-to-cs" style="stroke:#181818;stroke-width:1;"/><polygon fill="#181818" points="245.49,253.33,248.49,245.33,242.49,245.33,245.49,253.33" style="stroke:#181818;stroke-width:1;"/><text fill="#000000" font-family="sans-serif" font-size="13" lengthAdjust="spacing" textLength="29.7832" x="246.49" y="219.6569">uses</text></g><!--link cs to se--><g class="link" data-entity-1="cs" data-entity-2="se" data-source-line="10" data-uid="lnk10" id="link_cs_se"><path d="M180.44,286.65 C130.43,294.98 67.3,309.27 51.49,329.89 C40.85,343.76 44.5602,355.7272 54.8502,370.0872" fill="none" id="cs-to-se" style="stroke:#181818;stroke-width:1;"/><polygon fill="#181818" points="59.51,376.59,57.2888,368.3398,52.4117,371.8346,59.51,376.59" style="stroke:#181818;stroke-width:1;"/><text fill="#000000" font-family="sans-serif" font-size="13" lengthAdjust="spacing" textLength="29.7832" x="52.49" y="342.9569">uses</text></g><!--link se to cs--><g class="link" data-entity-1="se" data-entity-2="cs" data-source-line="14" data-uid="lnk14" id="link_se_cs"><path d="M89.03,376.59 C96.33,361.67 107.67,342.57 122.49,329.89 C139.24,315.56 153.0591,307.6535 173.1691,299.6335" fill="none" id="se-to-cs" style="stroke:#181818;stroke-width:1;"/><polygon fill="#181818" points="180.6,296.67,172.0578,296.8469,174.2804,302.4201,180.6,296.67" style="stroke:#181818;stroke-width:1;"/><text fill="#000000" font-family="sans-serif" font-size="13" lengthAdjust="spacing" textLength="95.2275" x="123.49" y="342.9569">provides score</text></g><!--link cs to qms--><g class="link" data-entity-1="cs" data-entity-2="qms" data-source-line="11" data-uid="lnk11" id="link_cs_qms"><path d="M242.71,300.35 C240.13,330.72 239.73,385.23 263.49,423.18 C285.58,458.46 318.1466,480.18 351.5966,496.34" fill="none" id="cs-to-qms" style="stroke:#181818;stroke-width:1;"/><polygon fill="#181818" points="358.8,499.82,352.9016,493.6387,350.2916,499.0412,358.8,499.82" style="stroke:#181818;stroke-width:1;"/><text fill="#000000" font-family="sans-serif" font-size="13" lengthAdjust="spacing" textLength="29.7832" x="264.49" y="404.5969">uses</text></g><!--link qms to cs--><g class="link" data-entity-1="qms" data-entity-2="cs" data-source-line="15" data-uid="lnk15" id="link_qms_cs"><path d="M459.19,499.78 C506.25,471.9 571.25,422.55 538.49,376.89 C486.85,304.89 388.036,285.1295 318.636,279.7395" fill="none" id="qms-to-cs" style="stroke:#181818;stroke-width:1;"/><polygon fill="#181818" points="310.66,279.12,318.4037,282.7305,318.8683,276.7485,310.66,279.12" style="stroke:#181818;stroke-width:1;"/><text fill="#000000" font-family="sans-serif" font-size="13" lengthAdjust="spacing" textLength="122.9478" x="547.49" y="404.5969">provides questions</text></g><!--link cs to ai--><g class="link" data-entity-1="cs" data-entity-2="ai" data-source-line="12" data-uid="lnk12" id="link_cs_ai"><path d="M277.26,300.27 C307.87,321.99 347.4251,350.0413 378.0851,371.7913" fill="none" id="cs-to-ai" style="stroke:#181818;stroke-width:1;"/><polygon fill="#181818" points="384.61,376.42,379.8208,369.3444,376.3493,374.2381,384.61,376.42" style="stroke:#181818;stroke-width:1;"/><text fill="#000000" font-family="sans-serif" font-size="13" lengthAdjust="spacing" textLength="29.7832" x="341.49" y="342.9569">uses</text></g><!--link ai to qms--><g class="link" data-entity-1="ai" data-entity-2="qms" data-source-line="13" data-uid="lnk13" id="link_ai_qms"><path d="M416.49,423.57 C416.49,445.35 416.49,470.18 416.49,491.92" fill="none" id="ai-to-qms" style="stroke:#181818;stroke-width:1;"/><polygon fill="#181818" points="416.49,499.92,419.49,491.92,413.49,491.92,416.49,499.92" style="stroke:#181818;stroke-width:1;"/><text fill="#000000" font-family="sans-serif" font-size="13" lengthAdjust="spacing" textLength="52.5776" x="417.49" y="466.2469">updates</text></g><!--SRC=[RO-x3i8m34NtV8N5tXzWg0I8WO41LOZPJKtb8KuRfo3-dhGy-e3DEZwvyRNUDLv88gpEIW4E4YbSqT8AKA5ZOqVXGYLiWx__UlTo9kvy82WU6iaDQwlJRM5zOAbXBpNBwxtIL3Xrf96zm145Qt8zdAIrRXQtgHmBQmmO-KQBmv2DwHYoBC_x8s4DdPAQVXoOrGzAqq2KbYJzjqJuJKAUIKs5CT4KCiOtmT-uejGo5IVJct-MxRkqFW40]--></g></svg>