<svg xmlns="http://www.w3.org/2000/svg" xmlns:xlink="http://www.w3.org/1999/xlink" contentStyleType="text/css" data-diagram-type="CLASS" height="457px" preserveAspectRatio="none" style="width:592px;height:457px;background:#FFFFFF;" version="1.1" viewBox="0 0 592 457" width="592px" zoomAndPan="magnify"><defs/><g><!--class SpaceFractionsSystem--><g class="entity" data-entity="SpaceFractionsSystem" data-source-line="1" data-uid="ent0002" id="entity_SpaceFractionsSystem"><rect fill="#F1F1F1" height="113.1875" rx="2.5" ry="2.5" style="stroke:#181818;stroke-width:0.5;" width="200.959" x="192.73" y="147.6"/><ellipse cx="212.1821" cy="163.6" fill="#ADD1B2" rx="11" ry="11" style="stroke:#181818;stroke-width:1;"/><path d="M215.1508,169.2406 Q214.5727,169.5375 213.9321,169.6781 Q213.2915,169.8344 212.5883,169.8344 Q210.0883,169.8344 208.7602,168.1937 Q207.4477,166.5375 207.4477,163.4125 Q207.4477,160.2875 208.7602,158.6312 Q210.0883,156.975 212.5883,156.975 Q213.2915,156.975 213.9321,157.1312 Q214.5883,157.2875 215.1508,157.5844 L215.1508,160.3031 Q214.5258,159.725 213.9321,159.4594 Q213.3383,159.1781 212.7133,159.1781 Q211.3696,159.1781 210.6821,160.2562 Q209.9946,161.3187 209.9946,163.4125 Q209.9946,165.5062 210.6821,166.5844 Q211.3696,167.6469 212.7133,167.6469 Q213.3383,167.6469 213.9321,167.3812 Q214.5258,167.1 215.1508,166.5219 L215.1508,169.2406 Z " fill="#000000"/><text fill="#000000" font-family="sans-serif" font-size="14" lengthAdjust="spacing" textLength="159.0654" x="227.1715" y="168.4467">SpaceFractionsSystem</text><line style="stroke:#181818;stroke-width:0.5;" x1="193.73" x2="392.689" y1="179.6" y2="179.6"/><rect fill="none" height="6" style="stroke:#C82930;stroke-width:1;" width="6" x="200.73" y="190.2484"/><text fill="#000000" font-family="sans-serif" font-size="14" lengthAdjust="spacing" textLength="65.3447" x="212.73" y="196.5951">score: int</text><rect fill="none" height="6" style="stroke:#C82930;stroke-width:1;" width="6" x="200.73" y="206.5453"/><text fill="#000000" font-family="sans-serif" font-size="14" lengthAdjust="spacing" textLength="174.959" x="212.73" y="212.892">questions: List[Question]</text><line style="stroke:#181818;stroke-width:0.5;" x1="193.73" x2="392.689" y1="220.1937" y2="220.1937"/><ellipse cx="203.73" cy="233.8422" fill="#84BE84" rx="3" ry="3" style="stroke:#038048;stroke-width:1;"/><text fill="#000000" font-family="sans-serif" font-size="14" lengthAdjust="spacing" textLength="141.1689" x="212.73" y="237.1889">calculateScore(): int</text><ellipse cx="203.73" cy="250.1391" fill="#84BE84" rx="3" ry="3" style="stroke:#038048;stroke-width:1;"/><text fill="#000000" font-family="sans-serif" font-size="14" lengthAdjust="spacing" textLength="169.3398" x="212.73" y="253.4857">displayQuestions(): void</text></g><!--class Question--><g class="entity" data-entity="Question" data-source-line="8" data-uid="ent0003" id="entity_Question"><rect fill="#F1F1F1" height="129.4844" rx="2.5" ry="2.5" style="stroke:#181818;stroke-width:0.5;" width="266.4131" x="7" y="320.79"/><ellipse cx="104.6479" cy="336.79" fill="#ADD1B2" rx="11" ry="11" style="stroke:#181818;stroke-width:1;"/><path d="M107.6167,342.4306 Q107.0386,342.7275 106.3979,342.8681 Q105.7573,343.0244 105.0542,343.0244 Q102.5542,343.0244 101.2261,341.3837 Q99.9136,339.7275 99.9136,336.6025 Q99.9136,333.4775 101.2261,331.8212 Q102.5542,330.165 105.0542,330.165 Q105.7573,330.165 106.3979,330.3212 Q107.0542,330.4775 107.6167,330.7744 L107.6167,333.4931 Q106.9917,332.915 106.3979,332.6494 Q105.8042,332.3681 105.1792,332.3681 Q103.8354,332.3681 103.1479,333.4462 Q102.4604,334.5087 102.4604,336.6025 Q102.4604,338.6962 103.1479,339.7744 Q103.8354,340.8369 105.1792,340.8369 Q105.8042,340.8369 106.3979,340.5712 Q106.9917,340.29 107.6167,339.7119 L107.6167,342.4306 Z " fill="#000000"/><text fill="#000000" font-family="sans-serif" font-size="14" lengthAdjust="spacing" textLength="62.6172" x="125.1479" y="341.6367">Question</text><line style="stroke:#181818;stroke-width:0.5;" x1="8" x2="272.4131" y1="352.79" y2="352.79"/><rect fill="none" height="6" style="stroke:#C82930;stroke-width:1;" width="6" x="15" y="363.4384"/><text fill="#000000" font-family="sans-serif" font-size="14" lengthAdjust="spacing" textLength="78.8252" x="27" y="369.7851">text: String</text><rect fill="none" height="6" style="stroke:#C82930;stroke-width:1;" width="6" x="15" y="379.7353"/><text fill="#000000" font-family="sans-serif" font-size="14" lengthAdjust="spacing" textLength="137.9082" x="27" y="386.082">options: List[String]</text><rect fill="none" height="6" style="stroke:#C82930;stroke-width:1;" width="6" x="15" y="396.0322"/><text fill="#000000" font-family="sans-serif" font-size="14" lengthAdjust="spacing" textLength="152.0859" x="27" y="402.3789">correctAnswer: String</text><line style="stroke:#181818;stroke-width:0.5;" x1="8" x2="272.4131" y1="409.6806" y2="409.6806"/><ellipse cx="18" cy="423.3291" fill="#84BE84" rx="3" ry="3" style="stroke:#038048;stroke-width:1;"/><text fill="#000000" font-family="sans-serif" font-size="14" lengthAdjust="spacing" textLength="174.2754" x="27" y="426.6757">getOptions(): List[String]</text><ellipse cx="18" cy="439.6259" fill="#84BE84" rx="3" ry="3" style="stroke:#038048;stroke-width:1;"/><text fill="#000000" font-family="sans-serif" font-size="14" lengthAdjust="spacing" textLength="240.4131" x="27" y="442.9726">isCorrect(answer: String): boolean</text></g><!--class User--><g class="entity" data-entity="User" data-source-line="16" data-uid="ent0004" id="entity_User"><rect fill="#F1F1F1" height="96.8906" rx="2.5" ry="2.5" style="stroke:#181818;stroke-width:0.5;" width="276.8652" x="308.77" y="337.08"/><ellipse cx="426.9975" cy="353.08" fill="#ADD1B2" rx="11" ry="11" style="stroke:#181818;stroke-width:1;"/><path d="M429.9663,358.7206 Q429.3882,359.0175 428.7475,359.1581 Q428.1069,359.3144 427.4038,359.3144 Q424.9038,359.3144 423.5757,357.6738 Q422.2632,356.0175 422.2632,352.8925 Q422.2632,349.7675 423.5757,348.1113 Q424.9038,346.455 427.4038,346.455 Q428.1069,346.455 428.7475,346.6113 Q429.4038,346.7675 429.9663,347.0644 L429.9663,349.7831 Q429.3413,349.205 428.7475,348.9394 Q428.1538,348.6581 427.5288,348.6581 Q426.185,348.6581 425.4975,349.7363 Q424.81,350.7988 424.81,352.8925 Q424.81,354.9863 425.4975,356.0644 Q426.185,357.1269 427.5288,357.1269 Q428.1538,357.1269 428.7475,356.8613 Q429.3413,356.58 429.9663,356.0019 L429.9663,358.7206 Z " fill="#000000"/><text fill="#000000" font-family="sans-serif" font-size="14" lengthAdjust="spacing" textLength="31.9102" x="447.4975" y="357.9267">User</text><line style="stroke:#181818;stroke-width:0.5;" x1="309.77" x2="584.6352" y1="369.08" y2="369.08"/><rect fill="none" height="6" style="stroke:#C82930;stroke-width:1;" width="6" x="316.77" y="379.7284"/><text fill="#000000" font-family="sans-serif" font-size="14" lengthAdjust="spacing" textLength="90.6514" x="328.77" y="386.0751">name: String</text><rect fill="none" height="6" style="stroke:#C82930;stroke-width:1;" width="6" x="316.77" y="396.0253"/><text fill="#000000" font-family="sans-serif" font-size="14" lengthAdjust="spacing" textLength="65.3447" x="328.77" y="402.372">score: int</text><line style="stroke:#181818;stroke-width:0.5;" x1="309.77" x2="584.6352" y1="409.6738" y2="409.6738"/><ellipse cx="319.77" cy="423.3222" fill="#84BE84" rx="3" ry="3" style="stroke:#038048;stroke-width:1;"/><text fill="#000000" font-family="sans-serif" font-size="14" lengthAdjust="spacing" textLength="250.8652" x="328.77" y="426.6689">submitAnswer(answer: String): void</text></g><!--class Administrator--><g class="entity" data-entity="Administrator" data-source-line="22" data-uid="ent0005" id="entity_Administrator"><rect fill="#F1F1F1" height="80.5938" rx="2.5" ry="2.5" style="stroke:#181818;stroke-width:0.5;" width="369.916" x="108.25" y="7"/><ellipse cx="241.1167" cy="23" fill="#ADD1B2" rx="11" ry="11" style="stroke:#181818;stroke-width:1;"/><path d="M244.0854,28.6406 Q243.5073,28.9375 242.8667,29.0781 Q242.2261,29.2344 241.5229,29.2344 Q239.0229,29.2344 237.6948,27.5938 Q236.3823,25.9375 236.3823,22.8125 Q236.3823,19.6875 237.6948,18.0313 Q239.0229,16.375 241.5229,16.375 Q242.2261,16.375 242.8667,16.5313 Q243.5229,16.6875 244.0854,16.9844 L244.0854,19.7031 Q243.4604,19.125 242.8667,18.8594 Q242.2729,18.5781 241.6479,18.5781 Q240.3042,18.5781 239.6167,19.6563 Q238.9292,20.7188 238.9292,22.8125 Q238.9292,24.9063 239.6167,25.9844 Q240.3042,27.0469 241.6479,27.0469 Q242.2729,27.0469 242.8667,26.7813 Q243.4604,26.5 244.0854,25.9219 L244.0854,28.6406 Z " fill="#000000"/><text fill="#000000" font-family="sans-serif" font-size="14" lengthAdjust="spacing" textLength="95.6826" x="261.6167" y="27.8467">Administrator</text><line style="stroke:#181818;stroke-width:0.5;" x1="109.25" x2="477.166" y1="39" y2="39"/><rect fill="none" height="6" style="stroke:#C82930;stroke-width:1;" width="6" x="116.25" y="49.6484"/><text fill="#000000" font-family="sans-serif" font-size="14" lengthAdjust="spacing" textLength="90.6514" x="128.25" y="55.9951">name: String</text><line style="stroke:#181818;stroke-width:0.5;" x1="109.25" x2="477.166" y1="63.2969" y2="63.2969"/><ellipse cx="119.25" cy="76.9453" fill="#84BE84" rx="3" ry="3" style="stroke:#038048;stroke-width:1;"/><text fill="#000000" font-family="sans-serif" font-size="14" lengthAdjust="spacing" textLength="343.916" x="128.25" y="80.292">updateQuestions(questions: List[Question]): void</text></g><!--link SpaceFractionsSystem to Question--><g class="link" data-entity-1="SpaceFractionsSystem" data-entity-2="Question" data-source-line="27" data-uid="lnk6" id="link_SpaceFractionsSystem_Question"><path codeLine="27" d="M245.64,260.95 C229.58,279.77 219.329,291.7914 202.759,311.2114" fill="none" id="SpaceFractionsSystem-to-Question" style="stroke:#181818;stroke-width:1;"/><polygon fill="#181818" points="194.97,320.34,201.9074,318.372,202.759,311.2114,195.8216,313.1794,194.97,320.34" style="stroke:#181818;stroke-width:1;"/></g><!--link SpaceFractionsSystem to User--><g class="link" data-entity-1="SpaceFractionsSystem" data-entity-2="User" data-source-line="28" data-uid="lnk7" id="link_SpaceFractionsSystem_User"><path codeLine="28" d="M341.09,260.95 C361.93,285.22 378.2818,304.2664 398.2918,327.5664" fill="none" id="SpaceFractionsSystem-to-User" style="stroke:#181818;stroke-width:1;"/><polygon fill="#181818" points="406.11,336.67,405.2355,329.5121,398.2918,327.5664,399.1664,334.7242,406.11,336.67" style="stroke:#181818;stroke-width:1;"/></g><!--link Administrator to SpaceFractionsSystem--><g class="link" data-entity-1="Administrator" data-entity-2="SpaceFractionsSystem" data-source-line="29" data-uid="lnk8" id="link_Administrator_SpaceFractionsSystem"><path codeLine="29" d="M293.21,87.79 C293.21,105.8 293.21,115.46 293.21,135.12" fill="none" id="Administrator-to-SpaceFractionsSystem" style="stroke:#181818;stroke-width:1;"/><polygon fill="#181818" points="293.21,147.12,297.21,141.12,293.21,135.12,289.21,141.12,293.21,147.12" style="stroke:#181818;stroke-width:1;"/></g><!--SRC=[TL71QiCm3BtxAtHiP_83kPN1JeCnmawZ1zKHnU3OdgLiBMF_FYTDsdXhZj9xJtfwCWwPeObew2cX4HiyDsSMwk1R0LJ09YIgmNePou-UU2JLy6nPtb-dUfzH3GQTwHqADODgivrr6bhBqU5vflE0VGRRgX-bpEXXXgQzGYUfeP5a_N5iXBZSUm7s8v9t9JAoy_n5QQ7HS2HvYTTzVuGQB3zUf1iij9bx2C4H-fkzDwOqMVFOKM6jo4W3zuVEJdR-JowlthMTzTbNGWahypNqiSsPth9RVS9Y_DsNLjN3DUTrnd2gAeqDxNlyNm00]--></g></svg>