<svg xmlns="http://www.w3.org/2000/svg" xmlns:xlink="http://www.w3.org/1999/xlink" contentStyleType="text/css" data-diagram-type="STATE" height="967px" preserveAspectRatio="none" style="width:634px;height:967px;background:#FFFFFF;" version="1.1" viewBox="0 0 634 967" width="634px" zoomAndPan="magnify"><defs/><g><!--cluster AnswerSubmitted--><g class="cluster" data-entity="AnswerSubmitted" data-source-line="3" data-uid="ent0004" id="cluster_AnswerSubmitted"><path d="M254.6,7 L510.6,7 A12.5,12.5 0 0 1 523.1,19.5 L523.1,28.2969 L242.1,28.2969 L242.1,19.5 A12.5,12.5 0 0 1 254.6,7" fill="#F1F1F1" style="stroke:#F1F1F1;stroke-width:1;"/><rect fill="none" height="325" rx="12.5" ry="12.5" style="stroke:#181818;stroke-width:0.5;" width="281" x="242.1" y="7"/><line style="stroke:#181818;stroke-width:0.5;" x1="242.1" x2="523.1" y1="28.2969" y2="28.2969"/><text fill="#000000" font-family="sans-serif" font-size="14" lengthAdjust="spacing" textLength="124.2158" x="320.4921" y="23.9951">AnswerSubmitted</text></g><ellipse cx="377.1" cy="60" fill="#222222" rx="10" ry="10" style="stroke:#222222;stroke-width:1;"/><g id="AnswerSubmitted.CheckingAnswer"><rect fill="#F1F1F1" height="50" rx="12.5" ry="12.5" style="stroke:#181818;stroke-width:0.5;" width="136.2793" x="308.96" y="131"/><line style="stroke:#181818;stroke-width:0.5;" x1="308.96" x2="445.2393" y1="157.2969" y2="157.2969"/><text fill="#000000" font-family="sans-serif" font-size="14" lengthAdjust="spacing" textLength="116.2793" x="318.96" y="148.9951">CheckingAnswer</text></g><g id="AnswerSubmitted.Correct"><rect fill="#F1F1F1" height="50" rx="12.5" ry="12.5" style="stroke:#181818;stroke-width:0.5;" width="71.6523" x="401.27" y="258"/><line style="stroke:#181818;stroke-width:0.5;" x1="401.27" x2="472.9223" y1="284.2969" y2="284.2969"/><text fill="#000000" font-family="sans-serif" font-size="14" lengthAdjust="spacing" textLength="51.6523" x="411.27" y="275.9951">Correct</text></g><g id="AnswerSubmitted.Incorrect"><rect fill="#F1F1F1" height="50" rx="12.5" ry="12.5" style="stroke:#181818;stroke-width:0.5;" width="82.5762" x="265.81" y="258"/><line style="stroke:#181818;stroke-width:0.5;" x1="265.81" x2="348.3862" y1="284.2969" y2="284.2969"/><text fill="#000000" font-family="sans-serif" font-size="14" lengthAdjust="spacing" textLength="62.5762" x="275.81" y="275.9951">Incorrect</text></g><g id="Start"><rect fill="#F1F1F1" height="50" rx="12.5" ry="12.5" style="stroke:#181818;stroke-width:0.5;" width="54.2002" x="7" y="258"/><line style="stroke:#181818;stroke-width:0.5;" x1="7" x2="61.2002" y1="284.2969" y2="284.2969"/><text fill="#000000" font-family="sans-serif" font-size="14" lengthAdjust="spacing" textLength="34.2002" x="17" y="275.9951">Start</text></g><path d="M47.22,403 L228.9754,403 A12.5,12.5 0 0 1 241.4754,415.5 L241.4754,429.2969 L34.72,429.2969 L34.72,415.5 A12.5,12.5 0 0 1 47.22,403" fill="#F1F1F1" style="stroke:#F1F1F1;stroke-width:1;"/><rect fill="none" height="332.2969" rx="12.5" ry="12.5" style="stroke:#181818;stroke-width:0.5;" width="206.7554" x="34.72" y="403"/><line style="stroke:#181818;stroke-width:0.5;" x1="34.72" x2="241.4754" y1="429.2969" y2="429.2969"/><text fill="#000000" font-family="sans-serif" font-size="14" lengthAdjust="spacing" textLength="131.7217" x="72.2369" y="420.9951">QuestionDisplayed</text><ellipse cx="124.66" cy="450.2969" fill="#222222" rx="10" ry="10" style="stroke:#222222;stroke-width:1;"/><g id="QuestionDisplayed.DisplayingQuestion"><rect fill="#F1F1F1" height="50" rx="12.5" ry="12.5" style="stroke:#181818;stroke-width:0.5;" width="155.8711" x="46.72" y="497.2969"/><line style="stroke:#181818;stroke-width:0.5;" x1="46.72" x2="202.5911" y1="523.5938" y2="523.5938"/><text fill="#000000" font-family="sans-serif" font-size="14" lengthAdjust="spacing" textLength="135.8711" x="56.72" y="515.292">DisplayingQuestion</text></g><g id="QuestionDisplayed.WaitingForAnswer"><rect fill="#F1F1F1" height="50" rx="12.5" ry="12.5" style="stroke:#181818;stroke-width:0.5;" width="147.3877" x="50.96" y="600.2969"/><line style="stroke:#181818;stroke-width:0.5;" x1="50.96" x2="198.3477" y1="626.5938" y2="626.5938"/><text fill="#000000" font-family="sans-serif" font-size="14" lengthAdjust="spacing" textLength="127.3877" x="60.96" y="618.292">WaitingForAnswer</text></g><ellipse cx="124.66" cy="714.2969" fill="none" rx="11" ry="11" style="stroke:#222222;stroke-width:1;"/><ellipse cx="124.66" cy="714.2969" fill="#222222" rx="6" ry="6" style="stroke:#222222;stroke-width:1;"/><!--link *start*QuestionDisplayed to DisplayingQuestion--><g class="link" data-entity-1="*start*QuestionDisplayed" data-entity-2="DisplayingQuestion" data-source-line="15" data-uid="lnk12" id="link_*start*QuestionDisplayed_DisplayingQuestion"><path d="M124.66,460.7369 C124.66,469.9969 124.66,478.4869 124.66,490.9769" fill="none" id="*start*QuestionDisplayed-to-DisplayingQuestion" style="stroke:#181818;stroke-width:1;"/><polygon fill="#181818" points="124.66,496.9769,128.66,487.9769,124.66,491.9769,120.66,487.9769,124.66,496.9769" style="stroke:#181818;stroke-width:1;"/></g><!--link DisplayingQuestion to WaitingForAnswer--><g class="link" data-entity-1="DisplayingQuestion" data-entity-2="WaitingForAnswer" data-source-line="16" data-uid="lnk14" id="link_DisplayingQuestion_WaitingForAnswer"><path d="M124.66,547.7469 C124.66,563.6269 124.66,578.2369 124.66,594.0769" fill="none" id="DisplayingQuestion-to-WaitingForAnswer" style="stroke:#181818;stroke-width:1;"/><polygon fill="#181818" points="124.66,600.0769,128.66,591.0769,124.66,595.0769,120.66,591.0769,124.66,600.0769" style="stroke:#181818;stroke-width:1;"/><text fill="#000000" font-family="sans-serif" font-size="13" lengthAdjust="spacing" textLength="37.4512" x="125.66" y="578.3638">wait()</text></g><!--link WaitingForAnswer to *end*QuestionDisplayed--><g class="link" data-entity-1="WaitingForAnswer" data-entity-2="*end*QuestionDisplayed" data-source-line="17" data-uid="lnk16" id="link_WaitingForAnswer_*end*QuestionDisplayed"><path d="M124.66,650.5269 C124.66,667.8269 124.66,684.2169 124.66,697.0469" fill="none" id="WaitingForAnswer-to-*end*QuestionDisplayed" style="stroke:#181818;stroke-width:1;"/><polygon fill="#181818" points="124.66,703.0469,128.66,694.0469,124.66,698.0469,120.66,694.0469,124.66,703.0469" style="stroke:#181818;stroke-width:1;"/><text fill="#000000" font-family="sans-serif" font-size="13" lengthAdjust="spacing" textLength="105.8154" x="125.66" y="681.3638">receiveAnswer()</text></g><g id="ScoreCalculated"><rect fill="#F1F1F1" height="50" rx="12.5" ry="12.5" style="stroke:#181818;stroke-width:0.5;" width="133.791" x="466.2" y="544.15"/><line style="stroke:#181818;stroke-width:0.5;" x1="466.2" x2="599.991" y1="570.4469" y2="570.4469"/><text fill="#000000" font-family="sans-serif" font-size="14" lengthAdjust="spacing" textLength="113.791" x="476.2" y="562.1451">ScoreCalculated</text></g><g id="GameOver"><rect fill="#F1F1F1" height="50" rx="12.5" ry="12.5" style="stroke:#181818;stroke-width:0.5;" width="95.3525" x="485.42" y="812.3"/><line style="stroke:#181818;stroke-width:0.5;" x1="485.42" x2="580.7725" y1="838.5969" y2="838.5969"/><text fill="#000000" font-family="sans-serif" font-size="14" lengthAdjust="spacing" textLength="75.3525" x="495.42" y="830.2951">GameOver</text></g><ellipse cx="34.1" cy="156" fill="#222222" rx="10" ry="10" style="stroke:#222222;stroke-width:1;"/><ellipse cx="533.1" cy="950.3" fill="none" rx="11" ry="11" style="stroke:#222222;stroke-width:1;"/><ellipse cx="533.1" cy="950.3" fill="#222222" rx="6" ry="6" style="stroke:#222222;stroke-width:1;"/><!--link *start* to Start--><g class="link" data-entity-1="*start*" data-entity-2="Start" data-source-line="7" data-uid="lnk3" id="link_*start*_Start"><path d="M34.1,166.4 C34.1,185.59 34.1,223.82 34.1,251.67" fill="none" id="*start*-to-Start" style="stroke:#181818;stroke-width:1;"/><polygon fill="#181818" points="34.1,257.67,38.1,248.67,34.1,252.67,30.1,248.67,34.1,257.67" style="stroke:#181818;stroke-width:1;"/></g><!--link Start to QuestionDisplayed--><g class="link" data-entity-1="Start" data-entity-2="QuestionDisplayed" data-source-line="8" data-uid="lnk4" id="link_Start_QuestionDisplayed"><path d="M29.66,308.2 C27.19,326.33 25.61,351.59 31.1,373 C33.64,382.92 34.7308,387.2481 38.3608,397.1281" fill="none" id="Start-to-QuestionDisplayed" style="stroke:#181818;stroke-width:1;"/><polygon fill="#181818" points="40.43,402.76,41.0808,392.9327,38.7057,398.0667,33.5716,395.6916,40.43,402.76" style="stroke:#181818;stroke-width:1;"/><text fill="#000000" font-family="sans-serif" font-size="13" lengthAdjust="spacing" textLength="79.1235" x="32.1" y="369.0669">startGame()</text></g><!--link QuestionDisplayed to AnswerSubmitted--><g class="link" data-entity-1="QuestionDisplayed" data-entity-2="AnswerSubmitted" data-source-line="9" data-uid="lnk5" id="link_QuestionDisplayed_AnswerSubmitted"><path d="M128.29,402.87 C126.43,326.1 129.15,244.48 146.1,211 C159.275,184.99 172.1125,171.2575 188.2375,160.8937 C196.3,155.7119 205.1844,151.3722 215.3438,146.7611 C220.4234,144.4555 225.8219,142.0821 231.5957,139.5017 C234.4826,138.2115 237.4634,136.8695 240.5451,135.4583 C240.9303,135.2819 235.8658,137.6111 236.2542,137.4326" fill="none" id="QuestionDisplayed-to-AnswerSubmitted" style="stroke:#181818;stroke-width:1;"/><polygon fill="#181818" points="241.7054,134.9259,231.8574,135.0517,237.1627,137.0148,235.1996,142.3201,241.7054,134.9259" style="stroke:#181818;stroke-width:1;"/><text fill="#000000" font-family="sans-serif" font-size="13" lengthAdjust="spacing" textLength="102.6606" x="147.1" y="224.0669">submitAnswer()</text></g><!--link AnswerSubmitted to ScoreCalculated--><g class="link" data-entity-1="AnswerSubmitted" data-entity-2="ScoreCalculated" data-source-line="10" data-uid="lnk6" id="link_AnswerSubmitted_ScoreCalculated"><path d="M523.1381,287.5346 C523.3786,294.3105 523.62,301.1123 523.8617,307.9206 C524.345,321.5371 524.8292,335.1793 525.3088,348.6898 C526.2679,375.7109 527.2083,402.2056 528.0853,426.9163 C529.8394,476.3375 531.1273,512.6263 532.0173,537.7138" fill="none" id="AnswerSubmitted-to-ScoreCalculated" style="stroke:#181818;stroke-width:1;"/><polygon fill="#181818" points="532.23,543.71,535.9084,534.5738,532.0527,538.7131,527.9134,534.8575,532.23,543.71" style="stroke:#181818;stroke-width:1;"/><text fill="#000000" font-family="sans-serif" font-size="13" lengthAdjust="spacing" textLength="105.625" x="521.1" y="224.0669">calculateScore()</text></g><!--link ScoreCalculated to GameOver--><g class="link" data-entity-1="ScoreCalculated" data-entity-2="GameOver" data-source-line="11" data-uid="lnk7" id="link_ScoreCalculated_GameOver"><path d="M533.1,594.24 C533.1,644.78 533.1,755.41 533.1,806.07" fill="none" id="ScoreCalculated-to-GameOver" style="stroke:#181818;stroke-width:1;"/><polygon fill="#181818" points="533.1,812.07,537.1,803.07,533.1,807.07,529.1,803.07,533.1,812.07" style="stroke:#181818;stroke-width:1;"/><text fill="#000000" font-family="sans-serif" font-size="13" lengthAdjust="spacing" textLength="78.292" x="534.1" y="778.3669">gameOver()</text></g><!--link GameOver to *end*--><g class="link" data-entity-1="GameOver" data-entity-2="*end*" data-source-line="12" data-uid="lnk9" id="link_GameOver_*end*"><path d="M533.1,862.66 C533.1,886.53 533.1,915.76 533.1,933.01" fill="none" id="GameOver-to-*end*" style="stroke:#181818;stroke-width:1;"/><polygon fill="#181818" points="533.1,939.01,537.1,930.01,533.1,934.01,529.1,930.01,533.1,939.01" style="stroke:#181818;stroke-width:1;"/><text fill="#000000" font-family="sans-serif" font-size="13" lengthAdjust="spacing" textLength="73.2456" x="534.1" y="905.3669">exitGame()</text></g><!--link *start*AnswerSubmitted to CheckingAnswer--><g class="link" data-entity-1="*start*AnswerSubmitted" data-entity-2="CheckingAnswer" data-source-line="21" data-uid="lnk19" id="link_*start*AnswerSubmitted_CheckingAnswer"><path d="M377.1,70.36 C377.1,84.29 377.1,104.96 377.1,124.65" fill="none" id="*start*AnswerSubmitted-to-CheckingAnswer" style="stroke:#181818;stroke-width:1;"/><polygon fill="#181818" points="377.1,130.65,381.1,121.65,377.1,125.65,373.1,121.65,377.1,130.65" style="stroke:#181818;stroke-width:1;"/></g><!--link CheckingAnswer to Correct--><g class="link" data-entity-1="CheckingAnswer" data-entity-2="Correct" data-source-line="22" data-uid="lnk21" id="link_CheckingAnswer_Correct"><path d="M388.81,181.4 C399.38,203.43 412.2646,230.2504 422.8246,252.2604" fill="none" id="CheckingAnswer-to-Correct" style="stroke:#181818;stroke-width:1;"/><polygon fill="#181818" points="425.42,257.67,425.1333,247.8253,423.2571,253.162,417.9205,251.2859,425.42,257.67" style="stroke:#181818;stroke-width:1;"/><text fill="#000000" font-family="sans-serif" font-size="13" lengthAdjust="spacing" textLength="68.4912" x="411.1" y="224.0669">isCorrect()</text></g><!--link CheckingAnswer to Incorrect--><g class="link" data-entity-1="CheckingAnswer" data-entity-2="Incorrect" data-source-line="23" data-uid="lnk23" id="link_CheckingAnswer_Incorrect"><path d="M340.23,181.32 C330.5,189.58 321.07,199.63 315.1,211 C307.61,225.28 305.7018,237.3701 305.6018,251.7101" fill="none" id="CheckingAnswer-to-Incorrect" style="stroke:#181818;stroke-width:1;"/><polygon fill="#181818" points="305.56,257.71,309.6227,248.7381,305.5949,252.7101,301.6229,248.6823,305.56,257.71" style="stroke:#181818;stroke-width:1;"/><text fill="#000000" font-family="sans-serif" font-size="13" lengthAdjust="spacing" textLength="78.6348" x="316.1" y="224.0669">isIncorrect()</text></g><!--link Correct to ScoreCalculated--><g class="link" data-entity-1="Correct" data-entity-2="ScoreCalculated" data-source-line="24" data-uid="lnk24" id="link_Correct_ScoreCalculated"><path d="M445.28,308.23 C463.42,361.91 504.8994,484.6757 523.0194,538.3057" fill="none" id="Correct-to-ScoreCalculated" style="stroke:#181818;stroke-width:1;"/><polygon fill="#181818" points="524.94,543.99,525.8487,534.1832,523.3395,539.2531,518.2696,536.7439,524.94,543.99" style="stroke:#181818;stroke-width:1;"/></g><!--link Incorrect to QuestionDisplayed--><g class="link" data-entity-1="Incorrect" data-entity-2="QuestionDisplayed" data-source-line="25" data-uid="lnk25" id="link_Incorrect_QuestionDisplayed"><path d="M292.69,308.23 C279.48,330.44 261.7274,360.2933 239.5874,397.5133" fill="none" id="Incorrect-to-QuestionDisplayed" style="stroke:#181818;stroke-width:1;"/><polygon fill="#181818" points="236.52,402.67,244.5589,396.9799,239.0762,398.3728,237.6833,392.8901,236.52,402.67" style="stroke:#181818;stroke-width:1;"/></g><!--SRC=[TLBBRi8m4BpxA_P8A_43FbH28AgUK9L33uY3SLTWDIILlO4YnB-phEr4UVGIZMTclRFh13A4K93nf8BWpmO3kRfQkV1RcYj-9tvHXGlwejcV757B5hRsk3IbRKhJiU_cX9ipUgMshpkOpzzI1_dAUTH5GtYApyhPYnh9KZI8m2K28yrL0pqsxWVKO3CMXQi63gdA0sWu9CJ6J8g31zE0Voud_czxS5C0UGk9TTKX-rWSa-BzCewOMzS-ZgNXmWntWf7K1V9eqPsntSXTJRzUBzNoYFQ7xuiU5lf4zDIUxoODBYGeIIQS7vNjlEqXkYEUUXTMM-_q3wBk3m00]--></g></svg>