<svg xmlns="http://www.w3.org/2000/svg" xmlns:xlink="http://www.w3.org/1999/xlink" contentStyleType="text/css" data-diagram-type="DESCRIPTION" height="370px" preserveAspectRatio="none" style="width:496px;height:370px;background:#FFFFFF;" version="1.1" viewBox="0 0 496 370" width="496px" zoomAndPan="magnify"><defs/><g><!--entity web_server--><g class="entity" data-entity="web_server" data-source-line="1" data-uid="ent0002" id="entity_web_server"><polygon fill="#F1F1F1" points="184.73,122.3,194.73,112.3,306.4331,112.3,306.4331,148.5969,296.4331,158.5969,184.73,158.5969,184.73,122.3" style="stroke:#181818;stroke-width:0.5;"/><line style="stroke:#181818;stroke-width:0.5;" x1="296.4331" x2="306.4331" y1="122.3" y2="112.3"/><line style="stroke:#181818;stroke-width:0.5;" x1="184.73" x2="296.4331" y1="122.3" y2="122.3"/><line style="stroke:#181818;stroke-width:0.5;" x1="296.4331" x2="296.4331" y1="122.3" y2="158.5969"/><text fill="#000000" font-family="sans-serif" font-size="14" lengthAdjust="spacing" textLength="81.7031" x="199.73" y="145.2951">Web Server</text></g><!--entity db_server--><g class="entity" data-entity="db_server" data-source-line="2" data-uid="ent0003" id="entity_db_server"><polygon fill="#F1F1F1" points="16,228.6,26,218.6,173.1611,218.6,173.1611,254.8969,163.1611,264.8969,16,264.8969,16,228.6" style="stroke:#181818;stroke-width:0.5;"/><line style="stroke:#181818;stroke-width:0.5;" x1="163.1611" x2="173.1611" y1="228.6" y2="218.6"/><line style="stroke:#181818;stroke-width:0.5;" x1="16" x2="163.1611" y1="228.6" y2="228.6"/><line style="stroke:#181818;stroke-width:0.5;" x1="163.1611" x2="163.1611" y1="228.6" y2="264.8969"/><text fill="#000000" font-family="sans-serif" font-size="14" lengthAdjust="spacing" textLength="117.1611" x="31" y="251.5951">Database Server</text></g><!--entity client_browser--><g class="entity" data-entity="client_browser" data-source-line="3" data-uid="ent0004" id="entity_client_browser"><polygon fill="#F1F1F1" points="231.57,16,241.57,6,373.5895,6,373.5895,42.2969,363.5895,52.2969,231.57,52.2969,231.57,16" style="stroke:#181818;stroke-width:0.5;"/><line style="stroke:#181818;stroke-width:0.5;" x1="363.5895" x2="373.5895" y1="16" y2="6"/><line style="stroke:#181818;stroke-width:0.5;" x1="231.57" x2="363.5895" y1="16" y2="16"/><line style="stroke:#181818;stroke-width:0.5;" x1="363.5895" x2="363.5895" y1="16" y2="52.2969"/><text fill="#000000" font-family="sans-serif" font-size="14" lengthAdjust="spacing" textLength="102.0195" x="246.57" y="38.9951">Client Browser</text></g><!--entity network_infrastructure--><g class="entity" data-entity="network_infrastructure" data-source-line="4" data-uid="ent0005" id="entity_network_infrastructure"><polygon fill="#F1F1F1" points="280.08,228.6,290.08,218.6,479.0907,218.6,479.0907,254.8969,469.0907,264.8969,280.08,264.8969,280.08,228.6" style="stroke:#181818;stroke-width:0.5;"/><line style="stroke:#181818;stroke-width:0.5;" x1="469.0907" x2="479.0907" y1="228.6" y2="218.6"/><line style="stroke:#181818;stroke-width:0.5;" x1="280.08" x2="469.0907" y1="228.6" y2="228.6"/><line style="stroke:#181818;stroke-width:0.5;" x1="469.0907" x2="469.0907" y1="228.6" y2="264.8969"/><text fill="#000000" font-family="sans-serif" font-size="14" lengthAdjust="spacing" textLength="159.0107" x="295.08" y="251.5951">Network Infrastructure</text></g><!--entity space_fractions_system--><g class="entity" data-entity="space_fractions_system" data-source-line="11" data-uid="ent0010" id="entity_space_fractions_system"><rect fill="#F1F1F1" height="39.2969" rx="2.5" ry="2.5" style="stroke:#181818;stroke-width:0.5;" width="197.9658" x="61.6" y="324.89"/><polygon fill="#F1F1F1" points="242.5658,329.89,242.5658,343.89,254.5658,343.89,254.5658,335.89,248.5658,329.89,242.5658,329.89" style="stroke:#181818;stroke-width:0.5;"/><line style="stroke:#181818;stroke-width:0.5;" x1="248.5658" x2="248.5658" y1="329.89" y2="335.89"/><line style="stroke:#181818;stroke-width:0.5;" x1="254.5658" x2="248.5658" y1="335.89" y2="335.89"/><text fill="#000000" font-family="sans-serif" font-size="14" lengthAdjust="spacing" textLength="167.9658" x="71.6" y="350.8851">Space Fractions System</text></g><!--link web_server to db_server--><g class="link" data-entity-1="web_server" data-entity-2="db_server" data-source-line="6" data-uid="lnk6" id="link_web_server_db_server"><path d="M212.82,159.08 C187.49,176.57 152.59,200.68 127.28,218.16" fill="none" id="web_server-db_server" style="stroke:#181818;stroke-width:1;"/></g><!--link web_server to network_infrastructure--><g class="link" data-entity-1="web_server" data-entity-2="network_infrastructure" data-source-line="7" data-uid="lnk7" id="link_web_server_network_infrastructure"><path d="M274.66,159.08 C297.13,176.57 328.1,200.68 350.56,218.16" fill="none" id="web_server-network_infrastructure" style="stroke:#181818;stroke-width:1;"/></g><!--link client_browser to network_infrastructure--><g class="link" data-entity-1="client_browser" data-entity-2="network_infrastructure" data-source-line="8" data-uid="lnk8" id="link_client_browser_network_infrastructure"><path d="M310.82,52.69 C325.64,93.22 356.62,177.95 371.4,218.37" fill="none" id="client_browser-network_infrastructure" style="stroke:#181818;stroke-width:1;"/></g><!--link client_browser to web_server--><g class="link" data-entity-1="client_browser" data-entity-2="web_server" data-source-line="9" data-uid="lnk9" id="link_client_browser_web_server"><path d="M290.21,52.78 C280.65,70.28 267.48,94.38 257.92,111.86" fill="none" id="client_browser-web_server" style="stroke:#181818;stroke-width:1;"/></g><!--link web_server to space_fractions_system--><g class="link" data-entity-1="web_server" data-entity-2="space_fractions_system" data-source-line="12" data-uid="lnk11" id="link_web_server_space_fractions_system"><path d="M236.32,159 C219.46,200.1 184.02,286.44 168.33,324.65" fill="none" id="web_server-space_fractions_system" style="stroke:#181818;stroke-width:1;"/></g><!--link db_server to space_fractions_system--><g class="link" data-entity-1="db_server" data-entity-2="space_fractions_system" data-source-line="13" data-uid="lnk12" id="link_db_server_space_fractions_system"><path d="M109.39,265.37 C121.1,283.24 137.24,307.9 148.25,324.71" fill="none" id="db_server-space_fractions_system" style="stroke:#181818;stroke-width:1;"/></g><!--SRC=[bP312i8m38RlVOgm-rv2HV3YPGUF9UrIA6ehIURmxTLkuZOOuZ7_zuNyRSejGNKY1mtndRW25EZ9MIcZIONlKD6Xq5Hg5yxs4YafR3ZtCYg-HDODqUWTIVlCPpYam2ZAdTUEgVXfG3REa37VFb3NayFpV6LxNk8lSV8F1bbZGAzGDJVq17j-3J4dWUOXIjVo07aZ6px8Ia6BdYjI-zjv0W00]--></g></svg>