<svg xmlns="http://www.w3.org/2000/svg" xmlns:xlink="http://www.w3.org/1999/xlink" contentStyleType="text/css" data-diagram-type="DESCRIPTION" height="250px" preserveAspectRatio="none" style="width:965px;height:250px;background:#FFFFFF;" version="1.1" viewBox="0 0 965 250" width="965px" zoomAndPan="magnify"><defs/><g><!--entity web_server--><g class="entity" data-entity="web_server" data-source-line="1" data-uid="ent0002" id="entity_web_server"><rect fill="#F1F1F1" height="39.2969" rx="2.5" ry="2.5" style="stroke:#181818;stroke-width:0.5;" width="111.7031" x="314.55" y="7"/><polygon fill="#F1F1F1" points="409.2531,12,409.2531,26,421.2531,26,421.2531,18,415.2531,12,409.2531,12" style="stroke:#181818;stroke-width:0.5;"/><line style="stroke:#181818;stroke-width:0.5;" x1="415.2531" x2="415.2531" y1="12" y2="18"/><line style="stroke:#181818;stroke-width:0.5;" x1="421.2531" x2="415.2531" y1="18" y2="18"/><text fill="#000000" font-family="sans-serif" font-size="14" lengthAdjust="spacing" textLength="81.7031" x="324.55" y="32.9951">Web Server</text></g><!--entity space_fractions_system--><g class="entity" data-entity="space_fractions_system" data-source-line="2" data-uid="ent0003" id="entity_space_fractions_system"><rect fill="#F1F1F1" height="39.2969" rx="2.5" ry="2.5" style="stroke:#181818;stroke-width:0.5;" width="197.9658" x="271.42" y="106.3"/><polygon fill="#F1F1F1" points="452.3858,111.3,452.3858,125.3,464.3858,125.3,464.3858,117.3,458.3858,111.3,452.3858,111.3" style="stroke:#181818;stroke-width:0.5;"/><line style="stroke:#181818;stroke-width:0.5;" x1="458.3858" x2="458.3858" y1="111.3" y2="117.3"/><line style="stroke:#181818;stroke-width:0.5;" x1="464.3858" x2="458.3858" y1="117.3" y2="117.3"/><text fill="#000000" font-family="sans-serif" font-size="14" lengthAdjust="spacing" textLength="167.9658" x="281.42" y="132.2951">Space Fractions System</text></g><!--entity database--><g class="entity" data-entity="database" data-source-line="3" data-uid="ent0004" id="entity_database"><rect fill="#F1F1F1" height="39.2969" rx="2.5" ry="2.5" style="stroke:#181818;stroke-width:0.5;" width="96.8008" x="7" y="205.59"/><polygon fill="#F1F1F1" points="86.8008,210.59,86.8008,224.59,98.8008,224.59,98.8008,216.59,92.8008,210.59,86.8008,210.59" style="stroke:#181818;stroke-width:0.5;"/><line style="stroke:#181818;stroke-width:0.5;" x1="92.8008" x2="92.8008" y1="210.59" y2="216.59"/><line style="stroke:#181818;stroke-width:0.5;" x1="98.8008" x2="92.8008" y1="216.59" y2="216.59"/><text fill="#000000" font-family="sans-serif" font-size="14" lengthAdjust="spacing" textLength="66.8008" x="17" y="231.5851">Database</text></g><!--entity user_interface--><g class="entity" data-entity="user_interface" data-source-line="4" data-uid="ent0005" id="entity_user_interface"><rect fill="#F1F1F1" height="39.2969" rx="2.5" ry="2.5" style="stroke:#181818;stroke-width:0.5;" width="129.0391" x="138.88" y="205.59"/><polygon fill="#F1F1F1" points="250.9191,210.59,250.9191,224.59,262.9191,224.59,262.9191,216.59,256.9191,210.59,250.9191,210.59" style="stroke:#181818;stroke-width:0.5;"/><line style="stroke:#181818;stroke-width:0.5;" x1="256.9191" x2="256.9191" y1="210.59" y2="216.59"/><line style="stroke:#181818;stroke-width:0.5;" x1="262.9191" x2="256.9191" y1="216.59" y2="216.59"/><text fill="#000000" font-family="sans-serif" font-size="14" lengthAdjust="spacing" textLength="99.0391" x="148.88" y="231.5851">User Interface</text></g><!--entity scoring_engine--><g class="entity" data-entity="scoring_engine" data-source-line="5" data-uid="ent0006" id="entity_scoring_engine"><rect fill="#F1F1F1" height="39.2969" rx="2.5" ry="2.5" style="stroke:#181818;stroke-width:0.5;" width="134.9863" x="302.91" y="205.59"/><polygon fill="#F1F1F1" points="420.8963,210.59,420.8963,224.59,432.8963,224.59,432.8963,216.59,426.8963,210.59,420.8963,210.59" style="stroke:#181818;stroke-width:0.5;"/><line style="stroke:#181818;stroke-width:0.5;" x1="426.8963" x2="426.8963" y1="210.59" y2="216.59"/><line style="stroke:#181818;stroke-width:0.5;" x1="432.8963" x2="426.8963" y1="216.59" y2="216.59"/><text fill="#000000" font-family="sans-serif" font-size="14" lengthAdjust="spacing" textLength="104.9863" x="312.91" y="231.5851">Scoring Engine</text></g><!--entity question_management_system--><g class="entity" data-entity="question_management_system" data-source-line="6" data-uid="ent0007" id="entity_question_management_system"><rect fill="#F1F1F1" height="39.2969" rx="2.5" ry="2.5" style="stroke:#181818;stroke-width:0.5;" width="245.9473" x="472.43" y="205.59"/><polygon fill="#F1F1F1" points="701.3773,210.59,701.3773,224.59,713.3773,224.59,713.3773,216.59,707.3773,210.59,701.3773,210.59" style="stroke:#181818;stroke-width:0.5;"/><line style="stroke:#181818;stroke-width:0.5;" x1="707.3773" x2="707.3773" y1="210.59" y2="216.59"/><line style="stroke:#181818;stroke-width:0.5;" x1="713.3773" x2="707.3773" y1="216.59" y2="216.59"/><text fill="#000000" font-family="sans-serif" font-size="14" lengthAdjust="spacing" textLength="215.9473" x="482.43" y="231.5851">Question Management System</text></g><!--entity administrative_interface--><g class="entity" data-entity="administrative_interface" data-source-line="7" data-uid="ent0008" id="entity_administrative_interface"><rect fill="#F1F1F1" height="39.2969" rx="2.5" ry="2.5" style="stroke:#181818;stroke-width:0.5;" width="199.2783" x="753.76" y="205.59"/><polygon fill="#F1F1F1" points="936.0383,210.59,936.0383,224.59,948.0383,224.59,948.0383,216.59,942.0383,210.59,936.0383,210.59" style="stroke:#181818;stroke-width:0.5;"/><line style="stroke:#181818;stroke-width:0.5;" x1="942.0383" x2="942.0383" y1="210.59" y2="216.59"/><line style="stroke:#181818;stroke-width:0.5;" x1="948.0383" x2="942.0383" y1="216.59" y2="216.59"/><text fill="#000000" font-family="sans-serif" font-size="14" lengthAdjust="spacing" textLength="169.2783" x="763.76" y="231.5851">Administrative Interface</text></g><!--link web_server to space_fractions_system--><g class="link" data-entity-1="web_server" data-entity-2="space_fractions_system" data-source-line="9" data-uid="lnk9" id="link_web_server_space_fractions_system"><path d="M370.4,46.41 C370.4,63.53 370.4,88.71 370.4,105.91" fill="none" id="web_server-space_fractions_system" style="stroke:#181818;stroke-width:1;"/></g><!--link space_fractions_system to database--><g class="link" data-entity-1="space_fractions_system" data-entity-2="database" data-source-line="10" data-uid="lnk10" id="link_space_fractions_system_database"><path d="M308.54,146.05 C248.7,164.54 159.21,192.18 104.22,209.16" fill="none" id="space_fractions_system-database" style="stroke:#181818;stroke-width:1;"/></g><!--link space_fractions_system to user_interface--><g class="link" data-entity-1="space_fractions_system" data-entity-2="user_interface" data-source-line="11" data-uid="lnk11" id="link_space_fractions_system_user_interface"><path d="M337.8,145.94 C308.47,163.02 265.59,188.01 236.2,205.13" fill="none" id="space_fractions_system-user_interface" style="stroke:#181818;stroke-width:1;"/></g><!--link space_fractions_system to scoring_engine--><g class="link" data-entity-1="space_fractions_system" data-entity-2="scoring_engine" data-source-line="12" data-uid="lnk12" id="link_space_fractions_system_scoring_engine"><path d="M370.4,145.7 C370.4,162.82 370.4,188 370.4,205.21" fill="none" id="space_fractions_system-scoring_engine" style="stroke:#181818;stroke-width:1;"/></g><!--link space_fractions_system to question_management_system--><g class="link" data-entity-1="space_fractions_system" data-entity-2="question_management_system" data-source-line="13" data-uid="lnk13" id="link_space_fractions_system_question_management_system"><path d="M414.58,146.05 C454.13,163.15 511.8,188.09 551.32,205.18" fill="none" id="space_fractions_system-question_management_system" style="stroke:#181818;stroke-width:1;"/></g><!--link space_fractions_system to administrative_interface--><g class="link" data-entity-1="space_fractions_system" data-entity-2="administrative_interface" data-source-line="14" data-uid="lnk14" id="link_space_fractions_system_administrative_interface"><path d="M465.25,146.05 C550,163.12 673.54,188.01 758.36,205.1" fill="none" id="space_fractions_system-administrative_interface" style="stroke:#181818;stroke-width:1;"/></g><!--SRC=[VP3D3e8m48JlFiM6EmzXeYOUF1XYF3OBB6GF5EqMZ6zlAJzMj1vdvjliPD1Ohh2ma5mfXunCJoO157XGhiJB3IvCTiE2u62Su5OBP4-nr7XUXaXLSwJ4Hy7j3YtcAEJfSX91Vd7VuAWj6QT7gdEMujaAUnIjOLt3NjUiHrP6Iv6t0lRSaGoLu8GQQsf8sx3tVOfLiyJVtRTbmvh56hJSqwebVeH1tyrxGqZJs4A_xU5W6IcEh1QAWwjvuk2VFU97iGbU]--></g></svg>