<svg xmlns="http://www.w3.org/2000/svg" xmlns:xlink="http://www.w3.org/1999/xlink" contentStyleType="text/css" data-diagram-type="ACTIVITY" height="642px" preserveAspectRatio="none" style="width:914px;height:642px;background:#FFFFFF;" version="1.1" viewBox="0 0 914 642" width="914px" zoomAndPan="magnify"><defs/><g><ellipse cx="545.7051" cy="20" fill="#222222" rx="10" ry="10" style="stroke:#222222;stroke-width:1;"/><rect fill="#F1F1F1" height="33.9688" rx="12.5" ry="12.5" style="stroke:#181818;stroke-width:0.5;" width="180.5059" x="455.4521" y="50"/><text fill="#000000" font-family="sans-serif" font-size="12" lengthAdjust="spacing" textLength="160.5059" x="465.4521" y="71.1387">User interacts with system</text><polygon fill="#F1F1F1" points="466.5942,103.9688,624.8159,103.9688,636.8159,115.9688,624.8159,127.9688,466.5942,127.9688,454.5942,115.9688,466.5942,103.9688" style="stroke:#181818;stroke-width:0.5;"/><text fill="#000000" font-family="sans-serif" font-size="11" lengthAdjust="spacing" textLength="158.2217" x="466.5942" y="119.7769">User requests to play game?</text><text fill="#000000" font-family="sans-serif" font-size="11" lengthAdjust="spacing" textLength="19.0083" x="435.5859" y="113.3745">yes</text><text fill="#000000" font-family="sans-serif" font-size="11" lengthAdjust="spacing" textLength="13.7017" x="636.8159" y="113.3745">no</text><rect fill="#F1F1F1" height="33.9688" rx="12.5" ry="12.5" style="stroke:#181818;stroke-width:0.5;" width="235.7246" x="197.2803" y="137.9688"/><text fill="#000000" font-family="sans-serif" font-size="12" lengthAdjust="spacing" textLength="215.7246" x="207.2803" y="159.1074">System displays introductory movie</text><rect fill="#F1F1F1" height="33.9688" rx="12.5" ry="12.5" style="stroke:#181818;stroke-width:0.5;" width="192.5879" x="218.8486" y="191.9375"/><text fill="#000000" font-family="sans-serif" font-size="12" lengthAdjust="spacing" textLength="172.5879" x="228.8486" y="213.0762">System presents main menu</text><rect fill="#F1F1F1" height="33.9688" rx="12.5" ry="12.5" style="stroke:#181818;stroke-width:0.5;" width="220.3145" x="204.9854" y="245.9063"/><text fill="#000000" font-family="sans-serif" font-size="12" lengthAdjust="spacing" textLength="200.3145" x="214.9854" y="267.0449">User selects option to start game</text><rect fill="#F1F1F1" height="33.9688" rx="12.5" ry="12.5" style="stroke:#181818;stroke-width:0.5;" width="240.998" x="194.6436" y="299.875"/><text fill="#000000" font-family="sans-serif" font-size="12" lengthAdjust="spacing" textLength="220.998" x="204.6436" y="321.0137">System generates fraction questions</text><rect fill="#F1F1F1" height="33.9688" rx="12.5" ry="12.5" style="stroke:#181818;stroke-width:0.5;" width="162.6699" x="233.8076" y="353.8438"/><text fill="#000000" font-family="sans-serif" font-size="12" lengthAdjust="spacing" textLength="142.6699" x="243.8076" y="374.9824">User answers questions</text><polygon fill="#F1F1F1" points="249.2017,407.8125,381.0835,407.8125,393.0835,419.8125,381.0835,431.8125,249.2017,431.8125,237.2017,419.8125,249.2017,407.8125" style="stroke:#181818;stroke-width:0.5;"/><text fill="#000000" font-family="sans-serif" font-size="11" lengthAdjust="spacing" textLength="131.8818" x="249.2017" y="423.6206">User answers correctly?</text><text fill="#000000" font-family="sans-serif" font-size="11" lengthAdjust="spacing" textLength="19.0083" x="218.1934" y="417.2183">yes</text><text fill="#000000" font-family="sans-serif" font-size="11" lengthAdjust="spacing" textLength="13.7017" x="393.0835" y="417.2183">no</text><rect fill="#F1F1F1" height="33.9688" rx="12.5" ry="12.5" style="stroke:#181818;stroke-width:0.5;" width="294.1426" x="11" y="441.8125"/><text fill="#000000" font-family="sans-serif" font-size="12" lengthAdjust="spacing" textLength="274.1426" x="21" y="462.9512">System provides feedback and updates score</text><rect fill="#F1F1F1" height="33.9688" rx="12.5" ry="12.5" style="stroke:#181818;stroke-width:0.5;" width="294.1426" x="325.1426" y="441.8125"/><text fill="#000000" font-family="sans-serif" font-size="12" lengthAdjust="spacing" textLength="274.1426" x="335.1426" y="462.9512">System provides feedback and updates score</text><polygon fill="#F1F1F1" points="315.1426,481.7813,327.1426,493.7813,315.1426,505.7813,303.1426,493.7813,315.1426,481.7813" style="stroke:#181818;stroke-width:0.5;"/><rect fill="#F1F1F1" height="33.9688" rx="12.5" ry="12.5" style="stroke:#181818;stroke-width:0.5;" width="291.125" x="169.5801" y="525.7813"/><text fill="#000000" font-family="sans-serif" font-size="12" lengthAdjust="spacing" textLength="271.125" x="179.5801" y="546.9199">System displays concluding scene with score</text><rect fill="#F1F1F1" height="33.9688" rx="12.5" ry="12.5" style="stroke:#181818;stroke-width:0.5;" width="253.9648" x="649.2852" y="137.9688"/><text fill="#000000" font-family="sans-serif" font-size="12" lengthAdjust="spacing" textLength="233.9648" x="659.2852" y="159.1074">System displays educational resources</text><polygon fill="#F1F1F1" points="545.7051,565.75,557.7051,577.75,545.7051,589.75,533.7051,577.75,545.7051,565.75" style="stroke:#181818;stroke-width:0.5;"/><ellipse cx="545.7051" cy="620.75" fill="none" rx="11" ry="11" style="stroke:#222222;stroke-width:1;"/><ellipse cx="545.7051" cy="620.75" fill="#222222" rx="6" ry="6" style="stroke:#222222;stroke-width:1;"/><line style="stroke:#181818;stroke-width:1;" x1="545.7051" x2="545.7051" y1="30" y2="50"/><polygon fill="#181818" points="541.7051,40,545.7051,50,549.7051,40,545.7051,44" style="stroke:#181818;stroke-width:1;"/><line style="stroke:#181818;stroke-width:1;" x1="315.1426" x2="315.1426" y1="171.9375" y2="191.9375"/><polygon fill="#181818" points="311.1426,181.9375,315.1426,191.9375,319.1426,181.9375,315.1426,185.9375" style="stroke:#181818;stroke-width:1;"/><line style="stroke:#181818;stroke-width:1;" x1="315.1426" x2="315.1426" y1="225.9063" y2="245.9063"/><polygon fill="#181818" points="311.1426,235.9063,315.1426,245.9063,319.1426,235.9063,315.1426,239.9063" style="stroke:#181818;stroke-width:1;"/><line style="stroke:#181818;stroke-width:1;" x1="315.1426" x2="315.1426" y1="279.875" y2="299.875"/><polygon fill="#181818" points="311.1426,289.875,315.1426,299.875,319.1426,289.875,315.1426,293.875" style="stroke:#181818;stroke-width:1;"/><line style="stroke:#181818;stroke-width:1;" x1="315.1426" x2="315.1426" y1="333.8438" y2="353.8438"/><polygon fill="#181818" points="311.1426,343.8438,315.1426,353.8438,319.1426,343.8438,315.1426,347.8438" style="stroke:#181818;stroke-width:1;"/><line style="stroke:#181818;stroke-width:1;" x1="237.2017" x2="158.0713" y1="419.8125" y2="419.8125"/><line style="stroke:#181818;stroke-width:1;" x1="158.0713" x2="158.0713" y1="419.8125" y2="441.8125"/><polygon fill="#181818" points="154.0713,431.8125,158.0713,441.8125,162.0713,431.8125,158.0713,435.8125" style="stroke:#181818;stroke-width:1;"/><line style="stroke:#181818;stroke-width:1;" x1="393.0835" x2="472.2139" y1="419.8125" y2="419.8125"/><line style="stroke:#181818;stroke-width:1;" x1="472.2139" x2="472.2139" y1="419.8125" y2="441.8125"/><polygon fill="#181818" points="468.2139,431.8125,472.2139,441.8125,476.2139,431.8125,472.2139,435.8125" style="stroke:#181818;stroke-width:1;"/><line style="stroke:#181818;stroke-width:1;" x1="158.0713" x2="158.0713" y1="475.7813" y2="493.7813"/><line style="stroke:#181818;stroke-width:1;" x1="158.0713" x2="303.1426" y1="493.7813" y2="493.7813"/><polygon fill="#181818" points="293.1426,489.7813,303.1426,493.7813,293.1426,497.7813,297.1426,493.7813" style="stroke:#181818;stroke-width:1;"/><line style="stroke:#181818;stroke-width:1;" x1="472.2139" x2="472.2139" y1="475.7813" y2="493.7813"/><line style="stroke:#181818;stroke-width:1;" x1="472.2139" x2="327.1426" y1="493.7813" y2="493.7813"/><polygon fill="#181818" points="337.1426,489.7813,327.1426,493.7813,337.1426,497.7813,333.1426,493.7813" style="stroke:#181818;stroke-width:1;"/><line style="stroke:#181818;stroke-width:1;" x1="315.1426" x2="315.1426" y1="387.8125" y2="407.8125"/><polygon fill="#181818" points="311.1426,397.8125,315.1426,407.8125,319.1426,397.8125,315.1426,401.8125" style="stroke:#181818;stroke-width:1;"/><line style="stroke:#181818;stroke-width:1;" x1="315.1426" x2="315.1426" y1="505.7813" y2="525.7813"/><polygon fill="#181818" points="311.1426,515.7813,315.1426,525.7813,319.1426,515.7813,315.1426,519.7813" style="stroke:#181818;stroke-width:1;"/><line style="stroke:#181818;stroke-width:1;" x1="454.5942" x2="315.1426" y1="115.9688" y2="115.9688"/><line style="stroke:#181818;stroke-width:1;" x1="315.1426" x2="315.1426" y1="115.9688" y2="137.9688"/><polygon fill="#181818" points="311.1426,127.9688,315.1426,137.9688,319.1426,127.9688,315.1426,131.9688" style="stroke:#181818;stroke-width:1;"/><line style="stroke:#181818;stroke-width:1;" x1="636.8159" x2="776.2676" y1="115.9688" y2="115.9688"/><line style="stroke:#181818;stroke-width:1;" x1="776.2676" x2="776.2676" y1="115.9688" y2="137.9688"/><polygon fill="#181818" points="772.2676,127.9688,776.2676,137.9688,780.2676,127.9688,776.2676,131.9688" style="stroke:#181818;stroke-width:1;"/><line style="stroke:#181818;stroke-width:1;" x1="315.1426" x2="315.1426" y1="559.75" y2="577.75"/><line style="stroke:#181818;stroke-width:1;" x1="315.1426" x2="533.7051" y1="577.75" y2="577.75"/><polygon fill="#181818" points="523.7051,573.75,533.7051,577.75,523.7051,581.75,527.7051,577.75" style="stroke:#181818;stroke-width:1;"/><line style="stroke:#181818;stroke-width:1;" x1="776.2676" x2="776.2676" y1="171.9375" y2="577.75"/><line style="stroke:#181818;stroke-width:1;" x1="776.2676" x2="557.7051" y1="577.75" y2="577.75"/><polygon fill="#181818" points="567.7051,573.75,557.7051,577.75,567.7051,581.75,563.7051,577.75" style="stroke:#181818;stroke-width:1;"/><line style="stroke:#181818;stroke-width:1;" x1="545.7051" x2="545.7051" y1="83.9688" y2="103.9688"/><polygon fill="#181818" points="541.7051,93.9688,545.7051,103.9688,549.7051,93.9688,545.7051,97.9688" style="stroke:#181818;stroke-width:1;"/><line style="stroke:#181818;stroke-width:1;" x1="545.7051" x2="545.7051" y1="589.75" y2="609.75"/><polygon fill="#181818" points="541.7051,599.75,545.7051,609.75,549.7051,599.75,545.7051,603.75" style="stroke:#181818;stroke-width:1;"/><!--SRC=[dL5BSiCW3Dtx55ewLqWMFKId1w3mx331maMY6Ty-WZIj-rbrnypx8r5NT3Y-20f5LXJdLUWQzKooYM8v3N6YiUC5RnLYi6PQazjeTWkU3gHdC8qRv30G7P-xZ4AKnf7cMdAeNdFPQCdl4QSTRIqGi7akBZ8juDhHdYT8Q6togZ5pIvNMjiVkFMQmzLO8JQr-u_QYzf0lDyToHP7lqEUs1-fpAHQQjf-xzfLjH6XfG7Xr_cBYG7KDlOAOGs-79A2Hy__47EBqrs_wp3xL47asikt-EDLTju_yfOJTmBNXBjab9TVYONzmJnBDwmq0]--></g></svg>