<svg xmlns="http://www.w3.org/2000/svg" xmlns:xlink="http://www.w3.org/1999/xlink" contentStyleType="text/css" data-diagram-type="DESCRIPTION" height="465px" preserveAspectRatio="none" style="width:851px;height:465px;background:#FFFFFF;" version="1.1" viewBox="0 0 851 465" width="851px" zoomAndPan="magnify"><defs/><g><!--entity User--><g class="entity" data-entity="User" data-source-line="3" data-uid="ent0002" id="entity_User"><ellipse cx="150.9129" cy="90" fill="#F1F1F1" rx="8" ry="8" style="stroke:#181818;stroke-width:0.5;"/><path d="M150.9129,98 L150.9129,125 M137.9129,106 L163.9129,106 M150.9129,125 L137.9129,140 M150.9129,125 L163.9129,140" fill="none" style="stroke:#181818;stroke-width:0.5;"/><text fill="#000000" font-family="sans-serif" font-size="14" lengthAdjust="spacing" textLength="62.9658" x="119.43" y="154.4951">End User</text></g><!--entity Administrator--><g class="entity" data-entity="Administrator" data-source-line="4" data-uid="ent0003" id="entity_Administrator"><ellipse cx="150.9094" cy="393" fill="#F1F1F1" rx="8" ry="8" style="stroke:#181818;stroke-width:0.5;"/><path d="M150.9094,401 L150.9094,428 M137.9094,409 L163.9094,409 M150.9094,428 L137.9094,443 M150.9094,428 L163.9094,443" fill="none" style="stroke:#181818;stroke-width:0.5;"/><text fill="#000000" font-family="sans-serif" font-size="14" lengthAdjust="spacing" textLength="152.3389" x="74.74" y="457.4951">System Administrator</text></g><!--entity Play Game--><g class="entity" data-entity="Play Game" data-source-line="6" data-uid="ent0004" id="entity_Play Game"><ellipse cx="433.463" cy="263.6536" fill="#F1F1F1" rx="56.263" ry="14.5236" style="stroke:#181818;stroke-width:0.5;"/><text fill="#000000" font-family="sans-serif" font-size="14" lengthAdjust="spacing" textLength="75.3252" x="395.8004" y="268.3021">Play Game</text></g><!--entity View Educational Resources--><g class="entity" data-entity="View Educational Resources" data-source-line="7" data-uid="ent0005" id="entity_View Educational Resources"><ellipse cx="735.6984" cy="185.6517" fill="#F1F1F1" rx="109.6084" ry="24.3217" style="stroke:#181818;stroke-width:0.5;"/><text fill="#000000" font-family="sans-serif" font-size="14" lengthAdjust="spacing" textLength="197.0322" x="637.1823" y="190.3001">View Educational Resources</text></g><!--entity Update Questions--><g class="entity" data-entity="Update Questions" data-source-line="8" data-uid="ent0006" id="entity_Update Questions"><ellipse cx="433.4634" cy="416.6467" fill="#F1F1F1" rx="77.6334" ry="17.9267" style="stroke:#181818;stroke-width:0.5;"/><text fill="#000000" font-family="sans-serif" font-size="14" lengthAdjust="spacing" textLength="125.0635" x="370.9317" y="421.2951">Update Questions</text></g><!--entity View Score--><g class="entity" data-entity="View Score" data-source-line="9" data-uid="ent0007" id="entity_View Score"><ellipse cx="735.7001" cy="282.6536" fill="#F1F1F1" rx="57.8001" ry="14.5236" style="stroke:#181818;stroke-width:0.5;"/><text fill="#000000" font-family="sans-serif" font-size="14" lengthAdjust="spacing" textLength="77.499" x="696.9506" y="287.3021">View Score</text></g><!--entity Space Fractions System" as "System--><g class="entity" data-entity="Space Fractions System&quot; as &quot;System" data-source-line="20" data-uid="ent0014" id="entity_Space Fractions System&quot; as &quot;System"><rect fill="#F1F1F1" height="39.2969" rx="2.5" ry="2.5" style="stroke:#181818;stroke-width:0.5;" width="287.8242" x="7" y="7"/><polygon fill="#F1F1F1" points="277.8242,12,277.8242,26,289.8242,26,289.8242,18,283.8242,12,277.8242,12" style="stroke:#181818;stroke-width:0.5;"/><line style="stroke:#181818;stroke-width:0.5;" x1="283.8242" x2="283.8242" y1="12" y2="18"/><line style="stroke:#181818;stroke-width:0.5;" x1="289.8242" x2="283.8242" y1="18" y2="18"/><text fill="#000000" font-family="sans-serif" font-size="14" lengthAdjust="spacing" textLength="257.8242" x="17" y="32.9951">Space Fractions System" as "System</text></g><!--entity System--><g class="entity" data-entity="System" data-source-line="21" data-uid="ent0015" id="entity_System"><ellipse cx="150.9053" cy="316.6536" fill="#F1F1F1" rx="39.9153" ry="14.5236" style="stroke:#181818;stroke-width:0.5;"/><text fill="#000000" font-family="sans-serif" font-size="14" lengthAdjust="spacing" textLength="52.2061" x="124.8022" y="321.3021">System</text></g><!--link User to Play Game--><g class="link" data-entity-1="User" data-entity-2="Play Game" data-source-line="11" data-uid="lnk8" id="link_User_Play Game"><path d="M182.74,135.47 C238.54,164.11 355.27,224.03 406.93,250.55" fill="none" id="User-Play Game" style="stroke:#181818;stroke-width:1;"/></g><!--link User to View Educational Resources--><g class="link" data-entity-1="User" data-entity-2="View Educational Resources" data-source-line="12" data-uid="lnk9" id="link_User_View Educational Resources"><path d="M182.65,110.73 C256.04,90.93 446.52,48.53 596.09,93.65 C640.06,106.91 682.88,139.19 709.02,161.75" fill="none" id="User-View Educational Resources" style="stroke:#181818;stroke-width:1;"/></g><!--link User to View Score--><g class="link" data-entity-1="User" data-entity-2="View Score" data-source-line="13" data-uid="lnk10" id="link_User_View Score"><path d="M182.81,120.42 C257.33,123.32 451.51,137.2 596.09,203.65 C611.61,210.78 611.73,218.41 626.09,227.65 C651.86,244.23 683.28,259.68 705.69,269.95" fill="none" id="User-View Score" style="stroke:#181818;stroke-width:1;"/></g><!--link Administrator to Update Questions--><g class="link" data-entity-1="Administrator" data-entity-2="Update Questions" data-source-line="15" data-uid="lnk11" id="link_Administrator_Update Questions"><path d="M227.46,421.04 C267.22,420.19 315.87,419.14 355.8,418.29" fill="none" id="Administrator-Update Questions" style="stroke:#181818;stroke-width:1;"/></g><!--link Play Game to View Educational Resources--><g class="link" data-entity-1="Play Game" data-entity-2="View Educational Resources" data-source-line="17" data-uid="lnk12" id="link_Play Game_View Educational Resources"><path d="M479.65,254.97 C512.2,248.45 557.08,238.91 596.09,228.65 C621.56,221.96 643.6103,215.3726 667.5603,207.7826" fill="none" id="Play Game-to-View Educational Resources" style="stroke:#181818;stroke-width:1;stroke-dasharray:7.0,7.0;"/><polygon fill="#181818" points="673.28,205.97,663.4921,204.8758,668.5136,207.4805,665.9089,212.502,673.28,205.97" style="stroke:#181818;stroke-width:1;"/><text fill="#000000" font-family="sans-serif" font-size="13" lengthAdjust="spacing" textLength="53.8726" x="542.09" y="224.7169">includes</text></g><!--link Play Game to View Score--><g class="link" data-entity-1="Play Game" data-entity-2="View Score" data-source-line="18" data-uid="lnk13" id="link_Play Game_View Score"><path d="M474.67,273.96 C494.51,278.54 518.9,283.39 541.09,285.65 C587.74,290.41 635.0495,289.4377 673.8995,287.2477" fill="none" id="Play Game-to-View Score" style="stroke:#181818;stroke-width:1;stroke-dasharray:7.0,7.0;"/><polygon fill="#181818" points="679.89,286.91,670.6791,283.4229,674.8979,287.1914,671.1294,291.4102,679.89,286.91" style="stroke:#181818;stroke-width:1;"/><text fill="#000000" font-family="sans-serif" font-size="13" lengthAdjust="spacing" textLength="52.0508" x="542.59" y="281.7169">extends</text></g><!--link System to Play Game--><g class="link" data-entity-1="System" data-entity-2="Play Game" data-source-line="21" data-uid="lnk16" id="link_System_Play Game"><path d="M186.88,310.05 C237.55,300.47 331.44,282.74 387.29,272.18" fill="none" id="System-Play Game" style="stroke:#181818;stroke-width:1;"/></g><!--link System to View Educational Resources--><g class="link" data-entity-1="System" data-entity-2="View Educational Resources" data-source-line="22" data-uid="lnk17" id="link_System_View Educational Resources"><path d="M174.75,304.75 C211.73,286.04 287.47,249.97 355.82,231.65 C445.75,207.55 551.09,196.05 627.84,190.57" fill="none" id="System-View Educational Resources" style="stroke:#181818;stroke-width:1;"/></g><!--link System to Update Questions--><g class="link" data-entity-1="System" data-entity-2="Update Questions" data-source-line="23" data-uid="lnk18" id="link_System_Update Questions"><path d="M180.69,326.61 C209.58,336.63 255.33,352.57 294.82,366.65 C327.03,378.14 363.39,391.35 390.64,401.31" fill="none" id="System-Update Questions" style="stroke:#181818;stroke-width:1;"/></g><!--link System to View Score--><g class="link" data-entity-1="System" data-entity-2="View Score" data-source-line="24" data-uid="lnk19" id="link_System_View Score"><path d="M191.17,315.62 C268.66,313.42 446.73,307.55 596.09,296.65 C624.68,294.57 656.5,291.41 682.43,288.62" fill="none" id="System-View Score" style="stroke:#181818;stroke-width:1;"/></g><!--SRC=[VL6xRiCm3Dpr5OIcU4W-e4E13cdNja6w4nBJ2h2bGAIGvEzhMNbOTkjDv1rv9rvB1m494DttZu1raOouu9L28o72dYa2CkYjjqEXhy2BxPntB15pbHcx2mjrDQ2LIam6cK2_jtY1D-n8P_hgNZOFofUZ4snjCfWzO0kVn255Grnc_iT7I_P7YqBmaOWpwpewxKvLToP46gaCTQFKS83rkl9xxotvgKctTVNPCZmtfaPQcytpeWmyWVEcJPRuxx4YtDFeBEGjzy56SOS-n3wn8ng2ruX3v0mbGJrAKwjLUJJJ6rJzfJjKnFbdvtkAury0]--></g></svg>