<svg xmlns="http://www.w3.org/2000/svg" xmlns:xlink="http://www.w3.org/1999/xlink" contentStyleType="text/css" data-diagram-type="DESCRIPTION" height="670px" preserveAspectRatio="none" style="width:1688px;height:670px;background:#FFFFFF;" version="1.1" viewBox="0 0 1688 670" width="1688px" zoomAndPan="magnify"><defs/><g><!--cluster Game Engine--><g class="cluster" data-entity="Game Engine" data-source-line="1" data-uid="ent0002" id="cluster_Game Engine"><rect fill="none" height="169.72" rx="2.5" ry="2.5" style="stroke:#181818;stroke-width:1;" width="307" x="7" y="7"/><rect fill="none" height="10" style="stroke:#181818;stroke-width:1;" width="15" x="294" y="12"/><rect fill="none" height="2" style="stroke:#181818;stroke-width:1;" width="4" x="292" y="14"/><rect fill="none" height="2" style="stroke:#181818;stroke-width:1;" width="4" x="292" y="18"/><text fill="#000000" font-family="sans-serif" font-size="14" font-weight="bold" lengthAdjust="spacing" textLength="103.708" x="108.646" y="32.9951">Game Engine</text></g><!--cluster User Interface--><g class="cluster" data-entity="User Interface" data-source-line="8" data-uid="ent0007" id="cluster_User Interface"><rect fill="none" height="202.36" rx="2.5" ry="2.5" style="stroke:#181818;stroke-width:1;" width="174" x="354" y="96.36"/><rect fill="none" height="10" style="stroke:#181818;stroke-width:1;" width="15" x="508" y="101.36"/><rect fill="none" height="2" style="stroke:#181818;stroke-width:1;" width="4" x="506" y="103.36"/><rect fill="none" height="2" style="stroke:#181818;stroke-width:1;" width="4" x="506" y="107.36"/><text fill="#000000" font-family="sans-serif" font-size="14" font-weight="bold" lengthAdjust="spacing" textLength="112.5742" x="384.7129" y="122.3551">User Interface</text></g><!--cluster System Sequence--><g class="cluster" data-entity="System Sequence" data-source-line="13" data-uid="ent0010" id="cluster_System Sequence"><rect fill="none" height="202.36" rx="2.5" ry="2.5" style="stroke:#181818;stroke-width:1;" width="188" x="568" y="218.36"/><rect fill="none" height="10" style="stroke:#181818;stroke-width:1;" width="15" x="736" y="223.36"/><rect fill="none" height="2" style="stroke:#181818;stroke-width:1;" width="4" x="734" y="225.36"/><rect fill="none" height="2" style="stroke:#181818;stroke-width:1;" width="4" x="734" y="229.36"/><text fill="#000000" font-family="sans-serif" font-size="14" font-weight="bold" lengthAdjust="spacing" textLength="140.0137" x="591.9932" y="244.3551">System Sequence</text></g><!--cluster Question Updater--><g class="cluster" data-entity="Question Updater" data-source-line="18" data-uid="ent0013" id="cluster_Question Updater"><rect fill="none" height="202.36" rx="2.5" ry="2.5" style="stroke:#181818;stroke-width:1;" width="222" x="796" y="340.36"/><rect fill="none" height="10" style="stroke:#181818;stroke-width:1;" width="15" x="998" y="345.36"/><rect fill="none" height="2" style="stroke:#181818;stroke-width:1;" width="4" x="996" y="347.36"/><rect fill="none" height="2" style="stroke:#181818;stroke-width:1;" width="4" x="996" y="351.36"/><text fill="#000000" font-family="sans-serif" font-size="14" font-weight="bold" lengthAdjust="spacing" textLength="139.5967" x="837.2017" y="366.3551">Question Updater</text></g><!--cluster Math Umbrella--><g class="cluster" data-entity="Math Umbrella" data-source-line="23" data-uid="ent0016" id="cluster_Math Umbrella"><rect fill="none" height="202.36" rx="2.5" ry="2.5" style="stroke:#181818;stroke-width:1;" width="180" x="1058" y="340.36"/><rect fill="none" height="10" style="stroke:#181818;stroke-width:1;" width="15" x="1218" y="345.36"/><rect fill="none" height="2" style="stroke:#181818;stroke-width:1;" width="4" x="1216" y="347.36"/><rect fill="none" height="2" style="stroke:#181818;stroke-width:1;" width="4" x="1216" y="351.36"/><text fill="#000000" font-family="sans-serif" font-size="14" font-weight="bold" lengthAdjust="spacing" textLength="116.334" x="1089.833" y="366.3551">Math Umbrella</text></g><!--cluster User Authentication--><g class="cluster" data-entity="User Authentication" data-source-line="28" data-uid="ent0019" id="cluster_User Authentication"><rect fill="none" height="169.72" rx="2.5" ry="2.5" style="stroke:#181818;stroke-width:1;" width="174" x="871" y="7"/><rect fill="none" height="10" style="stroke:#181818;stroke-width:1;" width="15" x="1025" y="12"/><rect fill="none" height="2" style="stroke:#181818;stroke-width:1;" width="4" x="1023" y="14"/><rect fill="none" height="2" style="stroke:#181818;stroke-width:1;" width="4" x="1023" y="18"/><text fill="#000000" font-family="sans-serif" font-size="14" font-weight="bold" lengthAdjust="spacing" textLength="158.2109" x="878.8945" y="32.9951">User Authentication</text></g><!--cluster Secure Communication--><g class="cluster" data-entity="Secure Communication" data-source-line="33" data-uid="ent0022" id="cluster_Secure Communication"><rect fill="none" height="202.36" rx="2.5" ry="2.5" style="stroke:#181818;stroke-width:1;" width="197" x="1085" y="96.36"/><rect fill="none" height="10" style="stroke:#181818;stroke-width:1;" width="15" x="1262" y="101.36"/><rect fill="none" height="2" style="stroke:#181818;stroke-width:1;" width="4" x="1260" y="103.36"/><rect fill="none" height="2" style="stroke:#181818;stroke-width:1;" width="4" x="1260" y="107.36"/><text fill="#000000" font-family="sans-serif" font-size="14" font-weight="bold" lengthAdjust="spacing" textLength="181.7402" x="1092.6299" y="122.3551">Secure Communication</text></g><!--cluster External S2S Projects--><g class="cluster" data-entity="External S2S Projects" data-source-line="38" data-uid="ent0025" id="cluster_External S2S Projects"><rect fill="none" height="202.36" rx="2.5" ry="2.5" style="stroke:#181818;stroke-width:1;" width="190" x="1278" y="462.36"/><rect fill="none" height="10" style="stroke:#181818;stroke-width:1;" width="15" x="1448" y="467.36"/><rect fill="none" height="2" style="stroke:#181818;stroke-width:1;" width="4" x="1446" y="469.36"/><rect fill="none" height="2" style="stroke:#181818;stroke-width:1;" width="4" x="1446" y="473.36"/><text fill="#000000" font-family="sans-serif" font-size="14" font-weight="bold" lengthAdjust="spacing" textLength="169.9551" x="1288.0225" y="488.3551">External S2S Projects</text></g><!--cluster Web Browser--><g class="cluster" data-entity="Web Browser" data-source-line="43" data-uid="ent0028" id="cluster_Web Browser"><rect fill="none" height="202.36" rx="2.5" ry="2.5" style="stroke:#181818;stroke-width:1;" width="146" x="1322" y="218.36"/><rect fill="none" height="10" style="stroke:#181818;stroke-width:1;" width="15" x="1448" y="223.36"/><rect fill="none" height="2" style="stroke:#181818;stroke-width:1;" width="4" x="1446" y="225.36"/><rect fill="none" height="2" style="stroke:#181818;stroke-width:1;" width="4" x="1446" y="229.36"/><text fill="#000000" font-family="sans-serif" font-size="14" font-weight="bold" lengthAdjust="spacing" textLength="104.6924" x="1342.6538" y="244.3551">Web Browser</text></g><!--cluster Internet Connection--><g class="cluster" data-entity="Internet Connection" data-source-line="48" data-uid="ent0031" id="cluster_Internet Connection"><rect fill="none" height="202.36" rx="2.5" ry="2.5" style="stroke:#181818;stroke-width:1;" width="174" x="1508" y="340.36"/><rect fill="none" height="10" style="stroke:#181818;stroke-width:1;" width="15" x="1662" y="345.36"/><rect fill="none" height="2" style="stroke:#181818;stroke-width:1;" width="4" x="1660" y="347.36"/><rect fill="none" height="2" style="stroke:#181818;stroke-width:1;" width="4" x="1660" y="351.36"/><text fill="#000000" font-family="sans-serif" font-size="14" font-weight="bold" lengthAdjust="spacing" textLength="157.9922" x="1516.0039" y="366.3551">Internet Connection</text></g><!--entity IGameLogic--><g class="entity" data-entity="IGameLogic" data-source-line="2" data-uid="ent0003" id="entity_IGameLogic"><ellipse cx="80" cy="123.72" fill="#F1F1F1" rx="8" ry="8" style="stroke:#181818;stroke-width:0.5;"/><text fill="#000000" font-family="sans-serif" font-size="14" lengthAdjust="spacing" textLength="82.6465" x="38.6768" y="153.7151">IGameLogic</text></g><!--entity IContentUpdate--><g class="entity" data-entity="IContentUpdate" data-source-line="3" data-uid="ent0004" id="entity_IContentUpdate"><ellipse cx="227" cy="123.72" fill="#F1F1F1" rx="8" ry="8" style="stroke:#181818;stroke-width:0.5;"/><text fill="#000000" font-family="sans-serif" font-size="14" lengthAdjust="spacing" textLength="110.5098" x="171.7451" y="153.7151">IContentUpdate</text></g><!--entity IUserInteraction--><g class="entity" data-entity="IUserInteraction" data-source-line="9" data-uid="ent0008" id="entity_IUserInteraction"><ellipse cx="441" cy="245.72" fill="#F1F1F1" rx="8" ry="8" style="stroke:#181818;stroke-width:0.5;"/><text fill="#000000" font-family="sans-serif" font-size="14" lengthAdjust="spacing" textLength="111.9932" x="385.0034" y="275.7151">IUserInteraction</text></g><!--entity ISequenceControl--><g class="entity" data-entity="ISequenceControl" data-source-line="14" data-uid="ent0011" id="entity_ISequenceControl"><ellipse cx="662" cy="367.72" fill="#F1F1F1" rx="8" ry="8" style="stroke:#181818;stroke-width:0.5;"/><text fill="#000000" font-family="sans-serif" font-size="14" lengthAdjust="spacing" textLength="124.0996" x="599.9502" y="397.7151">ISequenceControl</text></g><!--entity IQuestionManagement--><g class="entity" data-entity="IQuestionManagement" data-source-line="19" data-uid="ent0014" id="entity_IQuestionManagement"><ellipse cx="907" cy="489.72" fill="#F1F1F1" rx="8" ry="8" style="stroke:#181818;stroke-width:0.5;"/><text fill="#000000" font-family="sans-serif" font-size="14" lengthAdjust="spacing" textLength="158.9697" x="827.5151" y="519.7151">IQuestionManagement</text></g><!--entity IResourceAccess--><g class="entity" data-entity="IResourceAccess" data-source-line="24" data-uid="ent0017" id="entity_IResourceAccess"><ellipse cx="1148" cy="489.72" fill="#F1F1F1" rx="8" ry="8" style="stroke:#181818;stroke-width:0.5;"/><text fill="#000000" font-family="sans-serif" font-size="14" lengthAdjust="spacing" textLength="117.4414" x="1089.2793" y="519.7151">IResourceAccess</text></g><!--entity IAuthControl--><g class="entity" data-entity="IAuthControl" data-source-line="29" data-uid="ent0020" id="entity_IAuthControl"><ellipse cx="970" cy="123.72" fill="#F1F1F1" rx="8" ry="8" style="stroke:#181818;stroke-width:0.5;"/><text fill="#000000" font-family="sans-serif" font-size="14" lengthAdjust="spacing" textLength="87.8555" x="926.0723" y="153.7151">IAuthControl</text></g><!--entity ISecureProtocol--><g class="entity" data-entity="ISecureProtocol" data-source-line="34" data-uid="ent0023" id="entity_ISecureProtocol"><ellipse cx="1183" cy="245.72" fill="#F1F1F1" rx="8" ry="8" style="stroke:#181818;stroke-width:0.5;"/><text fill="#000000" font-family="sans-serif" font-size="14" lengthAdjust="spacing" textLength="109.5391" x="1128.2305" y="275.7151">ISecureProtocol</text></g><!--entity IExternalResource--><g class="entity" data-entity="IExternalResource" data-source-line="39" data-uid="ent0026" id="entity_IExternalResource"><ellipse cx="1373" cy="611.72" fill="#F1F1F1" rx="8" ry="8" style="stroke:#181818;stroke-width:0.5;"/><text fill="#000000" font-family="sans-serif" font-size="14" lengthAdjust="spacing" textLength="127.5996" x="1309.2002" y="641.7151">IExternalResource</text></g><!--entity IWebAccess--><g class="entity" data-entity="IWebAccess" data-source-line="44" data-uid="ent0029" id="entity_IWebAccess"><ellipse cx="1395" cy="367.72" fill="#F1F1F1" rx="8" ry="8" style="stroke:#181818;stroke-width:0.5;"/><text fill="#000000" font-family="sans-serif" font-size="14" lengthAdjust="spacing" textLength="83.6445" x="1353.1777" y="397.7151">IWebAccess</text></g><!--entity INetworkAccess--><g class="entity" data-entity="INetworkAccess" data-source-line="49" data-uid="ent0032" id="entity_INetworkAccess"><ellipse cx="1595" cy="489.72" fill="#F1F1F1" rx="8" ry="8" style="stroke:#181818;stroke-width:0.5;"/><text fill="#000000" font-family="sans-serif" font-size="14" lengthAdjust="spacing" textLength="110.7559" x="1539.6221" y="519.7151">INetworkAccess</text></g><!--link Game Engine to IGameLogic--><g class="link" data-entity-1="Game Engine" data-entity-2="IGameLogic" data-source-line="4" data-uid="lnk5" id="link_Game Engine_IGameLogic"><path d="M226.48,34.98 C221.39,37.6 179.59,59.1 147,78.72 C125.78,91.5 106.627,104.3848 93.907,113.1148" fill="none" id="Game Engine-to-IGameLogic" style="stroke:#181818;stroke-width:1;stroke-dasharray:7,7;"/><polygon fill="#181818" points="88.96,116.51,98.6439,114.7152,93.0825,113.6807,94.117,108.1192,88.96,116.51" style="stroke:#181818;stroke-width:1;"/></g><!--link Game Engine to IContentUpdate--><g class="link" data-entity-1="Game Engine" data-entity-2="IContentUpdate" data-source-line="5" data-uid="lnk6" id="link_Game Engine_IContentUpdate"><path d="M227,34.97 C227,39.15 227,87.94 227,108.77" fill="none" id="Game Engine-to-IContentUpdate" style="stroke:#181818;stroke-width:1;stroke-dasharray:7,7;"/><polygon fill="#181818" points="227,114.77,231,105.77,227,109.77,223,105.77,227,114.77" style="stroke:#181818;stroke-width:1;"/></g><!--link User Interface to IUserInteraction--><g class="link" data-entity-1="User Interface" data-entity-2="IUserInteraction" data-source-line="10" data-uid="lnk9" id="link_User Interface_IUserInteraction"><path d="M441,124.81 C441,127.87 441,205.13 441,231.08" fill="none" id="User Interface-to-IUserInteraction" style="stroke:#181818;stroke-width:1;stroke-dasharray:7,7;"/><polygon fill="#181818" points="441,237.08,445,228.08,441,232.08,437,228.08,441,237.08" style="stroke:#181818;stroke-width:1;"/></g><!--link System Sequence to ISequenceControl--><g class="link" data-entity-1="System Sequence" data-entity-2="ISequenceControl" data-source-line="15" data-uid="lnk12" id="link_System Sequence_ISequenceControl"><path d="M704.97,246.81 C703.87,249.87 676.0642,327.4818 666.7642,353.4318" fill="none" id="System Sequence-to-ISequenceControl" style="stroke:#181818;stroke-width:1;stroke-dasharray:7,7;"/><polygon fill="#181818" points="664.74,359.08,671.5418,351.9571,666.4269,354.3731,664.0108,349.2582,664.74,359.08" style="stroke:#181818;stroke-width:1;"/></g><!--link Question Updater to IQuestionManagement--><g class="link" data-entity-1="Question Updater" data-entity-2="IQuestionManagement" data-source-line="20" data-uid="lnk15" id="link_Question Updater_IQuestionManagement"><path d="M855.04,368.81 C856.37,371.87 890.0652,449.6243 901.3052,475.5743" fill="none" id="Question Updater-to-IQuestionManagement" style="stroke:#181818;stroke-width:1;stroke-dasharray:7,7;"/><polygon fill="#181818" points="903.69,481.08,903.7834,471.2316,901.7027,476.4919,896.4424,474.4113,903.69,481.08" style="stroke:#181818;stroke-width:1;"/></g><!--link Math Umbrella to IResourceAccess--><g class="link" data-entity-1="Math Umbrella" data-entity-2="IResourceAccess" data-source-line="25" data-uid="lnk18" id="link_Math Umbrella_IResourceAccess"><path d="M1148,368.81 C1148,371.87 1148,449.13 1148,475.08" fill="none" id="Math Umbrella-to-IResourceAccess" style="stroke:#181818;stroke-width:1;stroke-dasharray:7,7;"/><polygon fill="#181818" points="1148,481.08,1152,472.08,1148,476.08,1144,472.08,1148,481.08" style="stroke:#181818;stroke-width:1;"/></g><!--link User Authentication to IAuthControl--><g class="link" data-entity-1="User Authentication" data-entity-2="IAuthControl" data-source-line="30" data-uid="lnk21" id="link_User Authentication_IAuthControl"><path d="M1002.91,34.97 C1001.34,39.15 982.8964,88.3219 975.0864,109.1519" fill="none" id="User Authentication-to-IAuthControl" style="stroke:#181818;stroke-width:1;stroke-dasharray:7,7;"/><polygon fill="#181818" points="972.98,114.77,979.8851,107.7472,974.7354,110.0883,972.3943,104.9386,972.98,114.77" style="stroke:#181818;stroke-width:1;"/></g><!--link Secure Communication to ISecureProtocol--><g class="link" data-entity-1="Secure Communication" data-entity-2="ISecureProtocol" data-source-line="35" data-uid="lnk24" id="link_Secure Communication_ISecureProtocol"><path d="M1183,124.81 C1183,127.87 1183,205.13 1183,231.08" fill="none" id="Secure Communication-to-ISecureProtocol" style="stroke:#181818;stroke-width:1;stroke-dasharray:7,7;"/><polygon fill="#181818" points="1183,237.08,1187,228.08,1183,232.08,1179,228.08,1183,237.08" style="stroke:#181818;stroke-width:1;"/></g><!--link External S2S Projects to IExternalResource--><g class="link" data-entity-1="External S2S Projects" data-entity-2="IExternalResource" data-source-line="40" data-uid="lnk27" id="link_External S2S Projects_IExternalResource"><path d="M1329.03,490.81 C1330.16,493.87 1358.6135,571.4971 1368.1335,597.4471" fill="none" id="External S2S Projects-to-IExternalResource" style="stroke:#181818;stroke-width:1;stroke-dasharray:7,7;"/><polygon fill="#181818" points="1370.2,603.08,1370.8555,593.253,1368.4779,598.3859,1363.345,596.0083,1370.2,603.08" style="stroke:#181818;stroke-width:1;"/></g><!--link Web Browser to IWebAccess--><g class="link" data-entity-1="Web Browser" data-entity-2="IWebAccess" data-source-line="45" data-uid="lnk30" id="link_Web Browser_IWebAccess"><path d="M1395,246.81 C1395,249.87 1395,327.13 1395,353.08" fill="none" id="Web Browser-to-IWebAccess" style="stroke:#181818;stroke-width:1;stroke-dasharray:7,7;"/><polygon fill="#181818" points="1395,359.08,1399,350.08,1395,354.08,1391,350.08,1395,359.08" style="stroke:#181818;stroke-width:1;"/></g><!--link Internet Connection to INetworkAccess--><g class="link" data-entity-1="Internet Connection" data-entity-2="INetworkAccess" data-source-line="50" data-uid="lnk33" id="link_Internet Connection_INetworkAccess"><path d="M1555.03,368.81 C1556.05,371.87 1581.9026,449.4379 1590.5526,475.3879" fill="none" id="Internet Connection-to-INetworkAccess" style="stroke:#181818;stroke-width:1;stroke-dasharray:7,7;"/><polygon fill="#181818" points="1592.45,481.08,1593.3987,471.2769,1590.8689,476.3366,1585.8092,473.8068,1592.45,481.08" style="stroke:#181818;stroke-width:1;"/></g><!--link Game Engine to User Interface--><g class="link" data-entity-1="Game Engine" data-entity-2="User Interface" data-source-line="53" data-uid="lnk34" id="link_Game Engine_User Interface"><path d="M314.6928,70.783 C321.0783,73.409 327.5586,76.0739 334.0388,78.7388 C346.9991,84.0684 359.9587,89.3977 372.157,94.4139 C373.6818,95.0409 369.6455,93.3811 371.145,93.9978" fill="none" id="Game Engine-to-User Interface" style="stroke:#181818;stroke-width:1;"/><polygon fill="#181818" points="376.6942,96.2797,369.8917,89.1574,372.0699,94.3781,366.8492,96.5562,376.6942,96.2797" style="stroke:#181818;stroke-width:1;"/></g><!--link User Interface to System Sequence--><g class="link" data-entity-1="User Interface" data-entity-2="System Sequence" data-source-line="54" data-uid="lnk35" id="link_User Interface_System Sequence"><path d="M528.1384,164.3261 C529.0995,164.763 530.0643,165.2016 531.0324,165.6416 C532.9687,166.5218 534.9183,167.408 536.8796,168.2995 C540.802,170.0825 544.7706,171.8865 548.7698,173.7044 C556.7684,177.3403 564.8898,181.032 573.0113,184.7238 C589.2541,192.1072 605.4966,199.4905 620.7552,206.4266 C628.3844,209.8947 635.7677,213.2509 642.782,216.4394 C643.6588,216.8379 644.5298,217.2339 645.3948,217.6271 C645.8273,217.8237 640.7962,215.5367 641.2256,215.7319" fill="none" id="User Interface-to-System Sequence" style="stroke:#181818;stroke-width:1;"/><polygon fill="#181818" points="646.6878,218.2148,640.1499,210.849,642.136,216.1457,636.8393,218.1319,646.6878,218.2148" style="stroke:#181818;stroke-width:1;"/></g><!--link System Sequence to Question Updater--><g class="link" data-entity-1="System Sequence" data-entity-2="Question Updater" data-source-line="55" data-uid="lnk36" id="link_System Sequence_Question Updater"><path d="M756.5365,287.9478 C757.6211,288.8155 758.713,289.689 759.8111,290.5675 C762.0073,292.3245 764.2286,294.1015 766.4664,295.8918 C770.9421,299.4724 775.4842,303.1063 780.0263,306.74 C789.1103,314.0075 798.1938,321.2747 806.7437,328.1151 C811.0186,331.5353 815.1601,334.8488 819.1016,338.0023 C820.087,338.7906 816.3748,335.8206 817.3341,336.5881" fill="none" id="System Sequence-to-Question Updater" style="stroke:#181818;stroke-width:1;"/><polygon fill="#181818" points="822.0192,340.3365,817.4906,331.5906,818.115,337.2129,812.4927,337.8373,822.0192,340.3365" style="stroke:#181818;stroke-width:1;"/></g><!--link System Sequence to Math Umbrella--><g class="link" data-entity-1="System Sequence" data-entity-2="Math Umbrella" data-source-line="56" data-uid="lnk37" id="link_System Sequence_Math Umbrella"><path d="M756.3076,256.9857 C757.0406,257.1373 757.78,257.2904 758.5256,257.4451 C760.0169,257.7543 761.5332,258.0695 763.0737,258.3906 C766.1547,259.0327 769.3327,259.6983 772.6012,260.3866 C785.6752,263.1397 800.1975,266.2556 815.7575,269.685 C877.9975,283.4025 956.84,302.135 1026,322.72 C1039.595,326.7675 1053.8875,331.4875 1067.7108,336.3039 C1071.1666,337.508 1074.5931,338.7181 1077.972,339.9253 C1078.1832,340.0007 1072.7449,338.055 1072.9557,338.1304" fill="none" id="System Sequence-to-Math Umbrella" style="stroke:#181818;stroke-width:1;"/><polygon fill="#181818" points="1078.605,340.1516,1071.4785,333.3536,1073.8973,338.4673,1068.7836,340.886,1078.605,340.1516" style="stroke:#181818;stroke-width:1;"/></g><!--link User Authentication to Secure Communication--><g class="link" data-entity-1="User Authentication" data-entity-2="Secure Communication" data-source-line="57" data-uid="lnk38" id="link_User Authentication_Secure Communication"><path d="M1045.1806,55.3388 C1046.3367,55.9041 1047.5077,56.4766 1048.6923,57.0557 C1053.4308,59.3725 1058.3876,61.7959 1063.4865,64.2889 C1073.6845,69.2748 1084.4509,74.5388 1095.1763,79.7825 C1105.9016,85.0263 1116.5857,90.2498 1126.6189,95.1552 C1127.246,95.4617 1127.8705,95.7671 1128.4924,96.0711 C1128.6478,96.1471 1123.4129,93.5877 1123.568,93.6635" fill="none" id="User Authentication-to-Secure Communication" style="stroke:#181818;stroke-width:1;"/><polygon fill="#181818" points="1128.9583,96.2989,1122.6297,88.7524,1124.4664,94.1028,1119.116,95.9394,1128.9583,96.2989" style="stroke:#181818;stroke-width:1;"/></g><!--link Secure Communication to Web Browser--><g class="link" data-entity-1="Secure Communication" data-entity-2="Web Browser" data-source-line="58" data-uid="lnk39" id="link_Secure Communication_Web Browser"><path d="M1283.0219,181.335 C1283.4225,181.5618 1283.8233,181.7886 1284.2242,182.0155 C1285.8276,182.9231 1287.4326,183.8316 1289.0375,184.74 C1301.8769,192.0075 1314.7155,199.2747 1326.7998,206.1151 C1332.842,209.5353 1338.6956,212.8488 1344.2664,216.0023 C1345.6591,216.7906 1341.8127,214.6133 1343.1686,215.3808" fill="none" id="Secure Communication-to-Web Browser" style="stroke:#181818;stroke-width:1;"/><polygon fill="#181818" points="1348.3901,218.3365,1342.5284,210.422,1344.0389,215.8734,1338.5874,217.3839,1348.3901,218.3365" style="stroke:#181818;stroke-width:1;"/></g><!--link Web Browser to Internet Connection--><g class="link" data-entity-1="Web Browser" data-entity-2="Internet Connection" data-source-line="59" data-uid="lnk40" id="link_Web Browser_Internet Connection"><path d="M1468.6783,301.9751 C1468.9802,302.2016 1469.2823,302.4282 1469.5845,302.6548 C1470.1889,303.1081 1470.7936,303.5617 1471.3987,304.0155 C1472.6088,304.9231 1473.82,305.8316 1475.0313,306.74 C1484.7209,314.0075 1494.4101,321.2747 1503.5301,328.1151 C1508.09,331.5353 1512.5077,334.8488 1516.7121,338.0023 C1517.7632,338.7906 1514.0011,335.9688 1515.0244,336.7364" fill="none" id="Web Browser-to-Internet Connection" style="stroke:#181818;stroke-width:1;"/><polygon fill="#181818" points="1519.8242,340.3365,1515.0245,331.7364,1515.8243,337.3364,1510.2243,338.1362,1519.8242,340.3365" style="stroke:#181818;stroke-width:1;"/></g><!--link Math Umbrella to External S2S Projects--><g class="link" data-entity-1="Math Umbrella" data-entity-2="External S2S Projects" data-source-line="60" data-uid="lnk41" id="link_Math Umbrella_External S2S Projects"><path d="M1238.5338,428.74 C1249.4953,436.0075 1260.4562,443.2747 1270.7731,450.1151 C1275.9315,453.5353 1280.929,456.8488 1285.685,460.0023 C1286.874,460.7906 1283.0473,458.2533 1284.2049,459.0209" fill="none" id="Math Umbrella-to-External S2S Projects" style="stroke:#181818;stroke-width:1;"/><polygon fill="#181818" points="1289.2056,462.3365,1283.9151,454.0293,1285.0384,459.5735,1279.4942,460.6968,1289.2056,462.3365" style="stroke:#181818;stroke-width:1;"/></g><!--SRC=[TPDDJiCm48NtFeNLVRlW09LALQ5Aj0AYYWLYuPgX3IHsiHqLXBWxZksq6MUILQ9vRxx9_4XTdxG2vVZaJjJ0L-fGAfZmNyRzKoe7vbr8uEisUgyFfSm3I-tVbTkTteI347pfPNhbizayTnC2dEMFCNajR6V1y7L796fh1I4kf2krYWpiIfXSYK75ZtLGymA-6b0agGkrvHfTHL9cIwXSYb6F3TYs0Xx_s12iJh8HIXoWzhQ8ows9HyWnSYFSaU_glO6g4WJl2QnkZ8I5b61jP25F0cKwObQBnXtzLob5Mn21QWMeXOGjqVhIR5eW6mDygUkwKUEiA7imscbvcHXXlOmDoJ5ozUtJAb7nugRWNlC1qbc2sUcwLaKgwKxOWGE3ds7FRuq-Mt9JVBG_j9uuPRyASDfm2WgSxuHI84Swk0LtrkQpZo2C2ON57eUFVJgT3qwJ3MurgFApOiD32xh1FOm9yJ8pUkaYcjeFDh8smT7lESCJ276gOIm_hw2aj-GV]--></g></svg>