<svg xmlns="http://www.w3.org/2000/svg" xmlns:xlink="http://www.w3.org/1999/xlink" contentStyleType="text/css" data-diagram-type="DESCRIPTION" height="647px" preserveAspectRatio="none" style="width:670px;height:647px;background:#FFFFFF;" version="1.1" viewBox="0 0 670 647" width="670px" zoomAndPan="magnify"><defs/><g><!--cluster Space Fractions System--><g class="cluster" data-entity="Space Fractions System" data-source-line="1" data-uid="ent0002" id="cluster_Space Fractions System"><path d="M8.5,6 L198.5342,6 A3.75,3.75 0 0 1 201.0342,8.5 L208.0342,28.2969 L660.5,28.2969 A2.5,2.5 0 0 1 663,30.7969 L663,637.98 A2.5,2.5 0 0 1 660.5,640.48 L8.5,640.48 A2.5,2.5 0 0 1 6,637.98 L6,8.5 A2.5,2.5 0 0 1 8.5,6" fill="none" style="stroke:#000000;stroke-width:1.5;"/><line style="stroke:#000000;stroke-width:1.5;" x1="6" x2="208.0342" y1="28.2969" y2="28.2969"/><text fill="#000000" font-family="sans-serif" font-size="14" font-weight="bold" lengthAdjust="spacing" textLength="189.0342" x="10" y="20.9951">Space Fractions System</text></g><!--cluster Core--><g class="cluster" data-entity="Core" data-source-line="2" data-uid="ent0003" id="cluster_Core"><path d="M108.5,49 L145.792,49 A3.75,3.75 0 0 1 148.292,51.5 L155.292,71.2969 L301.5,71.2969 A2.5,2.5 0 0 1 304,73.7969 L304,371.39 A2.5,2.5 0 0 1 301.5,373.89 L108.5,373.89 A2.5,2.5 0 0 1 106,371.39 L106,51.5 A2.5,2.5 0 0 1 108.5,49" fill="none" style="stroke:#000000;stroke-width:1.5;"/><line style="stroke:#000000;stroke-width:1.5;" x1="106" x2="155.292" y1="71.2969" y2="71.2969"/><text fill="#000000" font-family="sans-serif" font-size="14" font-weight="bold" lengthAdjust="spacing" textLength="36.292" x="110" y="63.9951">Core</text></g><!--cluster Content Management--><g class="cluster" data-entity="Content Management" data-source-line="8" data-uid="ent0007" id="cluster_Content Management"><path d="M32.5,397.89 L204.1318,397.89 A3.75,3.75 0 0 1 206.6318,400.39 L213.6318,420.1869 L400.5,420.1869 A2.5,2.5 0 0 1 403,422.6869 L403,492.68 A2.5,2.5 0 0 1 400.5,495.18 L32.5,495.18 A2.5,2.5 0 0 1 30,492.68 L30,400.39 A2.5,2.5 0 0 1 32.5,397.89" fill="none" style="stroke:#000000;stroke-width:1.5;"/><line style="stroke:#000000;stroke-width:1.5;" x1="30" x2="213.6318" y1="420.1869" y2="420.1869"/><text fill="#000000" font-family="sans-serif" font-size="14" font-weight="bold" lengthAdjust="spacing" textLength="170.6318" x="34" y="412.8851">Content Management</text></g><!--cluster Security--><g class="cluster" data-entity="Security" data-source-line="13" data-uid="ent0010" id="cluster_Security"><path d="M405.5,49 L471.8652,49 A3.75,3.75 0 0 1 474.3652,51.5 L481.3652,71.2969 L636.5,71.2969 A2.5,2.5 0 0 1 639,73.7969 L639,250.09 A2.5,2.5 0 0 1 636.5,252.59 L405.5,252.59 A2.5,2.5 0 0 1 403,250.09 L403,51.5 A2.5,2.5 0 0 1 405.5,49" fill="none" style="stroke:#000000;stroke-width:1.5;"/><line style="stroke:#000000;stroke-width:1.5;" x1="403" x2="481.3652" y1="71.2969" y2="71.2969"/><text fill="#000000" font-family="sans-serif" font-size="14" font-weight="bold" lengthAdjust="spacing" textLength="65.3652" x="407" y="63.9951">Security</text></g><!--cluster External Resources--><g class="cluster" data-entity="External Resources" data-source-line="18" data-uid="ent0013" id="cluster_External Resources"><path d="M207.5,519.18 L360.4971,519.18 A3.75,3.75 0 0 1 362.9971,521.68 L369.9971,541.4769 L424.5,541.4769 A2.5,2.5 0 0 1 427,543.9769 L427,613.98 A2.5,2.5 0 0 1 424.5,616.48 L207.5,616.48 A2.5,2.5 0 0 1 205,613.98 L205,521.68 A2.5,2.5 0 0 1 207.5,519.18" fill="none" style="stroke:#000000;stroke-width:1.5;"/><line style="stroke:#000000;stroke-width:1.5;" x1="205" x2="369.9971" y1="541.4769" y2="541.4769"/><text fill="#000000" font-family="sans-serif" font-size="14" font-weight="bold" lengthAdjust="spacing" textLength="151.9971" x="209" y="534.1751">External Resources</text></g><!--cluster Infrastructure--><g class="cluster" data-entity="Infrastructure" data-source-line="22" data-uid="ent0015" id="cluster_Infrastructure"><path d="M429.5,276.59 L541.3721,276.59 A3.75,3.75 0 0 1 543.8721,279.09 L550.8721,298.8869 L636.5,298.8869 A2.5,2.5 0 0 1 639,301.3869 L639,492.68 A2.5,2.5 0 0 1 636.5,495.18 L429.5,495.18 A2.5,2.5 0 0 1 427,492.68 L427,279.09 A2.5,2.5 0 0 1 429.5,276.59" fill="none" style="stroke:#000000;stroke-width:1.5;"/><line style="stroke:#000000;stroke-width:1.5;" x1="427" x2="550.8721" y1="298.8869" y2="298.8869"/><text fill="#000000" font-family="sans-serif" font-size="14" font-weight="bold" lengthAdjust="spacing" textLength="110.8721" x="431" y="291.5851">Infrastructure</text></g><!--entity Game Engine--><g class="entity" data-entity="Game Engine" data-source-line="3" data-uid="ent0004" id="entity_Game Engine"><rect fill="#F1F1F1" height="46.2969" rx="2.5" ry="2.5" style="stroke:#181818;stroke-width:0.5;" width="134.1104" x="137.94" y="84"/><rect fill="#F1F1F1" height="10" style="stroke:#181818;stroke-width:0.5;" width="15" x="252.0504" y="89"/><rect fill="#F1F1F1" height="2" style="stroke:#181818;stroke-width:0.5;" width="4" x="250.0504" y="91"/><rect fill="#F1F1F1" height="2" style="stroke:#181818;stroke-width:0.5;" width="4" x="250.0504" y="95"/><text fill="#000000" font-family="sans-serif" font-size="14" lengthAdjust="spacing" textLength="94.1104" x="152.94" y="116.9951">Game Engine</text></g><!--entity User Interface--><g class="entity" data-entity="User Interface" data-source-line="4" data-uid="ent0005" id="entity_User Interface"><rect fill="#F1F1F1" height="46.2969" rx="2.5" ry="2.5" style="stroke:#181818;stroke-width:0.5;" width="139.0391" x="135.48" y="190.29"/><rect fill="#F1F1F1" height="10" style="stroke:#181818;stroke-width:0.5;" width="15" x="254.5191" y="195.29"/><rect fill="#F1F1F1" height="2" style="stroke:#181818;stroke-width:0.5;" width="4" x="252.5191" y="197.29"/><rect fill="#F1F1F1" height="2" style="stroke:#181818;stroke-width:0.5;" width="4" x="252.5191" y="201.29"/><text fill="#000000" font-family="sans-serif" font-size="14" lengthAdjust="spacing" textLength="99.0391" x="150.48" y="223.2851">User Interface</text></g><!--entity System Sequence--><g class="entity" data-entity="System Sequence" data-source-line="5" data-uid="ent0006" id="entity_System Sequence"><rect fill="#F1F1F1" height="46.2969" rx="2.5" ry="2.5" style="stroke:#181818;stroke-width:0.5;" width="165.7129" x="122.14" y="311.59"/><rect fill="#F1F1F1" height="10" style="stroke:#181818;stroke-width:0.5;" width="15" x="267.8529" y="316.59"/><rect fill="#F1F1F1" height="2" style="stroke:#181818;stroke-width:0.5;" width="4" x="265.8529" y="318.59"/><rect fill="#F1F1F1" height="2" style="stroke:#181818;stroke-width:0.5;" width="4" x="265.8529" y="322.59"/><text fill="#000000" font-family="sans-serif" font-size="14" lengthAdjust="spacing" textLength="125.7129" x="137.14" y="344.5851">System Sequence</text></g><!--entity Question Updater--><g class="entity" data-entity="Question Updater" data-source-line="9" data-uid="ent0008" id="entity_Question Updater"><rect fill="#F1F1F1" height="46.2969" rx="2.5" ry="2.5" style="stroke:#181818;stroke-width:0.5;" width="163.5254" x="46.24" y="432.89"/><rect fill="#F1F1F1" height="10" style="stroke:#181818;stroke-width:0.5;" width="15" x="189.7654" y="437.89"/><rect fill="#F1F1F1" height="2" style="stroke:#181818;stroke-width:0.5;" width="4" x="187.7654" y="439.89"/><rect fill="#F1F1F1" height="2" style="stroke:#181818;stroke-width:0.5;" width="4" x="187.7654" y="443.89"/><text fill="#000000" font-family="sans-serif" font-size="14" lengthAdjust="spacing" textLength="123.5254" x="61.24" y="465.8851">Question Updater</text></g><!--entity Math Umbrella--><g class="entity" data-entity="Math Umbrella" data-source-line="10" data-uid="ent0009" id="entity_Math Umbrella"><rect fill="#F1F1F1" height="46.2969" rx="2.5" ry="2.5" style="stroke:#181818;stroke-width:0.5;" width="142.9697" x="244.52" y="432.89"/><rect fill="#F1F1F1" height="10" style="stroke:#181818;stroke-width:0.5;" width="15" x="367.4897" y="437.89"/><rect fill="#F1F1F1" height="2" style="stroke:#181818;stroke-width:0.5;" width="4" x="365.4897" y="439.89"/><rect fill="#F1F1F1" height="2" style="stroke:#181818;stroke-width:0.5;" width="4" x="365.4897" y="443.89"/><text fill="#000000" font-family="sans-serif" font-size="14" lengthAdjust="spacing" textLength="102.9697" x="259.52" y="465.8851">Math Umbrella</text></g><!--entity User Authentication--><g class="entity" data-entity="User Authentication" data-source-line="14" data-uid="ent0011" id="entity_User Authentication"><rect fill="#F1F1F1" height="46.2969" rx="2.5" ry="2.5" style="stroke:#181818;stroke-width:0.5;" width="179.1318" x="431.43" y="84"/><rect fill="#F1F1F1" height="10" style="stroke:#181818;stroke-width:0.5;" width="15" x="590.5618" y="89"/><rect fill="#F1F1F1" height="2" style="stroke:#181818;stroke-width:0.5;" width="4" x="588.5618" y="91"/><rect fill="#F1F1F1" height="2" style="stroke:#181818;stroke-width:0.5;" width="4" x="588.5618" y="95"/><text fill="#000000" font-family="sans-serif" font-size="14" lengthAdjust="spacing" textLength="139.1318" x="446.43" y="116.9951">User Authentication</text></g><!--entity Secure Communication--><g class="entity" data-entity="Secure Communication" data-source-line="15" data-uid="ent0012" id="entity_Secure Communication"><rect fill="#F1F1F1" height="46.2969" rx="2.5" ry="2.5" style="stroke:#181818;stroke-width:0.5;" width="203.2354" x="419.38" y="190.29"/><rect fill="#F1F1F1" height="10" style="stroke:#181818;stroke-width:0.5;" width="15" x="602.6154" y="195.29"/><rect fill="#F1F1F1" height="2" style="stroke:#181818;stroke-width:0.5;" width="4" x="600.6154" y="197.29"/><rect fill="#F1F1F1" height="2" style="stroke:#181818;stroke-width:0.5;" width="4" x="600.6154" y="201.29"/><text fill="#000000" font-family="sans-serif" font-size="14" lengthAdjust="spacing" textLength="163.2354" x="434.38" y="223.2851">Secure Communication</text></g><!--entity External S2S Projects--><g class="entity" data-entity="External S2S Projects" data-source-line="19" data-uid="ent0014" id="entity_External S2S Projects"><rect fill="#F1F1F1" height="46.2969" rx="2.5" ry="2.5" style="stroke:#181818;stroke-width:0.5;" width="189.6592" x="221.17" y="554.18"/><rect fill="#F1F1F1" height="10" style="stroke:#181818;stroke-width:0.5;" width="15" x="390.8292" y="559.18"/><rect fill="#F1F1F1" height="2" style="stroke:#181818;stroke-width:0.5;" width="4" x="388.8292" y="561.18"/><rect fill="#F1F1F1" height="2" style="stroke:#181818;stroke-width:0.5;" width="4" x="388.8292" y="565.18"/><text fill="#000000" font-family="sans-serif" font-size="14" lengthAdjust="spacing" textLength="149.6592" x="236.17" y="587.1751">External S2S Projects</text></g><!--entity Web Browser--><g class="entity" data-entity="Web Browser" data-source-line="23" data-uid="ent0016" id="entity_Web Browser"><rect fill="#F1F1F1" height="46.2969" rx="2.5" ry="2.5" style="stroke:#181818;stroke-width:0.5;" width="132.832" x="460.58" y="311.59"/><rect fill="#F1F1F1" height="10" style="stroke:#181818;stroke-width:0.5;" width="15" x="573.412" y="316.59"/><rect fill="#F1F1F1" height="2" style="stroke:#181818;stroke-width:0.5;" width="4" x="571.412" y="318.59"/><rect fill="#F1F1F1" height="2" style="stroke:#181818;stroke-width:0.5;" width="4" x="571.412" y="322.59"/><text fill="#000000" font-family="sans-serif" font-size="14" lengthAdjust="spacing" textLength="92.832" x="475.58" y="344.5851">Web Browser</text></g><!--entity Internet Connection--><g class="entity" data-entity="Internet Connection" data-source-line="24" data-uid="ent0017" id="entity_Internet Connection"><rect fill="#F1F1F1" height="46.2969" rx="2.5" ry="2.5" style="stroke:#181818;stroke-width:0.5;" width="179.501" x="443.25" y="432.89"/><rect fill="#F1F1F1" height="10" style="stroke:#181818;stroke-width:0.5;" width="15" x="602.751" y="437.89"/><rect fill="#F1F1F1" height="2" style="stroke:#181818;stroke-width:0.5;" width="4" x="600.751" y="439.89"/><rect fill="#F1F1F1" height="2" style="stroke:#181818;stroke-width:0.5;" width="4" x="600.751" y="443.89"/><text fill="#000000" font-family="sans-serif" font-size="14" lengthAdjust="spacing" textLength="139.501" x="458.25" y="465.8851">Internet Connection</text></g><!--link Game Engine to User Interface--><g class="link" data-entity-1="Game Engine" data-entity-2="User Interface" data-source-line="27" data-uid="lnk18" id="link_Game Engine_User Interface"><path d="M205,130.77 C205,148.27 205,166.37 205,183.85" fill="none" id="Game Engine-to-User Interface" style="stroke:#181818;stroke-width:1;"/><polygon fill="#181818" points="205,189.85,209,180.85,205,184.85,201,180.85,205,189.85" style="stroke:#181818;stroke-width:1;"/></g><!--link User Interface to System Sequence--><g class="link" data-entity-1="User Interface" data-entity-2="System Sequence" data-source-line="28" data-uid="lnk19" id="link_User Interface_System Sequence"><path d="M205,236.88 C205,258.21 205,284.1 205,305.4" fill="none" id="User Interface-to-System Sequence" style="stroke:#181818;stroke-width:1;"/><polygon fill="#181818" points="205,311.4,209,302.4,205,306.4,201,302.4,205,311.4" style="stroke:#181818;stroke-width:1;"/></g><!--link System Sequence to Question Updater--><g class="link" data-entity-1="System Sequence" data-entity-2="Question Updater" data-source-line="29" data-uid="lnk20" id="link_System Sequence_Question Updater"><path d="M190.52,358.18 C176.75,379.51 159.4124,406.358 145.6724,427.658" fill="none" id="System Sequence-to-Question Updater" style="stroke:#181818;stroke-width:1;"/><polygon fill="#181818" points="142.42,432.7,150.66,427.3053,145.1304,428.4983,143.9373,422.9687,142.42,432.7" style="stroke:#181818;stroke-width:1;"/></g><!--link System Sequence to Math Umbrella--><g class="link" data-entity-1="System Sequence" data-entity-2="Math Umbrella" data-source-line="30" data-uid="lnk21" id="link_System Sequence_Math Umbrella"><path d="M225.88,358.18 C245.72,379.51 271.3127,407.0075 291.1327,428.3075" fill="none" id="System Sequence-to-Math Umbrella" style="stroke:#181818;stroke-width:1;"/><polygon fill="#181818" points="295.22,432.7,292.0174,423.3864,291.8139,429.0396,286.1607,428.8361,295.22,432.7" style="stroke:#181818;stroke-width:1;"/></g><!--link User Authentication to Secure Communication--><g class="link" data-entity-1="User Authentication" data-entity-2="Secure Communication" data-source-line="31" data-uid="lnk22" id="link_User Authentication_Secure Communication"><path d="M521,130.77 C521,148.27 521,166.37 521,183.85" fill="none" id="User Authentication-to-Secure Communication" style="stroke:#181818;stroke-width:1;"/><polygon fill="#181818" points="521,189.85,525,180.85,521,184.85,517,180.85,521,189.85" style="stroke:#181818;stroke-width:1;"/></g><!--link Secure Communication to Web Browser--><g class="link" data-entity-1="Secure Communication" data-entity-2="Web Browser" data-source-line="32" data-uid="lnk23" id="link_Secure Communication_Web Browser"><path d="M522.13,236.88 C523.2,258.21 524.509,284.1076 525.579,305.4076" fill="none" id="Secure Communication-to-Web Browser" style="stroke:#181818;stroke-width:1;"/><polygon fill="#181818" points="525.88,311.4,529.4234,302.2106,525.6291,306.4063,521.4335,302.612,525.88,311.4" style="stroke:#181818;stroke-width:1;"/></g><!--link Web Browser to Internet Connection--><g class="link" data-entity-1="Web Browser" data-entity-2="Internet Connection" data-source-line="33" data-uid="lnk24" id="link_Web Browser_Internet Connection"><path d="M528.13,358.18 C529.2,379.51 530.509,405.4076 531.579,426.7076" fill="none" id="Web Browser-to-Internet Connection" style="stroke:#181818;stroke-width:1;"/><polygon fill="#181818" points="531.88,432.7,535.4234,423.5106,531.6291,427.7063,527.4335,423.912,531.88,432.7" style="stroke:#181818;stroke-width:1;"/></g><!--link Math Umbrella to External S2S Projects--><g class="link" data-entity-1="Math Umbrella" data-entity-2="External S2S Projects" data-source-line="34" data-uid="lnk25" id="link_Math Umbrella_External S2S Projects"><path d="M316,479.47 C316,500.8 316,526.7 316,547.99" fill="none" id="Math Umbrella-to-External S2S Projects" style="stroke:#181818;stroke-width:1;"/><polygon fill="#181818" points="316,553.99,320,544.99,316,548.99,312,544.99,316,553.99" style="stroke:#181818;stroke-width:1;"/></g><!--SRC=[TL7BJiCm4BptArQzzy87845LK0-L02lYW3XipRPDYTV13q65-kyuDO7OSNooTsTdnZijodVS4yn5YvBWpg1qjMOBucGTgJbypo2SjeSjjQ6-s9sNUrG4AzxNJA__rSgIWJKxChj0EsX4MX3quOdxpdcMYuH9Th113cyLhedaeoVRcOIgVSCWCQ3Ve3j0fRQ6cWRBv8AaDxKx9PGNlpVU7O9MBR5Z7vhkHWYMMYdFIJidNtq5FumDF97LtaYoYSnVMrm9U33wIDBPCjEQTmQjCruwdwtycRPmQ_IdJRv-sJQJ2pQPIOuy9ad1Od5TJYalHcGnjb4rOilnJ80BWHN3-BKn6KIv5QT6-qeg4JEvlSnXH4_aUFu1]--></g></svg>