<svg xmlns="http://www.w3.org/2000/svg" xmlns:xlink="http://www.w3.org/1999/xlink" contentStyleType="text/css" data-diagram-type="STATE" height="414px" preserveAspectRatio="none" style="width:609px;height:414px;background:#FFFFFF;" version="1.1" viewBox="0 0 609 414" width="609px" zoomAndPan="magnify"><defs/><g><!--cluster LoggedOut--><g class="cluster" data-entity="LoggedOut" data-source-line="3" data-uid="ent0002" id="cluster_LoggedOut"><path d="M434.5,160 L583.5,160 A12.5,12.5 0 0 1 596,172.5 L596,181.2969 L422,181.2969 L422,172.5 A12.5,12.5 0 0 1 434.5,160" fill="#F1F1F1"/><rect fill="none" height="248" rx="12.5" ry="12.5" style="stroke:#181818;stroke-width:0.5;" width="174" x="422" y="160"/><line style="stroke:#181818;stroke-width:0.5;" x1="422" x2="596" y1="181.2969" y2="181.2969"/><text fill="#000000" font-family="sans-serif" font-size="14" lengthAdjust="spacing" textLength="77.0205" x="470.4897" y="176.9951">LoggedOut</text></g><!--cluster LoggedIn--><g class="cluster" data-entity="LoggedIn" data-source-line="8" data-uid="ent0003" id="cluster_LoggedIn"><path d="M19.5,7 L334.5,7 A12.5,12.5 0 0 1 347,19.5 L347,28.2969 L7,28.2969 L7,19.5 A12.5,12.5 0 0 1 19.5,7" fill="#F1F1F1"/><rect fill="none" height="401" rx="12.5" ry="12.5" style="stroke:#181818;stroke-width:0.5;" width="340" x="7" y="7"/><line style="stroke:#181818;stroke-width:0.5;" x1="7" x2="347" y1="28.2969" y2="28.2969"/><text fill="#000000" font-family="sans-serif" font-size="14" lengthAdjust="spacing" textLength="64.6406" x="144.6797" y="23.9951">LoggedIn</text></g><ellipse cx="543" cy="232" fill="#222222" rx="10" ry="10" style="stroke:#222222;stroke-width:1;"/><g id="LoggedOut.AwaitingLogin"><rect fill="#F1F1F1" height="50" rx="12.5" ry="12.5" style="stroke:#181818;stroke-width:0.5;" width="118.6494" x="445.68" y="334"/><line style="stroke:#181818;stroke-width:0.5;" x1="445.68" x2="564.3294" y1="360.2969" y2="360.2969"/><text fill="#000000" font-family="sans-serif" font-size="14" lengthAdjust="spacing" textLength="98.6494" x="455.68" y="351.9951">AwaitingLogin</text></g><ellipse cx="230" cy="79" fill="#222222" rx="10" ry="10" style="stroke:#222222;stroke-width:1;"/><g id="LoggedIn.ActiveSession"><rect fill="#F1F1F1" height="50" rx="12.5" ry="12.5" style="stroke:#181818;stroke-width:0.5;" width="116.9678" x="171.52" y="207"/><line style="stroke:#181818;stroke-width:0.5;" x1="171.52" x2="288.4878" y1="233.2969" y2="233.2969"/><text fill="#000000" font-family="sans-serif" font-size="14" lengthAdjust="spacing" textLength="96.9678" x="181.52" y="224.9951">ActiveSession</text></g><g id="LoggedIn.ContentUpdate"><rect fill="#F1F1F1" height="50" rx="12.5" ry="12.5" style="stroke:#181818;stroke-width:0.5;" width="126.3809" x="30.81" y="334"/><line style="stroke:#181818;stroke-width:0.5;" x1="30.81" x2="157.1909" y1="360.2969" y2="360.2969"/><text fill="#000000" font-family="sans-serif" font-size="14" lengthAdjust="spacing" textLength="106.3809" x="40.81" y="351.9951">ContentUpdate</text></g><g id="LoggedIn.SecureAccess"><rect fill="#F1F1F1" height="50" rx="12.5" ry="12.5" style="stroke:#181818;stroke-width:0.5;" width="116.6123" x="191.69" y="334"/><line style="stroke:#181818;stroke-width:0.5;" x1="191.69" x2="308.3023" y1="360.2969" y2="360.2969"/><text fill="#000000" font-family="sans-serif" font-size="14" lengthAdjust="spacing" textLength="96.6123" x="201.69" y="351.9951">SecureAccess</text></g><ellipse cx="588" cy="79" fill="#222222" rx="10" ry="10" style="stroke:#222222;stroke-width:1;"/><!--link *start* to LoggedOut--><g class="link" data-entity-1=".start." data-entity-2="LoggedOut" data-source-line="1" data-uid="lnk3" id="link_.start._LoggedOut"><path d="M588,89.45 C588,97.585 588,110.2888 588,124.8198 C588,132.0854 588,139.8078 588,147.6443 C588,151.5626 588,149.5094 588,153.4419" fill="none" id="*start*-to-LoggedOut" style="stroke:#181818;stroke-width:1;"/><polygon fill="#181818" points="588,159.4419,592,150.4419,588,154.4419,584,150.4419,588,159.4419" style="stroke:#181818;stroke-width:1;"/></g><!--link *start*LoggedOut to AwaitingLogin--><g class="link" data-entity-1=".start.LoggedOut" data-entity-2="AwaitingLogin" data-source-line="4" data-uid="lnk6" id="link_.start.LoggedOut_AwaitingLogin"><path d="M540.27,241.99 C534.48,261.02 522.5755,300.1995 514.0555,328.2195" fill="none" id="*start*LoggedOut-to-AwaitingLogin" style="stroke:#181818;stroke-width:1;"/><polygon fill="#181818" points="512.31,333.96,518.7552,326.5129,513.7646,329.1763,511.1013,324.1856,512.31,333.96" style="stroke:#181818;stroke-width:1;"/></g><!--link AwaitingLogin to LoggedIn--><g class="link" data-entity-1="AwaitingLogin" data-entity-2="LoggedIn" data-source-line="5" data-uid="lnk7" id="link_AwaitingLogin_LoggedIn"><path d="M467.95,333.63 C442.85,315.33 410.77,288.14 391,257 C369.365,222.935 356.43,179.525 348.8725,144.2213 C348.4002,142.0148 347.9488,139.8399 347.5177,137.7011 C347.4099,137.1663 347.3034,136.6339 347.1981,136.1037 C347.1455,135.8386 348.2533,141.4609 348.2013,141.1969" fill="none" id="AwaitingLogin-to-LoggedIn" style="stroke:#181818;stroke-width:1;"/><polygon fill="#181818" points="347.0411,135.3102,344.8569,144.9138,348.0079,140.2158,352.7059,143.3669,347.0411,135.3102" style="stroke:#181818;stroke-width:1;"/><text fill="#000000" font-family="sans-serif" font-size="13" lengthAdjust="spacing" textLength="122.4717" x="392" y="236.5669">authenticateUser()</text></g><!--link *start*LoggedIn to ActiveSession--><g class="link" data-entity-1=".start.LoggedIn" data-entity-2="ActiveSession" data-source-line="9" data-uid="lnk10" id="link_.start.LoggedIn_ActiveSession"><path d="M230,89.45 C230,112.56 230,166.56 230,200.56" fill="none" id="*start*LoggedIn-to-ActiveSession" style="stroke:#181818;stroke-width:1;"/><polygon fill="#181818" points="230,206.56,234,197.56,230,201.56,226,197.56,230,206.56" style="stroke:#181818;stroke-width:1;"/></g><!--link ActiveSession to ContentUpdate--><g class="link" data-entity-1="ActiveSession" data-entity-2="ContentUpdate" data-source-line="10" data-uid="lnk12" id="link_ActiveSession_ContentUpdate"><path d="M171.26,252.91 C153.6,261.21 135.38,272.39 122,287 C110.1,300 104.588,312.8612 100.518,327.7912" fill="none" id="ActiveSession-to-ContentUpdate" style="stroke:#181818;stroke-width:1;"/><polygon fill="#181818" points="98.94,333.58,105.1662,325.9489,100.255,328.756,97.4479,323.8448,98.94,333.58" style="stroke:#181818;stroke-width:1;"/><text fill="#000000" font-family="sans-serif" font-size="13" lengthAdjust="spacing" textLength="107.6499" x="123" y="300.0669">updateContent()</text></g><!--link ActiveSession to SecureAccess--><g class="link" data-entity-1="ActiveSession" data-entity-2="SecureAccess" data-source-line="11" data-uid="lnk14" id="link_ActiveSession_SecureAccess"><path d="M233.9,257.4 C237.43,279.42 241.6421,305.7354 245.1621,327.7354" fill="none" id="ActiveSession-to-SecureAccess" style="stroke:#181818;stroke-width:1;"/><polygon fill="#181818" points="246.11,333.66,248.6378,324.1411,245.32,328.7228,240.7383,325.405,246.11,333.66" style="stroke:#181818;stroke-width:1;"/><text fill="#000000" font-family="sans-serif" font-size="13" lengthAdjust="spacing" textLength="98.376" x="243" y="300.0669">secureAccess()</text></g><!--link ActiveSession to LoggedOut--><g class="link" data-entity-1="ActiveSession" data-entity-2="LoggedOut" data-source-line="12" data-uid="lnk15" id="link_ActiveSession_LoggedOut"><path d="M250.62,206.79 C269.18,186.26 298.48,158.79 331,146.92 C382.98,127.94 539.08,109.67 580,146.92 C583.2913,149.9163 585.9209,153.3786 587.9989,157.1567 C588.2587,157.6289 588.5098,158.1061 588.7525,158.5879 C588.8739,158.8289 588.9931,159.0709 589.1103,159.3141 C589.1689,159.4357 586.6695,154.13 586.7271,154.2521" fill="none" id="ActiveSession-to-LoggedOut" style="stroke:#181818;stroke-width:1;"/><polygon fill="#181818" points="589.2846,159.6798,589.0668,149.8333,587.1533,155.1567,581.8299,153.2432,589.2846,159.6798" style="stroke:#181818;stroke-width:1;"/><text fill="#000000" font-family="sans-serif" font-size="13" lengthAdjust="spacing" textLength="51.251" x="404.5" y="132.0669">logout()</text></g><!--link LoggedIn to LoggedOut--><g class="link" data-entity-1="LoggedIn" data-entity-2="LoggedOut" data-source-line="15" data-uid="lnk16" id="link_LoggedIn_LoggedOut"><path d="M347.147,82.5881 C347.287,82.6325 347.4286,82.6775 347.5718,82.723 C347.8584,82.8139 348.1513,82.9069 348.4506,83.0018 C349.0492,83.1917 349.6731,83.3896 350.3215,83.5951 C351.6184,84.0061 353.013,84.4477 354.4982,84.9176 C357.4687,85.8572 360.8015,86.9096 364.4389,88.0553 C378.9884,92.6381 398.4106,98.7137 419.0037,105.0375 C460.19,117.685 506.06,131.325 527,136 C538.62,138.6 571.83,135.34 580,144 C583.2262,147.42 585.7884,151.2875 587.8001,155.444 C588.303,156.4831 588.7715,157.5403 589.2074,158.613 C589.3163,158.8812 589.4232,159.1504 589.5282,159.4205 C589.5806,159.5555 587.5027,154.0816 587.5542,154.2171" fill="none" id="LoggedIn-to-LoggedOut" style="stroke:#181818;stroke-width:1;"/><polygon fill="#181818" points="589.684,159.8263,590.2287,149.9925,587.9091,155.1519,582.7497,152.8323,589.684,159.8263" style="stroke:#181818;stroke-width:1;"/><text fill="#000000" font-family="sans-serif" font-size="13" lengthAdjust="spacing" textLength="51.251" x="528" y="132.0669">logout()</text></g><!--SRC=[TP2z2i8m4CVtFCMDAlG5EWZ5IH0SIgVY4D8Z7aWYpKK7yTqzOx2fs4p9x_uVIVhD2Qfg2mTlBGx7o4e5remJW8S2MNqMDdTDJCxAd5oQp4WHjdTGWuvyHiTa9BCBEAxMwZcl4DbFWs6wOOiXaCyD9KcQdNSiiTrrU0VL4DCcK-duxshHn14ROuI9AHJ7HS_q3pLSlFMHFq_uNdv9z080]--></g></svg>