<svg xmlns="http://www.w3.org/2000/svg" xmlns:xlink="http://www.w3.org/1999/xlink" contentStyleType="text/css" data-diagram-type="CLASS" height="268px" preserveAspectRatio="none" style="width:802px;height:268px;background:#FFFFFF;" version="1.1" viewBox="0 0 802 268" width="802px" zoomAndPan="magnify"><defs/><g><!--class System--><g class="entity" data-entity="System" data-source-line="1" data-uid="ent0002" id="entity_System"><rect fill="#F1F1F1" height="96.8906" rx="2.5" ry="2.5" style="stroke:#181818;stroke-width:0.5;" width="179.4189" x="315.37" y="7"/><ellipse cx="374.7264" cy="23" fill="#ADD1B2" rx="11" ry="11" style="stroke:#181818;stroke-width:1;"/><path d="M377.6952,28.6406 Q377.1171,28.9375 376.4764,29.0781 Q375.8358,29.2344 375.1327,29.2344 Q372.6327,29.2344 371.3046,27.5938 Q369.9921,25.9375 369.9921,22.8125 Q369.9921,19.6875 371.3046,18.0313 Q372.6327,16.375 375.1327,16.375 Q375.8358,16.375 376.4764,16.5313 Q377.1327,16.6875 377.6952,16.9844 L377.6952,19.7031 Q377.0702,19.125 376.4764,18.8594 Q375.8827,18.5781 375.2577,18.5781 Q373.9139,18.5781 373.2264,19.6563 Q372.5389,20.7188 372.5389,22.8125 Q372.5389,24.9063 373.2264,25.9844 Q373.9139,27.0469 375.2577,27.0469 Q375.8827,27.0469 376.4764,26.7813 Q377.0702,26.5 377.6952,25.9219 L377.6952,28.6406 Z " fill="#000000"/><text fill="#000000" font-family="sans-serif" font-size="14" lengthAdjust="spacing" textLength="52.2061" x="395.2264" y="27.8467">System</text><line style="stroke:#181818;stroke-width:0.5;" x1="316.37" x2="493.7889" y1="39" y2="39"/><line style="stroke:#181818;stroke-width:0.5;" x1="316.37" x2="493.7889" y1="47" y2="47"/><ellipse cx="326.37" cy="60.6484" fill="#84BE84" rx="3" ry="3" style="stroke:#038048;stroke-width:1;"/><text fill="#000000" font-family="sans-serif" font-size="14" lengthAdjust="spacing" textLength="115.9307" x="335.37" y="63.9951">updateContent()</text><ellipse cx="326.37" cy="76.9453" fill="#84BE84" rx="3" ry="3" style="stroke:#038048;stroke-width:1;"/><text fill="#000000" font-family="sans-serif" font-size="14" lengthAdjust="spacing" textLength="105.9434" x="335.37" y="80.292">secureAccess()</text><ellipse cx="326.37" cy="93.2422" fill="#84BE84" rx="3" ry="3" style="stroke:#038048;stroke-width:1;"/><text fill="#000000" font-family="sans-serif" font-size="14" lengthAdjust="spacing" textLength="153.4189" x="335.37" y="96.5889">manageUserSession()</text></g><!--class QuestionUpdater--><g class="entity" data-entity="QuestionUpdater" data-source-line="7" data-uid="ent0003" id="entity_QuestionUpdater"><rect fill="#F1F1F1" height="80.5938" rx="2.5" ry="2.5" style="stroke:#181818;stroke-width:0.5;" width="156.1631" x="7" y="180.89"/><ellipse cx="24.2896" cy="196.89" fill="#ADD1B2" rx="11" ry="11" style="stroke:#181818;stroke-width:1;"/><path d="M27.2583,202.5306 Q26.6802,202.8275 26.0396,202.9681 Q25.3989,203.1244 24.6958,203.1244 Q22.1958,203.1244 20.8677,201.4838 Q19.5552,199.8275 19.5552,196.7025 Q19.5552,193.5775 20.8677,191.9213 Q22.1958,190.265 24.6958,190.265 Q25.3989,190.265 26.0396,190.4213 Q26.6958,190.5775 27.2583,190.8744 L27.2583,193.5931 Q26.6333,193.015 26.0396,192.7494 Q25.4458,192.4681 24.8208,192.4681 Q23.4771,192.4681 22.7896,193.5463 Q22.1021,194.6088 22.1021,196.7025 Q22.1021,198.7963 22.7896,199.8744 Q23.4771,200.9369 24.8208,200.9369 Q25.4458,200.9369 26.0396,200.6713 Q26.6333,200.39 27.2583,199.8119 L27.2583,202.5306 Z " fill="#000000"/><text fill="#000000" font-family="sans-serif" font-size="14" lengthAdjust="spacing" textLength="119.0752" x="38.7983" y="201.7367">QuestionUpdater</text><line style="stroke:#181818;stroke-width:0.5;" x1="8" x2="162.1631" y1="212.89" y2="212.89"/><line style="stroke:#181818;stroke-width:0.5;" x1="8" x2="162.1631" y1="220.89" y2="220.89"/><ellipse cx="18" cy="234.5384" fill="#84BE84" rx="3" ry="3" style="stroke:#038048;stroke-width:1;"/><text fill="#000000" font-family="sans-serif" font-size="14" lengthAdjust="spacing" textLength="130.1631" x="27" y="237.8851">updateQuestions()</text><ellipse cx="18" cy="250.8353" fill="#84BE84" rx="3" ry="3" style="stroke:#038048;stroke-width:1;"/><text fill="#000000" font-family="sans-serif" font-size="14" lengthAdjust="spacing" textLength="100.5635" x="27" y="254.182">validateData()</text></g><!--class MathUmbrella--><g class="entity" data-entity="MathUmbrella" data-source-line="12" data-uid="ent0004" id="entity_MathUmbrella"><rect fill="#F1F1F1" height="80.5938" rx="2.5" ry="2.5" style="stroke:#181818;stroke-width:0.5;" width="198.1768" x="197.99" y="180.89"/><ellipse cx="243.5686" cy="196.89" fill="#ADD1B2" rx="11" ry="11" style="stroke:#181818;stroke-width:1;"/><path d="M246.5374,202.5306 Q245.9592,202.8275 245.3186,202.9681 Q244.678,203.1244 243.9749,203.1244 Q241.4749,203.1244 240.1467,201.4838 Q238.8342,199.8275 238.8342,196.7025 Q238.8342,193.5775 240.1467,191.9213 Q241.4749,190.265 243.9749,190.265 Q244.678,190.265 245.3186,190.4213 Q245.9749,190.5775 246.5374,190.8744 L246.5374,193.5931 Q245.9124,193.015 245.3186,192.7494 Q244.7249,192.4681 244.0999,192.4681 Q242.7561,192.4681 242.0686,193.5463 Q241.3811,194.6088 241.3811,196.7025 Q241.3811,198.7963 242.0686,199.8744 Q242.7561,200.9369 244.0999,200.9369 Q244.7249,200.9369 245.3186,200.6713 Q245.9124,200.39 246.5374,199.8119 L246.5374,202.5306 Z " fill="#000000"/><text fill="#000000" font-family="sans-serif" font-size="14" lengthAdjust="spacing" textLength="98.5195" x="264.0686" y="201.7367">MathUmbrella</text><line style="stroke:#181818;stroke-width:0.5;" x1="198.99" x2="395.1668" y1="212.89" y2="212.89"/><line style="stroke:#181818;stroke-width:0.5;" x1="198.99" x2="395.1668" y1="220.89" y2="220.89"/><ellipse cx="208.99" cy="234.5384" fill="#84BE84" rx="3" ry="3" style="stroke:#038048;stroke-width:1;"/><text fill="#000000" font-family="sans-serif" font-size="14" lengthAdjust="spacing" textLength="172.1768" x="217.99" y="237.8851">accessExternalProjects()</text><ellipse cx="208.99" cy="250.8353" fill="#84BE84" rx="3" ry="3" style="stroke:#038048;stroke-width:1;"/><text fill="#000000" font-family="sans-serif" font-size="14" lengthAdjust="spacing" textLength="127.1826" x="217.99" y="254.182">organizeProjects()</text></g><!--class UserAuthentication--><g class="entity" data-entity="UserAuthentication" data-source-line="17" data-uid="ent0005" id="entity_UserAuthentication"><rect fill="#F1F1F1" height="80.5938" rx="2.5" ry="2.5" style="stroke:#181818;stroke-width:0.5;" width="166.6816" x="430.74" y="180.89"/><ellipse cx="445.74" cy="196.89" fill="#ADD1B2" rx="11" ry="11" style="stroke:#181818;stroke-width:1;"/><path d="M448.7088,202.5306 Q448.1306,202.8275 447.49,202.9681 Q446.8494,203.1244 446.1463,203.1244 Q443.6463,203.1244 442.3181,201.4838 Q441.0056,199.8275 441.0056,196.7025 Q441.0056,193.5775 442.3181,191.9213 Q443.6463,190.265 446.1463,190.265 Q446.8494,190.265 447.49,190.4213 Q448.1463,190.5775 448.7088,190.8744 L448.7088,193.5931 Q448.0838,193.015 447.49,192.7494 Q446.8963,192.4681 446.2713,192.4681 Q444.9275,192.4681 444.24,193.5463 Q443.5525,194.6088 443.5525,196.7025 Q443.5525,198.7963 444.24,199.8744 Q444.9275,200.9369 446.2713,200.9369 Q446.8963,200.9369 447.49,200.6713 Q448.0838,200.39 448.7088,199.8119 L448.7088,202.5306 Z " fill="#000000"/><text fill="#000000" font-family="sans-serif" font-size="14" lengthAdjust="spacing" textLength="134.6816" x="459.74" y="201.7367">UserAuthentication</text><line style="stroke:#181818;stroke-width:0.5;" x1="431.74" x2="596.4216" y1="212.89" y2="212.89"/><line style="stroke:#181818;stroke-width:0.5;" x1="431.74" x2="596.4216" y1="220.89" y2="220.89"/><ellipse cx="441.74" cy="234.5384" fill="#84BE84" rx="3" ry="3" style="stroke:#038048;stroke-width:1;"/><text fill="#000000" font-family="sans-serif" font-size="14" lengthAdjust="spacing" textLength="131.8926" x="450.74" y="237.8851">authenticateUser()</text><ellipse cx="441.74" cy="250.8353" fill="#84BE84" rx="3" ry="3" style="stroke:#038048;stroke-width:1;"/><text fill="#000000" font-family="sans-serif" font-size="14" lengthAdjust="spacing" textLength="98.7314" x="450.74" y="254.182">lockInstance()</text></g><!--class WebBrowser--><g class="entity" data-entity="WebBrowser" data-source-line="22" data-uid="ent0006" id="entity_WebBrowser"><rect fill="#F1F1F1" height="64.2969" rx="2.5" ry="2.5" style="stroke:#181818;stroke-width:0.5;" width="162.9854" x="632.59" y="189.03"/><ellipse cx="666.7616" cy="205.03" fill="#ADD1B2" rx="11" ry="11" style="stroke:#181818;stroke-width:1;"/><path d="M669.7303,210.6706 Q669.1522,210.9675 668.5116,211.1081 Q667.871,211.2644 667.1678,211.2644 Q664.6678,211.2644 663.3397,209.6238 Q662.0272,207.9675 662.0272,204.8425 Q662.0272,201.7175 663.3397,200.0613 Q664.6678,198.405 667.1678,198.405 Q667.871,198.405 668.5116,198.5613 Q669.1678,198.7175 669.7303,199.0144 L669.7303,201.7331 Q669.1053,201.155 668.5116,200.8894 Q667.9178,200.6081 667.2928,200.6081 Q665.9491,200.6081 665.2616,201.6863 Q664.5741,202.7488 664.5741,204.8425 Q664.5741,206.9363 665.2616,208.0144 Q665.9491,209.0769 667.2928,209.0769 Q667.9178,209.0769 668.5116,208.8113 Q669.1053,208.53 669.7303,207.9519 L669.7303,210.6706 Z " fill="#000000"/><text fill="#000000" font-family="sans-serif" font-size="14" lengthAdjust="spacing" textLength="88.3818" x="685.0219" y="209.8767">WebBrowser</text><line style="stroke:#181818;stroke-width:0.5;" x1="633.59" x2="794.5754" y1="221.03" y2="221.03"/><line style="stroke:#181818;stroke-width:0.5;" x1="633.59" x2="794.5754" y1="229.03" y2="229.03"/><ellipse cx="643.59" cy="242.6784" fill="#84BE84" rx="3" ry="3" style="stroke:#038048;stroke-width:1;"/><text fill="#000000" font-family="sans-serif" font-size="14" lengthAdjust="spacing" textLength="136.9854" x="652.59" y="246.0251">secureConnection()</text></g><!--link System to QuestionUpdater--><g class="link" data-entity-1="System" data-entity-2="QuestionUpdater" data-source-line="26" data-uid="lnk7" id="link_System_QuestionUpdater"><path codeLine="26" d="M315.09,102.49 C267.12,127.03 214.0312,154.1966 168.0712,177.7166" fill="none" id="System-to-QuestionUpdater" style="stroke:#181818;stroke-width:1;"/><polygon fill="#181818" points="162.73,180.45,172.5641,179.9108,167.181,178.1722,168.9196,172.7891,162.73,180.45" style="stroke:#181818;stroke-width:1;"/><text fill="#000000" font-family="sans-serif" font-size="13" lengthAdjust="spacing" textLength="29.7832" x="246.08" y="146.9569">uses</text></g><!--link System to MathUmbrella--><g class="link" data-entity-1="System" data-entity-2="MathUmbrella" data-source-line="27" data-uid="lnk8" id="link_System_MathUmbrella"><path codeLine="27" d="M373.55,104.24 C357.55,128.5 341.653,152.611 326.493,175.601" fill="none" id="System-to-MathUmbrella" style="stroke:#181818;stroke-width:1;"/><polygon fill="#181818" points="323.19,180.61,331.4839,175.2985,325.9425,176.4358,324.8052,170.8945,323.19,180.61" style="stroke:#181818;stroke-width:1;"/><text fill="#000000" font-family="sans-serif" font-size="13" lengthAdjust="spacing" textLength="29.7832" x="352.08" y="146.9569">uses</text></g><!--link System to UserAuthentication--><g class="link" data-entity-1="System" data-entity-2="UserAuthentication" data-source-line="28" data-uid="lnk9" id="link_System_UserAuthentication"><path codeLine="28" d="M436.9,104.24 C453.05,128.5 469.1043,152.626 484.4143,175.616" fill="none" id="System-to-UserAuthentication" style="stroke:#181818;stroke-width:1;"/><polygon fill="#181818" points="487.74,180.61,486.0808,170.9019,484.9686,176.4484,479.4221,175.3362,487.74,180.61" style="stroke:#181818;stroke-width:1;"/><text fill="#000000" font-family="sans-serif" font-size="13" lengthAdjust="spacing" textLength="29.7832" x="468.08" y="146.9569">uses</text></g><!--link System to WebBrowser--><g class="link" data-entity-1="System" data-entity-2="WebBrowser" data-source-line="29" data-uid="lnk10" id="link_System_WebBrowser"><path codeLine="29" d="M495.29,104.24 C546.59,131.43 604.1088,161.8997 649.2488,185.8297" fill="none" id="System-to-WebBrowser" style="stroke:#181818;stroke-width:1;"/><polygon fill="#181818" points="654.55,188.64,648.4718,180.8905,650.1324,186.2981,644.7247,187.9587,654.55,188.64" style="stroke:#181818;stroke-width:1;"/><text fill="#000000" font-family="sans-serif" font-size="13" lengthAdjust="spacing" textLength="29.7832" x="580.08" y="146.9569">uses</text></g><!--SRC=[RP3DJiCm48JlUOeSMw6-00UaG3bmG095KS_RPTK4d3Nohlj3rNV7IHhNKUhZpEhppA01aRmyYLARdxCyl0V_-mLABvQLM1VBGHH2xwX0995HQu5XHvMGAuFQM0x69SkmPtvw4WrQrTFS53wQ4RK7qtJ66XHIoZjeNRLRHyR0Y80-nEinK1dCXxFVX1f9rks0cpzAz4ZheXPUwz2hGUW2HEPDxGkDD6Fnvur5WP5IqeQspyuUv5Pi62Yink7NkCLrsTNgQJR8O-w59BsOb9tRTzBFZv9WW_aF]--></g></svg>