<svg xmlns="http://www.w3.org/2000/svg" xmlns:xlink="http://www.w3.org/1999/xlink" contentStyleType="text/css" data-diagram-type="DESCRIPTION" height="535px" preserveAspectRatio="none" style="width:908px;height:535px;background:#FFFFFF;" version="1.1" viewBox="0 0 908 535" width="908px" zoomAndPan="magnify"><defs/><g><!--cluster User Device--><g class="cluster" data-entity="User Device" data-source-line="1" data-uid="ent0002" id="cluster_User Device"><polygon fill="none" points="315,16,325,6,484,6,484,98.3,474,108.3,315,108.3,315,16" style="stroke:#181818;stroke-width:1;"/><line style="stroke:#181818;stroke-width:1;" x1="474" x2="484" y1="16" y2="6"/><line style="stroke:#181818;stroke-width:1;" x1="315" x2="474" y1="16" y2="16"/><line style="stroke:#181818;stroke-width:1;" x1="474" x2="474" y1="16" y2="108.3"/><text fill="#000000" font-family="sans-serif" font-size="14" font-weight="bold" lengthAdjust="spacing" textLength="93.8096" x="348.5952" y="31.9951">User Device</text></g><!--cluster S2S Server--><g class="cluster" data-entity="S2S Server" data-source-line="5" data-uid="ent0004" id="cluster_S2S Server"><polygon fill="none" points="16,167.3,26,157.3,891,157.3,891,356.89,881,366.89,16,366.89,16,167.3" style="stroke:#181818;stroke-width:1;"/><line style="stroke:#181818;stroke-width:1;" x1="881" x2="891" y1="167.3" y2="157.3"/><line style="stroke:#181818;stroke-width:1;" x1="16" x2="881" y1="167.3" y2="167.3"/><line style="stroke:#181818;stroke-width:1;" x1="881" x2="881" y1="167.3" y2="366.89"/><text fill="#000000" font-family="sans-serif" font-size="14" font-weight="bold" lengthAdjust="spacing" textLength="86.7891" x="406.1055" y="183.2951">S2S Server</text></g><!--cluster External Resources--><g class="cluster" data-entity="External Resources" data-source-line="13" data-uid="ent0010" id="cluster_External Resources"><polygon fill="none" points="189,425.89,199,415.89,416,415.89,416,508.19,406,518.19,189,518.19,189,425.89" style="stroke:#181818;stroke-width:1;"/><line style="stroke:#181818;stroke-width:1;" x1="406" x2="416" y1="425.89" y2="415.89"/><line style="stroke:#181818;stroke-width:1;" x1="189" x2="406" y1="425.89" y2="425.89"/><line style="stroke:#181818;stroke-width:1;" x1="406" x2="406" y1="425.89" y2="518.19"/><text fill="#000000" font-family="sans-serif" font-size="14" font-weight="bold" lengthAdjust="spacing" textLength="151.9971" x="222.5015" y="441.8851">External Resources</text></g><!--entity Web Browser--><g class="entity" data-entity="Web Browser" data-source-line="2" data-uid="ent0003" id="entity_Web Browser"><rect fill="#F1F1F1" height="46.2969" rx="2.5" ry="2.5" style="stroke:#181818;stroke-width:0.5;" width="132.832" x="332.58" y="46"/><rect fill="#F1F1F1" height="10" style="stroke:#181818;stroke-width:0.5;" width="15" x="445.412" y="51"/><rect fill="#F1F1F1" height="2" style="stroke:#181818;stroke-width:0.5;" width="4" x="443.412" y="53"/><rect fill="#F1F1F1" height="2" style="stroke:#181818;stroke-width:0.5;" width="4" x="443.412" y="57"/><text fill="#000000" font-family="sans-serif" font-size="14" lengthAdjust="spacing" textLength="92.832" x="347.58" y="78.9951">Web Browser</text></g><!--entity Space Fractions System--><g class="entity" data-entity="Space Fractions System" data-source-line="6" data-uid="ent0005" id="entity_Space Fractions System"><rect fill="#F1F1F1" height="46.2969" rx="2.5" ry="2.5" style="stroke:#181818;stroke-width:0.5;" width="207.9658" x="295.02" y="197.3"/><rect fill="#F1F1F1" height="10" style="stroke:#181818;stroke-width:0.5;" width="15" x="482.9858" y="202.3"/><rect fill="#F1F1F1" height="2" style="stroke:#181818;stroke-width:0.5;" width="4" x="480.9858" y="204.3"/><rect fill="#F1F1F1" height="2" style="stroke:#181818;stroke-width:0.5;" width="4" x="480.9858" y="208.3"/><text fill="#000000" font-family="sans-serif" font-size="14" lengthAdjust="spacing" textLength="167.9658" x="310.02" y="230.2951">Space Fractions System</text></g><!--entity Question Updater--><g class="entity" data-entity="Question Updater" data-source-line="7" data-uid="ent0006" id="entity_Question Updater"><rect fill="#F1F1F1" height="46.2969" rx="2.5" ry="2.5" style="stroke:#181818;stroke-width:0.5;" width="163.5254" x="32.24" y="304.6"/><rect fill="#F1F1F1" height="10" style="stroke:#181818;stroke-width:0.5;" width="15" x="175.7654" y="309.6"/><rect fill="#F1F1F1" height="2" style="stroke:#181818;stroke-width:0.5;" width="4" x="173.7654" y="311.6"/><rect fill="#F1F1F1" height="2" style="stroke:#181818;stroke-width:0.5;" width="4" x="173.7654" y="315.6"/><text fill="#000000" font-family="sans-serif" font-size="14" lengthAdjust="spacing" textLength="123.5254" x="47.24" y="337.5951">Question Updater</text></g><!--entity Math Umbrella--><g class="entity" data-entity="Math Umbrella" data-source-line="8" data-uid="ent0007" id="entity_Math Umbrella"><rect fill="#F1F1F1" height="46.2969" rx="2.5" ry="2.5" style="stroke:#181818;stroke-width:0.5;" width="142.9697" x="230.52" y="304.6"/><rect fill="#F1F1F1" height="10" style="stroke:#181818;stroke-width:0.5;" width="15" x="353.4897" y="309.6"/><rect fill="#F1F1F1" height="2" style="stroke:#181818;stroke-width:0.5;" width="4" x="351.4897" y="311.6"/><rect fill="#F1F1F1" height="2" style="stroke:#181818;stroke-width:0.5;" width="4" x="351.4897" y="315.6"/><text fill="#000000" font-family="sans-serif" font-size="14" lengthAdjust="spacing" textLength="102.9697" x="245.52" y="337.5951">Math Umbrella</text></g><!--entity User Authentication--><g class="entity" data-entity="User Authentication" data-source-line="9" data-uid="ent0008" id="entity_User Authentication"><rect fill="#F1F1F1" height="46.2969" rx="2.5" ry="2.5" style="stroke:#181818;stroke-width:0.5;" width="179.1318" x="408.43" y="304.6"/><rect fill="#F1F1F1" height="10" style="stroke:#181818;stroke-width:0.5;" width="15" x="567.5618" y="309.6"/><rect fill="#F1F1F1" height="2" style="stroke:#181818;stroke-width:0.5;" width="4" x="565.5618" y="311.6"/><rect fill="#F1F1F1" height="2" style="stroke:#181818;stroke-width:0.5;" width="4" x="565.5618" y="315.6"/><text fill="#000000" font-family="sans-serif" font-size="14" lengthAdjust="spacing" textLength="139.1318" x="423.43" y="337.5951">User Authentication</text></g><!--entity System Instance Management--><g class="entity" data-entity="System Instance Management" data-source-line="10" data-uid="ent0009" id="entity_System Instance Management"><rect fill="#F1F1F1" height="46.2969" rx="2.5" ry="2.5" style="stroke:#181818;stroke-width:0.5;" width="252.8779" x="622.56" y="304.6"/><rect fill="#F1F1F1" height="10" style="stroke:#181818;stroke-width:0.5;" width="15" x="855.4379" y="309.6"/><rect fill="#F1F1F1" height="2" style="stroke:#181818;stroke-width:0.5;" width="4" x="853.4379" y="311.6"/><rect fill="#F1F1F1" height="2" style="stroke:#181818;stroke-width:0.5;" width="4" x="853.4379" y="315.6"/><text fill="#000000" font-family="sans-serif" font-size="14" lengthAdjust="spacing" textLength="212.8779" x="637.56" y="337.5951">System Instance Management</text></g><!--entity External S2S Projects--><g class="entity" data-entity="External S2S Projects" data-source-line="14" data-uid="ent0011" id="entity_External S2S Projects"><rect fill="#F1F1F1" height="46.2969" rx="2.5" ry="2.5" style="stroke:#181818;stroke-width:0.5;" width="189.6592" x="207.17" y="455.89"/><rect fill="#F1F1F1" height="10" style="stroke:#181818;stroke-width:0.5;" width="15" x="376.8292" y="460.89"/><rect fill="#F1F1F1" height="2" style="stroke:#181818;stroke-width:0.5;" width="4" x="374.8292" y="462.89"/><rect fill="#F1F1F1" height="2" style="stroke:#181818;stroke-width:0.5;" width="4" x="374.8292" y="466.89"/><text fill="#000000" font-family="sans-serif" font-size="14" lengthAdjust="spacing" textLength="149.6592" x="222.17" y="488.8851">External S2S Projects</text></g><!--link Web Browser to Space Fractions System--><g class="link" data-entity-1="Web Browser" data-entity-2="Space Fractions System" data-source-line="17" data-uid="lnk12" id="link_Web Browser_Space Fractions System"><path d="M399,92.5 C399,120.65 399,162.73 399,190.94" fill="none" id="Web Browser-to-Space Fractions System" style="stroke:#181818;stroke-width:1;"/><polygon fill="#181818" points="399,196.94,403,187.94,399,191.94,395,187.94,399,196.94" style="stroke:#181818;stroke-width:1;"/><text fill="#000000" font-family="sans-serif" font-size="13" lengthAdjust="spacing" textLength="79.625" x="400" y="137.3669">HTTP/HTTPS</text></g><!--link Space Fractions System to Question Updater--><g class="link" data-entity-1="Space Fractions System" data-entity-2="Question Updater" data-source-line="18" data-uid="lnk13" id="link_Space Fractions System_Question Updater"><path d="M337.86,244.04 C289.77,261.8 228.7284,284.3613 180.6684,302.1113" fill="none" id="Space Fractions System-to-Question Updater" style="stroke:#181818;stroke-width:1;"/><polygon fill="#181818" points="175.04,304.19,184.8684,304.8242,179.7303,302.4577,182.0968,297.3196,175.04,304.19" style="stroke:#181818;stroke-width:1;"/></g><!--link Space Fractions System to Math Umbrella--><g class="link" data-entity-1="Space Fractions System" data-entity-2="Math Umbrella" data-source-line="19" data-uid="lnk14" id="link_Space Fractions System_Math Umbrella"><path d="M378.19,244.04 C361.82,261.8 343.1964,282.0281 326.8364,299.7781" fill="none" id="Space Fractions System-to-Math Umbrella" style="stroke:#181818;stroke-width:1;"/><polygon fill="#181818" points="322.77,304.19,331.8108,300.2831,326.1586,300.5134,325.9283,294.8613,322.77,304.19" style="stroke:#181818;stroke-width:1;"/></g><!--link Space Fractions System to User Authentication--><g class="link" data-entity-1="Space Fractions System" data-entity-2="User Authentication" data-source-line="20" data-uid="lnk15" id="link_Space Fractions System_User Authentication"><path d="M420.24,244.04 C436.94,261.8 455.9886,282.0701 472.6886,299.8201" fill="none" id="Space Fractions System-to-User Authentication" style="stroke:#181818;stroke-width:1;"/><polygon fill="#181818" points="476.8,304.19,473.5462,294.8942,473.3738,300.5484,467.7196,300.3761,476.8,304.19" style="stroke:#181818;stroke-width:1;"/></g><!--link Space Fractions System to System Instance Management--><g class="link" data-entity-1="Space Fractions System" data-entity-2="System Instance Management" data-source-line="21" data-uid="lnk16" id="link_Space Fractions System_System Instance Management"><path d="M474.08,244.04 C533.04,261.77 608.9944,284.6214 667.9944,302.3714" fill="none" id="Space Fractions System-to-System Instance Management" style="stroke:#181818;stroke-width:1;"/><polygon fill="#181818" points="673.74,304.1,666.2739,297.6768,668.952,302.6595,663.9692,305.3376,673.74,304.1" style="stroke:#181818;stroke-width:1;"/></g><!--link Math Umbrella to External S2S Projects--><g class="link" data-entity-1="Math Umbrella" data-entity-2="External S2S Projects" data-source-line="22" data-uid="lnk17" id="link_Math Umbrella_External S2S Projects"><path d="M302,351.1 C302,379.24 302,421.32 302,449.54" fill="none" id="Math Umbrella-to-External S2S Projects" style="stroke:#181818;stroke-width:1;"/><polygon fill="#181818" points="302,455.54,306,446.54,302,450.54,298,446.54,302,455.54" style="stroke:#181818;stroke-width:1;"/><text fill="#000000" font-family="sans-serif" font-size="13" lengthAdjust="spacing" textLength="58.4429" x="303" y="395.9569">API/HTTP</text></g><!--SRC=[VL3B2i8m4BpdAvRUHV3eGL1Kx46enk91FAnnqKgRI9BwGFntaoYYrVQoXzcPsTcHQaiGfOOq3EcK2OhWnW1MIzh0GAkpMwpPdJ4PUBp3WPC-aNxH-145mLYZi9cI1lZLM2hMVZKhoNWGqkCMhRTnu1Jj7j9YeodFCI3XTB-qUv8s4-WL0NywGIoDHUbkJ57YZWh7-iWpkZXZYJdCoQXI2pAlNE-5JvneTI1XJH1-VGQjLg_s2UZ2PB58sdvmLiiA5h_FDlChFJIJ_rRKB6bghtByAVXVcAkWdyIXWGS0]--></g></svg>