<svg xmlns="http://www.w3.org/2000/svg" xmlns:xlink="http://www.w3.org/1999/xlink" contentStyleType="text/css" data-diagram-type="DESCRIPTION" height="463px" preserveAspectRatio="none" style="width:1184px;height:463px;background:#FFFFFF;" version="1.1" viewBox="0 0 1184 463" width="1184px" zoomAndPan="magnify"><defs/><g><!--cluster Space Fractions System--><g class="cluster" data-entity="Space Fractions System" data-source-line="1" data-uid="ent0002" id="cluster_Space Fractions System"><path d="M8.5,6 L198.5342,6 A3.75,3.75 0 0 1 201.0342,8.5 L208.0342,28.2969 L1174.5,28.2969 A2.5,2.5 0 0 1 1177,30.7969 L1177,346.09 A2.5,2.5 0 0 1 1174.5,348.59 L8.5,348.59 A2.5,2.5 0 0 1 6,346.09 L6,8.5 A2.5,2.5 0 0 1 8.5,6" fill="none" style="stroke:#000000;stroke-width:1.5;"/><line style="stroke:#000000;stroke-width:1.5;" x1="6" x2="208.0342" y1="28.2969" y2="28.2969"/><text fill="#000000" font-family="sans-serif" font-size="14" font-weight="bold" lengthAdjust="spacing" textLength="189.0342" x="10" y="20.9951">Space Fractions System</text></g><!--cluster Web Application--><g class="cluster" data-entity="Web Application" data-source-line="2" data-uid="ent0003" id="cluster_Web Application"><rect fill="none" height="113.3" rx="2.5" ry="2.5" style="stroke:#181818;stroke-width:1;" width="531" x="120" y="57"/><polygon fill="none" points="634,62,634,76,646,76,646,68,640,62,634,62" style="stroke:#181818;stroke-width:1;"/><line style="stroke:#181818;stroke-width:1;" x1="640" x2="640" y1="62" y2="68"/><line style="stroke:#181818;stroke-width:1;" x1="646" x2="640" y1="68" y2="68"/><text fill="#000000" font-family="sans-serif" font-size="14" font-weight="bold" lengthAdjust="spacing" textLength="129.1309" x="320.9346" y="71.9951">Web Application</text></g><!--cluster Backend Services--><g class="cluster" data-entity="Backend Services" data-source-line="7" data-uid="ent0006" id="cluster_Backend Services"><rect fill="none" height="97.29" rx="2.5" ry="2.5" style="stroke:#181818;stroke-width:1;" width="867" x="30" y="227.3"/><polygon fill="none" points="880,232.3,880,246.3,892,246.3,892,238.3,886,232.3,880,232.3" style="stroke:#181818;stroke-width:1;"/><line style="stroke:#181818;stroke-width:1;" x1="886" x2="886" y1="232.3" y2="238.3"/><line style="stroke:#181818;stroke-width:1;" x1="892" x2="886" y1="238.3" y2="238.3"/><text fill="#000000" font-family="sans-serif" font-size="14" font-weight="bold" lengthAdjust="spacing" textLength="138.6191" x="394.1904" y="242.2951">Backend Services</text></g><!--cluster External Integration--><g class="cluster" data-entity="External Integration" data-source-line="13" data-uid="ent0010" id="cluster_External Integration"><rect fill="none" height="97.29" rx="2.5" ry="2.5" style="stroke:#181818;stroke-width:1;" width="232" x="921" y="227.3"/><polygon fill="none" points="1136,232.3,1136,246.3,1148,246.3,1148,238.3,1142,232.3,1136,232.3" style="stroke:#181818;stroke-width:1;"/><line style="stroke:#181818;stroke-width:1;" x1="1142" x2="1142" y1="232.3" y2="238.3"/><line style="stroke:#181818;stroke-width:1;" x1="1148" x2="1142" y1="238.3" y2="238.3"/><text fill="#000000" font-family="sans-serif" font-size="14" font-weight="bold" lengthAdjust="spacing" textLength="159.585" x="957.2075" y="242.2951">External Integration</text></g><!--entity Main Game Sequence--><g class="entity" data-entity="Main Game Sequence" data-source-line="3" data-uid="ent0004" id="entity_Main Game Sequence"><rect fill="#F1F1F1" height="46.2969" rx="2.5" ry="2.5" style="stroke:#181818;stroke-width:0.5;" width="193.0566" x="144.47" y="100"/><rect fill="#F1F1F1" height="10" style="stroke:#181818;stroke-width:0.5;" width="15" x="317.5266" y="105"/><rect fill="#F1F1F1" height="2" style="stroke:#181818;stroke-width:0.5;" width="4" x="315.5266" y="107"/><rect fill="#F1F1F1" height="2" style="stroke:#181818;stroke-width:0.5;" width="4" x="315.5266" y="111"/><text fill="#000000" font-family="sans-serif" font-size="14" lengthAdjust="spacing" textLength="153.0566" x="159.47" y="132.9951">Main Game Sequence</text></g><!--entity Content Update Mechanism--><g class="entity" data-entity="Content Update Mechanism" data-source-line="4" data-uid="ent0005" id="entity_Content Update Mechanism"><rect fill="#F1F1F1" height="46.2969" rx="2.5" ry="2.5" style="stroke:#181818;stroke-width:0.5;" width="234.8174" x="372.59" y="100"/><rect fill="#F1F1F1" height="10" style="stroke:#181818;stroke-width:0.5;" width="15" x="587.4074" y="105"/><rect fill="#F1F1F1" height="2" style="stroke:#181818;stroke-width:0.5;" width="4" x="585.4074" y="107"/><rect fill="#F1F1F1" height="2" style="stroke:#181818;stroke-width:0.5;" width="4" x="585.4074" y="111"/><text fill="#000000" font-family="sans-serif" font-size="14" lengthAdjust="spacing" textLength="194.8174" x="387.59" y="132.9951">Content Update Mechanism</text></g><!--entity Question Updater Service--><g class="entity" data-entity="Question Updater Service" data-source-line="8" data-uid="ent0007" id="entity_Question Updater Service"><rect fill="#F1F1F1" height="46.2969" rx="2.5" ry="2.5" style="stroke:#181818;stroke-width:0.5;" width="219.7168" x="46.14" y="262.3"/><rect fill="#F1F1F1" height="10" style="stroke:#181818;stroke-width:0.5;" width="15" x="245.8568" y="267.3"/><rect fill="#F1F1F1" height="2" style="stroke:#181818;stroke-width:0.5;" width="4" x="243.8568" y="269.3"/><rect fill="#F1F1F1" height="2" style="stroke:#181818;stroke-width:0.5;" width="4" x="243.8568" y="273.3"/><text fill="#000000" font-family="sans-serif" font-size="14" lengthAdjust="spacing" textLength="179.7168" x="61.14" y="295.2951">Question Updater Service</text></g><!--entity User Authentication Service--><g class="entity" data-entity="User Authentication Service" data-source-line="9" data-uid="ent0008" id="entity_User Authentication Service"><rect fill="#F1F1F1" height="46.2969" rx="2.5" ry="2.5" style="stroke:#181818;stroke-width:0.5;" width="235.3232" x="301.34" y="262.3"/><rect fill="#F1F1F1" height="10" style="stroke:#181818;stroke-width:0.5;" width="15" x="516.6632" y="267.3"/><rect fill="#F1F1F1" height="2" style="stroke:#181818;stroke-width:0.5;" width="4" x="514.6632" y="269.3"/><rect fill="#F1F1F1" height="2" style="stroke:#181818;stroke-width:0.5;" width="4" x="514.6632" y="273.3"/><text fill="#000000" font-family="sans-serif" font-size="14" lengthAdjust="spacing" textLength="195.3232" x="316.34" y="295.2951">User Authentication Service</text></g><!--entity System Instance Management Service--><g class="entity" data-entity="System Instance Management Service" data-source-line="10" data-uid="ent0009" id="entity_System Instance Management Service"><rect fill="#F1F1F1" height="46.2969" rx="2.5" ry="2.5" style="stroke:#181818;stroke-width:0.5;" width="309.0693" x="571.47" y="262.3"/><rect fill="#F1F1F1" height="10" style="stroke:#181818;stroke-width:0.5;" width="15" x="860.5393" y="267.3"/><rect fill="#F1F1F1" height="2" style="stroke:#181818;stroke-width:0.5;" width="4" x="858.5393" y="269.3"/><rect fill="#F1F1F1" height="2" style="stroke:#181818;stroke-width:0.5;" width="4" x="858.5393" y="273.3"/><text fill="#000000" font-family="sans-serif" font-size="14" lengthAdjust="spacing" textLength="269.0693" x="586.47" y="295.2951">System Instance Management Service</text></g><!--entity Math Umbrella Service--><g class="entity" data-entity="Math Umbrella Service" data-source-line="14" data-uid="ent0011" id="entity_Math Umbrella Service"><rect fill="#F1F1F1" height="46.2969" rx="2.5" ry="2.5" style="stroke:#181818;stroke-width:0.5;" width="199.1611" x="937.42" y="262.3"/><rect fill="#F1F1F1" height="10" style="stroke:#181818;stroke-width:0.5;" width="15" x="1116.5811" y="267.3"/><rect fill="#F1F1F1" height="2" style="stroke:#181818;stroke-width:0.5;" width="4" x="1114.5811" y="269.3"/><rect fill="#F1F1F1" height="2" style="stroke:#181818;stroke-width:0.5;" width="4" x="1114.5811" y="273.3"/><text fill="#000000" font-family="sans-serif" font-size="14" lengthAdjust="spacing" textLength="159.1611" x="952.42" y="295.2951">Math Umbrella Service</text></g><!--entity External S2S Projects--><g class="entity" data-entity="External S2S Projects" data-source-line="22" data-uid="ent0016" id="entity_External S2S Projects"><rect fill="#F1F1F1" height="46.2969" rx="2.5" ry="2.5" style="stroke:#181818;stroke-width:0.5;" width="189.6592" x="942.17" y="411.59"/><rect fill="#F1F1F1" height="10" style="stroke:#181818;stroke-width:0.5;" width="15" x="1111.8292" y="416.59"/><rect fill="#F1F1F1" height="2" style="stroke:#181818;stroke-width:0.5;" width="4" x="1109.8292" y="418.59"/><rect fill="#F1F1F1" height="2" style="stroke:#181818;stroke-width:0.5;" width="4" x="1109.8292" y="422.59"/><text fill="#000000" font-family="sans-serif" font-size="14" lengthAdjust="spacing" textLength="149.6592" x="957.17" y="444.5851">External S2S Projects</text></g><!--link Web Application to Question Updater Service--><g class="link" data-entity-1="Web Application" data-entity-2="Question Updater Service" data-source-line="18" data-uid="lnk12" id="link_Web Application_Question Updater Service"><path d="M635.068,170.569 C635.0206,170.6685 634.973,170.7679 634.9252,170.8671 C634.7337,171.264 634.5378,171.6585 634.3373,172.0504 C633.9365,172.8343 633.5177,173.6076 633.08,174.3686 C632.2048,175.8904 631.2542,177.3626 630.2221,178.7694 C628.158,181.583 625.7675,184.135 623,186.3 C612.65,194.39 518.09,193.11 505,194.3 C406.55,203.2 378.67,190.87 284,219.3 C251.16,229.16 221.8444,244.1827 196.9544,258.7927" fill="none" id="Web Application-to-Question Updater Service" style="stroke:#181818;stroke-width:1;"/><polygon fill="#181818" points="191.78,261.83,201.5665,260.7237,196.092,259.2989,197.5168,253.8244,191.78,261.83" style="stroke:#181818;stroke-width:1;"/><text fill="#000000" font-family="sans-serif" font-size="13" lengthAdjust="spacing" textLength="58.1382" x="506" y="207.3669">REST API</text></g><!--link Web Application to User Authentication Service--><g class="link" data-entity-1="Web Application" data-entity-2="User Authentication Service" data-source-line="19" data-uid="lnk13" id="link_Web Application_User Authentication Service"><path d="M632.8506,170.4812 C632.4824,171.2996 632.101,172.1125 631.7057,172.9182 C630.9153,174.5297 630.0697,176.1127 629.1652,177.6541 C627.3561,180.737 625.3113,183.6538 623,186.3 C617.41,192.7 561.66,215.62 554,219.3 C524.56,233.44 496.9422,246.7592 470.9322,259.3292" fill="none" id="Web Application-to-User Authentication Service" style="stroke:#181818;stroke-width:1;"/><polygon fill="#181818" points="465.53,261.94,475.3738,261.6253,470.0318,259.7644,471.8928,254.4224,465.53,261.94" style="stroke:#181818;stroke-width:1;"/><text fill="#000000" font-family="sans-serif" font-size="13" lengthAdjust="spacing" textLength="58.1382" x="610" y="207.3669">REST API</text></g><!--link Web Application to System Instance Management Service--><g class="link" data-entity-1="Web Application" data-entity-2="System Instance Management Service" data-source-line="20" data-uid="lnk14" id="link_Web Application_System Instance Management Service"><path d="M651.1807,139.948 C651.2568,140.095 651.3333,140.2429 651.4103,140.3916 C651.5643,140.6889 651.72,140.9896 651.8773,141.2936 C656.9134,151.0203 663.6819,164.0919 671.0888,178.3962 C685.9025,207.005 700.5114,235.2168 711.6814,256.7918" fill="none" id="Web Application-to-System Instance Management Service" style="stroke:#181818;stroke-width:1;"/><polygon fill="#181818" points="714.44,262.12,713.8543,252.2886,712.1412,257.6798,706.75,255.9667,714.44,262.12" style="stroke:#181818;stroke-width:1;"/><text fill="#000000" font-family="sans-serif" font-size="13" lengthAdjust="spacing" textLength="58.1382" x="688" y="207.3669">REST API</text></g><!--link Web Application to Math Umbrella Service--><g class="link" data-entity-1="Web Application" data-entity-2="Math Umbrella Service" data-source-line="21" data-uid="lnk15" id="link_Web Application_Math Umbrella Service"><path d="M651.1964,126.9563 C651.3393,127.0055 651.484,127.0554 651.6304,127.1059 C651.9232,127.2068 652.223,127.3102 652.5296,127.4161 C653.1428,127.6277 653.7834,127.849 654.4509,128.0797 C655.7858,128.5411 657.2278,129.0404 658.772,129.5761 C661.8602,130.6475 665.3569,131.8644 669.2213,133.215 C684.6788,138.6175 706.02,146.16 730.645,155.09 C779.895,172.95 842.28,196.36 897,219.3 C928.65,232.56 958.2386,246.2582 985.3186,259.2282" fill="none" id="Web Application-to-Math Umbrella Service" style="stroke:#181818;stroke-width:1;"/><polygon fill="#181818" points="990.73,261.82,984.3408,254.3248,986.2205,259.6602,980.8851,261.5399,990.73,261.82" style="stroke:#181818;stroke-width:1;"/><text fill="#000000" font-family="sans-serif" font-size="13" lengthAdjust="spacing" textLength="58.1382" x="878" y="207.3669">REST API</text></g><!--link Math Umbrella Service to External S2S Projects--><g class="link" data-entity-1="Math Umbrella Service" data-entity-2="External S2S Projects" data-source-line="22" data-uid="lnk17" id="link_Math Umbrella Service_External S2S Projects"><path d="M1037,308.82 C1037,336.5 1037,377.38 1037,405.16" fill="none" id="Math Umbrella Service-to-External S2S Projects" style="stroke:#181818;stroke-width:1;"/><polygon fill="#181818" points="1037,411.16,1041,402.16,1037,406.16,1033,402.16,1037,411.16" style="stroke:#181818;stroke-width:1;"/><text fill="#000000" font-family="sans-serif" font-size="13" lengthAdjust="spacing" textLength="58.4429" x="1038" y="377.6569">API/HTTP</text></g><!--SRC=[ZL3DJeD04Bxp51FkZOb73oPeglP0Gbs8XwQ7wNOiQs71tS5eJD_TGR0Hj0s7lUptFpNgFUu8GbMZ9hXpgDbKreFwy4nb29y103espm90-4GRYEgwC1fRMWS3h68q5kwn953qsf3LjEw0syeoMOQitY8JnAHpjCQNBNoGDt2_aJ9aj-BXtemcVxHVDkJRlDx6_J3waCpBLzHmBabzin6ZMmCBwncb7CHePNNPDlj5_5De_YvX5WiHCktSU3Fda9KRHqM1Gvj34An6frh3R7PzPWbSmUDSfH0bYrFQSpCdo2VSO8BB_wi7mXEKR_dnekfIGUAg5zBiMxaeBnxIDFa2]--></g></svg>