<svg xmlns="http://www.w3.org/2000/svg" xmlns:xlink="http://www.w3.org/1999/xlink" contentStyleType="text/css" data-diagram-type="SEQUENCE" height="489px" preserveAspectRatio="none" style="width:644px;height:489px;background:#FFFFFF;" version="1.1" viewBox="0 0 644 489" width="644px" zoomAndPan="magnify"><defs/><g><rect fill="none" height="133.6641" style="stroke:#000000;stroke-width:1.5;" width="628.1812" x="10" y="169.8281"/><rect fill="none" height="119.3359" style="stroke:#000000;stroke-width:1.5;" width="284.2354" x="10" y="317.4922"/><g><title>User</title><rect fill="#000000" fill-opacity="0.00000" height="417.5313" width="8" x="38.9551" y="36.2969"/><line style="stroke:#181818;stroke-width:0.5;stroke-dasharray:5,5;" x1="42" x2="42" y1="36.2969" y2="453.8281"/></g><g><title>System</title><rect fill="#000000" fill-opacity="0.00000" height="417.5313" width="8" x="247.1323" y="36.2969"/><line style="stroke:#181818;stroke-width:0.5;stroke-dasharray:5,5;" x1="251.0293" x2="251.0293" y1="36.2969" y2="453.8281"/></g><g><title>QuestionUpdater</title><rect fill="#000000" fill-opacity="0.00000" height="417.5313" width="8" x="435.124" y="36.2969"/><line style="stroke:#181818;stroke-width:0.5;stroke-dasharray:5,5;" x1="438.5864" x2="438.5864" y1="36.2969" y2="453.8281"/></g><g><title>MathUmbrella</title><rect fill="#000000" fill-opacity="0.00000" height="417.5313" width="8" x="567.9214" y="36.2969"/><line style="stroke:#181818;stroke-width:0.5;stroke-dasharray:5,5;" x1="571.6616" x2="571.6616" y1="36.2969" y2="453.8281"/></g><g class="participant participant-head" data-participant="User"><rect fill="#E2E2F0" height="30.2969" rx="2.5" ry="2.5" style="stroke:#181818;stroke-width:0.5;" width="45.9102" x="20" y="5"/><text fill="#000000" font-family="sans-serif" font-size="14" lengthAdjust="spacing" textLength="31.9102" x="27" y="24.9951">User</text></g><g class="participant participant-tail" data-participant="User"><rect fill="#E2E2F0" height="30.2969" rx="2.5" ry="2.5" style="stroke:#181818;stroke-width:0.5;" width="45.9102" x="20" y="452.8281"/><text fill="#000000" font-family="sans-serif" font-size="14" lengthAdjust="spacing" textLength="31.9102" x="27" y="472.8232">User</text></g><g class="participant participant-head" data-participant="System"><rect fill="#E2E2F0" height="30.2969" rx="2.5" ry="2.5" style="stroke:#181818;stroke-width:0.5;" width="66.2061" x="218.0293" y="5"/><text fill="#000000" font-family="sans-serif" font-size="14" lengthAdjust="spacing" textLength="52.2061" x="225.0293" y="24.9951">System</text></g><g class="participant participant-tail" data-participant="System"><rect fill="#E2E2F0" height="30.2969" rx="2.5" ry="2.5" style="stroke:#181818;stroke-width:0.5;" width="66.2061" x="218.0293" y="452.8281"/><text fill="#000000" font-family="sans-serif" font-size="14" lengthAdjust="spacing" textLength="52.2061" x="225.0293" y="472.8232">System</text></g><g class="participant participant-head" data-participant="QuestionUpdater"><rect fill="#E2E2F0" height="30.2969" rx="2.5" ry="2.5" style="stroke:#181818;stroke-width:0.5;" width="133.0752" x="372.5864" y="5"/><text fill="#000000" font-family="sans-serif" font-size="14" lengthAdjust="spacing" textLength="119.0752" x="379.5864" y="24.9951">QuestionUpdater</text></g><g class="participant participant-tail" data-participant="QuestionUpdater"><rect fill="#E2E2F0" height="30.2969" rx="2.5" ry="2.5" style="stroke:#181818;stroke-width:0.5;" width="133.0752" x="372.5864" y="452.8281"/><text fill="#000000" font-family="sans-serif" font-size="14" lengthAdjust="spacing" textLength="119.0752" x="379.5864" y="472.8232">QuestionUpdater</text></g><g class="participant participant-head" data-participant="MathUmbrella"><rect fill="#E2E2F0" height="30.2969" rx="2.5" ry="2.5" style="stroke:#181818;stroke-width:0.5;" width="112.5195" x="515.6616" y="5"/><text fill="#000000" font-family="sans-serif" font-size="14" lengthAdjust="spacing" textLength="98.5195" x="522.6616" y="24.9951">MathUmbrella</text></g><g class="participant participant-tail" data-participant="MathUmbrella"><rect fill="#E2E2F0" height="30.2969" rx="2.5" ry="2.5" style="stroke:#181818;stroke-width:0.5;" width="112.5195" x="515.6616" y="452.8281"/><text fill="#000000" font-family="sans-serif" font-size="14" lengthAdjust="spacing" textLength="98.5195" x="522.6616" y="472.8232">MathUmbrella</text></g><g class="message" data-participant-1="User" data-participant-2="System"><polygon fill="#181818" points="239.1323,63.4297,249.1323,67.4297,239.1323,71.4297,243.1323,67.4297" style="stroke:#181818;stroke-width:1;"/><line style="stroke:#181818;stroke-width:1;" x1="42.9551" x2="245.1323" y1="67.4297" y2="67.4297"/><text fill="#000000" font-family="sans-serif" font-size="13" lengthAdjust="spacing" textLength="74.5913" x="49.9551" y="62.3638">Start Game</text></g><g class="message" data-participant-1="System" data-participant-2="QuestionUpdater"><polygon fill="#181818" points="427.124,92.5625,437.124,96.5625,427.124,100.5625,431.124,96.5625" style="stroke:#181818;stroke-width:1;"/><line style="stroke:#181818;stroke-width:1;" x1="251.1323" x2="433.124" y1="96.5625" y2="96.5625"/><text fill="#000000" font-family="sans-serif" font-size="13" lengthAdjust="spacing" textLength="119.9834" x="258.1323" y="91.4966">Check for Updates</text></g><g class="message" data-participant-1="QuestionUpdater" data-participant-2="System"><polygon fill="#181818" points="262.1323,121.6953,252.1323,125.6953,262.1323,129.6953,258.1323,125.6953" style="stroke:#181818;stroke-width:1;"/><line style="stroke:#181818;stroke-width:1;" x1="256.1323" x2="438.124" y1="125.6953" y2="125.6953"/><text fill="#000000" font-family="sans-serif" font-size="13" lengthAdjust="spacing" textLength="163.9917" x="268.1323" y="120.6294">Provide Updated Content</text></g><g class="message" data-participant-1="System" data-participant-2="User"><polygon fill="#181818" points="53.9551,150.8281,43.9551,154.8281,53.9551,158.8281,49.9551,154.8281" style="stroke:#181818;stroke-width:1;"/><line style="stroke:#181818;stroke-width:1;" x1="47.9551" x2="250.1323" y1="154.8281" y2="154.8281"/><text fill="#000000" font-family="sans-serif" font-size="13" lengthAdjust="spacing" textLength="142.5049" x="59.9551" y="149.7622">Load Game Sequence</text></g><path d="M10,169.8281 L86.624,169.8281 L86.624,176.9609 L76.624,186.9609 L10,186.9609 L10,169.8281" fill="#EEEEEE" style="stroke:#000000;stroke-width:1.5;"/><rect fill="none" height="133.6641" style="stroke:#000000;stroke-width:1.5;" width="628.1812" x="10" y="169.8281"/><text fill="#000000" font-family="sans-serif" font-size="13" font-weight="bold" lengthAdjust="spacing" textLength="31.624" x="25" y="182.895">loop</text><text fill="#000000" font-family="sans-serif" font-size="11" font-weight="bold" lengthAdjust="spacing" textLength="96.8945" x="101.624" y="182.0386">[Game Session]</text><g class="message" data-participant-1="User" data-participant-2="System"><polygon fill="#181818" points="239.1323,204.0938,249.1323,208.0938,239.1323,212.0938,243.1323,208.0938" style="stroke:#181818;stroke-width:1;"/><line style="stroke:#181818;stroke-width:1;" x1="42.9551" x2="245.1323" y1="208.0938" y2="208.0938"/><text fill="#000000" font-family="sans-serif" font-size="13" lengthAdjust="spacing" textLength="125.271" x="49.9551" y="203.0278">Interact with Game</text></g><g class="message" data-participant-1="System" data-participant-2="MathUmbrella"><polygon fill="#181818" points="559.9214,233.2266,569.9214,237.2266,559.9214,241.2266,563.9214,237.2266" style="stroke:#181818;stroke-width:1;"/><line style="stroke:#181818;stroke-width:1;" x1="251.1323" x2="565.9214" y1="237.2266" y2="237.2266"/><text fill="#000000" font-family="sans-serif" font-size="13" lengthAdjust="spacing" textLength="174.4209" x="258.1323" y="232.1606">Access External Resources</text></g><g class="message" data-participant-1="MathUmbrella" data-participant-2="System"><polygon fill="#181818" points="262.1323,262.3594,252.1323,266.3594,262.1323,270.3594,258.1323,266.3594" style="stroke:#181818;stroke-width:1;"/><line style="stroke:#181818;stroke-width:1;" x1="256.1323" x2="570.9214" y1="266.3594" y2="266.3594"/><text fill="#000000" font-family="sans-serif" font-size="13" lengthAdjust="spacing" textLength="113.312" x="268.1323" y="261.2935">Provide Resource</text></g><g class="message" data-participant-1="System" data-participant-2="User"><polygon fill="#181818" points="53.9551,291.4922,43.9551,295.4922,53.9551,299.4922,49.9551,295.4922" style="stroke:#181818;stroke-width:1;"/><line style="stroke:#181818;stroke-width:1;" x1="47.9551" x2="250.1323" y1="295.4922" y2="295.4922"/><text fill="#000000" font-family="sans-serif" font-size="13" lengthAdjust="spacing" textLength="112.5376" x="59.9551" y="290.4263">Display Resource</text></g><path d="M10,317.4922 L74.4429,317.4922 L74.4429,324.625 L64.4429,334.625 L10,334.625 L10,317.4922" fill="#EEEEEE" style="stroke:#000000;stroke-width:1.5;"/><rect fill="none" height="119.3359" style="stroke:#000000;stroke-width:1.5;" width="284.2354" x="10" y="317.4922"/><text fill="#000000" font-family="sans-serif" font-size="13" font-weight="bold" lengthAdjust="spacing" textLength="19.4429" x="25" y="330.5591">alt</text><text fill="#000000" font-family="sans-serif" font-size="11" font-weight="bold" lengthAdjust="spacing" textLength="84.7397" x="89.4429" y="329.7026">[Session End]</text><g class="message" data-participant-1="System" data-participant-2="User"><polygon fill="#181818" points="53.9551,351.7578,43.9551,355.7578,53.9551,359.7578,49.9551,355.7578" style="stroke:#181818;stroke-width:1;"/><line style="stroke:#181818;stroke-width:1;" x1="47.9551" x2="250.1323" y1="355.7578" y2="355.7578"/><text fill="#000000" font-family="sans-serif" font-size="13" lengthAdjust="spacing" textLength="184.1772" x="59.9551" y="350.6919">Provide Personalized Ending</text></g><g class="message" data-participant-1="User" data-participant-2="System"><polygon fill="#181818" points="239.1323,380.8906,249.1323,384.8906,239.1323,388.8906,243.1323,384.8906" style="stroke:#181818;stroke-width:1;"/><line style="stroke:#181818;stroke-width:1;" x1="42.9551" x2="245.1323" y1="384.8906" y2="384.8906"/><text fill="#000000" font-family="sans-serif" font-size="13" lengthAdjust="spacing" textLength="159.3071" x="49.9551" y="379.8247">Choose to Revisit or Exit</text></g><line style="stroke:#000000;stroke-width:1;stroke-dasharray:2,2;" x1="10" x2="294.2354" y1="393.8906" y2="393.8906"/><text fill="#000000" font-family="sans-serif" font-size="11" font-weight="bold" lengthAdjust="spacing" textLength="65.667" x="15" y="404.1011">[Continue]</text><g class="message" data-participant-1="User" data-participant-2="System"><polygon fill="#181818" points="239.1323,424.8281,249.1323,428.8281,239.1323,432.8281,243.1323,428.8281" style="stroke:#181818;stroke-width:1;"/><line style="stroke:#181818;stroke-width:1;" x1="42.9551" x2="245.1323" y1="428.8281" y2="428.8281"/><text fill="#000000" font-family="sans-serif" font-size="13" lengthAdjust="spacing" textLength="101.2896" x="49.9551" y="423.7622">Continue Game</text></g><!--SRC=[RP5HJiGm34J_SmfVW0lq0mcL2Y61j53r024rr2ADG-8kkvmUbxRQRkdlUEPbx4IRX1n56mIQZCd4bL2Vis1_9RqCc8KuDB6rih4_M-cQ_YsXzzQOaGOtjpEaW5hK2W-sHpD9ut23Aw3iq7t2EoUOf6msbZNoaFX8BSxM5aeEWa5M_B540Kzisx-NeSQl0OD3OpnpNBISbMy0jfKV5PUi4_WcwQRg01VuUjy2xfnJ45GdpGJhuHKp3qarpQoTUmiitYlyrFsUSlJsVB5WQ8snNfRUKAdmFxUW3vWoQn_wqGEfbSB7pgPbnvmHXFMT8sKIq1-eJYG6lUhZOIaCk9USHzDvjDml]--></g></svg>