<svg xmlns="http://www.w3.org/2000/svg" xmlns:xlink="http://www.w3.org/1999/xlink" contentStyleType="text/css" data-diagram-type="ACTIVITY" height="730px" preserveAspectRatio="none" style="width:432px;height:730px;background:#FFFFFF;" version="1.1" viewBox="0 0 432 730" width="432px" zoomAndPan="magnify"><defs/><g><ellipse cx="201.6816" cy="20" fill="#222222" rx="10" ry="10" style="stroke:#222222;stroke-width:1;"/><rect fill="#F1F1F1" height="33.9688" rx="12.5" ry="12.5" style="stroke:#181818;stroke-width:0.5;" width="118.7832" x="142.29" y="50"/><text fill="#000000" font-family="sans-serif" font-size="12" lengthAdjust="spacing" textLength="98.7832" x="152.29" y="71.1387">Initialize System</text><rect fill="#F1F1F1" height="33.9688" rx="12.5" ry="12.5" style="stroke:#181818;stroke-width:0.5;" width="175.8066" x="113.7783" y="103.9688"/><text fill="#000000" font-family="sans-serif" font-size="12" lengthAdjust="spacing" textLength="155.8066" x="123.7783" y="125.1074">Load Educational Material</text><rect fill="#F1F1F1" height="33.9688" rx="12.5" ry="12.5" style="stroke:#181818;stroke-width:0.5;" width="227.0938" x="88.1348" y="201.9375"/><text fill="#000000" font-family="sans-serif" font-size="12" lengthAdjust="spacing" textLength="207.0938" x="98.1348" y="223.0762">Check for New or Revised Material</text><polygon fill="#F1F1F1" points="135.7085,255.9063,267.6548,255.9063,279.6548,267.9063,267.6548,279.9063,135.7085,279.9063,123.7085,267.9063,135.7085,255.9063" style="stroke:#181818;stroke-width:0.5;"/><text fill="#000000" font-family="sans-serif" font-size="11" lengthAdjust="spacing" textLength="131.9463" x="135.7085" y="271.7144">New Material Available?</text><text fill="#000000" font-family="sans-serif" font-size="11" lengthAdjust="spacing" textLength="19.0083" x="104.7002" y="265.312">yes</text><text fill="#000000" font-family="sans-serif" font-size="11" lengthAdjust="spacing" textLength="13.7017" x="279.6548" y="265.312">no</text><rect fill="#F1F1F1" height="33.9688" rx="12.5" ry="12.5" style="stroke:#181818;stroke-width:0.5;" width="166.0039" x="20.5977" y="289.9063"/><text fill="#000000" font-family="sans-serif" font-size="12" lengthAdjust="spacing" textLength="146.0039" x="30.5977" y="311.0449">Update Game Sequence</text><rect fill="#F1F1F1" height="33.9688" rx="12.5" ry="12.5" style="stroke:#181818;stroke-width:0.5;" width="186.3242" x="206.6016" y="289.9063"/><text fill="#000000" font-family="sans-serif" font-size="12" lengthAdjust="spacing" textLength="166.3242" x="216.6016" y="311.0449">Continue Current Sequence</text><polygon fill="#F1F1F1" points="201.6816,329.875,213.6816,341.875,201.6816,353.875,189.6816,341.875,201.6816,329.875" style="stroke:#181818;stroke-width:0.5;"/><polygon fill="#F1F1F1" points="201.6816,157.9375,213.6816,169.9375,201.6816,181.9375,189.6816,169.9375,201.6816,157.9375" style="stroke:#181818;stroke-width:0.5;"/><polygon fill="#F1F1F1" points="128.1567,373.875,275.2065,373.875,287.2065,385.875,275.2065,397.875,128.1567,397.875,116.1567,385.875,128.1567,373.875" style="stroke:#181818;stroke-width:0.5;"/><text fill="#000000" font-family="sans-serif" font-size="11" lengthAdjust="spacing" textLength="147.0498" x="128.1567" y="389.6831">Material Update Required?</text><rect fill="#F1F1F1" height="33.9688" rx="12.5" ry="12.5" style="stroke:#181818;stroke-width:0.5;" width="150.6172" x="126.373" y="417.875"/><text fill="#000000" font-family="sans-serif" font-size="12" lengthAdjust="spacing" textLength="130.6172" x="136.373" y="439.0137">Engage User in Game</text><rect fill="#F1F1F1" height="33.9688" rx="12.5" ry="12.5" style="stroke:#181818;stroke-width:0.5;" width="177.2773" x="113.043" y="471.8438"/><text fill="#000000" font-family="sans-serif" font-size="12" lengthAdjust="spacing" textLength="157.2773" x="123.043" y="492.9824">Monitor User Performance</text><polygon fill="#F1F1F1" points="165.5771,525.8125,237.7861,525.8125,249.7861,537.8125,237.7861,549.8125,165.5771,549.8125,153.5771,537.8125,165.5771,525.8125" style="stroke:#181818;stroke-width:0.5;"/><text fill="#000000" font-family="sans-serif" font-size="11" lengthAdjust="spacing" textLength="72.209" x="165.5771" y="541.6206">Session End?</text><text fill="#000000" font-family="sans-serif" font-size="11" lengthAdjust="spacing" textLength="19.0083" x="134.5688" y="535.2183">yes</text><text fill="#000000" font-family="sans-serif" font-size="11" lengthAdjust="spacing" textLength="13.7017" x="249.7861" y="535.2183">no</text><rect fill="#F1F1F1" height="33.9688" rx="12.5" ry="12.5" style="stroke:#181818;stroke-width:0.5;" width="190.0098" x="17.5332" y="559.8125"/><text fill="#000000" font-family="sans-serif" font-size="12" lengthAdjust="spacing" textLength="170.0098" x="27.5332" y="580.9512">Provide Personalized Ending</text><rect fill="#F1F1F1" height="33.9688" rx="12.5" ry="12.5" style="stroke:#181818;stroke-width:0.5;" width="203.0762" x="11" y="613.7813"/><text fill="#000000" font-family="sans-serif" font-size="12" lengthAdjust="spacing" textLength="183.0762" x="21" y="634.9199">Offer Options to Revisit or Exit</text><rect fill="#F1F1F1" height="33.9688" rx="12.5" ry="12.5" style="stroke:#181818;stroke-width:0.5;" width="113.498" x="234.0762" y="559.8125"/><text fill="#000000" font-family="sans-serif" font-size="12" lengthAdjust="spacing" textLength="93.498" x="244.0762" y="580.9512">Continue Game</text><polygon fill="#F1F1F1" points="201.6816,653.75,213.6816,665.75,201.6816,677.75,189.6816,665.75,201.6816,653.75" style="stroke:#181818;stroke-width:0.5;"/><ellipse cx="201.6816" cy="708.75" fill="none" rx="11" ry="11" style="stroke:#222222;stroke-width:1;"/><ellipse cx="201.6816" cy="708.75" fill="#222222" rx="6" ry="6" style="stroke:#222222;stroke-width:1;"/><line style="stroke:#181818;stroke-width:1;" x1="201.6816" x2="201.6816" y1="30" y2="50"/><polygon fill="#181818" points="197.6816,40,201.6816,50,205.6816,40,201.6816,44" style="stroke:#181818;stroke-width:1;"/><line style="stroke:#181818;stroke-width:1;" x1="201.6816" x2="201.6816" y1="83.9688" y2="103.9688"/><polygon fill="#181818" points="197.6816,93.9688,201.6816,103.9688,205.6816,93.9688,201.6816,97.9688" style="stroke:#181818;stroke-width:1;"/><line style="stroke:#181818;stroke-width:1;" x1="123.7085" x2="103.5996" y1="267.9063" y2="267.9063"/><line style="stroke:#181818;stroke-width:1;" x1="103.5996" x2="103.5996" y1="267.9063" y2="289.9063"/><polygon fill="#181818" points="99.5996,279.9063,103.5996,289.9063,107.5996,279.9063,103.5996,283.9063" style="stroke:#181818;stroke-width:1;"/><line style="stroke:#181818;stroke-width:1;" x1="279.6548" x2="299.7637" y1="267.9063" y2="267.9063"/><line style="stroke:#181818;stroke-width:1;" x1="299.7637" x2="299.7637" y1="267.9063" y2="289.9063"/><polygon fill="#181818" points="295.7637,279.9063,299.7637,289.9063,303.7637,279.9063,299.7637,283.9063" style="stroke:#181818;stroke-width:1;"/><line style="stroke:#181818;stroke-width:1;" x1="103.5996" x2="103.5996" y1="323.875" y2="341.875"/><line style="stroke:#181818;stroke-width:1;" x1="103.5996" x2="189.6816" y1="341.875" y2="341.875"/><polygon fill="#181818" points="179.6816,337.875,189.6816,341.875,179.6816,345.875,183.6816,341.875" style="stroke:#181818;stroke-width:1;"/><line style="stroke:#181818;stroke-width:1;" x1="299.7637" x2="299.7637" y1="323.875" y2="341.875"/><line style="stroke:#181818;stroke-width:1;" x1="299.7637" x2="213.6816" y1="341.875" y2="341.875"/><polygon fill="#181818" points="223.6816,337.875,213.6816,341.875,223.6816,345.875,219.6816,341.875" style="stroke:#181818;stroke-width:1;"/><line style="stroke:#181818;stroke-width:1;" x1="201.6816" x2="201.6816" y1="235.9063" y2="255.9063"/><polygon fill="#181818" points="197.6816,245.9063,201.6816,255.9063,205.6816,245.9063,201.6816,249.9063" style="stroke:#181818;stroke-width:1;"/><line style="stroke:#181818;stroke-width:1;" x1="201.6816" x2="201.6816" y1="181.9375" y2="201.9375"/><polygon fill="#181818" points="197.6816,191.9375,201.6816,201.9375,205.6816,191.9375,201.6816,195.9375" style="stroke:#181818;stroke-width:1;"/><line style="stroke:#181818;stroke-width:1;" x1="287.2065" x2="406.9258" y1="385.875" y2="385.875"/><polygon fill="#181818" points="402.9258,280.4063,406.9258,270.4063,410.9258,280.4063,406.9258,276.4063" style="stroke:#181818;stroke-width:1;"/><line style="stroke:#181818;stroke-width:1;" x1="406.9258" x2="406.9258" y1="169.9375" y2="385.875"/><line style="stroke:#181818;stroke-width:1;" x1="406.9258" x2="213.6816" y1="169.9375" y2="169.9375"/><polygon fill="#181818" points="223.6816,165.9375,213.6816,169.9375,223.6816,173.9375,219.6816,169.9375" style="stroke:#181818;stroke-width:1;"/><line style="stroke:#181818;stroke-width:1;" x1="201.6816" x2="201.6816" y1="353.875" y2="373.875"/><polygon fill="#181818" points="197.6816,363.875,201.6816,373.875,205.6816,363.875,201.6816,367.875" style="stroke:#181818;stroke-width:1;"/><line style="stroke:#181818;stroke-width:1;" x1="201.6816" x2="201.6816" y1="137.9375" y2="157.9375"/><polygon fill="#181818" points="197.6816,147.9375,201.6816,157.9375,205.6816,147.9375,201.6816,151.9375" style="stroke:#181818;stroke-width:1;"/><line style="stroke:#181818;stroke-width:1;" x1="201.6816" x2="201.6816" y1="397.875" y2="417.875"/><polygon fill="#181818" points="197.6816,407.875,201.6816,417.875,205.6816,407.875,201.6816,411.875" style="stroke:#181818;stroke-width:1;"/><line style="stroke:#181818;stroke-width:1;" x1="201.6816" x2="201.6816" y1="451.8438" y2="471.8438"/><polygon fill="#181818" points="197.6816,461.8438,201.6816,471.8438,205.6816,461.8438,201.6816,465.8438" style="stroke:#181818;stroke-width:1;"/><line style="stroke:#181818;stroke-width:1;" x1="112.5381" x2="112.5381" y1="593.7813" y2="613.7813"/><polygon fill="#181818" points="108.5381,603.7813,112.5381,613.7813,116.5381,603.7813,112.5381,607.7813" style="stroke:#181818;stroke-width:1;"/><line style="stroke:#181818;stroke-width:1;" x1="153.5771" x2="112.5381" y1="537.8125" y2="537.8125"/><line style="stroke:#181818;stroke-width:1;" x1="112.5381" x2="112.5381" y1="537.8125" y2="559.8125"/><polygon fill="#181818" points="108.5381,549.8125,112.5381,559.8125,116.5381,549.8125,112.5381,553.8125" style="stroke:#181818;stroke-width:1;"/><line style="stroke:#181818;stroke-width:1;" x1="249.7861" x2="290.8252" y1="537.8125" y2="537.8125"/><line style="stroke:#181818;stroke-width:1;" x1="290.8252" x2="290.8252" y1="537.8125" y2="559.8125"/><polygon fill="#181818" points="286.8252,549.8125,290.8252,559.8125,294.8252,549.8125,290.8252,553.8125" style="stroke:#181818;stroke-width:1;"/><line style="stroke:#181818;stroke-width:1;" x1="112.5381" x2="112.5381" y1="647.75" y2="665.75"/><line style="stroke:#181818;stroke-width:1;" x1="112.5381" x2="189.6816" y1="665.75" y2="665.75"/><polygon fill="#181818" points="179.6816,661.75,189.6816,665.75,179.6816,669.75,183.6816,665.75" style="stroke:#181818;stroke-width:1;"/><line style="stroke:#181818;stroke-width:1;" x1="290.8252" x2="290.8252" y1="593.7813" y2="665.75"/><line style="stroke:#181818;stroke-width:1;" x1="290.8252" x2="213.6816" y1="665.75" y2="665.75"/><polygon fill="#181818" points="223.6816,661.75,213.6816,665.75,223.6816,669.75,219.6816,665.75" style="stroke:#181818;stroke-width:1;"/><line style="stroke:#181818;stroke-width:1;" x1="201.6816" x2="201.6816" y1="505.8125" y2="525.8125"/><polygon fill="#181818" points="197.6816,515.8125,201.6816,525.8125,205.6816,515.8125,201.6816,519.8125" style="stroke:#181818;stroke-width:1;"/><line style="stroke:#181818;stroke-width:1;" x1="201.6816" x2="201.6816" y1="677.75" y2="697.75"/><polygon fill="#181818" points="197.6816,687.75,201.6816,697.75,205.6816,687.75,201.6816,691.75" style="stroke:#181818;stroke-width:1;"/><!--SRC=[NP31RW8n34Jl-GeVsLzO3gX2gwfIAGZ41wHa5gmkpZRnBgLVNmTeItkAv8mzCo-hJ-fS_IIix3l-16tEMN6Sklev-a1D67PUEOhlQE4LoLHJvn9wU7L4zVo0tHkrCT4BJcJF6YDdX3ir4RSqAT_VCteOFNV-jSEi8Zr0Q796hanf5xTzC1az-gE5mVi0sQ4SGPT14uatsJoAiWoW-P0IHFzg9N1xIqcd0tUs-MD-CrYRdXF2h380ZUpz7hJDICHoCJS4YsXShDDbl4AocaT_iN2bqWOv6nfg9FplKQzI73cWREL2pz268cJPbu3rictjvh8lR3Dfl79ZBGYR3zQfk-_xs_QQxDhFPOtz5m00]--></g></svg>