<svg xmlns="http://www.w3.org/2000/svg" xmlns:xlink="http://www.w3.org/1999/xlink" contentStyleType="text/css" data-diagram-type="SEQUENCE" height="412px" preserveAspectRatio="none" style="width:619px;height:412px;background:#FFFFFF;" version="1.1" viewBox="0 0 619 412" width="619px" zoomAndPan="magnify"><defs/><g><g><title>User</title><rect fill="#000000" fill-opacity="0.00000" height="340.4609" width="8" x="23.9551" y="36.2969"/><line style="stroke:#181818;stroke-width:0.5;stroke-dasharray:5,5;" x1="27" x2="27" y1="36.2969" y2="376.7578"/></g><g><title>System</title><rect fill="#000000" fill-opacity="0.00000" height="340.4609" width="8" x="232.1323" y="36.2969"/><line style="stroke:#181818;stroke-width:0.5;stroke-dasharray:5,5;" x1="236.0293" x2="236.0293" y1="36.2969" y2="376.7578"/></g><g><title>QuestionUpdater</title><rect fill="#000000" fill-opacity="0.00000" height="340.4609" width="8" x="420.124" y="36.2969"/><line style="stroke:#181818;stroke-width:0.5;stroke-dasharray:5,5;" x1="423.5864" x2="423.5864" y1="36.2969" y2="376.7578"/></g><g><title>MathUmbrella</title><rect fill="#000000" fill-opacity="0.00000" height="340.4609" width="8" x="552.9214" y="36.2969"/><line style="stroke:#181818;stroke-width:0.5;stroke-dasharray:5,5;" x1="556.6616" x2="556.6616" y1="36.2969" y2="376.7578"/></g><g class="participant participant-head" data-participant="User"><rect fill="#E2E2F0" height="30.2969" rx="2.5" ry="2.5" style="stroke:#181818;stroke-width:0.5;" width="45.9102" x="5" y="5"/><text fill="#000000" font-family="sans-serif" font-size="14" lengthAdjust="spacing" textLength="31.9102" x="12" y="24.9951">User</text></g><g class="participant participant-tail" data-participant="User"><rect fill="#E2E2F0" height="30.2969" rx="2.5" ry="2.5" style="stroke:#181818;stroke-width:0.5;" width="45.9102" x="5" y="375.7578"/><text fill="#000000" font-family="sans-serif" font-size="14" lengthAdjust="spacing" textLength="31.9102" x="12" y="395.7529">User</text></g><g class="participant participant-head" data-participant="System"><rect fill="#E2E2F0" height="30.2969" rx="2.5" ry="2.5" style="stroke:#181818;stroke-width:0.5;" width="66.2061" x="203.0293" y="5"/><text fill="#000000" font-family="sans-serif" font-size="14" lengthAdjust="spacing" textLength="52.2061" x="210.0293" y="24.9951">System</text></g><g class="participant participant-tail" data-participant="System"><rect fill="#E2E2F0" height="30.2969" rx="2.5" ry="2.5" style="stroke:#181818;stroke-width:0.5;" width="66.2061" x="203.0293" y="375.7578"/><text fill="#000000" font-family="sans-serif" font-size="14" lengthAdjust="spacing" textLength="52.2061" x="210.0293" y="395.7529">System</text></g><g class="participant participant-head" data-participant="QuestionUpdater"><rect fill="#E2E2F0" height="30.2969" rx="2.5" ry="2.5" style="stroke:#181818;stroke-width:0.5;" width="133.0752" x="357.5864" y="5"/><text fill="#000000" font-family="sans-serif" font-size="14" lengthAdjust="spacing" textLength="119.0752" x="364.5864" y="24.9951">QuestionUpdater</text></g><g class="participant participant-tail" data-participant="QuestionUpdater"><rect fill="#E2E2F0" height="30.2969" rx="2.5" ry="2.5" style="stroke:#181818;stroke-width:0.5;" width="133.0752" x="357.5864" y="375.7578"/><text fill="#000000" font-family="sans-serif" font-size="14" lengthAdjust="spacing" textLength="119.0752" x="364.5864" y="395.7529">QuestionUpdater</text></g><g class="participant participant-head" data-participant="MathUmbrella"><rect fill="#E2E2F0" height="30.2969" rx="2.5" ry="2.5" style="stroke:#181818;stroke-width:0.5;" width="112.5195" x="500.6616" y="5"/><text fill="#000000" font-family="sans-serif" font-size="14" lengthAdjust="spacing" textLength="98.5195" x="507.6616" y="24.9951">MathUmbrella</text></g><g class="participant participant-tail" data-participant="MathUmbrella"><rect fill="#E2E2F0" height="30.2969" rx="2.5" ry="2.5" style="stroke:#181818;stroke-width:0.5;" width="112.5195" x="500.6616" y="375.7578"/><text fill="#000000" font-family="sans-serif" font-size="14" lengthAdjust="spacing" textLength="98.5195" x="507.6616" y="395.7529">MathUmbrella</text></g><g class="message" data-participant-1="User" data-participant-2="System"><polygon fill="#181818" points="224.1323,63.4297,234.1323,67.4297,224.1323,71.4297,228.1323,67.4297" style="stroke:#181818;stroke-width:1;"/><line style="stroke:#181818;stroke-width:1;" x1="27.9551" x2="230.1323" y1="67.4297" y2="67.4297"/><text fill="#000000" font-family="sans-serif" font-size="13" lengthAdjust="spacing" textLength="74.5913" x="34.9551" y="62.3638">Start Game</text></g><g class="message" data-participant-1="System" data-participant-2="QuestionUpdater"><polygon fill="#181818" points="412.124,92.5625,422.124,96.5625,412.124,100.5625,416.124,96.5625" style="stroke:#181818;stroke-width:1;"/><line style="stroke:#181818;stroke-width:1;" x1="236.1323" x2="418.124" y1="96.5625" y2="96.5625"/><text fill="#000000" font-family="sans-serif" font-size="13" lengthAdjust="spacing" textLength="119.9834" x="243.1323" y="91.4966">Check for Updates</text></g><g class="message" data-participant-1="QuestionUpdater" data-participant-2="System"><polygon fill="#181818" points="247.1323,121.6953,237.1323,125.6953,247.1323,129.6953,243.1323,125.6953" style="stroke:#181818;stroke-width:1;"/><line style="stroke:#181818;stroke-width:1;" x1="241.1323" x2="423.124" y1="125.6953" y2="125.6953"/><text fill="#000000" font-family="sans-serif" font-size="13" lengthAdjust="spacing" textLength="163.9917" x="253.1323" y="120.6294">Provide Updated Content</text></g><g class="message" data-participant-1="System" data-participant-2="User"><polygon fill="#181818" points="38.9551,150.8281,28.9551,154.8281,38.9551,158.8281,34.9551,154.8281" style="stroke:#181818;stroke-width:1;"/><line style="stroke:#181818;stroke-width:1;" x1="32.9551" x2="235.1323" y1="154.8281" y2="154.8281"/><text fill="#000000" font-family="sans-serif" font-size="13" lengthAdjust="spacing" textLength="142.5049" x="44.9551" y="149.7622">Load Game Sequence</text></g><g class="message" data-participant-1="User" data-participant-2="System"><polygon fill="#181818" points="224.1323,179.9609,234.1323,183.9609,224.1323,187.9609,228.1323,183.9609" style="stroke:#181818;stroke-width:1;"/><line style="stroke:#181818;stroke-width:1;" x1="27.9551" x2="230.1323" y1="183.9609" y2="183.9609"/><text fill="#000000" font-family="sans-serif" font-size="13" lengthAdjust="spacing" textLength="125.271" x="34.9551" y="178.895">Interact with Game</text></g><g class="message" data-participant-1="System" data-participant-2="MathUmbrella"><polygon fill="#181818" points="544.9214,209.0938,554.9214,213.0938,544.9214,217.0938,548.9214,213.0938" style="stroke:#181818;stroke-width:1;"/><line style="stroke:#181818;stroke-width:1;" x1="236.1323" x2="550.9214" y1="213.0938" y2="213.0938"/><text fill="#000000" font-family="sans-serif" font-size="13" lengthAdjust="spacing" textLength="174.4209" x="243.1323" y="208.0278">Access External Resources</text></g><g class="message" data-participant-1="MathUmbrella" data-participant-2="System"><polygon fill="#181818" points="247.1323,238.2266,237.1323,242.2266,247.1323,246.2266,243.1323,242.2266" style="stroke:#181818;stroke-width:1;"/><line style="stroke:#181818;stroke-width:1;" x1="241.1323" x2="555.9214" y1="242.2266" y2="242.2266"/><text fill="#000000" font-family="sans-serif" font-size="13" lengthAdjust="spacing" textLength="113.312" x="253.1323" y="237.1606">Provide Resource</text></g><g class="message" data-participant-1="System" data-participant-2="User"><polygon fill="#181818" points="38.9551,267.3594,28.9551,271.3594,38.9551,275.3594,34.9551,271.3594" style="stroke:#181818;stroke-width:1;"/><line style="stroke:#181818;stroke-width:1;" x1="32.9551" x2="235.1323" y1="271.3594" y2="271.3594"/><text fill="#000000" font-family="sans-serif" font-size="13" lengthAdjust="spacing" textLength="112.5376" x="44.9551" y="266.2935">Display Resource</text></g><g class="message" data-participant-1="User" data-participant-2="System"><polygon fill="#181818" points="224.1323,296.4922,234.1323,300.4922,224.1323,304.4922,228.1323,300.4922" style="stroke:#181818;stroke-width:1;"/><line style="stroke:#181818;stroke-width:1;" x1="27.9551" x2="230.1323" y1="300.4922" y2="300.4922"/><text fill="#000000" font-family="sans-serif" font-size="13" lengthAdjust="spacing" textLength="78.438" x="34.9551" y="295.4263">End Session</text></g><g class="message" data-participant-1="System" data-participant-2="User"><polygon fill="#181818" points="38.9551,325.625,28.9551,329.625,38.9551,333.625,34.9551,329.625" style="stroke:#181818;stroke-width:1;"/><line style="stroke:#181818;stroke-width:1;" x1="32.9551" x2="235.1323" y1="329.625" y2="329.625"/><text fill="#000000" font-family="sans-serif" font-size="13" lengthAdjust="spacing" textLength="184.1772" x="44.9551" y="324.5591">Provide Personalized Ending</text></g><g class="message" data-participant-1="User" data-participant-2="System"><polygon fill="#181818" points="224.1323,354.7578,234.1323,358.7578,224.1323,362.7578,228.1323,358.7578" style="stroke:#181818;stroke-width:1;"/><line style="stroke:#181818;stroke-width:1;" x1="27.9551" x2="230.1323" y1="358.7578" y2="358.7578"/><text fill="#000000" font-family="sans-serif" font-size="13" lengthAdjust="spacing" textLength="159.3071" x="34.9551" y="353.6919">Choose to Revisit or Exit</text></g><!--SRC=[RP1HJiGm34J_SmfVW0lq0mcL2Y61j53r024nrA9DGkmkkvmUbzqLeU5tCZD-cMIpaADaWy30c4qgXFx8WlCVwMb15efXIDxAnlvePHpcbupJP8rPs-3g-bpIG2zgXJixepb9w-Eche5sHFSEhp73IMApiPILknptvF5izT3681Yaw5yX6dY8rlzSXXu_5WmEQxnxZMRh13v9nYrc-RC6Rfn3PkWEcWXsWcVak6JLJEdx3_JYh0XlYTDaZx-6YgyBNkcPTOagVQdVOUQeHFIbOsY0mblLquunCe94lRKd9W7TkZkGV0C0]--></g></svg>