<svg xmlns="http://www.w3.org/2000/svg" xmlns:xlink="http://www.w3.org/1999/xlink" contentStyleType="text/css" data-diagram-type="DESCRIPTION" height="331px" preserveAspectRatio="none" style="width:983px;height:331px;background:#FFFFFF;" version="1.1" viewBox="0 0 983 331" width="983px" zoomAndPan="magnify"><defs/><g><!--entity User--><g class="entity" data-entity="User" data-source-line="1" data-uid="ent0002" id="entity_User"><ellipse cx="300.6251" cy="14" fill="#F1F1F1" rx="8" ry="8" style="stroke:#181818;stroke-width:0.5;"/><path d="M300.6251,22 L300.6251,49 M287.6251,30 L313.6251,30 M300.6251,49 L287.6251,64 M300.6251,49 L313.6251,64" fill="none" style="stroke:#181818;stroke-width:0.5;"/><text fill="#000000" font-family="sans-serif" font-size="14" lengthAdjust="spacing" textLength="31.9102" x="284.67" y="78.4951">User</text></g><!--entity Administrator--><g class="entity" data-entity="Administrator" data-source-line="2" data-uid="ent0003" id="entity_Administrator"><ellipse cx="777.6213" cy="14" fill="#F1F1F1" rx="8" ry="8" style="stroke:#181818;stroke-width:0.5;"/><path d="M777.6213,22 L777.6213,49 M764.6213,30 L790.6213,30 M777.6213,49 L764.6213,64 M777.6213,49 L790.6213,64" fill="none" style="stroke:#181818;stroke-width:0.5;"/><text fill="#000000" font-family="sans-serif" font-size="14" lengthAdjust="spacing" textLength="95.6826" x="729.78" y="78.4951">Administrator</text></g><!--entity UC1--><g class="entity" data-entity="UC1" data-source-line="4" data-uid="ent0004" id="entity_UC1"><ellipse cx="90.6234" cy="180.3747" fill="#F1F1F1" rx="84.6234" ry="19.3247" style="stroke:#181818;stroke-width:0.5;"/><text fill="#000000" font-family="sans-serif" font-size="14" lengthAdjust="spacing" textLength="141.4561" x="19.8954" y="185.0231">Personalized Ending</text></g><!--entity UC2--><g class="entity" data-entity="UC2" data-source-line="5" data-uid="ent0005" id="entity_UC2"><ellipse cx="673.6234" cy="180.3667" fill="#F1F1F1" rx="77.6334" ry="17.9267" style="stroke:#181818;stroke-width:0.5;"/><text fill="#000000" font-family="sans-serif" font-size="14" lengthAdjust="spacing" textLength="125.0635" x="611.0917" y="185.0151">Update Questions</text></g><!--entity UC3--><g class="entity" data-entity="UC3" data-source-line="6" data-uid="ent0006" id="entity_UC3"><ellipse cx="300.6192" cy="180.3738" fill="#F1F1F1" rx="90.8192" ry="20.5638" style="stroke:#181818;stroke-width:0.5;"/><text fill="#000000" font-family="sans-serif" font-size="14" lengthAdjust="spacing" textLength="155.5928" x="222.8228" y="185.0223">Access Math Umbrella</text></g><!--entity UC4--><g class="entity" data-entity="UC4" data-source-line="7" data-uid="ent0007" id="entity_UC4"><ellipse cx="881.6228" cy="180.3686" fill="#F1F1F1" rx="95.8428" ry="21.5686" style="stroke:#181818;stroke-width:0.5;"/><text fill="#000000" font-family="sans-serif" font-size="14" lengthAdjust="spacing" textLength="166.8516" x="798.197" y="185.017">Ensure System Security</text></g><!--entity UC5--><g class="entity" data-entity="UC5" data-source-line="8" data-uid="ent0008" id="entity_UC5"><ellipse cx="528.6179" cy="302.2916" fill="#F1F1F1" rx="104.7579" ry="23.3516" style="stroke:#181818;stroke-width:0.5;"/><text fill="#000000" font-family="sans-serif" font-size="14" lengthAdjust="spacing" textLength="186.4912" x="435.3723" y="306.94">Ensure System Availability</text></g><!--link User to UC1--><g class="link" data-entity-1="User" data-entity-2="UC1" data-source-line="10" data-uid="lnk9" id="link_User_UC1"><path d="M284.49,55 C248.77,77.92 167.6601,129.9502 123.2201,158.4602" fill="none" id="User-to-UC1" style="stroke:#181818;stroke-width:1;"/><polygon fill="#181818" points="118.17,161.7,127.905,160.207,122.3784,159.0001,123.5853,153.4735,118.17,161.7" style="stroke:#181818;stroke-width:1;"/><text fill="#000000" font-family="sans-serif" font-size="13" lengthAdjust="spacing" textLength="69.9448" x="196.62" y="124.8669">Play Game</text></g><!--link User to UC3--><g class="link" data-entity-1="User" data-entity-2="UC3" data-source-line="11" data-uid="lnk10" id="link_User_UC3"><path d="M300.62,82.18 C300.62,107.25 300.62,133.22 300.62,153.51" fill="none" id="User-to-UC3" style="stroke:#181818;stroke-width:1;"/><polygon fill="#181818" points="300.62,159.51,304.62,150.51,300.62,154.51,296.62,150.51,300.62,159.51" style="stroke:#181818;stroke-width:1;"/><text fill="#000000" font-family="sans-serif" font-size="13" lengthAdjust="spacing" textLength="120.4595" x="301.62" y="124.8669">Explore Resources</text></g><!--link User to UC5--><g class="link" data-entity-1="User" data-entity-2="UC5" data-source-line="12" data-uid="lnk11" id="link_User_UC5"><path d="M316.97,49.48 C343.72,58.09 397.21,78.4 430.62,111.8 C437.16,118.33 490.3451,224.3893 514.6851,273.2593" fill="none" id="User-to-UC5" style="stroke:#181818;stroke-width:1;"/><polygon fill="#181818" points="517.36,278.63,516.9281,268.7906,515.1309,274.1544,509.7671,272.3572,517.36,278.63" style="stroke:#181818;stroke-width:1;"/><text fill="#000000" font-family="sans-serif" font-size="13" lengthAdjust="spacing" textLength="97.3413" x="479.62" y="184.9369">Access System</text></g><!--link Administrator to UC2--><g class="link" data-entity-1="Administrator" data-entity-2="UC2" data-source-line="14" data-uid="lnk12" id="link_Administrator_UC2"><path d="M744.72,82.12 C736.66,91.66 728.18,101.98 720.62,111.8 C707.73,128.56 697.3632,143.541 688.1032,157.401" fill="none" id="Administrator-to-UC2" style="stroke:#181818;stroke-width:1;"/><polygon fill="#181818" points="684.77,162.39,693.0958,157.1287,687.5477,158.2325,686.4438,152.6844,684.77,162.39" style="stroke:#181818;stroke-width:1;"/><text fill="#000000" font-family="sans-serif" font-size="13" lengthAdjust="spacing" textLength="99.1377" x="721.62" y="124.8669">Modify Content</text></g><!--link Administrator to UC4--><g class="link" data-entity-1="Administrator" data-entity-2="UC4" data-source-line="15" data-uid="lnk13" id="link_Administrator_UC4"><path d="M806.59,82.18 C825.71,106.94 846.3534,133.6807 862.0334,153.9907" fill="none" id="Administrator-to-UC4" style="stroke:#181818;stroke-width:1;"/><polygon fill="#181818" points="865.7,158.74,863.3663,149.1716,862.6445,154.7822,857.0339,154.0605,865.7,158.74" style="stroke:#181818;stroke-width:1;"/><text fill="#000000" font-family="sans-serif" font-size="13" lengthAdjust="spacing" textLength="109.1543" x="842.62" y="124.8669">Manage Security</text></g><!--link UC2 to UC5--><g class="link" data-entity-1="UC2" data-entity-2="UC5" data-source-line="17" data-uid="lnk14" id="link_UC2_UC5"><path d="M653.46,198.04 C627.86,219.22 588.2333,251.9858 559.8833,275.4358" fill="none" id="UC2-to-UC5" style="stroke:#181818;stroke-width:1;"/><polygon fill="#181818" points="555.26,279.26,564.7445,276.6059,559.1128,276.0731,559.6455,270.4414,555.26,279.26" style="stroke:#181818;stroke-width:1;"/><text fill="#000000" font-family="sans-serif" font-size="13" lengthAdjust="spacing" textLength="63.0068" x="611.62" y="245.0069">&#171;include&#187;</text></g><!--link UC3 to UC5--><g class="link" data-entity-1="UC3" data-entity-2="UC5" data-source-line="18" data-uid="lnk15" id="link_UC3_UC5"><path d="M316.6,201.01 C329.72,215.99 349.52,236.18 370.62,248.94 C396.96,264.86 422.9738,274.9071 451.0938,283.1771" fill="none" id="UC3-to-UC5" style="stroke:#181818;stroke-width:1;"/><polygon fill="#181818" points="456.85,284.87,449.3443,278.4932,452.0531,283.4593,447.0871,286.1682,456.85,284.87" style="stroke:#181818;stroke-width:1;"/><text fill="#000000" font-family="sans-serif" font-size="13" lengthAdjust="spacing" textLength="63.0068" x="371.62" y="245.0069">&#171;include&#187;</text></g><!--link UC4 to UC5--><g class="link" data-entity-1="UC4" data-entity-2="UC5" data-source-line="19" data-uid="lnk16" id="link_UC4_UC5"><path d="M830.36,198.91 C790.39,212.58 733.49,232.01 683.62,248.94 C650.95,260.03 620.0553,270.4723 590.6453,280.3923" fill="none" id="UC4-to-UC5" style="stroke:#181818;stroke-width:1;"/><polygon fill="#181818" points="584.96,282.31,594.7664,283.2237,589.6977,280.712,592.2095,275.6433,584.96,282.31" style="stroke:#181818;stroke-width:1;"/><text fill="#000000" font-family="sans-serif" font-size="13" lengthAdjust="spacing" textLength="63.0068" x="733.62" y="245.0069">&#171;include&#187;</text></g><!--SRC=[TT31QWCX40RWkqynv9v3aysbX8KbB3a5qePzW8bEqm5NWwEbswUlsqfD8Raf_wV-8-he0mn2GU7FiZCZEvOOCE-KIa8QXM1nf23UeUKlCj0xm-wo01GOTayL3LU3aU0baKJsJefOLT5fJI9mmFWEmtWEP2qMjQwgTv82mMcII2ESIAV0SIgkUUIw3sIBPxRLRfIQPuFbifsRmZCSBKwmnv5kWtKE-i-hzVcoLnAVGcvv2pOPbEg_ZodrxwCAMsLsy8RV9jXv5yd5kwoP6JgyqDzikMS-NH_RRjbfcmorhPhxFKgQ-yat]--></g></svg>