<svg xmlns="http://www.w3.org/2000/svg" xmlns:xlink="http://www.w3.org/1999/xlink" contentStyleType="text/css" data-diagram-type="DESCRIPTION" height="912px" preserveAspectRatio="none" style="width:2617px;height:912px;background:#FFFFFF;" version="1.1" viewBox="0 0 2617 912" width="2617px" zoomAndPan="magnify"><defs/><g><!--cluster Frontend--><g class="cluster" data-entity="Frontend" data-source-line="1" data-uid="ent0002" id="cluster_Frontend"><path d="M1035.5,159.3 L1108.7285,159.3 A3.75,3.75 0 0 1 1111.2285,161.8 L1118.2285,181.5969 L1676.5,181.5969 A2.5,2.5 0 0 1 1679,184.0969 L1679,383.39 A2.5,2.5 0 0 1 1676.5,385.89 L1035.5,385.89 A2.5,2.5 0 0 1 1033,383.39 L1033,161.8 A2.5,2.5 0 0 1 1035.5,159.3" fill="none" style="stroke:#000000;stroke-width:1.5;"/><line style="stroke:#000000;stroke-width:1.5;" x1="1033" x2="1118.2285" y1="181.5969" y2="181.5969"/><text fill="#000000" font-family="sans-serif" font-size="14" font-weight="bold" lengthAdjust="spacing" textLength="72.2285" x="1037" y="174.2951">Frontend</text></g><!--cluster Game Engine--><g class="cluster" data-entity="Game Engine" data-source-line="9" data-uid="ent0008" id="cluster_Game Engine"><path d="M8.5,272.6 L113.208,272.6 A3.75,3.75 0 0 1 115.708,275.1 L122.708,294.8969 L681.5,294.8969 A2.5,2.5 0 0 1 684,297.3969 L684,536.69 A2.5,2.5 0 0 1 681.5,539.19 L8.5,539.19 A2.5,2.5 0 0 1 6,536.69 L6,275.1 A2.5,2.5 0 0 1 8.5,272.6" fill="none" style="stroke:#000000;stroke-width:1.5;"/><line style="stroke:#000000;stroke-width:1.5;" x1="6" x2="122.708" y1="294.8969" y2="294.8969"/><text fill="#000000" font-family="sans-serif" font-size="14" font-weight="bold" lengthAdjust="spacing" textLength="103.708" x="10" y="287.5951">Game Engine</text></g><!--cluster Administration--><g class="cluster" data-entity="Administration" data-source-line="17" data-uid="ent0014" id="cluster_Administration"><path d="M2192.5,272.6 L2310.9619,272.6 A3.75,3.75 0 0 1 2313.4619,275.1 L2320.4619,294.8969 L2607.5,294.8969 A2.5,2.5 0 0 1 2610,297.3969 L2610,536.69 A2.5,2.5 0 0 1 2607.5,539.19 L2192.5,539.19 A2.5,2.5 0 0 1 2190,536.69 L2190,275.1 A2.5,2.5 0 0 1 2192.5,272.6" fill="none" style="stroke:#000000;stroke-width:1.5;"/><line style="stroke:#000000;stroke-width:1.5;" x1="2190" x2="2320.4619" y1="294.8969" y2="294.8969"/><text fill="#000000" font-family="sans-serif" font-size="14" font-weight="bold" lengthAdjust="spacing" textLength="117.4619" x="2194" y="287.5951">Administration</text></g><!--cluster Storage--><g class="cluster" data-entity="Storage" data-source-line="23" data-uid="ent0018" id="cluster_Storage"><path d="M1205.5,425.89 L1268.7617,425.89 A3.75,3.75 0 0 1 1271.2617,428.39 L1278.2617,448.1869 L1689.5,448.1869 A2.5,2.5 0 0 1 1692,450.6869 L1692,642.99 A2.5,2.5 0 0 1 1689.5,645.49 L1205.5,645.49 A2.5,2.5 0 0 1 1203,642.99 L1203,428.39 A2.5,2.5 0 0 1 1205.5,425.89" fill="none" style="stroke:#000000;stroke-width:1.5;"/><line style="stroke:#000000;stroke-width:1.5;" x1="1203" x2="1278.2617" y1="448.1869" y2="448.1869"/><text fill="#000000" font-family="sans-serif" font-size="14" font-weight="bold" lengthAdjust="spacing" textLength="62.2617" x="1207" y="440.8851">Storage</text></g><!--cluster Media--><g class="cluster" data-entity="Media" data-source-line="29" data-uid="ent0022" id="cluster_Media"><path d="M726.5,425.89 L775.1943,425.89 A3.75,3.75 0 0 1 777.6943,428.39 L784.6943,448.1869 L1137.5,448.1869 A2.5,2.5 0 0 1 1140,450.6869 L1140,642.99 A2.5,2.5 0 0 1 1137.5,645.49 L726.5,645.49 A2.5,2.5 0 0 1 724,642.99 L724,428.39 A2.5,2.5 0 0 1 726.5,425.89" fill="none" style="stroke:#000000;stroke-width:1.5;"/><line style="stroke:#000000;stroke-width:1.5;" x1="724" x2="784.6943" y1="448.1869" y2="448.1869"/><text fill="#000000" font-family="sans-serif" font-size="14" font-weight="bold" lengthAdjust="spacing" textLength="47.6943" x="728" y="440.8851">Media</text></g><!--cluster Security--><g class="cluster" data-entity="Security" data-source-line="36" data-uid="ent0027" id="cluster_Security"><path d="M1762.5,425.89 L1828.8652,425.89 A3.75,3.75 0 0 1 1831.3652,428.39 L1838.3652,448.1869 L2147.5,448.1869 A2.5,2.5 0 0 1 2150,450.6869 L2150,642.99 A2.5,2.5 0 0 1 2147.5,645.49 L1762.5,645.49 A2.5,2.5 0 0 1 1760,642.99 L1760,428.39 A2.5,2.5 0 0 1 1762.5,425.89" fill="none" style="stroke:#000000;stroke-width:1.5;"/><line style="stroke:#000000;stroke-width:1.5;" x1="1760" x2="1838.3652" y1="448.1869" y2="448.1869"/><text fill="#000000" font-family="sans-serif" font-size="14" font-weight="bold" lengthAdjust="spacing" textLength="65.3652" x="1764" y="440.8851">Security</text></g><!--cluster Infrastructure--><g class="cluster" data-entity="Infrastructure" data-source-line="42" data-uid="ent0031" id="cluster_Infrastructure"><path d="M1305.5,685.49 L1417.3721,685.49 A3.75,3.75 0 0 1 1419.8721,687.99 L1426.8721,707.7869 L1680.5,707.7869 A2.5,2.5 0 0 1 1683,710.2869 L1683,902.58 A2.5,2.5 0 0 1 1680.5,905.08 L1305.5,905.08 A2.5,2.5 0 0 1 1303,902.58 L1303,687.99 A2.5,2.5 0 0 1 1305.5,685.49" fill="none" style="stroke:#000000;stroke-width:1.5;"/><line style="stroke:#000000;stroke-width:1.5;" x1="1303" x2="1426.8721" y1="707.7869" y2="707.7869"/><text fill="#000000" font-family="sans-serif" font-size="14" font-weight="bold" lengthAdjust="spacing" textLength="110.8721" x="1307" y="700.4851">Infrastructure</text></g><!--cluster Support--><g class="cluster" data-entity="Support" data-source-line="48" data-uid="ent0035" id="cluster_Support"><path d="M605.5,6 L669.8076,6 A3.75,3.75 0 0 1 672.3076,8.5 L679.3076,28.2969 L1046.5,28.2969 A2.5,2.5 0 0 1 1049,30.7969 L1049,116.8 A2.5,2.5 0 0 1 1046.5,119.3 L605.5,119.3 A2.5,2.5 0 0 1 603,116.8 L603,8.5 A2.5,2.5 0 0 1 605.5,6" fill="none" style="stroke:#000000;stroke-width:1.5;"/><line style="stroke:#000000;stroke-width:1.5;" x1="603" x2="679.3076" y1="28.2969" y2="28.2969"/><text fill="#000000" font-family="sans-serif" font-size="14" font-weight="bold" lengthAdjust="spacing" textLength="63.3076" x="607" y="20.9951">Support</text></g><!--entity Browser Compatibility Layer--><g class="entity" data-entity="Browser Compatibility Layer" data-source-line="2" data-uid="ent0003" id="entity_Browser Compatibility Layer"><rect fill="#F1F1F1" height="46.2969" rx="2.5" ry="2.5" style="stroke:#181818;stroke-width:0.5;" width="238.126" x="1239.94" y="202.3"/><rect fill="#F1F1F1" height="10" style="stroke:#181818;stroke-width:0.5;" width="15" x="1458.066" y="207.3"/><rect fill="#F1F1F1" height="2" style="stroke:#181818;stroke-width:0.5;" width="4" x="1456.066" y="209.3"/><rect fill="#F1F1F1" height="2" style="stroke:#181818;stroke-width:0.5;" width="4" x="1456.066" y="213.3"/><text fill="#000000" font-family="sans-serif" font-size="14" lengthAdjust="spacing" textLength="198.126" x="1254.94" y="235.2951">Browser Compatibility Layer</text></g><!--entity Flash-based UI--><g class="entity" data-entity="Flash-based UI" data-source-line="3" data-uid="ent0004" id="entity_Flash-based UI"><rect fill="#F1F1F1" height="46.2969" rx="2.5" ry="2.5" style="stroke:#181818;stroke-width:0.5;" width="142.8262" x="1512.59" y="202.3"/><rect fill="#F1F1F1" height="10" style="stroke:#181818;stroke-width:0.5;" width="15" x="1635.4162" y="207.3"/><rect fill="#F1F1F1" height="2" style="stroke:#181818;stroke-width:0.5;" width="4" x="1633.4162" y="209.3"/><rect fill="#F1F1F1" height="2" style="stroke:#181818;stroke-width:0.5;" width="4" x="1633.4162" y="213.3"/><text fill="#000000" font-family="sans-serif" font-size="14" lengthAdjust="spacing" textLength="102.8262" x="1527.59" y="235.2951">Flash-based UI</text></g><!--entity Help System--><g class="entity" data-entity="Help System" data-source-line="4" data-uid="ent0005" id="entity_Help System"><rect fill="#F1F1F1" height="46.2969" rx="2.5" ry="2.5" style="stroke:#181818;stroke-width:0.5;" width="128.5732" x="1076.71" y="202.3"/><rect fill="#F1F1F1" height="10" style="stroke:#181818;stroke-width:0.5;" width="15" x="1185.2832" y="207.3"/><rect fill="#F1F1F1" height="2" style="stroke:#181818;stroke-width:0.5;" width="4" x="1183.2832" y="209.3"/><rect fill="#F1F1F1" height="2" style="stroke:#181818;stroke-width:0.5;" width="4" x="1183.2832" y="213.3"/><text fill="#000000" font-family="sans-serif" font-size="14" lengthAdjust="spacing" textLength="88.5732" x="1091.71" y="235.2951">Help System</text></g><!--entity UI Navigation Controller--><g class="entity" data-entity="UI Navigation Controller" data-source-line="5" data-uid="ent0006" id="entity_UI Navigation Controller"><rect fill="#F1F1F1" height="46.2969" rx="2.5" ry="2.5" style="stroke:#181818;stroke-width:0.5;" width="207.959" x="1221.02" y="315.6"/><rect fill="#F1F1F1" height="10" style="stroke:#181818;stroke-width:0.5;" width="15" x="1408.979" y="320.6"/><rect fill="#F1F1F1" height="2" style="stroke:#181818;stroke-width:0.5;" width="4" x="1406.979" y="322.6"/><rect fill="#F1F1F1" height="2" style="stroke:#181818;stroke-width:0.5;" width="4" x="1406.979" y="326.6"/><text fill="#000000" font-family="sans-serif" font-size="14" lengthAdjust="spacing" textLength="167.959" x="1236.02" y="348.5951">UI Navigation Controller</text></g><!--entity External Link Handler--><g class="entity" data-entity="External Link Handler" data-source-line="6" data-uid="ent0007" id="entity_External Link Handler"><rect fill="#F1F1F1" height="46.2969" rx="2.5" ry="2.5" style="stroke:#181818;stroke-width:0.5;" width="191.0264" x="1463.49" y="315.6"/><rect fill="#F1F1F1" height="10" style="stroke:#181818;stroke-width:0.5;" width="15" x="1634.5164" y="320.6"/><rect fill="#F1F1F1" height="2" style="stroke:#181818;stroke-width:0.5;" width="4" x="1632.5164" y="322.6"/><rect fill="#F1F1F1" height="2" style="stroke:#181818;stroke-width:0.5;" width="4" x="1632.5164" y="326.6"/><text fill="#000000" font-family="sans-serif" font-size="14" lengthAdjust="spacing" textLength="151.0264" x="1478.49" y="348.5951">External Link Handler</text></g><!--entity Storyline Engine--><g class="entity" data-entity="Storyline Engine" data-source-line="10" data-uid="ent0009" id="entity_Storyline Engine"><rect fill="#F1F1F1" height="46.2969" rx="2.5" ry="2.5" style="stroke:#181818;stroke-width:0.5;" width="154.6797" x="29.66" y="315.6"/><rect fill="#F1F1F1" height="10" style="stroke:#181818;stroke-width:0.5;" width="15" x="164.3397" y="320.6"/><rect fill="#F1F1F1" height="2" style="stroke:#181818;stroke-width:0.5;" width="4" x="162.3397" y="322.6"/><rect fill="#F1F1F1" height="2" style="stroke:#181818;stroke-width:0.5;" width="4" x="162.3397" y="326.6"/><text fill="#000000" font-family="sans-serif" font-size="14" lengthAdjust="spacing" textLength="114.6797" x="44.66" y="348.5951">Storyline Engine</text></g><!--entity Decision Tree Module--><g class="entity" data-entity="Decision Tree Module" data-source-line="11" data-uid="ent0010" id="entity_Decision Tree Module"><rect fill="#F1F1F1" height="46.2969" rx="2.5" ry="2.5" style="stroke:#181818;stroke-width:0.5;" width="190.9443" x="219.53" y="315.6"/><rect fill="#F1F1F1" height="10" style="stroke:#181818;stroke-width:0.5;" width="15" x="390.4743" y="320.6"/><rect fill="#F1F1F1" height="2" style="stroke:#181818;stroke-width:0.5;" width="4" x="388.4743" y="322.6"/><rect fill="#F1F1F1" height="2" style="stroke:#181818;stroke-width:0.5;" width="4" x="388.4743" y="326.6"/><text fill="#000000" font-family="sans-serif" font-size="14" lengthAdjust="spacing" textLength="150.9443" x="234.53" y="348.5951">Decision Tree Module</text></g><!--entity User Progress Tracker--><g class="entity" data-entity="User Progress Tracker" data-source-line="12" data-uid="ent0011" id="entity_User Progress Tracker"><rect fill="#F1F1F1" height="46.2969" rx="2.5" ry="2.5" style="stroke:#181818;stroke-width:0.5;" width="194.4785" x="445.76" y="315.6"/><rect fill="#F1F1F1" height="10" style="stroke:#181818;stroke-width:0.5;" width="15" x="620.2385" y="320.6"/><rect fill="#F1F1F1" height="2" style="stroke:#181818;stroke-width:0.5;" width="4" x="618.2385" y="322.6"/><rect fill="#F1F1F1" height="2" style="stroke:#181818;stroke-width:0.5;" width="4" x="618.2385" y="326.6"/><text fill="#000000" font-family="sans-serif" font-size="14" lengthAdjust="spacing" textLength="154.4785" x="460.76" y="348.5951">User Progress Tracker</text></g><!--entity Game State Manager--><g class="entity" data-entity="Game State Manager" data-source-line="13" data-uid="ent0012" id="entity_Game State Manager"><rect fill="#F1F1F1" height="46.2969" rx="2.5" ry="2.5" style="stroke:#181818;stroke-width:0.5;" width="189.0029" x="30.5" y="468.89"/><rect fill="#F1F1F1" height="10" style="stroke:#181818;stroke-width:0.5;" width="15" x="199.5029" y="473.89"/><rect fill="#F1F1F1" height="2" style="stroke:#181818;stroke-width:0.5;" width="4" x="197.5029" y="475.89"/><rect fill="#F1F1F1" height="2" style="stroke:#181818;stroke-width:0.5;" width="4" x="197.5029" y="479.89"/><text fill="#000000" font-family="sans-serif" font-size="14" lengthAdjust="spacing" textLength="149.0029" x="45.5" y="501.8851">Game State Manager</text></g><!--entity Score Calculation Engine--><g class="entity" data-entity="Score Calculation Engine" data-source-line="14" data-uid="ent0013" id="entity_Score Calculation Engine"><rect fill="#F1F1F1" height="46.2969" rx="2.5" ry="2.5" style="stroke:#181818;stroke-width:0.5;" width="214.501" x="254.75" y="468.89"/><rect fill="#F1F1F1" height="10" style="stroke:#181818;stroke-width:0.5;" width="15" x="449.251" y="473.89"/><rect fill="#F1F1F1" height="2" style="stroke:#181818;stroke-width:0.5;" width="4" x="447.251" y="475.89"/><rect fill="#F1F1F1" height="2" style="stroke:#181818;stroke-width:0.5;" width="4" x="447.251" y="479.89"/><text fill="#000000" font-family="sans-serif" font-size="14" lengthAdjust="spacing" textLength="174.501" x="269.75" y="501.8851">Score Calculation Engine</text></g><!--entity Admin Interface--><g class="entity" data-entity="Admin Interface" data-source-line="18" data-uid="ent0015" id="entity_Admin Interface"><rect fill="#F1F1F1" height="46.2969" rx="2.5" ry="2.5" style="stroke:#181818;stroke-width:0.5;" width="151.9932" x="2233" y="315.6"/><rect fill="#F1F1F1" height="10" style="stroke:#181818;stroke-width:0.5;" width="15" x="2364.9932" y="320.6"/><rect fill="#F1F1F1" height="2" style="stroke:#181818;stroke-width:0.5;" width="4" x="2362.9932" y="322.6"/><rect fill="#F1F1F1" height="2" style="stroke:#181818;stroke-width:0.5;" width="4" x="2362.9932" y="326.6"/><text fill="#000000" font-family="sans-serif" font-size="14" lengthAdjust="spacing" textLength="111.9932" x="2248" y="348.5951">Admin Interface</text></g><!--entity Validation Service--><g class="entity" data-entity="Validation Service" data-source-line="19" data-uid="ent0016" id="entity_Validation Service"><rect fill="#F1F1F1" height="46.2969" rx="2.5" ry="2.5" style="stroke:#181818;stroke-width:0.5;" width="166.4102" x="2419.79" y="315.6"/><rect fill="#F1F1F1" height="10" style="stroke:#181818;stroke-width:0.5;" width="15" x="2566.2002" y="320.6"/><rect fill="#F1F1F1" height="2" style="stroke:#181818;stroke-width:0.5;" width="4" x="2564.2002" y="322.6"/><rect fill="#F1F1F1" height="2" style="stroke:#181818;stroke-width:0.5;" width="4" x="2564.2002" y="326.6"/><text fill="#000000" font-family="sans-serif" font-size="14" lengthAdjust="spacing" textLength="126.4102" x="2434.79" y="348.5951">Validation Service</text></g><!--entity Audit Logging Module--><g class="entity" data-entity="Audit Logging Module" data-source-line="20" data-uid="ent0017" id="entity_Audit Logging Module"><rect fill="#F1F1F1" height="46.2969" rx="2.5" ry="2.5" style="stroke:#181818;stroke-width:0.5;" width="192.3115" x="2232.84" y="468.89"/><rect fill="#F1F1F1" height="10" style="stroke:#181818;stroke-width:0.5;" width="15" x="2405.1515" y="473.89"/><rect fill="#F1F1F1" height="2" style="stroke:#181818;stroke-width:0.5;" width="4" x="2403.1515" y="475.89"/><rect fill="#F1F1F1" height="2" style="stroke:#181818;stroke-width:0.5;" width="4" x="2403.1515" y="479.89"/><text fill="#000000" font-family="sans-serif" font-size="14" lengthAdjust="spacing" textLength="152.3115" x="2247.84" y="501.8851">Audit Logging Module</text></g><!--entity Database/File Storage--><g class="entity" data-entity="Database/File Storage" data-source-line="24" data-uid="ent0019" id="entity_Database/File Storage"><rect fill="#F1F1F1" height="46.2969" rx="2.5" ry="2.5" style="stroke:#181818;stroke-width:0.5;" width="195.1895" x="1227.41" y="468.89"/><rect fill="#F1F1F1" height="10" style="stroke:#181818;stroke-width:0.5;" width="15" x="1402.5995" y="473.89"/><rect fill="#F1F1F1" height="2" style="stroke:#181818;stroke-width:0.5;" width="4" x="1400.5995" y="475.89"/><rect fill="#F1F1F1" height="2" style="stroke:#181818;stroke-width:0.5;" width="4" x="1400.5995" y="479.89"/><text fill="#000000" font-family="sans-serif" font-size="14" lengthAdjust="spacing" textLength="155.1895" x="1242.41" y="501.8851">Database/File Storage</text></g><!--entity Local Storage Module--><g class="entity" data-entity="Local Storage Module" data-source-line="25" data-uid="ent0020" id="entity_Local Storage Module"><rect fill="#F1F1F1" height="46.2969" rx="2.5" ry="2.5" style="stroke:#181818;stroke-width:0.5;" width="191.1152" x="1457.44" y="468.89"/><rect fill="#F1F1F1" height="10" style="stroke:#181818;stroke-width:0.5;" width="15" x="1628.5552" y="473.89"/><rect fill="#F1F1F1" height="2" style="stroke:#181818;stroke-width:0.5;" width="4" x="1626.5552" y="475.89"/><rect fill="#F1F1F1" height="2" style="stroke:#181818;stroke-width:0.5;" width="4" x="1626.5552" y="479.89"/><text fill="#000000" font-family="sans-serif" font-size="14" lengthAdjust="spacing" textLength="151.1152" x="1472.44" y="501.8851">Local Storage Module</text></g><!--entity Content Management System--><g class="entity" data-entity="Content Management System" data-source-line="26" data-uid="ent0021" id="entity_Content Management System"><rect fill="#F1F1F1" height="46.2969" rx="2.5" ry="2.5" style="stroke:#181818;stroke-width:0.5;" width="249.0088" x="1257.5" y="575.19"/><rect fill="#F1F1F1" height="10" style="stroke:#181818;stroke-width:0.5;" width="15" x="1486.5088" y="580.19"/><rect fill="#F1F1F1" height="2" style="stroke:#181818;stroke-width:0.5;" width="4" x="1484.5088" y="582.19"/><rect fill="#F1F1F1" height="2" style="stroke:#181818;stroke-width:0.5;" width="4" x="1484.5088" y="586.19"/><text fill="#000000" font-family="sans-serif" font-size="14" lengthAdjust="spacing" textLength="209.0088" x="1272.5" y="608.1851">Content Management System</text></g><!--entity Media Optimizer--><g class="entity" data-entity="Media Optimizer" data-source-line="30" data-uid="ent0023" id="entity_Media Optimizer"><rect fill="#F1F1F1" height="46.2969" rx="2.5" ry="2.5" style="stroke:#181818;stroke-width:0.5;" width="155.0283" x="753.49" y="468.89"/><rect fill="#F1F1F1" height="10" style="stroke:#181818;stroke-width:0.5;" width="15" x="888.5183" y="473.89"/><rect fill="#F1F1F1" height="2" style="stroke:#181818;stroke-width:0.5;" width="4" x="886.5183" y="475.89"/><rect fill="#F1F1F1" height="2" style="stroke:#181818;stroke-width:0.5;" width="4" x="886.5183" y="479.89"/><text fill="#000000" font-family="sans-serif" font-size="14" lengthAdjust="spacing" textLength="115.0283" x="768.49" y="501.8851">Media Optimizer</text></g><!--entity CDN Integration--><g class="entity" data-entity="CDN Integration" data-source-line="31" data-uid="ent0024" id="entity_CDN Integration"><rect fill="#F1F1F1" height="46.2969" rx="2.5" ry="2.5" style="stroke:#181818;stroke-width:0.5;" width="152.6221" x="943.69" y="468.89"/><rect fill="#F1F1F1" height="10" style="stroke:#181818;stroke-width:0.5;" width="15" x="1076.3121" y="473.89"/><rect fill="#F1F1F1" height="2" style="stroke:#181818;stroke-width:0.5;" width="4" x="1074.3121" y="475.89"/><rect fill="#F1F1F1" height="2" style="stroke:#181818;stroke-width:0.5;" width="4" x="1074.3121" y="479.89"/><text fill="#000000" font-family="sans-serif" font-size="14" lengthAdjust="spacing" textLength="112.6221" x="958.69" y="501.8851">CDN Integration</text></g><!--entity Asset Loader--><g class="entity" data-entity="Asset Loader" data-source-line="32" data-uid="ent0025" id="entity_Asset Loader"><rect fill="#F1F1F1" height="46.2969" rx="2.5" ry="2.5" style="stroke:#181818;stroke-width:0.5;" width="130.918" x="747.54" y="575.19"/><rect fill="#F1F1F1" height="10" style="stroke:#181818;stroke-width:0.5;" width="15" x="858.458" y="580.19"/><rect fill="#F1F1F1" height="2" style="stroke:#181818;stroke-width:0.5;" width="4" x="856.458" y="582.19"/><rect fill="#F1F1F1" height="2" style="stroke:#181818;stroke-width:0.5;" width="4" x="856.458" y="586.19"/><text fill="#000000" font-family="sans-serif" font-size="14" lengthAdjust="spacing" textLength="90.918" x="762.54" y="608.1851">Asset Loader</text></g><!--entity Media Delivery Server--><g class="entity" data-entity="Media Delivery Server" data-source-line="33" data-uid="ent0026" id="entity_Media Delivery Server"><rect fill="#F1F1F1" height="46.2969" rx="2.5" ry="2.5" style="stroke:#181818;stroke-width:0.5;" width="194.9707" x="913.51" y="575.19"/><rect fill="#F1F1F1" height="10" style="stroke:#181818;stroke-width:0.5;" width="15" x="1088.4807" y="580.19"/><rect fill="#F1F1F1" height="2" style="stroke:#181818;stroke-width:0.5;" width="4" x="1086.4807" y="582.19"/><rect fill="#F1F1F1" height="2" style="stroke:#181818;stroke-width:0.5;" width="4" x="1086.4807" y="586.19"/><text fill="#000000" font-family="sans-serif" font-size="14" lengthAdjust="spacing" textLength="154.9707" x="928.51" y="608.1851">Media Delivery Server</text></g><!--entity Security Module--><g class="entity" data-entity="Security Module" data-source-line="37" data-uid="ent0028" id="entity_Security Module"><rect fill="#F1F1F1" height="46.2969" rx="2.5" ry="2.5" style="stroke:#181818;stroke-width:0.5;" width="152.8477" x="1803.58" y="468.89"/><rect fill="#F1F1F1" height="10" style="stroke:#181818;stroke-width:0.5;" width="15" x="1936.4277" y="473.89"/><rect fill="#F1F1F1" height="2" style="stroke:#181818;stroke-width:0.5;" width="4" x="1934.4277" y="475.89"/><rect fill="#F1F1F1" height="2" style="stroke:#181818;stroke-width:0.5;" width="4" x="1934.4277" y="479.89"/><text fill="#000000" font-family="sans-serif" font-size="14" lengthAdjust="spacing" textLength="112.8477" x="1818.58" y="501.8851">Security Module</text></g><!--entity RBAC Service--><g class="entity" data-entity="RBAC Service" data-source-line="38" data-uid="ent0029" id="entity_RBAC Service"><rect fill="#F1F1F1" height="46.2969" rx="2.5" ry="2.5" style="stroke:#181818;stroke-width:0.5;" width="134.876" x="1991.56" y="468.89"/><rect fill="#F1F1F1" height="10" style="stroke:#181818;stroke-width:0.5;" width="15" x="2106.436" y="473.89"/><rect fill="#F1F1F1" height="2" style="stroke:#181818;stroke-width:0.5;" width="4" x="2104.436" y="475.89"/><rect fill="#F1F1F1" height="2" style="stroke:#181818;stroke-width:0.5;" width="4" x="2104.436" y="479.89"/><text fill="#000000" font-family="sans-serif" font-size="14" lengthAdjust="spacing" textLength="94.876" x="2006.56" y="501.8851">RBAC Service</text></g><!--entity Authentication--><g class="entity" data-entity="Authentication" data-source-line="39" data-uid="ent0030" id="entity_Authentication"><rect fill="#F1F1F1" height="46.2969" rx="2.5" ry="2.5" style="stroke:#181818;stroke-width:0.5;" width="142.7715" x="1814.61" y="575.19"/><rect fill="#F1F1F1" height="10" style="stroke:#181818;stroke-width:0.5;" width="15" x="1937.3815" y="580.19"/><rect fill="#F1F1F1" height="2" style="stroke:#181818;stroke-width:0.5;" width="4" x="1935.3815" y="582.19"/><rect fill="#F1F1F1" height="2" style="stroke:#181818;stroke-width:0.5;" width="4" x="1935.3815" y="586.19"/><text fill="#000000" font-family="sans-serif" font-size="14" lengthAdjust="spacing" textLength="102.7715" x="1829.61" y="608.1851">Authentication</text></g><!--entity Load Balancer--><g class="entity" data-entity="Load Balancer" data-source-line="43" data-uid="ent0032" id="entity_Load Balancer"><rect fill="#F1F1F1" height="46.2969" rx="2.5" ry="2.5" style="stroke:#181818;stroke-width:0.5;" width="139.873" x="1327.06" y="728.49"/><rect fill="#F1F1F1" height="10" style="stroke:#181818;stroke-width:0.5;" width="15" x="1446.933" y="733.49"/><rect fill="#F1F1F1" height="2" style="stroke:#181818;stroke-width:0.5;" width="4" x="1444.933" y="735.49"/><rect fill="#F1F1F1" height="2" style="stroke:#181818;stroke-width:0.5;" width="4" x="1444.933" y="739.49"/><text fill="#000000" font-family="sans-serif" font-size="14" lengthAdjust="spacing" textLength="99.873" x="1342.06" y="761.4851">Load Balancer</text></g><!--entity Cloud Hosting--><g class="entity" data-entity="Cloud Hosting" data-source-line="44" data-uid="ent0033" id="entity_Cloud Hosting"><rect fill="#F1F1F1" height="46.2969" rx="2.5" ry="2.5" style="stroke:#181818;stroke-width:0.5;" width="137.9658" x="1502.02" y="728.49"/><rect fill="#F1F1F1" height="10" style="stroke:#181818;stroke-width:0.5;" width="15" x="1619.9858" y="733.49"/><rect fill="#F1F1F1" height="2" style="stroke:#181818;stroke-width:0.5;" width="4" x="1617.9858" y="735.49"/><rect fill="#F1F1F1" height="2" style="stroke:#181818;stroke-width:0.5;" width="4" x="1617.9858" y="739.49"/><text fill="#000000" font-family="sans-serif" font-size="14" lengthAdjust="spacing" textLength="97.9658" x="1517.02" y="761.4851">Cloud Hosting</text></g><!--entity Caching Layer--><g class="entity" data-entity="Caching Layer" data-source-line="45" data-uid="ent0034" id="entity_Caching Layer"><rect fill="#F1F1F1" height="46.2969" rx="2.5" ry="2.5" style="stroke:#181818;stroke-width:0.5;" width="140.0576" x="1326.97" y="834.78"/><rect fill="#F1F1F1" height="10" style="stroke:#181818;stroke-width:0.5;" width="15" x="1447.0276" y="839.78"/><rect fill="#F1F1F1" height="2" style="stroke:#181818;stroke-width:0.5;" width="4" x="1445.0276" y="841.78"/><rect fill="#F1F1F1" height="2" style="stroke:#181818;stroke-width:0.5;" width="4" x="1445.0276" y="845.78"/><text fill="#000000" font-family="sans-serif" font-size="14" lengthAdjust="spacing" textLength="100.0576" x="1341.97" y="867.7751">Caching Layer</text></g><!--entity Documentation System--><g class="entity" data-entity="Documentation System" data-source-line="49" data-uid="ent0036" id="entity_Documentation System"><rect fill="#F1F1F1" height="46.2969" rx="2.5" ry="2.5" style="stroke:#181818;stroke-width:0.5;" width="204.582" x="626.71" y="49"/><rect fill="#F1F1F1" height="10" style="stroke:#181818;stroke-width:0.5;" width="15" x="811.292" y="54"/><rect fill="#F1F1F1" height="2" style="stroke:#181818;stroke-width:0.5;" width="4" x="809.292" y="56"/><rect fill="#F1F1F1" height="2" style="stroke:#181818;stroke-width:0.5;" width="4" x="809.292" y="60"/><text fill="#000000" font-family="sans-serif" font-size="14" lengthAdjust="spacing" textLength="164.582" x="641.71" y="81.9951">Documentation System</text></g><!--entity CI/CD Pipeline--><g class="entity" data-entity="CI/CD Pipeline" data-source-line="50" data-uid="ent0037" id="entity_CI/CD Pipeline"><rect fill="#F1F1F1" height="46.2969" rx="2.5" ry="2.5" style="stroke:#181818;stroke-width:0.5;" width="138.7246" x="866.64" y="49"/><rect fill="#F1F1F1" height="10" style="stroke:#181818;stroke-width:0.5;" width="15" x="985.3646" y="54"/><rect fill="#F1F1F1" height="2" style="stroke:#181818;stroke-width:0.5;" width="4" x="983.3646" y="56"/><rect fill="#F1F1F1" height="2" style="stroke:#181818;stroke-width:0.5;" width="4" x="983.3646" y="60"/><text fill="#000000" font-family="sans-serif" font-size="14" lengthAdjust="spacing" textLength="98.7246" x="881.64" y="81.9951">CI/CD Pipeline</text></g><!--link Frontend to Game Engine--><g class="link" data-entity-1="Frontend" data-entity-2="Game Engine" data-source-line="53" data-uid="lnk38" id="link_Frontend_Game Engine"><path d="M1032.9145,228.9144 C1032.6879,228.9835 1032.4568,229.054 1032.2214,229.1258 C1031.7505,229.2694 1031.262,229.4183 1030.7562,229.5726 C1028.7332,230.1894 1026.4339,230.8906 1023.8796,231.6695 C1013.6624,234.785 999.3648,239.1447 982.347,244.3338 C948.3116,254.7119 903.3956,268.4075 858.4812,282.1025 C813.5669,295.7975 768.6541,309.4919 734.6248,319.8675 C717.6102,325.0553 703.3165,329.4134 693.104,332.5271 C690.5508,333.3055 688.2528,334.0062 686.231,334.6225 C685.7256,334.7766 685.2374,334.9255 684.7669,335.0689 C684.5316,335.1407 690.0399,333.4613 689.8135,333.5304" fill="none" id="Frontend-to-Game Engine" style="stroke:#181818;stroke-width:1;"/><polygon fill="#181818" points="684.0743,335.2801,693.8495,336.4817,688.8569,333.822,691.5166,328.8294,684.0743,335.2801" style="stroke:#181818;stroke-width:1;"/></g><!--link Frontend to Media--><g class="link" data-entity-1="Frontend" data-entity-2="Media" data-source-line="54" data-uid="lnk39" id="link_Frontend_Media"><path d="M1032.9339,266.1617 C1032.7978,267.136 1032.6644,268.1225 1032.5341,269.1206 C1031.4916,277.1054 1030.6478,285.8328 1030.2363,294.9613 C1028.59,331.475 1033.86,374.405 1061,401.89 C1080.83,421.98 1104.32,389.66 1124,409.89 C1127.0588,413.0363 1129.4941,416.6105 1131.4121,420.4629 C1131.8916,421.426 1132.3387,422.4065 1132.7552,423.402 C1132.9635,423.8998 1133.1641,424.4013 1133.3572,424.9063 C1133.4537,425.1588 1131.4898,442.0733 1131.5826,442.3275" fill="none" id="Frontend-to-Media" style="stroke:#181818;stroke-width:1;"/><polygon fill="#181818" points="1133.6413,447.9632,1134.3105,438.1371,1131.9257,443.2667,1126.7961,440.882,1133.6413,447.9632" style="stroke:#181818;stroke-width:1;"/></g><!--link Frontend to Security--><g class="link" data-entity-1="Frontend" data-entity-2="Security" data-source-line="55" data-uid="lnk40" id="link_Frontend_Security"><path d="M1679.3617,262.7378 C1682.0657,264.8805 1684.6874,267.117 1687.2292,269.4395 C1692.3128,274.0843 1697.077,279.0726 1701.5418,284.3392 C1710.4715,294.8725 1718.2036,306.5193 1724.8984,318.7598 C1738.2881,343.2409 1747.5288,370.0969 1753.9025,395.1688 C1755.4959,401.4367 1756.9102,407.5932 1758.1653,413.5732 C1758.7929,416.5632 1759.3806,419.509 1759.9311,422.4026 C1760.0687,423.126 1760.204,423.8462 1760.337,424.5629 C1760.4035,424.9213 1759.3879,419.3771 1759.4533,419.7338" fill="none" id="Frontend-to-Security" style="stroke:#181818;stroke-width:1;"/><polygon fill="#181818" points="1760.5348,425.6355,1762.847,416.0619,1759.6336,420.7174,1754.9781,417.5039,1760.5348,425.6355" style="stroke:#181818;stroke-width:1;"/></g><!--link Game Engine to Storage--><g class="link" data-entity-1="Game Engine" data-entity-2="Storage" data-source-line="56" data-uid="lnk41" id="link_Game Engine_Storage"><path d="M684.1207,341.5132 C684.4724,341.5889 684.8349,341.6668 685.2081,341.7469 C685.9545,341.9072 686.7439,342.0763 687.5752,342.254 C694.2255,343.6753 703.5613,345.644 715.1131,348.0123 C738.2169,352.7491 770.185,359.0844 807.2625,365.8363 C881.4175,379.34 976.01,394.51 1061,401.89 C1077.72,403.34 1651.92,399.38 1665,409.89 C1668.4963,412.7 1671.4244,416.0194 1673.8707,419.6836 C1675.0939,421.5156 1676.1966,423.4339 1677.1896,425.4179 C1677.2517,425.5419 1674.6661,442.5786 1674.7273,442.7031" fill="none" id="Game Engine-to-Storage" style="stroke:#181818;stroke-width:1;"/><polygon fill="#181818" points="1677.3746,448.0875,1676.9933,438.246,1675.1685,443.6005,1669.814,441.7757,1677.3746,448.0875" style="stroke:#181818;stroke-width:1;"/></g><!--link Administration to Storage--><g class="link" data-entity-1="Administration" data-entity-2="Storage" data-source-line="57" data-uid="lnk42" id="link_Administration_Storage"><path d="M2189.8812,340.2468 C2189.6526,340.2614 2189.4195,340.2763 2189.1819,340.2916 C2188.7067,340.322 2188.2134,340.3538 2187.7024,340.3869 C2185.6585,340.5191 2183.3308,340.672 2180.7381,340.8459 C2170.3675,341.5416 2155.7574,342.5725 2138.1098,343.9538 C2102.8147,346.7163 2055.3694,350.88 2005.3888,356.565 C1905.4275,367.935 1795.325,385.39 1752,409.89 C1732.16,421.11 1715.585,440.5 1703.7675,457.5125 C1700.8131,461.7656 1698.1561,465.8702 1695.8197,469.6613 C1694.6515,471.5569 1693.5635,473.3741 1692.5586,475.0923 C1692.433,475.3071 1692.3087,475.5204 1692.1856,475.732 C1692.1241,475.8378 1695.071,470.7518 1695.0101,470.8568" fill="none" id="Administration-to-Storage" style="stroke:#181818;stroke-width:1;"/><polygon fill="#181818" points="1692.0021,476.0483,1699.9752,470.2664,1694.5088,471.722,1693.0532,466.2557,1692.0021,476.0483" style="stroke:#181818;stroke-width:1;"/></g><!--link Administration to Security--><g class="link" data-entity-1="Administration" data-entity-2="Security" data-source-line="58" data-uid="lnk43" id="link_Administration_Security"><path d="M2189.6025,339.9735 C2189.15,339.9871 2188.6803,340.0014 2188.1939,340.0165 C2186.2479,340.0766 2184.0327,340.1483 2181.5665,340.2332 C2171.702,340.5724 2157.823,341.1208 2141.1066,341.9709 C2107.6738,343.6713 2062.8913,346.5788 2016.175,351.435 C1922.7425,361.1475 1821.575,378.655 1788,409.89 C1784.7063,412.9538 1781.9169,416.4655 1779.558,420.2717 C1778.9683,421.2233 1778.4055,422.1933 1777.8685,423.1793 C1777.5999,423.6723 1777.3379,424.1693 1777.0821,424.67 C1776.9542,424.9203 1776.8278,425.1716 1776.7031,425.4238 C1776.6407,425.5498 1779.2054,420.2817 1779.1438,420.4082" fill="none" id="Administration-to-Security" style="stroke:#181818;stroke-width:1;"/><polygon fill="#181818" points="1776.5171,425.8027,1784.0535,419.4621,1778.706,421.3073,1776.8609,415.9598,1776.5171,425.8027" style="stroke:#181818;stroke-width:1;"/></g><!--link Media to Infrastructure--><g class="link" data-entity-1="Media" data-entity-2="Infrastructure" data-source-line="59" data-uid="lnk44" id="link_Media_Infrastructure"><path d="M1140.0178,540.1777 C1140.0791,540.4345 1140.1409,540.692 1140.2031,540.9501 C1140.3276,541.4663 1140.4538,541.9849 1140.5818,542.5058 C1141.094,544.5895 1141.635,546.7107 1142.2062,548.8634 C1143.3487,553.1688 1144.6123,557.6005 1146.0088,562.1113 C1157.18,598.1975 1176.85,639.35 1211,661.49 C1231.75,674.94 1636.76,653.95 1656,669.49 C1659.49,672.3075 1662.4134,675.6325 1664.8563,679.3008 C1666.0778,681.1349 1667.1791,683.0549 1668.1711,685.0401 C1668.2331,685.1642 1665.6511,702.1992 1665.7122,702.3238" fill="none" id="Media-to-Infrastructure" style="stroke:#181818;stroke-width:1;"/><polygon fill="#181818" points="1668.3558,707.71,1667.9813,697.8683,1666.1528,703.2215,1660.7996,701.393,1668.3558,707.71" style="stroke:#181818;stroke-width:1;"/></g><!--link Security to Infrastructure--><g class="link" data-entity-1="Security" data-entity-2="Infrastructure" data-source-line="60" data-uid="lnk45" id="link_Security_Infrastructure"><path d="M1759.9717,515.2722 C1759.8658,515.5657 1759.7589,515.8617 1759.6512,516.16 C1759.4358,516.7567 1759.217,517.3629 1758.9947,517.9786 C1757.2167,522.9038 1755.2221,528.4289 1753.0542,534.4339 C1744.3828,558.4541 1732.9394,590.1531 1721.4963,621.8513 C1710.0531,653.5494 1698.6103,685.2466 1689.9402,709.263 C1687.7726,715.2671 1685.7784,720.7911 1684.0007,725.7151 C1683.7785,726.3306 1683.5597,726.9368 1683.3444,727.5333 C1683.2367,727.8315 1685.1673,722.4839 1685.0613,722.7773" fill="none" id="Security-to-Infrastructure" style="stroke:#181818;stroke-width:1;"/><polygon fill="#181818" points="1683.0239,728.4208,1689.8424,721.3138,1684.7218,723.7179,1682.3177,718.5973,1683.0239,728.4208" style="stroke:#181818;stroke-width:1;"/></g><!--link Storage to Infrastructure--><g class="link" data-entity-1="Storage" data-entity-2="Infrastructure" data-source-line="61" data-uid="lnk46" id="link_Storage_Infrastructure"><path d="M1678.6736,645.5047 C1678.4009,653.3091 1678.1324,660.9934 1677.8723,668.4378 C1677.7422,672.1599 1677.6142,675.822 1677.4889,679.4092 C1677.4262,681.2027 1677.3642,682.9775 1677.3029,684.7317 C1677.2952,684.951 1677.4971,701.4705 1677.4895,701.6891" fill="none" id="Storage-to-Infrastructure" style="stroke:#181818;stroke-width:1;"/><polygon fill="#181818" points="1677.28,707.6855,1681.5918,698.8306,1677.4546,702.6885,1673.5967,698.5513,1677.28,707.6855" style="stroke:#181818;stroke-width:1;"/></g><!--reverse link Support to Frontend--><g class="link" data-entity-1="Support" data-entity-2="Frontend" data-source-line="62" data-uid="lnk47" id="link_Support_Frontend"><path d="M1041,125.4624 C1041,125.9972 1041,121.3347 1041,121.8739 C1041,130.5001 1041,139.6634 1041,148.8263 C1041,151.117 1041,153.4076 1041,155.6899 C1041,156.831 1041,157.97 1041,159.1058" fill="none" id="Support-backto-Frontend" style="stroke:#181818;stroke-width:1;stroke-dasharray:7.0,7.0;"/><polygon fill="#181818" points="1041,119.4624,1037,128.4624,1041,124.4624,1045,128.4624,1041,119.4624" style="stroke:#181818;stroke-width:1;"/></g><!--reverse link Support to Game Engine--><g class="link" data-entity-1="Support" data-entity-2="Game Engine" data-source-line="63" data-uid="lnk48" id="link_Support_Game Engine"><path d="M1027.925,124.9713 C1027.8335,125.177 1030.0232,120.2004 1029.9302,120.4054 C1029.7441,120.8156 1029.5549,121.2244 1029.3626,121.6317 C1028.5934,123.2609 1027.7741,124.8658 1026.9014,126.4339 C1025.1561,129.57 1023.1975,132.5588 1021,135.3 C965.835,204.115 880.4975,254.475 808.5,287.755 C772.5013,304.395 739.8375,316.765 715.9478,325.0369 C704.003,329.1728 694.2516,332.2842 687.3737,334.3926 C686.514,334.6561 685.6991,334.904 684.9305,335.1362 C684.7384,335.1943 684.5491,335.2514 684.3627,335.3075" fill="none" id="Support-backto-Game Engine" style="stroke:#181818;stroke-width:1;stroke-dasharray:7.0,7.0;"/><polygon fill="#181818" points="1030.3437,119.4804,1023.0551,126.1043,1028.3281,124.0562,1030.3763,129.3292,1030.3437,119.4804" style="stroke:#181818;stroke-width:1;"/></g><!--reverse link Support to Administration--><g class="link" data-entity-1="Support" data-entity-2="Administration" data-source-line="64" data-uid="lnk49" id="link_Support_Administration"><path d="M1055.1772,73.4538 C1055.6613,73.4651 1050.8778,73.3553 1051.3995,73.3679 C1053.4865,73.4184 1055.8732,73.4792 1058.5465,73.552 C1069.2397,73.8432 1084.5191,74.326 1103.55,75.1039 C1141.6119,76.6597 1194.68,79.3956 1256.0775,84.1388 C1378.8725,93.625 1534.985,111.14 1671,143.3 C1791.53,171.8 1922.17,219.8775 2023.2263,261.0938 C2073.7544,281.7019 2116.8866,300.5947 2147.6611,314.4673 C2163.0484,321.4037 2175.3462,327.085 2183.9344,331.0981 C2186.0815,332.1014 2187.9967,333.0004 2189.6704,333.7887" fill="none" id="Support-backto-Administration" style="stroke:#181818;stroke-width:1;stroke-dasharray:7.0,7.0;"/><polygon fill="#181818" points="1049.1788,73.3154,1058.0842,77.5219,1054.1775,73.4307,1058.2686,69.524,1049.1788,73.3154" style="stroke:#181818;stroke-width:1;"/></g><!--SRC=[ZLDBRjim4Dtx58FidLoWA61BSMt0-I2gkp6yc90JcGX52YJbLYrwzr8IIKaE0bGhQHuvxpEZ6jaxbWGt6wEL8yLluCy2_7DS6_tJae5CLpKwyIgaS2tiiILp6avi9DhpyXKjSJZiGd5BieQYjOwgK3diu14lelHDjFBjb3DQojJb_fSZer32NgXtsABYFVPtiQYZjczO4TohKYXAyWgdJIjz9G2XMqvCs8xdko621yqR6Q53v-RPwDAGjHxttPE8dg5mwFmTL9uq0WNJXY13oHev68XqKu4hNWabh3FzaQInByFEvshUa4KTFr0AFlGgo5n40bOD5mxsklG4PT8-vUbC-vT4aAF3Bl-xZP2T_XuDtVQQ-L13RPv4re_Q1QjLznedDcLx82umSVLVy5GxKOdVAPyiV-mDbeFrwCHQwfmWJmU7wpb9SI7JziwlnrmGQunVid76eJ1N_x9UPH-ISsVlGh0WOjfrfzuC-j4qp3LcZAuJ1skKgDXeHkg6mrPRvmSGQyZEtJZ2ui_qDdMjZHkdeLdJXHbcE_q7ijrTbiEpg4d6vJd6F-u4o-NNi89nkQx1FhsFvHYGHwRN0nZNuJXVp_-4nzO3-L2Uf-d1TEupFD1y1WyPdk3BxIsCzgw1UJXpx4h-Fm00]--></g></svg>