<svg xmlns="http://www.w3.org/2000/svg" xmlns:xlink="http://www.w3.org/1999/xlink" contentStyleType="text/css" data-diagram-type="DESCRIPTION" height="708px" preserveAspectRatio="none" style="width:1318px;height:708px;background:#FFFFFF;" version="1.1" viewBox="0 0 1318 708" width="1318px" zoomAndPan="magnify"><defs/><g><!--cluster FE--><g class="cluster" data-entity="FE" data-source-line="1" data-uid="ent0002" id="cluster_FE"><rect fill="none" height="125" rx="2.5" ry="2.5" style="stroke:#181818;stroke-width:1;" width="350" x="502" y="197"/><rect fill="none" height="10" style="stroke:#181818;stroke-width:1;" width="15" x="832" y="202"/><rect fill="none" height="2" style="stroke:#181818;stroke-width:1;" width="4" x="830" y="204"/><rect fill="none" height="2" style="stroke:#181818;stroke-width:1;" width="4" x="830" y="208"/><text fill="#000000" font-family="sans-serif" font-size="14" font-weight="bold" lengthAdjust="spacing" textLength="93.6797" x="630.1602" y="222.9951">Frontend UI</text></g><!--cluster GSM--><g class="cluster" data-entity="GSM" data-source-line="6" data-uid="ent0005" id="cluster_GSM"><rect fill="none" height="125" rx="2.5" ry="2.5" style="stroke:#181818;stroke-width:1;" width="182" x="569" y="387"/><rect fill="none" height="10" style="stroke:#181818;stroke-width:1;" width="15" x="731" y="392"/><rect fill="none" height="2" style="stroke:#181818;stroke-width:1;" width="4" x="729" y="394"/><rect fill="none" height="2" style="stroke:#181818;stroke-width:1;" width="4" x="729" y="398"/><text fill="#000000" font-family="sans-serif" font-size="14" font-weight="bold" lengthAdjust="spacing" textLength="166.3936" x="576.8032" y="412.9951">Game State Manager</text></g><!--cluster SE--><g class="cluster" data-entity="SE" data-source-line="10" data-uid="ent0007" id="cluster_SE"><rect fill="none" height="125" rx="2.5" ry="2.5" style="stroke:#181818;stroke-width:1;" width="171" x="791" y="387"/><rect fill="none" height="10" style="stroke:#181818;stroke-width:1;" width="15" x="942" y="392"/><rect fill="none" height="2" style="stroke:#181818;stroke-width:1;" width="4" x="940" y="394"/><rect fill="none" height="2" style="stroke:#181818;stroke-width:1;" width="4" x="940" y="398"/><text fill="#000000" font-family="sans-serif" font-size="14" font-weight="bold" lengthAdjust="spacing" textLength="130.1699" x="811.415" y="412.9951">Storyline Engine</text></g><!--cluster AI--><g class="cluster" data-entity="AI" data-source-line="14" data-uid="ent0009" id="cluster_AI"><rect fill="none" height="125" rx="2.5" ry="2.5" style="stroke:#181818;stroke-width:1;" width="205" x="7" y="197"/><rect fill="none" height="10" style="stroke:#181818;stroke-width:1;" width="15" x="192" y="202"/><rect fill="none" height="2" style="stroke:#181818;stroke-width:1;" width="4" x="190" y="204"/><rect fill="none" height="2" style="stroke:#181818;stroke-width:1;" width="4" x="190" y="208"/><text fill="#000000" font-family="sans-serif" font-size="14" font-weight="bold" lengthAdjust="spacing" textLength="126.6836" x="46.1582" y="222.9951">Admin Interface</text></g><!--cluster CMS--><g class="cluster" data-entity="CMS" data-source-line="18" data-uid="ent0011" id="cluster_CMS"><rect fill="none" height="125" rx="2.5" ry="2.5" style="stroke:#181818;stroke-width:1;" width="199" x="343" y="577"/><rect fill="none" height="10" style="stroke:#181818;stroke-width:1;" width="15" x="522" y="582"/><rect fill="none" height="2" style="stroke:#181818;stroke-width:1;" width="4" x="520" y="584"/><rect fill="none" height="2" style="stroke:#181818;stroke-width:1;" width="4" x="520" y="588"/><text fill="#000000" font-family="sans-serif" font-size="14" font-weight="bold" lengthAdjust="spacing" textLength="34.2891" x="425.3555" y="602.9951">CMS</text></g><!--cluster SM--><g class="cluster" data-entity="SM" data-source-line="22" data-uid="ent0013" id="cluster_SM"><rect fill="none" height="125" rx="2.5" ry="2.5" style="stroke:#181818;stroke-width:1;" width="181" x="348" y="387"/><rect fill="none" height="10" style="stroke:#181818;stroke-width:1;" width="15" x="509" y="392"/><rect fill="none" height="2" style="stroke:#181818;stroke-width:1;" width="4" x="507" y="394"/><rect fill="none" height="2" style="stroke:#181818;stroke-width:1;" width="4" x="507" y="398"/><text fill="#000000" font-family="sans-serif" font-size="14" font-weight="bold" lengthAdjust="spacing" textLength="128.0713" x="374.4644" y="412.9951">Security Module</text></g><!--cluster MD--><g class="cluster" data-entity="MD" data-source-line="26" data-uid="ent0015" id="cluster_MD"><rect fill="none" height="125" rx="2.5" ry="2.5" style="stroke:#181818;stroke-width:1;" width="181" x="1002" y="387"/><rect fill="none" height="10" style="stroke:#181818;stroke-width:1;" width="15" x="1163" y="392"/><rect fill="none" height="2" style="stroke:#181818;stroke-width:1;" width="4" x="1161" y="394"/><rect fill="none" height="2" style="stroke:#181818;stroke-width:1;" width="4" x="1161" y="398"/><text fill="#000000" font-family="sans-serif" font-size="14" font-weight="bold" lengthAdjust="spacing" textLength="117.9336" x="1033.5332" y="412.9951">Media Delivery</text></g><!--cluster ELH--><g class="cluster" data-entity="ELH" data-source-line="30" data-uid="ent0017" id="cluster_ELH"><rect fill="none" height="125" rx="2.5" ry="2.5" style="stroke:#181818;stroke-width:1;" width="186" x="669" y="7"/><rect fill="none" height="10" style="stroke:#181818;stroke-width:1;" width="15" x="835" y="12"/><rect fill="none" height="2" style="stroke:#181818;stroke-width:1;" width="4" x="833" y="14"/><rect fill="none" height="2" style="stroke:#181818;stroke-width:1;" width="4" x="833" y="18"/><text fill="#000000" font-family="sans-serif" font-size="14" font-weight="bold" lengthAdjust="spacing" textLength="170.9941" x="676.5029" y="32.9951">External Link Handler</text></g><!--cluster CDN--><g class="cluster" data-entity="CDN" data-source-line="43" data-uid="ent0027" id="cluster_CDN"><path d="M1098.9848,599.4929 C1101.7787,593.5183 1106.0802,593.3556 1109.6037,598.8153 C1112.7916,593.4489 1117.0726,593.3775 1120.7512,598.2828 C1123.7731,592.152 1128.7832,592.2887 1132.1711,597.9277 C1134.4439,593.0984 1139.5064,592.0425 1142.4025,597.2952 C1146.0866,592.4278 1150.6711,591.8904 1153.5687,598.0887 C1156.2174,591.2318 1162.3753,591.3967 1166.0248,597.0959 C1169.0724,591.3923 1173.3442,591.239 1176.5478,596.952 C1180.4143,591.5105 1184.636,592.3009 1187.9511,597.5406 C1191.6933,592.0658 1194.8577,593.6515 1198.1825,597.9764 C1201.8368,592.8635 1205.4675,593.6731 1209.0583,598.0492 C1212.2012,593.2663 1217.4052,592.1783 1220.4111,598.1933 C1224.2129,592.7642 1227.9687,592.9812 1231.7615,598.2028 C1235.4766,594.2537 1240.2271,594.0161 1242.2115,600.02 C1245.1709,593.3392 1249.6051,593.3383 1253.7685,598.8818 C1261.5017,603.7592 1261.6032,608.8352 1254.064,614.011 C1262.2802,616.5662 1261.7942,622.9679 1256.5595,627.934 C1262.81,631.1117 1263.8878,636.0302 1258.179,640.7224 C1264.52,645.0323 1263.48,651.7254 1257.2169,655.1976 C1263.7675,660.6864 1261.7276,664.9494 1255.2698,668.5399 C1262.2452,672.7595 1261.968,677.6274 1254.9081,681.454 C1252.3631,686.8908 1247.4216,687.4372 1243.897,682.493 C1239.7167,687.0553 1235.7262,686.8719 1232.2945,681.609 C1228.6587,687.3277 1224.7137,685.8639 1221.2843,681.3861 C1218.3884,686.2522 1213.9749,687.9881 1210.2599,682.2366 C1207.1475,688.37 1201.8705,688.891 1197.6951,683.384 C1194.0209,687.65 1190.6628,686.9069 1187.9761,682.3021 C1185.0414,687.4043 1179.6969,688.3948 1176.1074,683.0457 C1173.3768,688.4369 1168.0705,689.1113 1164.8236,683.5789 C1161.0899,688.8816 1156.4609,689.3102 1152.9272,683.3674 C1148.894,687.7462 1145.2378,687.5835 1142.258,682.2144 C1139.1538,687.9534 1133.719,686.8181 1131.2149,681.6091 C1129.0559,686.3403 1124.1554,686.2363 1121.3746,682.3164 C1117.3416,687.611 1113.1098,686.7478 1110.1544,681.2011 C1107.2053,687.1303 1102.1771,686.6729 1098.628,681.8439 C1090.827,677.447 1091.3618,672.319 1097.9862,667.2861 C1092.2266,664.1666 1090.606,659.5462 1096.3904,654.9351 C1088.133,652.4234 1088.7302,645.6401 1094.04,640.8624 C1089.1544,636.2623 1089.0936,631.3863 1095.4675,628.0398 C1089.7346,623.2743 1089.6711,617.3457 1096.9256,613.9215 C1090.6885,608.0392 1090.3522,603.2531 1098.9848,599.4929" fill="none" style="stroke:#181818;stroke-width:1;"/><text fill="#000000" font-family="sans-serif" font-size="14" font-weight="bold" lengthAdjust="spacing" textLength="33.6123" x="1158.1938" y="616.8451">CDN</text></g><!--entity HM--><g class="entity" data-entity="HM" data-source-line="2" data-uid="ent0003" id="entity_HM"><ellipse cx="584" cy="269" fill="#F1F1F1" rx="8" ry="8" style="stroke:#181818;stroke-width:0.5;"/><text fill="#000000" font-family="sans-serif" font-size="14" lengthAdjust="spacing" textLength="100.6865" x="533.6567" y="298.9951">handleMedia()</text></g><!--entity UI--><g class="entity" data-entity="UI" data-source-line="3" data-uid="ent0004" id="entity_UI"><ellipse cx="743" cy="269" fill="#F1F1F1" rx="8" ry="8" style="stroke:#181818;stroke-width:0.5;"/><text fill="#000000" font-family="sans-serif" font-size="14" lengthAdjust="spacing" textLength="117.4141" x="684.293" y="298.9951">userInteraction()</text></g><!--entity TS--><g class="entity" data-entity="TS" data-source-line="7" data-uid="ent0006" id="entity_TS"><ellipse cx="651" cy="459" fill="#F1F1F1" rx="8" ry="8" style="stroke:#181818;stroke-width:0.5;"/><text fill="#000000" font-family="sans-serif" font-size="14" lengthAdjust="spacing" textLength="86.0713" x="607.9644" y="488.9951">trackScore()</text></g><!--entity AS--><g class="entity" data-entity="AS" data-source-line="11" data-uid="ent0008" id="entity_AS"><ellipse cx="867" cy="459" fill="#F1F1F1" rx="8" ry="8" style="stroke:#181818;stroke-width:0.5;"/><text fill="#000000" font-family="sans-serif" font-size="14" lengthAdjust="spacing" textLength="88.3271" x="822.8364" y="488.9951">adaptStory()</text></g><!--entity MC--><g class="entity" data-entity="MC" data-source-line="15" data-uid="ent0010" id="entity_MC"><ellipse cx="100" cy="269" fill="#F1F1F1" rx="8" ry="8" style="stroke:#181818;stroke-width:0.5;"/><text fill="#000000" font-family="sans-serif" font-size="14" lengthAdjust="spacing" textLength="123.7715" x="38.1143" y="298.9951">manageContent()</text></g><!--entity SQ--><g class="entity" data-entity="SQ" data-source-line="19" data-uid="ent0012" id="entity_SQ"><ellipse cx="433" cy="649" fill="#F1F1F1" rx="8" ry="8" style="stroke:#181818;stroke-width:0.5;"/><text fill="#000000" font-family="sans-serif" font-size="14" lengthAdjust="spacing" textLength="116.5527" x="374.7236" y="678.9951">storeQuestions()</text></g><!--entity AUTH--><g class="entity" data-entity="AUTH" data-source-line="23" data-uid="ent0014" id="entity_AUTH"><ellipse cx="429" cy="459" fill="#F1F1F1" rx="8" ry="8" style="stroke:#181818;stroke-width:0.5;"/><text fill="#000000" font-family="sans-serif" font-size="14" lengthAdjust="spacing" textLength="99.9824" x="379.0088" y="488.9951">authenticate()</text></g><!--entity SA--><g class="entity" data-entity="SA" data-source-line="27" data-uid="ent0016" id="entity_SA"><ellipse cx="1083" cy="459" fill="#F1F1F1" rx="8" ry="8" style="stroke:#181818;stroke-width:0.5;"/><text fill="#000000" font-family="sans-serif" font-size="14" lengthAdjust="spacing" textLength="98.5605" x="1033.7197" y="488.9951">streamAsset()</text></g><!--entity OP--><g class="entity" data-entity="OP" data-source-line="31" data-uid="ent0018" id="entity_OP"><ellipse cx="752" cy="79" fill="#F1F1F1" rx="8" ry="8" style="stroke:#181818;stroke-width:0.5;"/><text fill="#000000" font-family="sans-serif" font-size="14" lengthAdjust="spacing" textLength="94.3154" x="704.8423" y="108.9951">openProject()</text></g><!--entity CS--><g class="entity" data-entity="CS" data-source-line="44" data-uid="ent0028" id="entity_CS"><rect fill="#F1F1F1" height="46.2969" rx="2.5" ry="2.5" style="stroke:#181818;stroke-width:0.5;" width="139.2168" x="1105.39" y="625.85"/><rect fill="#F1F1F1" height="10" style="stroke:#181818;stroke-width:0.5;" width="15" x="1224.6068" y="630.85"/><rect fill="#F1F1F1" height="2" style="stroke:#181818;stroke-width:0.5;" width="4" x="1222.6068" y="632.85"/><rect fill="#F1F1F1" height="2" style="stroke:#181818;stroke-width:0.5;" width="4" x="1222.6068" y="636.85"/><text fill="#000000" font-family="sans-serif" font-size="14" lengthAdjust="spacing" textLength="99.2168" x="1120.39" y="658.8451">Cloud Storage</text></g><!--link FE to MD--><g class="link" data-entity-1="FE" data-entity-2="MD" data-source-line="34" data-uid="lnk19" id="link_FE_MD"><path d="M852.211,269.7876 C852.5633,269.7828 852.9263,269.7783 853.2996,269.7741 C854.0463,269.7657 854.8346,269.7588 855.6632,269.7538 C862.2922,269.7133 871.5035,269.7931 882.6602,270.2394 C904.9734,271.1319 935.0681,273.49 967.8488,279.2825 C1033.41,290.8675 1109.715,316.19 1156,371 C1159.0925,374.6613 1161.7147,378.7116 1163.9351,383.003 C1164.4902,384.0759 1165.0202,385.1638 1165.5262,386.2645 C1165.5894,386.4021 1163.1768,381.0744 1163.2393,381.2124" fill="none" id="FE-to-MD" style="stroke:#181818;stroke-width:1;stroke-dasharray:7.0,7.0;"/><polygon fill="#181818" points="1165.7148,386.6779,1165.6452,376.8293,1163.6519,382.1233,1158.3579,380.1299,1165.7148,386.6779" style="stroke:#181818;stroke-width:1;"/><text fill="#000000" font-family="sans-serif" font-size="13" lengthAdjust="spacing" textLength="165.1216" x="1145" y="359.0669">requires &#171;streamAsset()&#187;</text></g><!--link FE to SM--><g class="link" data-entity-1="FE" data-entity-2="SM" data-source-line="35" data-uid="lnk20" id="link_FE_SM"><path d="M837.1036,322.1692 C837.0534,322.2766 837.0028,322.3837 836.952,322.4907 C836.5452,323.3465 836.1175,324.1906 835.6679,325.0209 C834.7689,326.6814 833.7824,328.2863 832.7005,329.8186 C830.5367,332.883 827.9913,335.6563 825,338 C802.25,355.82 588.63,329.36 565,346 C554.24,353.5775 546.1113,364.2081 539.9703,375.9303 C536.8998,381.7914 534.3263,387.9254 532.1693,394.0871 C531.0908,397.1679 530.1165,400.2557 529.2362,403.3197 C529.1812,403.5112 530.7644,397.9305 530.7101,398.1218" fill="none" id="FE-to-SM" style="stroke:#181818;stroke-width:1;stroke-dasharray:7.0,7.0;"/><polygon fill="#181818" points="529.0722,403.8939,535.3771,396.3277,530.4371,399.0838,527.681,394.1438,529.0722,403.8939" style="stroke:#181818;stroke-width:1;"/><text fill="#000000" font-family="sans-serif" font-size="13" lengthAdjust="spacing" textLength="166.4419" x="566" y="359.0669">requires &#171;authenticate()&#187;</text></g><!--link FE to GSM--><g class="link" data-entity-1="FE" data-entity-2="GSM" data-source-line="36" data-uid="lnk21" id="link_FE_GSM"><path d="M836.6459,322.1155 C836.2458,322.9796 835.8259,323.8331 835.3851,324.6741 C834.5035,326.356 833.5387,327.9875 832.4831,329.552 C830.3719,332.6808 827.8975,335.5413 825,338 C812.56,348.56 763.37,334.29 752,346 C743.4375,354.815 738.5444,366.0744 736.0331,378.0411 C735.7192,379.5369 735.4425,381.0438 735.2005,382.5584 C735.0795,383.3157 734.9672,384.0748 734.8633,384.8355 C734.8113,385.2159 734.7614,385.5966 734.7136,385.9776 C734.6897,386.1681 735.3817,380.4015 735.3588,380.5922" fill="none" id="FE-to-GSM" style="stroke:#181818;stroke-width:1;stroke-dasharray:7.0,7.0;"/><polygon fill="#181818" points="734.6433,386.5494,739.6879,378.0905,735.2395,381.5851,731.745,377.1367,734.6433,386.5494" style="stroke:#181818;stroke-width:1;"/><text fill="#000000" font-family="sans-serif" font-size="13" lengthAdjust="spacing" textLength="153.5244" x="753" y="359.0669">requires &#171;trackScore()&#187;</text></g><!--link FE to SE--><g class="link" data-entity-1="FE" data-entity-2="SE" data-source-line="37" data-uid="lnk22" id="link_FE_SE"><path d="M852.1112,276.3927 C852.1998,276.4649 852.2891,276.5377 852.3789,276.611 C852.5586,276.7576 852.7407,276.9066 852.9252,277.0577 C853.6633,277.6623 854.4397,278.3028 855.2516,278.9778 C861.7462,284.3781 870.5088,291.9938 880.06,301.2175 C899.1625,319.665 921.42,344.545 935,371 C937.1888,375.2638 939.1261,379.7706 940.8408,384.3992 C941.0552,384.9778 941.266,385.5583 941.4735,386.1404 C941.5253,386.2859 939.5802,380.7736 939.6316,380.9193" fill="none" id="FE-to-SE" style="stroke:#181818;stroke-width:1;stroke-dasharray:7.0,7.0;"/><polygon fill="#181818" points="941.6284,386.5773,942.4052,376.7592,939.9644,381.8623,934.8612,379.4215,941.6284,386.5773" style="stroke:#181818;stroke-width:1;"/><text fill="#000000" font-family="sans-serif" font-size="13" lengthAdjust="spacing" textLength="155.6191" x="930" y="359.0669">requires &#171;adaptStory()&#187;</text></g><!--link AI to CMS--><g class="link" data-entity-1="AI" data-entity-2="CMS" data-source-line="38" data-uid="lnk23" id="link_AI_CMS"><path d="M189.8377,322.2494 C189.8027,322.368 189.7676,322.4866 189.7325,322.6051 C189.5921,323.0795 189.4514,323.5537 189.3102,324.0277 C189.028,324.9755 188.7443,325.9223 188.4594,326.8666 C187.3198,330.6439 186.1613,334.3825 185,338 C180.23,352.86 175.71,355.63 173,371 C160.89,439.72 126.09,476.34 173,528 C224.33,584.52 457.9,510.31 515,561 C518.6425,564.2325 521.6763,567.9867 524.1959,572.0853 C524.8258,573.11 525.4236,574.1562 525.9908,575.2211 C526.2743,575.7536 523.8854,570.915 524.1538,571.4565" fill="none" id="AI-to-CMS" style="stroke:#181818;stroke-width:1;stroke-dasharray:7.0,7.0;"/><polygon fill="#181818" points="526.8187,576.8322,526.4052,566.992,524.598,572.3524,519.2376,570.5451,526.8187,576.8322" style="stroke:#181818;stroke-width:1;"/><text fill="#000000" font-family="sans-serif" font-size="13" lengthAdjust="spacing" textLength="181.8286" x="174" y="463.5669">requires &#171;storeQuestions()&#187;</text></g><!--link AI to SM--><g class="link" data-entity-1="AI" data-entity-2="SM" data-source-line="39" data-uid="lnk24" id="link_AI_SM"><path d="M212.1812,279.7272 C212.8818,280.5274 213.624,281.3681 214.4063,282.2461 C220.6644,289.2697 229.49,298.6744 240.1775,308.7288 C261.5525,328.8375 290.375,351.545 321,363 C339.86,370.05 486.6,358.03 502,371 C505.725,374.1375 508.8209,377.8202 511.3862,381.8663 C512.0276,382.8778 512.6357,383.9121 513.2122,384.9662 C513.5005,385.4933 513.7809,386.0253 514.0535,386.562 C514.1217,386.6962 511.5114,381.4614 511.5786,381.5961" fill="none" id="AI-to-SM" style="stroke:#181818;stroke-width:1;stroke-dasharray:7.0,7.0;"/><polygon fill="#181818" points="514.2565,386.9654,513.8191,377.1262,512.0249,382.491,506.6602,380.6968,514.2565,386.9654" style="stroke:#181818;stroke-width:1;"/><text fill="#000000" font-family="sans-serif" font-size="13" lengthAdjust="spacing" textLength="166.4419" x="322" y="359.0669">requires &#171;authenticate()&#187;</text></g><!--link SE to CMS--><g class="link" data-entity-1="SE" data-entity-2="CMS" data-source-line="40" data-uid="lnk25" id="link_SE_CMS"><path d="M945.4409,512.2818 C945.3914,512.3913 945.3415,512.5007 945.2914,512.6099 C945.091,513.0468 944.8861,513.4814 944.6767,513.9137 C943.8389,515.6425 942.9283,517.3321 941.9384,518.9671 C939.9588,522.237 937.6625,525.2887 935,528 C870.34,593.855 771.145,623.9025 687.5938,637.4625 C645.8181,644.2425 607.9534,646.9006 580.272,647.8519 C566.4313,648.3275 555.1364,648.3764 547.1714,648.3005 C546.1758,648.291 545.2322,648.2795 544.3422,648.2667 C543.8971,648.2603 543.4655,648.2536 543.0475,648.2466 C542.8384,648.2431 548.6318,648.3471 548.4296,648.3435" fill="none" id="SE-to-CMS" style="stroke:#181818;stroke-width:1;stroke-dasharray:7.0,7.0;"/><polygon fill="#181818" points="542.4306,648.2359,551.3574,652.3967,547.4298,648.3256,551.5009,644.398,542.4306,648.2359" style="stroke:#181818;stroke-width:1;"/><text fill="#000000" font-family="sans-serif" font-size="13" lengthAdjust="spacing" textLength="181.8286" x="919" y="549.0669">requires &#171;storeQuestions()&#187;</text></g><!--link ELH to FE--><g class="link" data-entity-1="ELH" data-entity-2="FE" data-source-line="41" data-uid="lnk26" id="link_ELH_FE"><path d="M844,132.641 C844,135.2268 844,137.8647 844,140.5444 C844,151.2631 844,162.6494 844,174.035 C844,179.7278 844,185.4205 844,191.0294 C844,192.4317 844,193.8287 844,195.2192 C844,195.5668 844,195.914 844,196.2608 C844,196.4342 844,190.6075 844,190.7807" fill="none" id="ELH-to-FE" style="stroke:#181818;stroke-width:1;stroke-dasharray:7.0,7.0;"/><polygon fill="#181818" points="844,196.7807,848,187.7807,844,191.7807,840,187.7807,844,196.7807" style="stroke:#181818;stroke-width:1;"/><text fill="#000000" font-family="sans-serif" font-size="13" lengthAdjust="spacing" textLength="163.4966" x="845" y="169.0669">provides &#171;openProject()&#187;</text></g><!--link MD to CS--><g class="link" data-entity-1="MD" data-entity-2="CS" data-source-line="47" data-uid="lnk29" id="link_MD_CS"><path d="M1175,512.7296 C1175,512.9863 1175,513.2434 1175,513.5011 C1175,517.6236 1175,521.8747 1175,526.2125 C1175,560.915 1175,595.17 1175,619.6" fill="none" id="MD-to-CS" style="stroke:#181818;stroke-width:1;stroke-dasharray:7.0,7.0;"/><polygon fill="#181818" points="1175,625.6,1179,616.6,1175,620.6,1171,616.6,1175,625.6" style="stroke:#181818;stroke-width:1;"/><text fill="#000000" font-family="sans-serif" font-size="13" lengthAdjust="spacing" textLength="76.0894" x="1176" y="549.0669">depends on</text></g><!--SRC=[ZPBVJi8m58VlznGdNEaD3s082O41IvnA2W_Gj4UeRkriEoCnlhkdPGkiaEXkbctVllxE7s7gncZK7aPBQxH7BM5NZ80xMERmdG5TYbxRLouGHWUkPOKbIiNlxYErBbEcTMYByCY5LqPttAx8Vh9Cd8zRyHg1UUuHIgxv7ctaLgoyFjQJwvq9Ox6pRLbYOzxOOwKqGgxtT8iKkr41bxpnaUvKirGraxNIKFI_dA3YsbJ7rFFODD_9odaYcvSiVg3xjS5H3Doqw4AVNATWcxGq5ArL_WYbaMtLLNQZIRpr1_f12MffNzjkkqviSNQmm4fzeZsUGYzkHRF8wvbps9V6Peaf_o9QymeUbNw7TToCqmppn_MrqJIeNwnvGz4Rdr-2aTPiF9w640zWyQDL5XrC9eC0qscFKU43R5ZqcLkbuEKANUZoH7Un7KJHs0CLXfU46mxkZFwPZ-N_LeOs1dOPGZRMV2ePqK4dYSj4PLf9kxPu6dLzlzp0-37KHDjwsiMuyTJm62Jaa4XAwS3eNm00]--></g></svg>