<svg xmlns="http://www.w3.org/2000/svg" xmlns:xlink="http://www.w3.org/1999/xlink" contentStyleType="text/css" data-diagram-type="STATE" height="1152px" preserveAspectRatio="none" style="width:823px;height:1152px;background:#FFFFFF;" version="1.1" viewBox="0 0 823 1152" width="823px" zoomAndPan="magnify"><defs/><g><!--cluster Idle--><g class="cluster" data-entity="Idle" data-source-line="3" data-uid="ent0002" id="cluster_Idle"><path d="M55.5,97 L216.5,97 A12.5,12.5 0 0 1 229,109.5 L229,118.2969 L43,118.2969 L43,109.5 A12.5,12.5 0 0 1 55.5,97" fill="#F1F1F1" style="stroke:#F1F1F1;stroke-width:1;"/><rect fill="none" height="198" rx="12.5" ry="12.5" style="stroke:#181818;stroke-width:0.5;" width="186" x="43" y="97"/><line style="stroke:#181818;stroke-width:0.5;" x1="43" x2="229" y1="118.2969" y2="118.2969"/><text fill="#000000" font-family="sans-serif" font-size="14" lengthAdjust="spacing" textLength="25.5186" x="123.2407" y="113.9951">Idle</text></g><!--cluster PlayingIntroMovie--><g class="cluster" data-entity="PlayingIntroMovie" data-source-line="8" data-uid="ent0003" id="cluster_PlayingIntroMovie"><path d="M19.5,360 L175.5,360 A12.5,12.5 0 0 1 188,372.5 L188,381.2969 L7,381.2969 L7,372.5 A12.5,12.5 0 0 1 19.5,360" fill="#F1F1F1" style="stroke:#F1F1F1;stroke-width:1;"/><rect fill="none" height="396" rx="12.5" ry="12.5" style="stroke:#181818;stroke-width:0.5;" width="181" x="7" y="360"/><line style="stroke:#181818;stroke-width:0.5;" x1="7" x2="188" y1="381.2969" y2="381.2969"/><text fill="#000000" font-family="sans-serif" font-size="14" lengthAdjust="spacing" textLength="125.0908" x="34.9546" y="376.9951">PlayingIntroMovie</text></g><!--cluster MainMenu--><g class="cluster" data-entity="MainMenu" data-source-line="15" data-uid="ent0004" id="cluster_MainMenu"><path d="M184.5,821 L359.5,821 A12.5,12.5 0 0 1 372,833.5 L372,842.2969 L172,842.2969 L172,833.5 A12.5,12.5 0 0 1 184.5,821" fill="#F1F1F1" style="stroke:#F1F1F1;stroke-width:1;"/><rect fill="none" height="325" rx="12.5" ry="12.5" style="stroke:#181818;stroke-width:0.5;" width="200" x="172" y="821"/><line style="stroke:#181818;stroke-width:0.5;" x1="172" x2="372" y1="842.2969" y2="842.2969"/><text fill="#000000" font-family="sans-serif" font-size="14" lengthAdjust="spacing" textLength="71.8594" x="236.0703" y="837.9951">MainMenu</text></g><!--cluster InGame--><g class="cluster" data-entity="InGame" data-source-line="21" data-uid="ent0005" id="cluster_InGame"><path d="M361.5,97 L712.5,97 A12.5,12.5 0 0 1 725,109.5 L725,118.2969 L349,118.2969 L349,109.5 A12.5,12.5 0 0 1 361.5,97" fill="#F1F1F1" style="stroke:#F1F1F1;stroke-width:1;"/><rect fill="none" height="365" rx="12.5" ry="12.5" style="stroke:#181818;stroke-width:0.5;" width="376" x="349" y="97"/><line style="stroke:#181818;stroke-width:0.5;" x1="349" x2="725" y1="118.2969" y2="118.2969"/><text fill="#000000" font-family="sans-serif" font-size="14" lengthAdjust="spacing" textLength="54.6807" x="509.6597" y="113.9951">InGame</text></g><!--cluster EndingScene--><g class="cluster" data-entity="EndingScene" data-source-line="28" data-uid="ent0006" id="cluster_EndingScene"><path d="M387.5,527 L530.5,527 A12.5,12.5 0 0 1 543,539.5 L543,548.2969 L375,548.2969 L375,539.5 A12.5,12.5 0 0 1 387.5,527" fill="#F1F1F1" style="stroke:#F1F1F1;stroke-width:1;"/><rect fill="none" height="229" rx="12.5" ry="12.5" style="stroke:#181818;stroke-width:0.5;" width="168" x="375" y="527"/><line style="stroke:#181818;stroke-width:0.5;" x1="375" x2="543" y1="548.2969" y2="548.2969"/><text fill="#000000" font-family="sans-serif" font-size="14" lengthAdjust="spacing" textLength="90.9385" x="413.5308" y="543.9951">EndingScene</text></g><ellipse cx="132" cy="150" fill="#222222" rx="10" ry="10" style="stroke:#222222;stroke-width:1;"/><g id="Idle.WaitingForStart"><rect fill="#F1F1F1" height="50" rx="12.5" ry="12.5" style="stroke:#181818;stroke-width:0.5;" width="130.0244" x="66.99" y="221"/><line style="stroke:#181818;stroke-width:0.5;" x1="66.99" x2="197.0144" y1="247.2969" y2="247.2969"/><text fill="#000000" font-family="sans-serif" font-size="14" lengthAdjust="spacing" textLength="110.0244" x="76.99" y="238.9951">WaitingForStart</text></g><ellipse cx="73" cy="413" fill="#222222" rx="10" ry="10" style="stroke:#222222;stroke-width:1;"/><g id="PlayingIntroMovie.Buffering"><rect fill="#F1F1F1" height="50" rx="12.5" ry="12.5" style="stroke:#181818;stroke-width:0.5;" width="84.3535" x="30.82" y="555"/><line style="stroke:#181818;stroke-width:0.5;" x1="30.82" x2="115.1735" y1="581.2969" y2="581.2969"/><text fill="#000000" font-family="sans-serif" font-size="14" lengthAdjust="spacing" textLength="64.3535" x="40.82" y="572.9951">Buffering</text></g><g id="PlayingIntroMovie.Playing"><rect fill="#F1F1F1" height="50" rx="12.5" ry="12.5" style="stroke:#181818;stroke-width:0.5;" width="70.8457" x="85.58" y="682"/><line style="stroke:#181818;stroke-width:0.5;" x1="85.58" x2="156.4257" y1="708.2969" y2="708.2969"/><text fill="#000000" font-family="sans-serif" font-size="14" lengthAdjust="spacing" textLength="50.8457" x="95.58" y="699.9951">Playing</text></g><ellipse cx="268" cy="874" fill="#222222" rx="10" ry="10" style="stroke:#222222;stroke-width:1;"/><g id="MainMenu.Interactive"><rect fill="#F1F1F1" height="50" rx="12.5" ry="12.5" style="stroke:#181818;stroke-width:0.5;" width="95.4141" x="220.29" y="945"/><line style="stroke:#181818;stroke-width:0.5;" x1="220.29" x2="315.7041" y1="971.2969" y2="971.2969"/><text fill="#000000" font-family="sans-serif" font-size="14" lengthAdjust="spacing" textLength="75.4141" x="230.29" y="962.9951">Interactive</text></g><g id="MainMenu.HelpSection"><rect fill="#F1F1F1" height="50" rx="12.5" ry="12.5" style="stroke:#181818;stroke-width:0.5;" width="103.9316" x="196.03" y="1072"/><line style="stroke:#181818;stroke-width:0.5;" x1="196.03" x2="299.9616" y1="1098.2969" y2="1098.2969"/><text fill="#000000" font-family="sans-serif" font-size="14" lengthAdjust="spacing" textLength="83.9316" x="206.03" y="1089.9951">HelpSection</text></g><ellipse cx="508" cy="150" fill="#222222" rx="10" ry="10" style="stroke:#222222;stroke-width:1;"/><g id="InGame.PresentingQuestion"><rect fill="#F1F1F1" height="50" rx="12.5" ry="12.5" style="stroke:#181818;stroke-width:0.5;" width="157.3477" x="429.33" y="221"/><line style="stroke:#181818;stroke-width:0.5;" x1="429.33" x2="586.6777" y1="247.2969" y2="247.2969"/><text fill="#000000" font-family="sans-serif" font-size="14" lengthAdjust="spacing" textLength="137.3477" x="439.33" y="238.9951">PresentingQuestion</text></g><g id="InGame.EvaluatingAnswer"><rect fill="#F1F1F1" height="50" rx="12.5" ry="12.5" style="stroke:#181818;stroke-width:0.5;" width="145.7539" x="373.12" y="388"/><line style="stroke:#181818;stroke-width:0.5;" x1="373.12" x2="518.8739" y1="414.2969" y2="414.2969"/><text fill="#000000" font-family="sans-serif" font-size="14" lengthAdjust="spacing" textLength="125.7539" x="383.12" y="405.9951">EvaluatingAnswer</text></g><ellipse cx="463" cy="580" fill="#222222" rx="10" ry="10" style="stroke:#222222;stroke-width:1;"/><g id="EndingScene.DisplayScore"><rect fill="#F1F1F1" height="50" rx="12.5" ry="12.5" style="stroke:#181818;stroke-width:0.5;" width="111.123" x="407.44" y="682"/><line style="stroke:#181818;stroke-width:0.5;" x1="407.44" x2="518.563" y1="708.2969" y2="708.2969"/><text fill="#000000" font-family="sans-serif" font-size="14" lengthAdjust="spacing" textLength="91.123" x="417.44" y="699.9951">DisplayScore</text></g><ellipse cx="221" cy="16" fill="#222222" rx="10" ry="10" style="stroke:#222222;stroke-width:1;"/><ellipse cx="279" cy="707" fill="none" rx="11" ry="11" style="stroke:#222222;stroke-width:1;"/><ellipse cx="279" cy="707" fill="#222222" rx="6" ry="6" style="stroke:#222222;stroke-width:1;"/><!--link *start* to Idle--><g class="link" data-entity-1="*start*" data-entity-2="Idle" data-source-line="1" data-uid="lnk3" id="link_*start*_Idle"><path d="M221,26.49 C221,33.94 221,45.1425 221,57.7994 C221,64.1278 221,70.8198 221,77.5882 C221,80.9724 221,84.3756 221,87.7621 C221,89.4553 221,91.1443 221,92.8246 C221,93.6648 221,94.5028 221,95.338 C221,95.7556 221,90.1726 221,90.5888" fill="none" id="*start*-to-Idle" style="stroke:#181818;stroke-width:1;"/><polygon fill="#181818" points="221,96.5888,225,87.5888,221,91.5888,217,87.5888,221,96.5888" style="stroke:#181818;stroke-width:1;"/><text fill="#000000" font-family="sans-serif" font-size="13" lengthAdjust="spacing" textLength="115.0449" x="222" y="69.0669">System initialized</text></g><!--link *start*Idle to WaitingForStart--><g class="link" data-entity-1="*start*Idle" data-entity-2="WaitingForStart" data-source-line="4" data-uid="lnk6" id="link_*start*Idle_WaitingForStart"><path d="M132,160.36 C132,174.29 132,194.95 132,214.65" fill="none" id="*start*Idle-to-WaitingForStart" style="stroke:#181818;stroke-width:1;"/><polygon fill="#181818" points="132,220.65,136,211.65,132,215.65,128,211.65,132,220.65" style="stroke:#181818;stroke-width:1;"/></g><!--link WaitingForStart to PlayingIntroMovie--><g class="link" data-entity-1="WaitingForStart" data-entity-2="PlayingIntroMovie" data-source-line="5" data-uid="lnk7" id="link_WaitingForStart_PlayingIntroMovie"><path d="M125.05,271.36 C121.03,291.04 119.29,318.28 134,336 C145.02,349.28 160.36,331.26 172,344 C174.485,346.7213 176.4855,349.7806 178.0823,353.0563 C178.8808,354.6942 179.5783,356.3861 180.185,358.1169 C180.3367,358.5496 180.4827,358.9847 180.6232,359.422 C180.6583,359.5314 178.8946,353.9167 178.929,354.0263" fill="none" id="WaitingForStart-to-PlayingIntroMovie" style="stroke:#181818;stroke-width:1;"/><polygon fill="#181818" points="180.7275,359.7504,181.8458,349.9653,179.2288,354.9804,174.2137,352.3633,180.7275,359.7504" style="stroke:#181818;stroke-width:1;"/><text fill="#000000" font-family="sans-serif" font-size="13" lengthAdjust="spacing" textLength="88.8989" x="135" y="332.0669">startSystem()</text></g><!--link *start*PlayingIntroMovie to Buffering--><g class="link" data-entity-1="*start*PlayingIntroMovie" data-entity-2="Buffering" data-source-line="9" data-uid="lnk10" id="link_*start*PlayingIntroMovie_Buffering"><path d="M73,423.34 C73,448.36 73,511.49 73,548.64" fill="none" id="*start*PlayingIntroMovie-to-Buffering" style="stroke:#181818;stroke-width:1;"/><polygon fill="#181818" points="73,554.64,77,545.64,73,549.64,69,545.64,73,554.64" style="stroke:#181818;stroke-width:1;"/></g><!--link Buffering to Playing--><g class="link" data-entity-1="Buffering" data-entity-2="Playing" data-source-line="10" data-uid="lnk12" id="link_Buffering_Playing"><path d="M82.37,605.4 C90.83,627.42 101.0487,654.0589 109.4987,676.0589" fill="none" id="Buffering-to-Playing" style="stroke:#181818;stroke-width:1;"/><polygon fill="#181818" points="111.65,681.66,112.1571,671.8242,109.8572,676.9925,104.689,674.6926,111.65,681.66" style="stroke:#181818;stroke-width:1;"/><text fill="#000000" font-family="sans-serif" font-size="13" lengthAdjust="spacing" textLength="88.1563" x="101" y="648.0669">mediaLoaded</text></g><!--link Playing to MainMenu--><g class="link" data-entity-1="Playing" data-entity-2="MainMenu" data-source-line="11" data-uid="lnk13" id="link_Playing_MainMenu"><path d="M120.81,732.27 C122.09,753.02 127.58,781.85 147,797 C165.32,811.29 338.93,789.23 356,805 C358.7063,807.5013 360.8744,810.3939 362.595,813.5465 C363.4553,815.1228 364.2038,816.764 364.8517,818.4539 C365.0137,818.8763 365.1694,819.3018 365.319,819.7301 C365.3938,819.9442 365.467,820.159 365.5388,820.3745 C365.5747,820.4823 363.7553,814.8841 363.7904,814.9922" fill="none" id="Playing-to-MainMenu" style="stroke:#181818;stroke-width:1;"/><polygon fill="#181818" points="365.6453,820.6982,366.667,810.9025,364.0995,815.9432,359.0589,813.3757,365.6453,820.6982" style="stroke:#181818;stroke-width:1;"/><text fill="#000000" font-family="sans-serif" font-size="13" lengthAdjust="spacing" textLength="110.8237" x="148" y="793.0669">movieCompleted</text></g><!--link Playing to MainMenu--><g class="link" data-entity-1="Playing" data-entity-2="MainMenu" data-source-line="12" data-uid="lnk14" id="link_Playing_MainMenu"><path d="M156.77,727.52 C182.3,741.01 217.71,758.83 250,772 C283.32,785.59 292.54,786.66 327,797 C339.81,800.84 347.29,794.86 356,805 C358.4,807.7963 360.3361,810.9123 361.8854,814.2298 C362.6601,815.8886 363.3381,817.5977 363.929,819.3423 C364.0767,819.7784 364.219,820.2168 364.356,820.6572 C364.3903,820.7673 362.6767,815.1376 362.7103,815.2479" fill="none" id="Playing-to-MainMenu-1" style="stroke:#181818;stroke-width:1;"/><polygon fill="#181818" points="364.4578,820.9878,365.6631,811.213,363.0016,816.2046,358.01,813.543,364.4578,820.9878" style="stroke:#181818;stroke-width:1;"/><text fill="#000000" font-family="sans-serif" font-size="13" lengthAdjust="spacing" textLength="73.3916" x="328" y="793.0669">skipClicked</text></g><!--link *start*MainMenu to Interactive--><g class="link" data-entity-1="*start*MainMenu" data-entity-2="Interactive" data-source-line="16" data-uid="lnk17" id="link_*start*MainMenu_Interactive"><path d="M268,884.36 C268,898.29 268,918.95 268,938.65" fill="none" id="*start*MainMenu-to-Interactive" style="stroke:#181818;stroke-width:1;"/><polygon fill="#181818" points="268,944.65,272,935.65,268,939.65,264,935.65,268,944.65" style="stroke:#181818;stroke-width:1;"/></g><!--link Interactive to InGame--><g class="link" data-entity-1="Interactive" data-entity-2="InGame" data-source-line="17" data-uid="lnk18" id="link_Interactive_InGame"><path d="M315.78,969.39 C434.81,969.08 735,959.87 735,875 C735,245 735,245 735,245 C735,224.395 730.7775,201.6975 726.4225,183.7688 C726.1503,182.6482 725.8776,181.5463 725.6054,180.4647 C725.4693,179.9239 725.3333,179.3881 725.1975,178.8577 C725.1636,178.7251 726.6229,184.404 726.589,184.2721" fill="none" id="Interactive-to-InGame" style="stroke:#181818;stroke-width:1;"/><polygon fill="#181818" points="725.0958,178.4608,723.4614,188.1731,726.3401,183.3035,731.2097,186.1822,725.0958,178.4608" style="stroke:#181818;stroke-width:1;"/><text fill="#000000" font-family="sans-serif" font-size="13" lengthAdjust="spacing" textLength="79.1235" x="736" y="584.5669">startGame()</text></g><!--link Interactive to HelpSection--><g class="link" data-entity-1="Interactive" data-entity-2="HelpSection" data-source-line="18" data-uid="lnk20" id="link_Interactive_HelpSection"><path d="M264.1,995.4 C260.57,1017.42 256.3579,1043.7354 252.8379,1065.7354" fill="none" id="Interactive-to-HelpSection" style="stroke:#181818;stroke-width:1;"/><polygon fill="#181818" points="251.89,1071.66,257.2617,1063.405,252.68,1066.7228,249.3622,1062.1411,251.89,1071.66" style="stroke:#181818;stroke-width:1;"/><text fill="#000000" font-family="sans-serif" font-size="13" lengthAdjust="spacing" textLength="107.8848" x="260" y="1038.0669">helpRequested()</text></g><!--link *start*InGame to PresentingQuestion--><g class="link" data-entity-1="*start*InGame" data-entity-2="PresentingQuestion" data-source-line="22" data-uid="lnk23" id="link_*start*InGame_PresentingQuestion"><path d="M508,160.36 C508,174.29 508,194.95 508,214.65" fill="none" id="*start*InGame-to-PresentingQuestion" style="stroke:#181818;stroke-width:1;"/><polygon fill="#181818" points="508,220.65,512,211.65,508,215.65,504,211.65,508,220.65" style="stroke:#181818;stroke-width:1;"/></g><!--link PresentingQuestion to EvaluatingAnswer--><g class="link" data-entity-1="PresentingQuestion" data-entity-2="EvaluatingAnswer" data-source-line="23" data-uid="lnk25" id="link_PresentingQuestion_EvaluatingAnswer"><path d="M453.82,271.39 C434.82,282.92 415.59,298.68 405,319 C393.18,341.69 404.1837,363.7995 419.1737,382.7995" fill="none" id="PresentingQuestion-to-EvaluatingAnswer" style="stroke:#181818;stroke-width:1;"/><polygon fill="#181818" points="422.89,387.51,420.4558,377.9667,419.7931,383.5846,414.1752,382.9218,422.89,387.51" style="stroke:#181818;stroke-width:1;"/><text fill="#000000" font-family="sans-serif" font-size="13" lengthAdjust="spacing" textLength="114.4165" x="406" y="332.0669">answerSubmitted</text></g><!--link EvaluatingAnswer to PresentingQuestion--><g class="link" data-entity-1="EvaluatingAnswer" data-entity-2="PresentingQuestion" data-source-line="24" data-uid="lnk26" id="link_EvaluatingAnswer_PresentingQuestion"><path d="M482.45,387.57 C498.73,374.43 516.21,356.66 525,336 C533.87,315.16 529.6141,295.1686 522.2441,276.7986" fill="none" id="EvaluatingAnswer-to-PresentingQuestion" style="stroke:#181818;stroke-width:1;"/><polygon fill="#181818" points="520.01,271.23,519.6488,281.0722,521.8717,275.8705,527.0735,278.0934,520.01,271.23" style="stroke:#181818;stroke-width:1;"/><text fill="#000000" font-family="sans-serif" font-size="13" lengthAdjust="spacing" textLength="127.3086" x="529" y="332.0669">hasMoreQuestions?</text></g><!--link EvaluatingAnswer to EndingScene--><g class="link" data-entity-1="EvaluatingAnswer" data-entity-2="EndingScene" data-source-line="25" data-uid="lnk27" id="link_EvaluatingAnswer_EndingScene"><path d="M428.61,438.24 C415.99,457.13 399.68,484.51 391,511 C389.8538,514.5025 388.8678,518.1539 388.0202,521.8668 C387.8083,522.795 387.605,523.7271 387.41,524.6616 C387.3126,525.1289 387.2171,525.5968 387.1238,526.0651 C387.0771,526.2993 388.1787,520.6444 388.133,520.8788" fill="none" id="EvaluatingAnswer-to-EndingScene" style="stroke:#181818;stroke-width:1;"/><polygon fill="#181818" points="386.9852,526.768,392.633,518.6993,387.9417,521.8603,384.7807,517.169,386.9852,526.768" style="stroke:#181818;stroke-width:1;"/><text fill="#000000" font-family="sans-serif" font-size="13" lengthAdjust="spacing" textLength="144.2378" x="400" y="499.0669">allQuestionsAnswered</text></g><!--link *start*EndingScene to DisplayScore--><g class="link" data-entity-1="*start*EndingScene" data-entity-2="DisplayScore" data-source-line="29" data-uid="lnk30" id="link_*start*EndingScene_DisplayScore"><path d="M463,590.4 C463,609.59 463,647.82 463,675.67" fill="none" id="*start*EndingScene-to-DisplayScore" style="stroke:#181818;stroke-width:1;"/><polygon fill="#181818" points="463,681.67,467,672.67,463,676.67,459,672.67,463,681.67" style="stroke:#181818;stroke-width:1;"/></g><!--link DisplayScore to MainMenu--><g class="link" data-entity-1="DisplayScore" data-entity-2="MainMenu" data-source-line="30" data-uid="lnk31" id="link_DisplayScore_MainMenu"><path d="M448.39,732.35 C434.835,754.94 414.18,789.365 396.6975,818.5025 C387.9562,833.0713 380.0081,846.3181 374.1372,856.1028 C373.4033,857.3259 375.789,853.35 375.1225,854.4607" fill="none" id="DisplayScore-to-MainMenu" style="stroke:#181818;stroke-width:1;"/><polygon fill="#181818" points="372.0355,859.6056,380.096,853.9463,374.608,855.3182,373.2361,849.8302,372.0355,859.6056" style="stroke:#181818;stroke-width:1;"/><text fill="#000000" font-family="sans-serif" font-size="13" lengthAdjust="spacing" textLength="133.0278" x="420" y="793.0669">returnToMainMenu()</text></g><!--link Idle to *end*--><g class="link" data-entity-1="Idle" data-entity-2="*end*" data-source-line="33" data-uid="lnk33" id="link_Idle_*end*"><path d="M229.1332,166.9704 C229.3327,167.3969 229.5342,167.8305 229.7375,168.2707 C230.1442,169.1513 230.5581,170.059 230.9775,170.9922 C232.6555,174.725 234.4231,178.8662 236.1775,183.315 C243.195,201.11 250,223.825 250,245 C250,245 250,245 250,581 C250,625.11 265.2192,670.1511 273.0792,690.8411" fill="none" id="Idle-to-*end*" style="stroke:#181818;stroke-width:1;"/><polygon fill="#181818" points="275.21,696.45,275.7531,686.6161,273.4343,691.7759,268.2746,689.4572,275.21,696.45" style="stroke:#181818;stroke-width:1;"/><text fill="#000000" font-family="sans-serif" font-size="13" lengthAdjust="spacing" textLength="73.5693" x="251" y="417.5669">shutdown()</text></g><!--link EndingScene to *end*--><g class="link" data-entity-1="EndingScene" data-entity-2="*end*" data-source-line="34" data-uid="lnk34" id="link_EndingScene_*end*"><path d="M374.8769,585.9478 C374.8065,585.9923 374.7357,586.0371 374.6645,586.0822 C370.1103,588.9675 364.0306,592.9762 357.2963,597.835 C343.8275,607.5525 327.74,620.67 316,635 C299.97,654.57 290.199,676.6058 284.639,690.9458" fill="none" id="EndingScene-to-*end*" style="stroke:#181818;stroke-width:1;"/><polygon fill="#181818" points="282.47,696.54,289.453,689.5947,284.2775,691.8781,281.9941,686.7026,282.47,696.54" style="stroke:#181818;stroke-width:1;"/><text fill="#000000" font-family="sans-serif" font-size="13" lengthAdjust="spacing" textLength="73.2456" x="317" y="648.0669">exitGame()</text></g><!--SRC=[VPBFJiCm3CRlUueS0Malm044Oun9L1eKYSF4mJGUYvOc9Kat1kBTiTEjVpLkyUUVypbsbXTlOZo-4dEfKLoATEy3va8P5HHezOrIYD781mXO8JyK2x4yLBq2SURZtheqW0inrzUOMsZOapOtmTd4RXLRUSvMVcVdLFdRE0tnhkrjkLgX8oAgJTIo8eCSfO972p8-GjGPfX9G9a5JCiO64viN6iF_fD-eOg9LjebOgz-QwRP9_QE3BAWjHhqTL_aPvFKe-1m7CGGVK1SfKcmDqMkAdl6pH1gTx8_kS6UtaOL3ZuQtyiHLV4ryvb1cUhe5NGBBDyRlq94bn4DQlkSg78Sqm4uuKSFW4-lmgFZhq_LJ8qb8CpGy5z2wBggW_kJRVFVDTyeNjCOq8-UOw0YzpJeCfJClzYWrKusVdcc-bpQrBeEqEnE1jdc3u9SwxF8F]--></g></svg>