<svg xmlns="http://www.w3.org/2000/svg" xmlns:xlink="http://www.w3.org/1999/xlink" contentStyleType="text/css" data-diagram-type="CLASS" height="316px" preserveAspectRatio="none" style="width:1697px;height:316px;background:#FFFFFF;" version="1.1" viewBox="0 0 1697 316" width="1697px" zoomAndPan="magnify"><defs/><g><!--class FlashUI--><g class="entity" data-entity="FlashUI" data-source-line="1" data-uid="ent0002" id="entity_FlashUI"><rect fill="#F1F1F1" height="113.1875" rx="2.5" ry="2.5" style="stroke:#181818;stroke-width:0.5;" width="185.4619" x="7" y="7"/><ellipse cx="69.9487" cy="23" fill="#ADD1B2" rx="11" ry="11" style="stroke:#181818;stroke-width:1;"/><path d="M72.9175,28.6406 Q72.3394,28.9375 71.6987,29.0781 Q71.0581,29.2344 70.355,29.2344 Q67.855,29.2344 66.5269,27.5938 Q65.2144,25.9375 65.2144,22.8125 Q65.2144,19.6875 66.5269,18.0313 Q67.855,16.375 70.355,16.375 Q71.0581,16.375 71.6987,16.5313 Q72.355,16.6875 72.9175,16.9844 L72.9175,19.7031 Q72.2925,19.125 71.6987,18.8594 Q71.105,18.5781 70.48,18.5781 Q69.1362,18.5781 68.4487,19.6563 Q67.7612,20.7188 67.7612,22.8125 Q67.7612,24.9063 68.4487,25.9844 Q69.1362,27.0469 70.48,27.0469 Q71.105,27.0469 71.6987,26.7813 Q72.2925,26.5 72.9175,25.9219 L72.9175,28.6406 Z " fill="#000000"/><text fill="#000000" font-family="sans-serif" font-size="14" lengthAdjust="spacing" textLength="51.0645" x="90.4487" y="27.8467">FlashUI</text><line style="stroke:#181818;stroke-width:0.5;" x1="8" x2="191.4619" y1="39" y2="39"/><rect fill="none" height="6" style="stroke:#C82930;stroke-width:1;" width="6" x="15" y="49.6484"/><text fill="#000000" font-family="sans-serif" font-size="14" lengthAdjust="spacing" textLength="159.4619" x="27" y="55.9951">movieLoaded: boolean</text><line style="stroke:#181818;stroke-width:0.5;" x1="8" x2="191.4619" y1="63.2969" y2="63.2969"/><ellipse cx="18" cy="76.9453" fill="#84BE84" rx="3" ry="3" style="stroke:#038048;stroke-width:1;"/><text fill="#000000" font-family="sans-serif" font-size="14" lengthAdjust="spacing" textLength="81.9971" x="27" y="80.292">playMovie()</text><ellipse cx="18" cy="93.2422" fill="#84BE84" rx="3" ry="3" style="stroke:#038048;stroke-width:1;"/><text fill="#000000" font-family="sans-serif" font-size="14" lengthAdjust="spacing" textLength="80.5342" x="27" y="96.5889">skipMovie()</text><ellipse cx="18" cy="109.5391" fill="#84BE84" rx="3" ry="3" style="stroke:#038048;stroke-width:1;"/><text fill="#000000" font-family="sans-serif" font-size="14" lengthAdjust="spacing" textLength="132.1045" x="27" y="112.8857">handleClickEvent()</text></g><!--class MediaDeliveryServer--><g class="entity" data-entity="MediaDeliveryServer" data-source-line="8" data-uid="ent0003" id="entity_MediaDeliveryServer"><rect fill="#F1F1F1" height="80.5938" rx="2.5" ry="2.5" style="stroke:#181818;stroke-width:0.5;" width="213.5303" x="100.97" y="220.34"/><ellipse cx="131.927" cy="236.34" fill="#ADD1B2" rx="11" ry="11" style="stroke:#181818;stroke-width:1;"/><path d="M134.8957,241.9806 Q134.3176,242.2775 133.677,242.4181 Q133.0364,242.5744 132.3332,242.5744 Q129.8332,242.5744 128.5051,240.9337 Q127.1926,239.2775 127.1926,236.1525 Q127.1926,233.0275 128.5051,231.3712 Q129.8332,229.715 132.3332,229.715 Q133.0364,229.715 133.677,229.8712 Q134.3332,230.0275 134.8957,230.3244 L134.8957,233.0431 Q134.2707,232.465 133.677,232.1994 Q133.0832,231.9181 132.4582,231.9181 Q131.1145,231.9181 130.427,232.9962 Q129.7395,234.0587 129.7395,236.1525 Q129.7395,238.2462 130.427,239.3244 Q131.1145,240.3869 132.4582,240.3869 Q133.0832,240.3869 133.677,240.1212 Q134.2707,239.84 134.8957,239.2619 L134.8957,241.9806 Z " fill="#000000"/><text fill="#000000" font-family="sans-serif" font-size="14" lengthAdjust="spacing" textLength="146.0703" x="149.473" y="241.1867">MediaDeliveryServer</text><line style="stroke:#181818;stroke-width:0.5;" x1="101.97" x2="313.5003" y1="252.34" y2="252.34"/><line style="stroke:#181818;stroke-width:0.5;" x1="101.97" x2="313.5003" y1="260.34" y2="260.34"/><ellipse cx="111.97" cy="273.9884" fill="#84BE84" rx="3" ry="3" style="stroke:#038048;stroke-width:1;"/><text fill="#000000" font-family="sans-serif" font-size="14" lengthAdjust="spacing" textLength="187.5303" x="120.97" y="277.3351">deliverMedia(asset: string)</text><polygon fill="#FFFF44" points="111.97,285.2853,115.97,289.2853,111.97,293.2853,107.97,289.2853" style="stroke:#B38D22;stroke-width:1;"/><text fill="#000000" font-family="sans-serif" font-size="14" lengthAdjust="spacing" textLength="143.8555" x="120.97" y="293.632">optimizeStreaming()</text></g><!--class AdminInterface--><g class="entity" data-entity="AdminInterface" data-source-line="13" data-uid="ent0004" id="entity_AdminInterface"><rect fill="#F1F1F1" height="113.1875" rx="2.5" ry="2.5" style="stroke:#181818;stroke-width:0.5;" width="281.124" x="479.17" y="7"/><ellipse cx="561.7105" cy="23" fill="#ADD1B2" rx="11" ry="11" style="stroke:#181818;stroke-width:1;"/><path d="M564.6793,28.6406 Q564.1012,28.9375 563.4605,29.0781 Q562.8199,29.2344 562.1168,29.2344 Q559.6168,29.2344 558.2887,27.5938 Q556.9762,25.9375 556.9762,22.8125 Q556.9762,19.6875 558.2887,18.0313 Q559.6168,16.375 562.1168,16.375 Q562.8199,16.375 563.4605,16.5313 Q564.1168,16.6875 564.6793,16.9844 L564.6793,19.7031 Q564.0543,19.125 563.4605,18.8594 Q562.8668,18.5781 562.2418,18.5781 Q560.898,18.5781 560.2105,19.6563 Q559.523,20.7188 559.523,22.8125 Q559.523,24.9063 560.2105,25.9844 Q560.898,27.0469 562.2418,27.0469 Q562.8668,27.0469 563.4605,26.7813 Q564.0543,26.5 564.6793,25.9219 L564.6793,28.6406 Z " fill="#000000"/><text fill="#000000" font-family="sans-serif" font-size="14" lengthAdjust="spacing" textLength="107.543" x="582.2105" y="27.8467">AdminInterface</text><line style="stroke:#181818;stroke-width:0.5;" x1="480.17" x2="759.294" y1="39" y2="39"/><rect fill="none" height="6" style="stroke:#C82930;stroke-width:1;" width="6" x="487.17" y="49.6484"/><text fill="#000000" font-family="sans-serif" font-size="14" lengthAdjust="spacing" textLength="132.3232" x="499.17" y="55.9951">currentUser: string</text><line style="stroke:#181818;stroke-width:0.5;" x1="480.17" x2="759.294" y1="63.2969" y2="63.2969"/><ellipse cx="490.17" cy="76.9453" fill="#84BE84" rx="3" ry="3" style="stroke:#038048;stroke-width:1;"/><text fill="#000000" font-family="sans-serif" font-size="14" lengthAdjust="spacing" textLength="255.124" x="499.17" y="80.292">authenticate(password: string): bool</text><ellipse cx="490.17" cy="93.2422" fill="#84BE84" rx="3" ry="3" style="stroke:#038048;stroke-width:1;"/><text fill="#000000" font-family="sans-serif" font-size="14" lengthAdjust="spacing" textLength="196.2461" x="499.17" y="96.5889">renderForm(questionID: int)</text><ellipse cx="490.17" cy="109.5391" fill="#84BE84" rx="3" ry="3" style="stroke:#038048;stroke-width:1;"/><text fill="#000000" font-family="sans-serif" font-size="14" lengthAdjust="spacing" textLength="184.2764" x="499.17" y="112.8857">validateInput(data: string)</text></g><!--class CMS--><g class="entity" data-entity="CMS" data-source-line="20" data-uid="ent0005" id="entity_CMS"><rect fill="#F1F1F1" height="96.8906" rx="2.5" ry="2.5" style="stroke:#181818;stroke-width:0.5;" width="264.5811" x="457.44" y="212.19"/><ellipse cx="570.1099" cy="228.19" fill="#ADD1B2" rx="11" ry="11" style="stroke:#181818;stroke-width:1;"/><path d="M573.0787,233.8306 Q572.5005,234.1275 571.8599,234.2681 Q571.2193,234.4244 570.5162,234.4244 Q568.0162,234.4244 566.688,232.7838 Q565.3755,231.1275 565.3755,228.0025 Q565.3755,224.8775 566.688,223.2213 Q568.0162,221.565 570.5162,221.565 Q571.2193,221.565 571.8599,221.7213 Q572.5162,221.8775 573.0787,222.1744 L573.0787,224.8931 Q572.4537,224.315 571.8599,224.0494 Q571.2662,223.7681 570.6412,223.7681 Q569.2974,223.7681 568.6099,224.8463 Q567.9224,225.9088 567.9224,228.0025 Q567.9224,230.0963 568.6099,231.1744 Q569.2974,232.2369 570.6412,232.2369 Q571.2662,232.2369 571.8599,231.9713 Q572.4537,231.69 573.0787,231.1119 L573.0787,233.8306 Z " fill="#000000"/><text fill="#000000" font-family="sans-serif" font-size="14" lengthAdjust="spacing" textLength="30.7412" x="590.6099" y="233.0367">CMS</text><line style="stroke:#181818;stroke-width:0.5;" x1="458.44" x2="721.0211" y1="244.19" y2="244.19"/><line style="stroke:#181818;stroke-width:0.5;" x1="458.44" x2="721.0211" y1="252.19" y2="252.19"/><ellipse cx="468.44" cy="265.8384" fill="#84BE84" rx="3" ry="3" style="stroke:#038048;stroke-width:1;"/><text fill="#000000" font-family="sans-serif" font-size="14" lengthAdjust="spacing" textLength="238.5811" x="477.44" y="269.1851">saveQuestion(question: Question)</text><ellipse cx="468.44" cy="282.1353" fill="#84BE84" rx="3" ry="3" style="stroke:#038048;stroke-width:1;"/><text fill="#000000" font-family="sans-serif" font-size="14" lengthAdjust="spacing" textLength="215.4414" x="477.44" y="285.482">loadQuestion(id: int): Question</text><rect fill="#F24D5C" height="6" style="stroke:#C82930;stroke-width:1;" width="6" x="465.44" y="295.4322"/><text fill="#000000" font-family="sans-serif" font-size="14" lengthAdjust="spacing" textLength="180.1338" x="477.44" y="301.7789">auditChange(user: string)</text></g><!--class StorylineEngine--><g class="entity" data-entity="StorylineEngine" data-source-line="26" data-uid="ent0006" id="entity_StorylineEngine"><rect fill="#F1F1F1" height="96.8906" rx="2.5" ry="2.5" style="stroke:#181818;stroke-width:0.5;" width="273.0098" x="1129.23" y="15.15"/><ellipse cx="1206.3701" cy="31.15" fill="#ADD1B2" rx="11" ry="11" style="stroke:#181818;stroke-width:1;"/><path d="M1209.3389,36.7906 Q1208.7608,37.0875 1208.1201,37.2281 Q1207.4795,37.3844 1206.7764,37.3844 Q1204.2764,37.3844 1202.9483,35.7437 Q1201.6358,34.0875 1201.6358,30.9625 Q1201.6358,27.8375 1202.9483,26.1812 Q1204.2764,24.525 1206.7764,24.525 Q1207.4795,24.525 1208.1201,24.6812 Q1208.7764,24.8375 1209.3389,25.1344 L1209.3389,27.8531 Q1208.7139,27.275 1208.1201,27.0094 Q1207.5264,26.7281 1206.9014,26.7281 Q1205.5576,26.7281 1204.8701,27.8062 Q1204.1826,28.8687 1204.1826,30.9625 Q1204.1826,33.0562 1204.8701,34.1344 Q1205.5576,35.1969 1206.9014,35.1969 Q1207.5264,35.1969 1208.1201,34.9312 Q1208.7139,34.65 1209.3389,34.0719 L1209.3389,36.7906 Z " fill="#000000"/><text fill="#000000" font-family="sans-serif" font-size="14" lengthAdjust="spacing" textLength="110.2295" x="1226.8701" y="35.9967">StorylineEngine</text><line style="stroke:#181818;stroke-width:0.5;" x1="1130.23" x2="1401.2398" y1="47.15" y2="47.15"/><rect fill="none" height="6" style="stroke:#C82930;stroke-width:1;" width="6" x="1137.23" y="57.7984"/><text fill="#000000" font-family="sans-serif" font-size="14" lengthAdjust="spacing" textLength="176.1826" x="1149.23" y="64.1451">currentPlotBranch: string</text><line style="stroke:#181818;stroke-width:0.5;" x1="1130.23" x2="1401.2398" y1="71.4469" y2="71.4469"/><ellipse cx="1140.23" cy="85.0953" fill="#84BE84" rx="3" ry="3" style="stroke:#038048;stroke-width:1;"/><text fill="#000000" font-family="sans-serif" font-size="14" lengthAdjust="spacing" textLength="247.0098" x="1149.23" y="88.442">adjustStoryline(progress: Progress)</text><ellipse cx="1140.23" cy="101.3922" fill="#84BE84" rx="3" ry="3" style="stroke:#038048;stroke-width:1;"/><text fill="#000000" font-family="sans-serif" font-size="14" lengthAdjust="spacing" textLength="161.3076" x="1149.23" y="104.7389">getNextScene(): Scene</text></g><!--class GameStateManager--><g class="entity" data-entity="GameStateManager" data-source-line="32" data-uid="ent0007" id="entity_GameStateManager"><rect fill="#F1F1F1" height="96.8906" rx="2.5" ry="2.5" style="stroke:#181818;stroke-width:0.5;" width="252.8984" x="1437.28" y="15.15"/><ellipse cx="1489.4279" cy="31.15" fill="#ADD1B2" rx="11" ry="11" style="stroke:#181818;stroke-width:1;"/><path d="M1492.3967,36.7906 Q1491.8186,37.0875 1491.1779,37.2281 Q1490.5373,37.3844 1489.8342,37.3844 Q1487.3342,37.3844 1486.0061,35.7437 Q1484.6936,34.0875 1484.6936,30.9625 Q1484.6936,27.8375 1486.0061,26.1812 Q1487.3342,24.525 1489.8342,24.525 Q1490.5373,24.525 1491.1779,24.6812 Q1491.8342,24.8375 1492.3967,25.1344 L1492.3967,27.8531 Q1491.7717,27.275 1491.1779,27.0094 Q1490.5842,26.7281 1489.9592,26.7281 Q1488.6154,26.7281 1487.9279,27.8062 Q1487.2404,28.8687 1487.2404,30.9625 Q1487.2404,33.0562 1487.9279,34.1344 Q1488.6154,35.1969 1489.9592,35.1969 Q1490.5842,35.1969 1491.1779,34.9312 Q1491.7717,34.65 1492.3967,34.0719 L1492.3967,36.7906 Z " fill="#000000"/><text fill="#000000" font-family="sans-serif" font-size="14" lengthAdjust="spacing" textLength="140.1025" x="1509.9279" y="35.9967">GameStateManager</text><line style="stroke:#181818;stroke-width:0.5;" x1="1438.28" x2="1689.1784" y1="47.15" y2="47.15"/><rect fill="none" height="6" style="stroke:#C82930;stroke-width:1;" width="6" x="1445.28" y="57.7984"/><text fill="#000000" font-family="sans-serif" font-size="14" lengthAdjust="spacing" textLength="134.3398" x="1457.28" y="64.1451">currentState: State</text><line style="stroke:#181818;stroke-width:0.5;" x1="1438.28" x2="1689.1784" y1="71.4469" y2="71.4469"/><ellipse cx="1448.28" cy="85.0953" fill="#84BE84" rx="3" ry="3" style="stroke:#038048;stroke-width:1;"/><text fill="#000000" font-family="sans-serif" font-size="14" lengthAdjust="spacing" textLength="226.8984" x="1457.28" y="88.442">transitionState(newState: State)</text><ellipse cx="1448.28" cy="101.3922" fill="#84BE84" rx="3" ry="3" style="stroke:#038048;stroke-width:1;"/><text fill="#000000" font-family="sans-serif" font-size="14" lengthAdjust="spacing" textLength="163.0098" x="1457.28" y="104.7389">persistScore(score: int)</text></g><!--class LocalStorageModule--><g class="entity" data-entity="LocalStorageModule" data-source-line="38" data-uid="ent0008" id="entity_LocalStorageModule"><rect fill="#F1F1F1" height="96.8906" rx="2.5" ry="2.5" style="stroke:#181818;stroke-width:0.5;" width="237.8184" x="1444.82" y="212.19"/><ellipse cx="1488.4416" cy="228.19" fill="#ADD1B2" rx="11" ry="11" style="stroke:#181818;stroke-width:1;"/><path d="M1491.4103,233.8306 Q1490.8322,234.1275 1490.1916,234.2681 Q1489.551,234.4244 1488.8478,234.4244 Q1486.3478,234.4244 1485.0197,232.7838 Q1483.7072,231.1275 1483.7072,228.0025 Q1483.7072,224.8775 1485.0197,223.2213 Q1486.3478,221.565 1488.8478,221.565 Q1489.551,221.565 1490.1916,221.7213 Q1490.8478,221.8775 1491.4103,222.1744 L1491.4103,224.8931 Q1490.7853,224.315 1490.1916,224.0494 Q1489.5978,223.7681 1488.9728,223.7681 Q1487.6291,223.7681 1486.9416,224.8463 Q1486.2541,225.9088 1486.2541,228.0025 Q1486.2541,230.0963 1486.9416,231.1744 Q1487.6291,232.2369 1488.9728,232.2369 Q1489.5978,232.2369 1490.1916,231.9713 Q1490.7853,231.69 1491.4103,231.1119 L1491.4103,233.8306 Z " fill="#000000"/><text fill="#000000" font-family="sans-serif" font-size="14" lengthAdjust="spacing" textLength="142.2148" x="1508.8019" y="233.0367">LocalStorageModule</text><line style="stroke:#181818;stroke-width:0.5;" x1="1445.82" x2="1681.6384" y1="244.19" y2="244.19"/><line style="stroke:#181818;stroke-width:0.5;" x1="1445.82" x2="1681.6384" y1="252.19" y2="252.19"/><ellipse cx="1455.82" cy="265.8384" fill="#84BE84" rx="3" ry="3" style="stroke:#038048;stroke-width:1;"/><text fill="#000000" font-family="sans-serif" font-size="14" lengthAdjust="spacing" textLength="211.8184" x="1464.82" y="269.1851">store(key: string, value: JSON)</text><ellipse cx="1455.82" cy="282.1353" fill="#84BE84" rx="3" ry="3" style="stroke:#038048;stroke-width:1;"/><text fill="#000000" font-family="sans-serif" font-size="14" lengthAdjust="spacing" textLength="183.9756" x="1464.82" y="285.482">retrieve(key: string): JSON</text><rect fill="#F24D5C" height="6" style="stroke:#C82930;stroke-width:1;" width="6" x="1452.82" y="295.4322"/><text fill="#000000" font-family="sans-serif" font-size="14" lengthAdjust="spacing" textLength="173.1611" x="1464.82" y="301.7789">encryptData(data: JSON)</text></g><!--class SecurityModule--><g class="entity" data-entity="SecurityModule" data-source-line="44" data-uid="ent0009" id="entity_SecurityModule"><rect fill="#F1F1F1" height="96.8906" rx="2.5" ry="2.5" style="stroke:#181818;stroke-width:0.5;" width="274.6299" x="785.42" y="212.19"/><ellipse cx="864.2862" cy="228.19" fill="#ADD1B2" rx="11" ry="11" style="stroke:#181818;stroke-width:1;"/><path d="M867.255,233.8306 Q866.6768,234.1275 866.0362,234.2681 Q865.3956,234.4244 864.6925,234.4244 Q862.1925,234.4244 860.8643,232.7838 Q859.5518,231.1275 859.5518,228.0025 Q859.5518,224.8775 860.8643,223.2213 Q862.1925,221.565 864.6925,221.565 Q865.3956,221.565 866.0362,221.7213 Q866.6925,221.8775 867.255,222.1744 L867.255,224.8931 Q866.63,224.315 866.0362,224.0494 Q865.4425,223.7681 864.8175,223.7681 Q863.4737,223.7681 862.7862,224.8463 Q862.0987,225.9088 862.0987,228.0025 Q862.0987,230.0963 862.7862,231.1744 Q863.4737,232.2369 864.8175,232.2369 Q865.4425,232.2369 866.0362,231.9713 Q866.63,231.69 867.255,231.1119 L867.255,233.8306 Z " fill="#000000"/><text fill="#000000" font-family="sans-serif" font-size="14" lengthAdjust="spacing" textLength="108.3975" x="884.7862" y="233.0367">SecurityModule</text><line style="stroke:#181818;stroke-width:0.5;" x1="786.42" x2="1059.0499" y1="244.19" y2="244.19"/><line style="stroke:#181818;stroke-width:0.5;" x1="786.42" x2="1059.0499" y1="252.19" y2="252.19"/><ellipse cx="796.42" cy="265.8384" fill="#84BE84" rx="3" ry="3" style="stroke:#038048;stroke-width:1;"/><text fill="#000000" font-family="sans-serif" font-size="14" lengthAdjust="spacing" textLength="235.874" x="805.42" y="269.1851">sanitizeInput(input: string): string</text><ellipse cx="796.42" cy="282.1353" fill="#84BE84" rx="3" ry="3" style="stroke:#038048;stroke-width:1;"/><text fill="#000000" font-family="sans-serif" font-size="14" lengthAdjust="spacing" textLength="248.6299" x="805.42" y="285.482">validateSession(token: string): bool</text><ellipse cx="796.42" cy="298.4322" fill="#84BE84" rx="3" ry="3" style="stroke:#038048;stroke-width:1;"/><text fill="#000000" font-family="sans-serif" font-size="14" lengthAdjust="spacing" textLength="197.832" x="805.42" y="301.7789">preventXSS(payload: string)</text></g><!--class ExternalLinkHandler--><g class="entity" data-entity="ExternalLinkHandler" data-source-line="50" data-uid="ent0010" id="entity_ExternalLinkHandler"><rect fill="#F1F1F1" height="80.5938" rx="2.5" ry="2.5" style="stroke:#181818;stroke-width:0.5;" width="288.3223" x="805.57" y="23.3"/><ellipse cx="874.4181" cy="39.3" fill="#ADD1B2" rx="11" ry="11" style="stroke:#181818;stroke-width:1;"/><path d="M877.3869,44.9406 Q876.8088,45.2375 876.1681,45.3781 Q875.5275,45.5344 874.8244,45.5344 Q872.3244,45.5344 870.9963,43.8938 Q869.6838,42.2375 869.6838,39.1125 Q869.6838,35.9875 870.9963,34.3313 Q872.3244,32.675 874.8244,32.675 Q875.5275,32.675 876.1681,32.8313 Q876.8244,32.9875 877.3869,33.2844 L877.3869,36.0031 Q876.7619,35.425 876.1681,35.1594 Q875.5744,34.8781 874.9494,34.8781 Q873.6056,34.8781 872.9181,35.9563 Q872.2306,37.0188 872.2306,39.1125 Q872.2306,41.2063 872.9181,42.2844 Q873.6056,43.3469 874.9494,43.3469 Q875.5744,43.3469 876.1681,43.0813 Q876.7619,42.8 877.3869,42.2219 L877.3869,44.9406 Z " fill="#000000"/><text fill="#000000" font-family="sans-serif" font-size="14" lengthAdjust="spacing" textLength="142.126" x="894.9181" y="44.1467">ExternalLinkHandler</text><line style="stroke:#181818;stroke-width:0.5;" x1="806.57" x2="1092.8923" y1="55.3" y2="55.3"/><line style="stroke:#181818;stroke-width:0.5;" x1="806.57" x2="1092.8923" y1="63.3" y2="63.3"/><ellipse cx="816.57" cy="76.9484" fill="#84BE84" rx="3" ry="3" style="stroke:#038048;stroke-width:1;"/><text fill="#000000" font-family="sans-serif" font-size="14" lengthAdjust="spacing" textLength="172.0674" x="825.57" y="80.2951">openExternal(url: string)</text><ellipse cx="816.57" cy="93.2453" fill="#84BE84" rx="3" ry="3" style="stroke:#038048;stroke-width:1;"/><text fill="#000000" font-family="sans-serif" font-size="14" lengthAdjust="spacing" textLength="262.3223" x="825.57" y="96.592">validateDomain(domain: string): bool</text></g><!--class DecisionTreeModule--><g class="entity" data-entity="DecisionTreeModule" data-source-line="57" data-uid="ent0013" id="entity_DecisionTreeModule"><rect fill="#F1F1F1" height="48" rx="2.5" ry="2.5" style="stroke:#181818;stroke-width:0.5;" width="174.0439" x="1178.71" y="236.63"/><ellipse cx="1193.71" cy="252.63" fill="#ADD1B2" rx="11" ry="11" style="stroke:#181818;stroke-width:1;"/><path d="M1196.6788,258.2706 Q1196.1006,258.5675 1195.46,258.7081 Q1194.8194,258.8644 1194.1163,258.8644 Q1191.6163,258.8644 1190.2881,257.2238 Q1188.9756,255.5675 1188.9756,252.4425 Q1188.9756,249.3175 1190.2881,247.6613 Q1191.6163,246.005 1194.1163,246.005 Q1194.8194,246.005 1195.46,246.1613 Q1196.1163,246.3175 1196.6788,246.6144 L1196.6788,249.3331 Q1196.0538,248.755 1195.46,248.4894 Q1194.8663,248.2081 1194.2413,248.2081 Q1192.8975,248.2081 1192.21,249.2863 Q1191.5225,250.3488 1191.5225,252.4425 Q1191.5225,254.5363 1192.21,255.6144 Q1192.8975,256.6769 1194.2413,256.6769 Q1194.8663,256.6769 1195.46,256.4113 Q1196.0538,256.13 1196.6788,255.5519 L1196.6788,258.2706 Z " fill="#000000"/><text fill="#000000" font-family="sans-serif" font-size="14" lengthAdjust="spacing" textLength="142.0439" x="1207.71" y="257.4767">DecisionTreeModule</text><line style="stroke:#181818;stroke-width:0.5;" x1="1179.71" x2="1351.7539" y1="268.63" y2="268.63"/><line style="stroke:#181818;stroke-width:0.5;" x1="1179.71" x2="1351.7539" y1="276.63" y2="276.63"/></g><g class="entity" data-entity="GMN18" data-source-line="63" data-uid="ent0019" id="entity_GMN18"><path d="M226.99,43.46 L226.99,83.7256 L424.4802,83.7256 L424.4802,53.46 L414.4802,43.46 L226.99,43.46" fill="#FEFFDD" style="stroke:#181818;stroke-width:0.5;"/><path d="M414.4802,43.46 L414.4802,53.46 L424.4802,53.46 L414.4802,43.46" fill="#FEFFDD" style="stroke:#181818;stroke-width:1;"/><text fill="#000000" font-family="sans-serif" font-size="13" lengthAdjust="spacing" textLength="164.2266" x="232.99" y="60.5269">Uses CDNIntegration and</text><text fill="#000000" font-family="sans-serif" font-size="13" lengthAdjust="spacing" textLength="168.2256" x="232.99" y="75.6597">MediaOptimizer internally</text></g><!--link FlashUI to MediaDeliveryServer--><g class="link" data-entity-1="FlashUI" data-entity-2="MediaDeliveryServer" data-source-line="55" data-uid="lnk11" id="link_FlashUI_MediaDeliveryServer"><path codeLine="55" d="M118.97,120.51 C126.78,140.53 136.6,162.9 147.73,182.19 C155.21,195.15 160.9516,203.6276 170.1016,215.3676" fill="none" id="FlashUI-to-MediaDeliveryServer" style="stroke:#181818;stroke-width:1;"/><polygon fill="#181818" points="173.79,220.1,171.4124,210.5424,170.7163,216.1563,165.1025,215.4603,173.79,220.1" style="stroke:#181818;stroke-width:1;"/><text fill="#000000" font-family="sans-serif" font-size="13" lengthAdjust="spacing" textLength="71.6714" x="188.0442" y="163.2569">&#171;depends&#187;</text><text fill="#000000" font-family="sans-serif" font-size="13" lengthAdjust="spacing" textLength="150.2998" x="148.73" y="178.3897">Requests media assets</text></g><!--link AdminInterface to CMS--><g class="link" data-entity-1="AdminInterface" data-entity-2="CMS" data-source-line="56" data-uid="lnk12" id="link_AdminInterface_CMS"><path codeLine="56" d="M594.87,120.37 C591.5,130.13 588.57,140.33 586.73,150.19 C583.01,170.18 582.56,186.6008 583.72,205.9008" fill="none" id="AdminInterface-to-CMS" style="stroke:#181818;stroke-width:1;"/><polygon fill="#181818" points="584.08,211.89,587.5328,202.6662,583.78,206.899,579.5472,203.1462,584.08,211.89" style="stroke:#181818;stroke-width:1;"/><text fill="#000000" font-family="sans-serif" font-size="13" lengthAdjust="spacing" textLength="45.6904" x="652.5935" y="163.2569">&#171;uses&#187;</text><text fill="#000000" font-family="sans-serif" font-size="13" lengthAdjust="spacing" textLength="175.4175" x="587.73" y="178.3897">Manages question updates</text></g><!--reverse link StorylineEngine to DecisionTreeModule--><g class="link" data-entity-1="StorylineEngine" data-entity-2="DecisionTreeModule" data-source-line="57" data-uid="lnk14" id="link_StorylineEngine_DecisionTreeModule"><path codeLine="57" d="M1265.73,124.31 C1265.73,163.67 1265.73,205.82 1265.73,236.31" fill="none" id="StorylineEngine-backto-DecisionTreeModule" style="stroke:#181818;stroke-width:1;"/><polygon fill="#181818" points="1265.73,112.31,1261.73,118.31,1265.73,124.31,1269.73,118.31,1265.73,112.31" style="stroke:#181818;stroke-width:1;"/><text fill="#000000" font-family="sans-serif" font-size="13" lengthAdjust="spacing" textLength="158.1836" x="1266.73" y="170.7569">Controls branching logic</text><text fill="#000000" font-family="sans-serif" font-size="13" lengthAdjust="spacing" textLength="8.271" x="1257.2101" y="131.9397">1</text><text fill="#000000" font-family="sans-serif" font-size="13" lengthAdjust="spacing" textLength="8.271" x="1256.7875" y="225.637">1</text></g><!--link GameStateManager to LocalStorageModule--><g class="link" data-entity-1="GameStateManager" data-entity-2="LocalStorageModule" data-source-line="58" data-uid="lnk15" id="link_GameStateManager_LocalStorageModule"><path codeLine="58" d="M1563.73,112.31 C1563.73,142.53 1563.73,175.48 1563.73,205.74" fill="none" id="GameStateManager-to-LocalStorageModule" style="stroke:#181818;stroke-width:1;"/><polygon fill="#181818" points="1563.73,211.74,1567.73,202.74,1563.73,206.74,1559.73,202.74,1563.73,211.74" style="stroke:#181818;stroke-width:1;"/><text fill="#000000" font-family="sans-serif" font-size="13" lengthAdjust="spacing" textLength="87.2739" x="1564.73" y="170.7569">Persists state</text><text fill="#000000" font-family="sans-serif" font-size="13" lengthAdjust="spacing" textLength="8.271" x="1555.2108" y="131.9397">1</text><text fill="#000000" font-family="sans-serif" font-size="13" lengthAdjust="spacing" textLength="8.271" x="1555.2108" y="201.2377">1</text></g><!--link ExternalLinkHandler to SecurityModule--><g class="link" data-entity-1="ExternalLinkHandler" data-entity-2="SecurityModule" data-source-line="59" data-uid="lnk16" id="link_ExternalLinkHandler_SecurityModule"><path codeLine="59" d="M944.27,104.06 C939.95,135.23 934.7439,172.8968 930.1539,206.0068" fill="none" id="ExternalLinkHandler-to-SecurityModule" style="stroke:#181818;stroke-width:1;"/><polygon fill="#181818" points="929.33,211.95,934.528,203.5845,930.0166,206.9974,926.6037,202.486,929.33,211.95" style="stroke:#181818;stroke-width:1;"/><text fill="#000000" font-family="sans-serif" font-size="13" lengthAdjust="spacing" textLength="45.6904" x="968.0596" y="163.2569">&#171;uses&#187;</text><text fill="#000000" font-family="sans-serif" font-size="13" lengthAdjust="spacing" textLength="102.3496" x="939.73" y="178.3897">Security checks</text></g><!--link AdminInterface to SecurityModule--><g class="link" data-entity-1="AdminInterface" data-entity-2="SecurityModule" data-source-line="60" data-uid="lnk17" id="link_AdminInterface_SecurityModule"><path codeLine="60" d="M719.19,120.46 C735.56,130.13 752.23,140.27 767.73,150.19 C797.83,169.46 825.3852,188.562 852.7552,208.202" fill="none" id="AdminInterface-to-SecurityModule" style="stroke:#181818;stroke-width:1;"/><polygon fill="#181818" points="857.63,211.7,852.6498,203.2031,853.5677,208.785,847.9858,209.7028,857.63,211.7" style="stroke:#181818;stroke-width:1;"/><text fill="#000000" font-family="sans-serif" font-size="13" lengthAdjust="spacing" textLength="45.6904" x="844.7835" y="163.2569">&#171;uses&#187;</text><text fill="#000000" font-family="sans-serif" font-size="13" lengthAdjust="spacing" textLength="101.7974" x="816.73" y="178.3897">Input validation</text></g><!--link GMN18 to MediaDeliveryServer--><g class="link" data-entity-1="GMN18" data-entity-2="MediaDeliveryServer" data-source-line="63" data-uid="lnk20" id="link_GMN18_MediaDeliveryServer"><path d="M326.1,83.94 C325.73,108.48 322.16,151.34 303.73,182.19 C295.17,196.53 282.91,209.32 270,220.17" fill="none" id="GMN18-MediaDeliveryServer" style="stroke:#181818;stroke-width:1;stroke-dasharray:7.0,7.0;"/></g><!--SRC=[VLJDSjCm4BxdAJJbub1ouEe3Cv2a42P92wOp7BYeqjOHaIKZoMbTXYVY4RZroLX9bd7Sb8Cbp_vy-_UjcAJMaWiyTzShyfEG2I6pIXy4h3Nbm7DoexK4geBcl9QqtNXjDeq2knVraM175PSmbuBjbmTGBiX_uJTX8TG6kA0BaE80fYt0uDM5FUTH6Ymoj0MN4-kCK6N4Vg5h9ohn08KpG2kKZy7VSfIkb0DpIncaSbXZ36PoRS4am1YGDcw72i6eWwn6W3jjU1ypbXujqP-3kT2coduqO9tGQhN8YL2kA_j0fU08ir9rupByeyFS1odEDqMgrz83VEhGUjYS9567B74ElPNWCUW_grWYRRXmS-nz2Lapg7CKl73Qj58eMAeIpr63hgHsxmnLR3Tg4__UMDVxPhNHfG5hStBL_NMfbk2sSEyA1cY5EOQVumpUqmh7XutQK4NBVlOfXQ12Htz5J8S9MU4h3S9CmTtGg8jSWx42SsJQG6RzsGzd47oj6PM-3eoyqRoHq8_2USSzjAdoLmGdsY3An-9oEqqaG1KSZkocqI8M0OgPjdOBd7v7WUGzd05WhSAremIemY8VElu8Vmv23AUHc5PWtpqbdDw3EadQse3VmAz5WUHkFO-UeSNo7ZT6KRaMQlyXx6-_axe6bTHPO-JnHlR9B7H5XSfuk9uc4sAbHsOsUtFo5SZ9usyE68_Rnp_Vr6S8As59vMr9U0yiuenstAFvdVBUoFpW6hbbITefqjG-IUyzte2prsVavMmMxWKmuLlwnK2YHqxcMZcZfIKtOJFy6AGk1KEi9rps83uVVv_W6kvBfAd51aM2d-gyHnYHP5XSKX6s0xP_fYF_yGyC8ztWuWCoKHgpSRec-lRaQFoiyVd4rsknzO5A4rqnuw0BFfVTwspyveMgP8jQd2Vn-7y1]--></g></svg>