<svg xmlns="http://www.w3.org/2000/svg" xmlns:xlink="http://www.w3.org/1999/xlink" contentStyleType="text/css" data-diagram-type="DESCRIPTION" height="468px" preserveAspectRatio="none" style="width:1536px;height:468px;background:#FFFFFF;" version="1.1" viewBox="0 0 1536 468" width="1536px" zoomAndPan="magnify"><defs/><g><!--cluster client--><g class="cluster" data-entity="client" data-source-line="1" data-uid="ent0002" id="cluster_client"><polygon fill="none" points="16,16,26,6,376,6,376,265.59,366,275.59,16,275.59,16,16" style="stroke:#181818;stroke-width:1;"/><line style="stroke:#181818;stroke-width:1;" x1="366" x2="376" y1="16" y2="6"/><line style="stroke:#181818;stroke-width:1;" x1="16" x2="366" y1="16" y2="16"/><line style="stroke:#181818;stroke-width:1;" x1="366" x2="366" y1="16" y2="275.59"/><text fill="#000000" font-family="sans-serif" font-size="14" font-weight="bold" lengthAdjust="spacing" textLength="155.5928" x="114.2036" y="31.9951">Client Web Browser</text></g><!--cluster server--><g class="cluster" data-entity="server" data-source-line="7" data-uid="ent0006" id="cluster_server"><polygon fill="none" points="416,174.3,426,164.3,1214,164.3,1214,441.89,1204,451.89,416,451.89,416,174.3" style="stroke:#181818;stroke-width:1;"/><line style="stroke:#181818;stroke-width:1;" x1="1204" x2="1214" y1="174.3" y2="164.3"/><line style="stroke:#181818;stroke-width:1;" x1="416" x2="1204" y1="174.3" y2="174.3"/><line style="stroke:#181818;stroke-width:1;" x1="1204" x2="1204" y1="174.3" y2="451.89"/><text fill="#000000" font-family="sans-serif" font-size="14" font-weight="bold" lengthAdjust="spacing" textLength="101.5615" x="760.2192" y="190.2951">Cloud Server</text></g><!--cluster cdn--><g class="cluster" data-entity="cdn" data-source-line="16" data-uid="ent0013" id="cluster_cdn"><polygon fill="none" points="1254,350.59,1264,340.59,1519,340.59,1519,441.89,1509,451.89,1254,451.89,1254,350.59" style="stroke:#181818;stroke-width:1;"/><line style="stroke:#181818;stroke-width:1;" x1="1509" x2="1519" y1="350.59" y2="340.59"/><line style="stroke:#181818;stroke-width:1;" x1="1254" x2="1509" y1="350.59" y2="350.59"/><line style="stroke:#181818;stroke-width:1;" x1="1509" x2="1509" y1="350.59" y2="451.89"/><text fill="#000000" font-family="sans-serif" font-size="14" font-weight="bold" lengthAdjust="spacing" textLength="33.6123" x="1365.6938" y="366.5851">CDN</text></g><!--entity Flash-based UI--><g class="entity" data-entity="Flash-based UI" data-source-line="2" data-uid="ent0003" id="entity_Flash-based UI"><rect fill="#F1F1F1" height="39.2969" rx="2.5" ry="2.5" style="stroke:#181818;stroke-width:0.5;" width="132.8262" x="39.59" y="54"/><polygon fill="#F1F1F1" points="155.4162,59,155.4162,73,167.4162,73,167.4162,65,161.4162,59,155.4162,59" style="stroke:#181818;stroke-width:0.5;"/><line style="stroke:#181818;stroke-width:0.5;" x1="161.4162" x2="161.4162" y1="59" y2="65"/><line style="stroke:#181818;stroke-width:0.5;" x1="167.4162" x2="161.4162" y1="65" y2="65"/><text fill="#000000" font-family="sans-serif" font-size="14" lengthAdjust="spacing" textLength="102.8262" x="49.59" y="79.9951">Flash-based UI</text></g><!--entity Local Storage--><g class="entity" data-entity="Local Storage" data-source-line="3" data-uid="ent0004" id="entity_Local Storage"><rect fill="#F1F1F1" height="39.2969" rx="2.5" ry="2.5" style="stroke:#181818;stroke-width:0.5;" width="125.7578" x="207.12" y="54"/><polygon fill="#F1F1F1" points="315.8778,59,315.8778,73,327.8778,73,327.8778,65,321.8778,59,315.8778,59" style="stroke:#181818;stroke-width:0.5;"/><line style="stroke:#181818;stroke-width:0.5;" x1="321.8778" x2="321.8778" y1="59" y2="65"/><line style="stroke:#181818;stroke-width:0.5;" x1="327.8778" x2="321.8778" y1="65" y2="65"/><text fill="#000000" font-family="sans-serif" font-size="14" lengthAdjust="spacing" textLength="95.7578" x="217.12" y="79.9951">Local Storage</text></g><!--entity Browser Compatibility Layer--><g class="entity" data-entity="Browser Compatibility Layer" data-source-line="4" data-uid="ent0005" id="entity_Browser Compatibility Layer"><rect fill="#F1F1F1" height="39.2969" rx="2.5" ry="2.5" style="stroke:#181818;stroke-width:0.5;" width="228.126" x="39.94" y="212.3"/><polygon fill="#F1F1F1" points="251.066,217.3,251.066,231.3,263.066,231.3,263.066,223.3,257.066,217.3,251.066,217.3" style="stroke:#181818;stroke-width:0.5;"/><line style="stroke:#181818;stroke-width:0.5;" x1="257.066" x2="257.066" y1="217.3" y2="223.3"/><line style="stroke:#181818;stroke-width:0.5;" x1="263.066" x2="257.066" y1="223.3" y2="223.3"/><text fill="#000000" font-family="sans-serif" font-size="14" lengthAdjust="spacing" textLength="198.126" x="49.94" y="238.2951">Browser Compatibility Layer</text></g><!--entity Media Delivery Server--><g class="entity" data-entity="Media Delivery Server" data-source-line="8" data-uid="ent0007" id="entity_Media Delivery Server"><rect fill="#F1F1F1" height="39.2969" rx="2.5" ry="2.5" style="stroke:#181818;stroke-width:0.5;" width="184.9707" x="439.51" y="212.3"/><polygon fill="#F1F1F1" points="607.4807,217.3,607.4807,231.3,619.4807,231.3,619.4807,223.3,613.4807,217.3,607.4807,217.3" style="stroke:#181818;stroke-width:0.5;"/><line style="stroke:#181818;stroke-width:0.5;" x1="613.4807" x2="613.4807" y1="217.3" y2="223.3"/><line style="stroke:#181818;stroke-width:0.5;" x1="619.4807" x2="613.4807" y1="223.3" y2="223.3"/><text fill="#000000" font-family="sans-serif" font-size="14" lengthAdjust="spacing" textLength="154.9707" x="449.51" y="238.2951">Media Delivery Server</text></g><!--entity Content Management System--><g class="entity" data-entity="Content Management System" data-source-line="9" data-uid="ent0008" id="entity_Content Management System"><rect fill="#F1F1F1" height="39.2969" rx="2.5" ry="2.5" style="stroke:#181818;stroke-width:0.5;" width="239.0088" x="659.5" y="212.3"/><polygon fill="#F1F1F1" points="881.5088,217.3,881.5088,231.3,893.5088,231.3,893.5088,223.3,887.5088,217.3,881.5088,217.3" style="stroke:#181818;stroke-width:0.5;"/><line style="stroke:#181818;stroke-width:0.5;" x1="887.5088" x2="887.5088" y1="217.3" y2="223.3"/><line style="stroke:#181818;stroke-width:0.5;" x1="893.5088" x2="887.5088" y1="223.3" y2="223.3"/><text fill="#000000" font-family="sans-serif" font-size="14" lengthAdjust="spacing" textLength="209.0088" x="669.5" y="238.2951">Content Management System</text></g><!--entity Database--><g class="entity" data-entity="Database" data-source-line="10" data-uid="ent0009" id="entity_Database"><rect fill="#F1F1F1" height="39.2969" rx="2.5" ry="2.5" style="stroke:#181818;stroke-width:0.5;" width="96.8008" x="933.6" y="212.3"/><polygon fill="#F1F1F1" points="1013.4008,217.3,1013.4008,231.3,1025.4008,231.3,1025.4008,223.3,1019.4008,217.3,1013.4008,217.3" style="stroke:#181818;stroke-width:0.5;"/><line style="stroke:#181818;stroke-width:0.5;" x1="1019.4008" x2="1019.4008" y1="217.3" y2="223.3"/><line style="stroke:#181818;stroke-width:0.5;" x1="1025.4008" x2="1019.4008" y1="223.3" y2="223.3"/><text fill="#000000" font-family="sans-serif" font-size="14" lengthAdjust="spacing" textLength="66.8008" x="943.6" y="238.2951">Database</text></g><!--entity Load Balancer--><g class="entity" data-entity="Load Balancer" data-source-line="11" data-uid="ent0010" id="entity_Load Balancer"><rect fill="#F1F1F1" height="39.2969" rx="2.5" ry="2.5" style="stroke:#181818;stroke-width:0.5;" width="129.873" x="467.06" y="388.59"/><polygon fill="#F1F1F1" points="579.933,393.59,579.933,407.59,591.933,407.59,591.933,399.59,585.933,393.59,579.933,393.59" style="stroke:#181818;stroke-width:0.5;"/><line style="stroke:#181818;stroke-width:0.5;" x1="585.933" x2="585.933" y1="393.59" y2="399.59"/><line style="stroke:#181818;stroke-width:0.5;" x1="591.933" x2="585.933" y1="399.59" y2="399.59"/><text fill="#000000" font-family="sans-serif" font-size="14" lengthAdjust="spacing" textLength="99.873" x="477.06" y="414.5851">Load Balancer</text></g><!--entity Security Module--><g class="entity" data-entity="Security Module" data-source-line="12" data-uid="ent0011" id="entity_Security Module"><rect fill="#F1F1F1" height="39.2969" rx="2.5" ry="2.5" style="stroke:#181818;stroke-width:0.5;" width="142.8477" x="631.58" y="388.59"/><polygon fill="#F1F1F1" points="757.4277,393.59,757.4277,407.59,769.4277,407.59,769.4277,399.59,763.4277,393.59,757.4277,393.59" style="stroke:#181818;stroke-width:0.5;"/><line style="stroke:#181818;stroke-width:0.5;" x1="763.4277" x2="763.4277" y1="393.59" y2="399.59"/><line style="stroke:#181818;stroke-width:0.5;" x1="769.4277" x2="763.4277" y1="399.59" y2="399.59"/><text fill="#000000" font-family="sans-serif" font-size="14" lengthAdjust="spacing" textLength="112.8477" x="641.58" y="414.5851">Security Module</text></g><!--entity API Gateway--><g class="entity" data-entity="API Gateway" data-source-line="13" data-uid="ent0012" id="entity_API Gateway"><rect fill="#F1F1F1" height="39.2969" rx="2.5" ry="2.5" style="stroke:#181818;stroke-width:0.5;" width="118.4434" x="809.78" y="388.59"/><polygon fill="#F1F1F1" points="911.2234,393.59,911.2234,407.59,923.2234,407.59,923.2234,399.59,917.2234,393.59,911.2234,393.59" style="stroke:#181818;stroke-width:0.5;"/><line style="stroke:#181818;stroke-width:0.5;" x1="917.2234" x2="917.2234" y1="393.59" y2="399.59"/><line style="stroke:#181818;stroke-width:0.5;" x1="923.2234" x2="917.2234" y1="399.59" y2="399.59"/><text fill="#000000" font-family="sans-serif" font-size="14" lengthAdjust="spacing" textLength="88.4434" x="819.78" y="414.5851">API Gateway</text></g><!--entity Optimized Media Assets--><g class="entity" data-entity="Optimized Media Assets" data-source-line="17" data-uid="ent0014" id="entity_Optimized Media Assets"><rect fill="#F1F1F1" height="39.2969" rx="2.5" ry="2.5" style="stroke:#181818;stroke-width:0.5;" width="198.1709" x="1277.91" y="388.59"/><polygon fill="#F1F1F1" points="1459.0809,393.59,1459.0809,407.59,1471.0809,407.59,1471.0809,399.59,1465.0809,393.59,1459.0809,393.59" style="stroke:#181818;stroke-width:0.5;"/><line style="stroke:#181818;stroke-width:0.5;" x1="1465.0809" x2="1465.0809" y1="393.59" y2="399.59"/><line style="stroke:#181818;stroke-width:0.5;" x1="1471.0809" x2="1465.0809" y1="399.59" y2="399.59"/><text fill="#000000" font-family="sans-serif" font-size="14" lengthAdjust="spacing" textLength="168.1709" x="1287.91" y="414.5851">Optimized Media Assets</text></g><!--link client to server--><g class="link" data-entity-1="client" data-entity-2="server" data-source-line="20" data-uid="lnk15" id="link_client_server"><path d="M376.6778,74.993 C381.698,75.1987 388.7883,75.496 397.6659,75.8857 C415.4211,76.665 440.326,77.8134 470.1195,79.3361 C529.7066,82.3816 608.8481,86.9244 689.4563,93.0063 C850.6725,105.17 1017.755,123.49 1046,148.3 C1049.4388,151.32 1052.338,154.8205 1054.7779,158.6408 C1055.3879,159.5958 1055.9691,160.5709 1056.523,161.5634 C1056.7999,162.0597 1057.0699,162.5603 1057.3333,163.065 C1057.4649,163.3174 1057.5949,163.5708 1057.7233,163.8251 C1057.7874,163.9523 1055.1842,158.705 1055.2475,158.8327" fill="none" id="client-to-server" style="stroke:#0000FF;stroke-width:1;"/><polygon fill="#0000FF" points="1057.9145,164.2073,1057.4971,154.3673,1055.692,159.7284,1050.3309,157.9233,1057.9145,164.2073" style="stroke:#0000FF;stroke-width:1;"/><text fill="#000000" font-family="sans-serif" font-size="13" lengthAdjust="spacing" textLength="79.625" x="1030" y="136.3669">HTTP/HTTPS</text></g><!--link server to cdn--><g class="link" data-entity-1="server" data-entity-2="cdn" data-source-line="21" data-uid="lnk16" id="link_server_cdn"><path d="M1214.4802,296.3187 C1214.8769,296.4524 1215.2738,296.5859 1215.6709,296.7192 C1217.2594,297.252 1218.8517,297.7808 1220.4471,298.3049 C1223.6379,299.3532 1226.8416,300.3832 1230.0542,301.3919 C1236.4793,303.4094 1242.94,305.3416 1249.4052,307.1642 C1262.3356,310.8094 1275.2838,314.0163 1288,316.59 C1310.23,321.09 1474.53,310.12 1492,324.59 C1495.5138,327.5025 1498.4552,330.9216 1500.9113,334.6818 C1502.1394,336.5619 1500.6026,333.1411 1501.5989,335.1711" fill="none" id="server-to-cdn" style="stroke:#008000;stroke-width:1;"/><polygon fill="#008000" points="1504.2425,340.5574,1503.868,330.7156,1502.0395,336.0688,1496.6863,334.2404,1504.2425,340.5574" style="stroke:#008000;stroke-width:1;"/><text fill="#000000" font-family="sans-serif" font-size="13" lengthAdjust="spacing" textLength="77.7715" x="1289" y="312.6569">Sync Assets</text></g><!--link client to cdn--><g class="link" data-entity-1="client" data-entity-2="cdn" data-source-line="22" data-uid="lnk17" id="link_client_cdn"><path d="M376.518,74.6485 C376.8452,74.6489 377.1815,74.6493 377.5267,74.6499 C383.05,74.6579 390.867,74.6804 400.6955,74.736 C420.3525,74.8473 448.0556,75.0916 481.5475,75.6194 C548.5313,76.675 638.67,78.865 733.905,83.395 C924.375,92.455 1135.23,110.875 1222,148.3 C1230.22,151.84 1486.87,317.25 1492,324.59 C1494.6113,328.3338 1496.8688,332.3828 1498.8199,336.6083 C1499.3077,337.6647 1499.7763,338.7321 1500.2265,339.8086 C1500.2828,339.9431 1498.0478,334.5324 1498.1035,334.6673" fill="none" id="client-to-cdn" style="stroke:#FFA500;stroke-width:1;"/><polygon fill="#FFA500" points="1500.3945,340.2126,1500.6549,330.3672,1498.4853,335.5915,1493.261,333.4219,1500.3945,340.2126" style="stroke:#FFA500;stroke-width:1;"/><text fill="#000000" font-family="sans-serif" font-size="13" lengthAdjust="spacing" textLength="79.1362" x="1444" y="236.5069">Fetch Media</text></g><!--link server to server--><g class="link" data-entity-1="server" data-entity-2="server" data-source-line="23" data-uid="lnk18" id="link_server_server"><path d="M1206,231.5 C1217.87,212.91 1241.08,213.06 1241.08,231.94 C1241.08,250.83 1221.099,256.037 1209.229,237.447" fill="none" id="server-to-server" style="stroke:#000000;stroke-width:1;"/><polygon fill="#000000" points="1206,232.39,1207.4721,242.1282,1208.6908,236.6042,1214.2148,237.8229,1206,232.39" style="stroke:#000000;stroke-width:1;"/><text fill="#000000" font-family="sans-serif" font-size="13" lengthAdjust="spacing" textLength="110.2017" x="1247.08" y="236.5069">Internal API Calls</text></g><!--SRC=[NL71JiCm3BttAwnodhZlWBHr6bJQO5A7E20ERk9r4Mao9IvJGVmxoPg9jPV8if-VttinLXBaXLPa6DweXgMpPqyk1_GWXlPF1e2ErG45GxxMw8-p6Zr9U2tpqMnZ1Mges3fiQ3nAl53OzeIiQgKLzx31FjpAVhFC926sar2H-qeI_AMSIDYIL0WhqYhC-Yjy12ciuQXzYoP8QMDPzPwf7SDMo1YjJ6sWX2LgD6BAMv7eN5I-jRBJaxt5heH7P3fZV-jfzJoaASt4nyk9LQk-Gv23euNtnFwocgAVlT_LkgEFsSCrYJayxVUx-_XKMUe5LEE8J8J5A_FWrOX4TqCLliKqz8zQ4ulZSFk6gjOeFaSNov2bC-5dey42jVP_]--></g></svg>