<svg xmlns="http://www.w3.org/2000/svg" xmlns:xlink="http://www.w3.org/1999/xlink" contentStyleType="text/css" data-diagram-type="DESCRIPTION" height="589px" preserveAspectRatio="none" style="width:2741px;height:589px;background:#FFFFFF;" version="1.1" viewBox="0 0 2741 589" width="2741px" zoomAndPan="magnify"><defs/><g><!--cluster browser--><g class="cluster" data-entity="browser" data-source-line="1" data-uid="ent0002" id="cluster_browser"><rect fill="none" height="326.59" rx="2.5" ry="2.5" style="stroke:#181818;stroke-width:1;" width="380" x="7" y="59.98"/><polygon fill="none" points="370,64.98,370,78.98,382,78.98,382,70.98,376,64.98,370,64.98" style="stroke:#181818;stroke-width:1;"/><line style="stroke:#181818;stroke-width:1;" x1="376" x2="376" y1="64.98" y2="70.98"/><line style="stroke:#181818;stroke-width:1;" x1="382" x2="376" y1="70.98" y2="70.98"/><text fill="#000000" font-family="sans-serif" font-size="14" font-weight="bold" lengthAdjust="spacing" textLength="104.6924" x="144.6538" y="74.9751">Web Browser</text></g><!--cluster admin--><g class="cluster" data-entity="admin" data-source-line="7" data-uid="ent0006" id="cluster_admin"><rect fill="none" height="326.59" rx="2.5" ry="2.5" style="stroke:#181818;stroke-width:1;" width="416" x="1884" y="59.98"/><polygon fill="none" points="2283,64.98,2283,78.98,2295,78.98,2295,70.98,2289,64.98,2283,64.98" style="stroke:#181818;stroke-width:1;"/><line style="stroke:#181818;stroke-width:1;" x1="2289" x2="2289" y1="64.98" y2="70.98"/><line style="stroke:#181818;stroke-width:1;" x1="2295" x2="2289" y1="70.98" y2="70.98"/><text fill="#000000" font-family="sans-serif" font-size="14" font-weight="bold" lengthAdjust="spacing" textLength="102.8057" x="2040.5972" y="74.9751">Admin Portal</text></g><!--cluster media--><g class="cluster" data-entity="media" data-source-line="13" data-uid="ent0010" id="cluster_media"><rect fill="none" height="326.59" rx="2.5" ry="2.5" style="stroke:#181818;stroke-width:1;" width="389" x="2340" y="59.98"/><polygon fill="none" points="2712,64.98,2712,78.98,2724,78.98,2724,70.98,2718,64.98,2712,64.98" style="stroke:#181818;stroke-width:1;"/><line style="stroke:#181818;stroke-width:1;" x1="2718" x2="2718" y1="64.98" y2="70.98"/><line style="stroke:#181818;stroke-width:1;" x1="2724" x2="2718" y1="70.98" y2="70.98"/><text fill="#000000" font-family="sans-serif" font-size="14" font-weight="bold" lengthAdjust="spacing" textLength="104.5762" x="2482.2119" y="74.9751">Media Server</text></g><!--cluster app--><g class="cluster" data-entity="app" data-source-line="19" data-uid="ent0014" id="cluster_app"><rect fill="none" height="329.59" rx="2.5" ry="2.5" style="stroke:#181818;stroke-width:1;" width="392" x="427" y="254.28"/><polygon fill="none" points="802,259.28,802,273.28,814,273.28,814,265.28,808,259.28,802,259.28" style="stroke:#181818;stroke-width:1;"/><line style="stroke:#181818;stroke-width:1;" x1="808" x2="808" y1="259.28" y2="265.28"/><line style="stroke:#181818;stroke-width:1;" x1="814" x2="808" y1="265.28" y2="265.28"/><text fill="#000000" font-family="sans-serif" font-size="14" font-weight="bold" lengthAdjust="spacing" textLength="130.4639" x="557.7681" y="269.2751">Core Application</text></g><!--cluster db--><g class="cluster" data-entity="db" data-source-line="25" data-uid="ent0018" id="cluster_db"><rect fill="none" height="132.3" rx="2.5" ry="2.5" style="stroke:#181818;stroke-width:1;" width="429" x="859" y="451.57"/><polygon fill="none" points="1271,456.57,1271,470.57,1283,470.57,1283,462.57,1277,456.57,1271,456.57" style="stroke:#181818;stroke-width:1;"/><line style="stroke:#181818;stroke-width:1;" x1="1277" x2="1277" y1="456.57" y2="462.57"/><line style="stroke:#181818;stroke-width:1;" x1="1283" x2="1277" y1="462.57" y2="462.57"/><text fill="#000000" font-family="sans-serif" font-size="14" font-weight="bold" lengthAdjust="spacing" textLength="74.5049" x="1036.2476" y="466.5651">Database</text></g><!--cluster gateway--><g class="cluster" data-entity="gateway" data-source-line="30" data-uid="ent0021" id="cluster_gateway"><rect fill="none" height="329.59" rx="2.5" ry="2.5" style="stroke:#181818;stroke-width:1;" width="431" x="1413" y="254.28"/><polygon fill="none" points="1827,259.28,1827,273.28,1839,273.28,1839,265.28,1833,259.28,1827,259.28" style="stroke:#181818;stroke-width:1;"/><line style="stroke:#181818;stroke-width:1;" x1="1833" x2="1833" y1="259.28" y2="265.28"/><line style="stroke:#181818;stroke-width:1;" x1="1839" x2="1833" y1="265.28" y2="265.28"/><text fill="#000000" font-family="sans-serif" font-size="14" font-weight="bold" lengthAdjust="spacing" textLength="99.8115" x="1578.5942" y="269.2751">API Gateway</text></g><!--entity Flash-based UI--><g class="entity" data-entity="Flash-based UI" data-source-line="2" data-uid="ent0003" id="entity_Flash-based UI"><rect fill="#F1F1F1" height="46.2969" rx="2.5" ry="2.5" style="stroke:#181818;stroke-width:0.5;" width="142.8262" x="30.59" y="121.98"/><rect fill="#F1F1F1" height="10" style="stroke:#181818;stroke-width:0.5;" width="15" x="153.4162" y="126.98"/><rect fill="#F1F1F1" height="2" style="stroke:#181818;stroke-width:0.5;" width="4" x="151.4162" y="128.98"/><rect fill="#F1F1F1" height="2" style="stroke:#181818;stroke-width:0.5;" width="4" x="151.4162" y="132.98"/><text fill="#000000" font-family="sans-serif" font-size="14" lengthAdjust="spacing" textLength="102.8262" x="45.59" y="154.9751">Flash-based UI</text></g><!--entity Local Storage--><g class="entity" data-entity="Local Storage" data-source-line="3" data-uid="ent0004" id="entity_Local Storage"><rect fill="#F1F1F1" height="46.2969" rx="2.5" ry="2.5" style="stroke:#181818;stroke-width:0.5;" width="135.7578" x="208.12" y="121.98"/><rect fill="#F1F1F1" height="10" style="stroke:#181818;stroke-width:0.5;" width="15" x="323.8778" y="126.98"/><rect fill="#F1F1F1" height="2" style="stroke:#181818;stroke-width:0.5;" width="4" x="321.8778" y="128.98"/><rect fill="#F1F1F1" height="2" style="stroke:#181818;stroke-width:0.5;" width="4" x="321.8778" y="132.98"/><text fill="#000000" font-family="sans-serif" font-size="14" lengthAdjust="spacing" textLength="95.7578" x="223.12" y="154.9751">Local Storage</text></g><!--entity Game State Manager--><g class="entity" data-entity="Game State Manager" data-source-line="4" data-uid="ent0005" id="entity_Game State Manager"><rect fill="#F1F1F1" height="46.2969" rx="2.5" ry="2.5" style="stroke:#181818;stroke-width:0.5;" width="189.0029" x="92.5" y="316.28"/><rect fill="#F1F1F1" height="10" style="stroke:#181818;stroke-width:0.5;" width="15" x="261.5029" y="321.28"/><rect fill="#F1F1F1" height="2" style="stroke:#181818;stroke-width:0.5;" width="4" x="259.5029" y="323.28"/><rect fill="#F1F1F1" height="2" style="stroke:#181818;stroke-width:0.5;" width="4" x="259.5029" y="327.28"/><text fill="#000000" font-family="sans-serif" font-size="14" lengthAdjust="spacing" textLength="149.0029" x="107.5" y="349.2751">Game State Manager</text></g><!--entity Question Updater--><g class="entity" data-entity="Question Updater" data-source-line="8" data-uid="ent0007" id="entity_Question Updater"><rect fill="#F1F1F1" height="46.2969" rx="2.5" ry="2.5" style="stroke:#181818;stroke-width:0.5;" width="163.5254" x="1927.24" y="121.98"/><rect fill="#F1F1F1" height="10" style="stroke:#181818;stroke-width:0.5;" width="15" x="2070.7654" y="126.98"/><rect fill="#F1F1F1" height="2" style="stroke:#181818;stroke-width:0.5;" width="4" x="2068.7654" y="128.98"/><rect fill="#F1F1F1" height="2" style="stroke:#181818;stroke-width:0.5;" width="4" x="2068.7654" y="132.98"/><text fill="#000000" font-family="sans-serif" font-size="14" lengthAdjust="spacing" textLength="123.5254" x="1942.24" y="154.9751">Question Updater</text></g><!--entity Form Validation--><g class="entity" data-entity="Form Validation" data-source-line="9" data-uid="ent0008" id="entity_Form Validation"><rect fill="#F1F1F1" height="46.2969" rx="2.5" ry="2.5" style="stroke:#181818;stroke-width:0.5;" width="150.6807" x="2125.66" y="121.98"/><rect fill="#F1F1F1" height="10" style="stroke:#181818;stroke-width:0.5;" width="15" x="2256.3407" y="126.98"/><rect fill="#F1F1F1" height="2" style="stroke:#181818;stroke-width:0.5;" width="4" x="2254.3407" y="128.98"/><rect fill="#F1F1F1" height="2" style="stroke:#181818;stroke-width:0.5;" width="4" x="2254.3407" y="132.98"/><text fill="#000000" font-family="sans-serif" font-size="14" lengthAdjust="spacing" textLength="110.6807" x="2140.66" y="154.9751">Form Validation</text></g><!--entity Audit Logger--><g class="entity" data-entity="Audit Logger" data-source-line="10" data-uid="ent0009" id="entity_Audit Logger"><rect fill="#F1F1F1" height="46.2969" rx="2.5" ry="2.5" style="stroke:#181818;stroke-width:0.5;" width="129.6738" x="1944.16" y="316.28"/><rect fill="#F1F1F1" height="10" style="stroke:#181818;stroke-width:0.5;" width="15" x="2053.8338" y="321.28"/><rect fill="#F1F1F1" height="2" style="stroke:#181818;stroke-width:0.5;" width="4" x="2051.8338" y="323.28"/><rect fill="#F1F1F1" height="2" style="stroke:#181818;stroke-width:0.5;" width="4" x="2051.8338" y="327.28"/><text fill="#000000" font-family="sans-serif" font-size="14" lengthAdjust="spacing" textLength="89.6738" x="1959.16" y="349.2751">Audit Logger</text></g><!--entity Asset Loader--><g class="entity" data-entity="Asset Loader" data-source-line="14" data-uid="ent0011" id="entity_Asset Loader"><rect fill="#F1F1F1" height="46.2969" rx="2.5" ry="2.5" style="stroke:#181818;stroke-width:0.5;" width="130.918" x="2383.54" y="121.98"/><rect fill="#F1F1F1" height="10" style="stroke:#181818;stroke-width:0.5;" width="15" x="2494.458" y="126.98"/><rect fill="#F1F1F1" height="2" style="stroke:#181818;stroke-width:0.5;" width="4" x="2492.458" y="128.98"/><rect fill="#F1F1F1" height="2" style="stroke:#181818;stroke-width:0.5;" width="4" x="2492.458" y="132.98"/><text fill="#000000" font-family="sans-serif" font-size="14" lengthAdjust="spacing" textLength="90.918" x="2398.54" y="154.9751">Asset Loader</text></g><!--entity Media Optimizer--><g class="entity" data-entity="Media Optimizer" data-source-line="15" data-uid="ent0012" id="entity_Media Optimizer"><rect fill="#F1F1F1" height="46.2969" rx="2.5" ry="2.5" style="stroke:#181818;stroke-width:0.5;" width="155.0283" x="2549.49" y="121.98"/><rect fill="#F1F1F1" height="10" style="stroke:#181818;stroke-width:0.5;" width="15" x="2684.5183" y="126.98"/><rect fill="#F1F1F1" height="2" style="stroke:#181818;stroke-width:0.5;" width="4" x="2682.5183" y="128.98"/><rect fill="#F1F1F1" height="2" style="stroke:#181818;stroke-width:0.5;" width="4" x="2682.5183" y="132.98"/><text fill="#000000" font-family="sans-serif" font-size="14" lengthAdjust="spacing" textLength="115.0283" x="2564.49" y="154.9751">Media Optimizer</text></g><!--entity CDN Connector--><g class="entity" data-entity="CDN Connector" data-source-line="16" data-uid="ent0013" id="entity_CDN Connector"><rect fill="#F1F1F1" height="46.2969" rx="2.5" ry="2.5" style="stroke:#181818;stroke-width:0.5;" width="147.6865" x="2384.16" y="316.28"/><rect fill="#F1F1F1" height="10" style="stroke:#181818;stroke-width:0.5;" width="15" x="2511.8465" y="321.28"/><rect fill="#F1F1F1" height="2" style="stroke:#181818;stroke-width:0.5;" width="4" x="2509.8465" y="323.28"/><rect fill="#F1F1F1" height="2" style="stroke:#181818;stroke-width:0.5;" width="4" x="2509.8465" y="327.28"/><text fill="#000000" font-family="sans-serif" font-size="14" lengthAdjust="spacing" textLength="107.6865" x="2399.16" y="349.2751">CDN Connector</text></g><!--entity Storyline Engine--><g class="entity" data-entity="Storyline Engine" data-source-line="20" data-uid="ent0015" id="entity_Storyline Engine"><rect fill="#F1F1F1" height="46.2969" rx="2.5" ry="2.5" style="stroke:#181818;stroke-width:0.5;" width="154.6797" x="450.66" y="316.28"/><rect fill="#F1F1F1" height="10" style="stroke:#181818;stroke-width:0.5;" width="15" x="585.3397" y="321.28"/><rect fill="#F1F1F1" height="2" style="stroke:#181818;stroke-width:0.5;" width="4" x="583.3397" y="323.28"/><rect fill="#F1F1F1" height="2" style="stroke:#181818;stroke-width:0.5;" width="4" x="583.3397" y="327.28"/><text fill="#000000" font-family="sans-serif" font-size="14" lengthAdjust="spacing" textLength="114.6797" x="465.66" y="349.2751">Storyline Engine</text></g><!--entity Decision Tree--><g class="entity" data-entity="Decision Tree" data-source-line="21" data-uid="ent0016" id="entity_Decision Tree"><rect fill="#F1F1F1" height="46.2969" rx="2.5" ry="2.5" style="stroke:#181818;stroke-width:0.5;" width="135.5869" x="640.21" y="316.28"/><rect fill="#F1F1F1" height="10" style="stroke:#181818;stroke-width:0.5;" width="15" x="755.7969" y="321.28"/><rect fill="#F1F1F1" height="2" style="stroke:#181818;stroke-width:0.5;" width="4" x="753.7969" y="323.28"/><rect fill="#F1F1F1" height="2" style="stroke:#181818;stroke-width:0.5;" width="4" x="753.7969" y="327.28"/><text fill="#000000" font-family="sans-serif" font-size="14" lengthAdjust="spacing" textLength="95.5869" x="655.21" y="349.2751">Decision Tree</text></g><!--entity Score Calculator--><g class="entity" data-entity="Score Calculator" data-source-line="22" data-uid="ent0017" id="entity_Score Calculator"><rect fill="#F1F1F1" height="46.2969" rx="2.5" ry="2.5" style="stroke:#181818;stroke-width:0.5;" width="155.0625" x="451.47" y="513.57"/><rect fill="#F1F1F1" height="10" style="stroke:#181818;stroke-width:0.5;" width="15" x="586.5325" y="518.57"/><rect fill="#F1F1F1" height="2" style="stroke:#181818;stroke-width:0.5;" width="4" x="584.5325" y="520.57"/><rect fill="#F1F1F1" height="2" style="stroke:#181818;stroke-width:0.5;" width="4" x="584.5325" y="524.57"/><text fill="#000000" font-family="sans-serif" font-size="14" lengthAdjust="spacing" textLength="115.0625" x="466.47" y="546.5651">Score Calculator</text></g><!--entity Questions Repository--><g class="entity" data-entity="Questions Repository" data-source-line="26" data-uid="ent0019" id="entity_Questions Repository"><rect fill="#F1F1F1" height="46.2969" rx="2.5" ry="2.5" style="stroke:#181818;stroke-width:0.5;" width="189.4336" x="883.28" y="513.57"/><rect fill="#F1F1F1" height="10" style="stroke:#181818;stroke-width:0.5;" width="15" x="1052.7136" y="518.57"/><rect fill="#F1F1F1" height="2" style="stroke:#181818;stroke-width:0.5;" width="4" x="1050.7136" y="520.57"/><rect fill="#F1F1F1" height="2" style="stroke:#181818;stroke-width:0.5;" width="4" x="1050.7136" y="524.57"/><text fill="#000000" font-family="sans-serif" font-size="14" lengthAdjust="spacing" textLength="149.4336" x="898.28" y="546.5651">Questions Repository</text></g><!--entity User Progress--><g class="entity" data-entity="User Progress" data-source-line="27" data-uid="ent0020" id="entity_User Progress"><rect fill="#F1F1F1" height="46.2969" rx="2.5" ry="2.5" style="stroke:#181818;stroke-width:0.5;" width="136.9678" x="1107.52" y="513.57"/><rect fill="#F1F1F1" height="10" style="stroke:#181818;stroke-width:0.5;" width="15" x="1224.4878" y="518.57"/><rect fill="#F1F1F1" height="2" style="stroke:#181818;stroke-width:0.5;" width="4" x="1222.4878" y="520.57"/><rect fill="#F1F1F1" height="2" style="stroke:#181818;stroke-width:0.5;" width="4" x="1222.4878" y="524.57"/><text fill="#000000" font-family="sans-serif" font-size="14" lengthAdjust="spacing" textLength="96.9678" x="1122.52" y="546.5651">User Progress</text></g><!--entity Security Filter--><g class="entity" data-entity="Security Filter" data-source-line="31" data-uid="ent0022" id="entity_Security Filter"><rect fill="#F1F1F1" height="46.2969" rx="2.5" ry="2.5" style="stroke:#181818;stroke-width:0.5;" width="137.6309" x="1456.18" y="316.28"/><rect fill="#F1F1F1" height="10" style="stroke:#181818;stroke-width:0.5;" width="15" x="1573.8109" y="321.28"/><rect fill="#F1F1F1" height="2" style="stroke:#181818;stroke-width:0.5;" width="4" x="1571.8109" y="323.28"/><rect fill="#F1F1F1" height="2" style="stroke:#181818;stroke-width:0.5;" width="4" x="1571.8109" y="327.28"/><text fill="#000000" font-family="sans-serif" font-size="14" lengthAdjust="spacing" textLength="97.6309" x="1471.18" y="349.2751">Security Filter</text></g><!--entity External Link Handler--><g class="entity" data-entity="External Link Handler" data-source-line="32" data-uid="ent0023" id="entity_External Link Handler"><rect fill="#F1F1F1" height="46.2969" rx="2.5" ry="2.5" style="stroke:#181818;stroke-width:0.5;" width="191.0264" x="1628.49" y="316.28"/><rect fill="#F1F1F1" height="10" style="stroke:#181818;stroke-width:0.5;" width="15" x="1799.5164" y="321.28"/><rect fill="#F1F1F1" height="2" style="stroke:#181818;stroke-width:0.5;" width="4" x="1797.5164" y="323.28"/><rect fill="#F1F1F1" height="2" style="stroke:#181818;stroke-width:0.5;" width="4" x="1797.5164" y="327.28"/><text fill="#000000" font-family="sans-serif" font-size="14" lengthAdjust="spacing" textLength="151.0264" x="1643.49" y="349.2751">External Link Handler</text></g><!--entity RBAC Module--><g class="entity" data-entity="RBAC Module" data-source-line="33" data-uid="ent0024" id="entity_RBAC Module"><rect fill="#F1F1F1" height="46.2969" rx="2.5" ry="2.5" style="stroke:#181818;stroke-width:0.5;" width="134.042" x="1457.98" y="513.57"/><rect fill="#F1F1F1" height="10" style="stroke:#181818;stroke-width:0.5;" width="15" x="1572.022" y="518.57"/><rect fill="#F1F1F1" height="2" style="stroke:#181818;stroke-width:0.5;" width="4" x="1570.022" y="520.57"/><rect fill="#F1F1F1" height="2" style="stroke:#181818;stroke-width:0.5;" width="4" x="1570.022" y="524.57"/><text fill="#000000" font-family="sans-serif" font-size="14" lengthAdjust="spacing" textLength="94.042" x="1472.98" y="546.5651">RBAC Module</text></g><!--entity external--><g class="entity" data-entity="external" data-source-line="43" data-uid="ent0032" id="entity_external"><ellipse cx="1352" cy="536.72" fill="#F1F1F1" rx="8" ry="8" style="stroke:#181818;stroke-width:0.5;"/><text fill="#000000" font-family="sans-serif" font-size="14" lengthAdjust="spacing" textLength="58.0986" x="1322.9507" y="566.7151">external</text></g><!--link browser to media--><g class="link" data-entity-1="browser" data-entity-2="media" data-source-line="36" data-uid="lnk25" id="link_browser_media"><path d="M387.1636,144.4246 C387.5208,144.3938 387.8894,144.362 388.2695,144.3293 C389.7895,144.1983 391.4916,144.052 393.3719,143.8908 C400.8935,143.2457 411.2687,142.3618 424.2659,141.2679 C450.2602,139.0802 486.7423,136.053 531.8584,132.4184 C622.0906,125.1494 746.8588,115.4513 891.3325,105.1825 C1180.28,84.645 1548.05,61.825 1876,51.59 C1968.4,48.7 2211.58,6 2292,51.59 C2311.76,62.79 2325.3,84.0425 2334.1088,103.4625 C2336.3109,108.3175 2336.1452,107.4272 2337.7793,111.8674" fill="none" id="browser-to-media" style="stroke:#181818;stroke-width:1;"/><polygon fill="#181818" points="2339.8515,117.4982,2340.4971,107.6705,2338.1246,112.8059,2332.9893,110.4334,2339.8515,117.4982" style="stroke:#181818;stroke-width:1;"/><text fill="#000000" font-family="sans-serif" font-size="13" lengthAdjust="spacing" textLength="96.7002" x="1223" y="32.0469">Stream Movies</text></g><!--link media to browser--><g class="link" data-entity-1="media" data-entity-2="browser" data-source-line="41" data-uid="lnk30" id="link_media_browser"><path d="M2339.8515,117.4982 C2338.2174,113.058 2336.3109,108.3175 2334.1088,103.4625 C2325.3,84.0425 2311.76,62.79 2292,51.59 C2211.58,6 1968.4,48.7 1876,51.59 C1548.05,61.825 1180.28,84.645 891.3325,105.1825 C746.8588,115.4513 622.0906,125.1494 531.8584,132.4184 C486.7423,136.053 450.2602,139.0802 424.2659,141.2679 C411.2687,142.3618 400.8935,143.2457 393.3719,143.8908 C391.4916,144.052 389.7895,144.1983 388.2695,144.3293 C387.8894,144.362 393.4986,143.8783 393.1414,143.9091" fill="none" id="media-to-browser" style="stroke:#181818;stroke-width:1;"/><polygon fill="#181818" points="387.1636,144.4246,396.474,147.6366,392.1451,143.995,395.7867,139.6661,387.1636,144.4246" style="stroke:#181818;stroke-width:1;"/><text fill="#000000" font-family="sans-serif" font-size="13" lengthAdjust="spacing" textLength="177.9248" x="1730.5" y="32.0469">Deliver Compressed Assets</text></g><!--link browser to app--><g class="link" data-entity-1="browser" data-entity-2="app" data-source-line="37" data-uid="lnk26" id="link_browser_app"><path d="M387.5227,146.7793 C387.982,146.816 388.4586,146.8543 388.9523,146.8942 C390.9271,147.0538 393.175,147.2388 395.6772,147.4498 C405.6862,148.2938 419.7645,149.5536 436.7109,151.2641 C470.6038,154.685 515.9688,159.9088 563.195,167.215 C657.6475,181.8275 759.545,204.77 792,238.28 C795.8788,242.2838 799.0906,246.8184 801.741,251.6928 C802.0723,252.3021 802.3948,252.9167 802.7088,253.5362 C802.7873,253.6911 800.191,248.4752 800.2684,248.6307" fill="none" id="browser-to-app" style="stroke:#181818;stroke-width:1;"/><polygon fill="#181818" points="802.9427,254.0018,802.5119,244.1624,800.7141,249.5259,795.3505,247.7281,802.9427,254.0018" style="stroke:#181818;stroke-width:1;"/><text fill="#000000" font-family="sans-serif" font-size="13" lengthAdjust="spacing" textLength="104.9014" x="778" y="211.3469">Submit Answers</text><text fill="#000000" font-family="sans-serif" font-size="13" lengthAdjust="spacing" textLength="97.8936" x="781.5039" y="226.4797">Fetch Storyline</text></g><!--link app to db--><g class="link" data-entity-1="app" data-entity-2="db" data-source-line="38" data-uid="lnk27" id="link_app_db"><path d="M819.0345,343.8726 C823.6525,345.8282 830.1418,348.539 838.1873,351.8055 C854.2784,358.3384 876.5944,367.0944 902.6138,376.4788 C954.6525,395.2475 1021.505,416.53 1083,427.57 C1102.38,431.05 1245.06,422.75 1260,435.57 C1264.2375,439.2088 1267.735,443.4684 1270.6104,448.1412 C1270.9699,448.7252 1271.3196,449.3158 1271.6598,449.9124 C1271.8299,450.2107 1271.9977,450.5105 1272.1631,450.8117 C1272.2458,450.9624 1269.4825,445.831 1269.564,445.9823" fill="none" id="app-to-db" style="stroke:#181818;stroke-width:1;"/><polygon fill="#181818" points="1272.4094,451.2647,1271.6629,441.4442,1270.0382,446.8627,1264.6197,445.2381,1272.4094,451.2647" style="stroke:#181818;stroke-width:1;"/><text fill="#000000" font-family="sans-serif" font-size="13" lengthAdjust="spacing" textLength="132.9453" x="1084" y="423.6369">Read/Write Progress</text></g><!--link admin to db--><g class="link" data-entity-1="admin" data-entity-2="db" data-source-line="39" data-uid="lnk28" id="link_admin_db"><path d="M1883.838,145.9376 C1883.5587,145.9317 1883.2727,145.9258 1882.9799,145.9197 C1882.3943,145.9077 1881.7817,145.8954 1881.1426,145.8829 C1879.8643,145.8578 1878.4797,145.8319 1876.9925,145.8056 C1874.0182,145.7531 1870.6332,145.6992 1866.8663,145.648 C1851.7989,145.4433 1830.6215,145.2826 1805.173,145.4295 C1754.2759,145.7234 1686.2944,147.2481 1615.9388,152.1138 C1475.2275,161.845 1325.02,184.94 1283,238.28 C1262.71,264.04 1261.8125,337.445 1266.06,404.8825 C1266.5909,413.3122 1267.2023,421.6486 1267.8662,429.7871 C1268.1981,433.8564 1268.5432,437.8761 1268.8979,441.8333 C1269.0753,443.8119 1269.2551,445.7748 1269.4369,447.7205 C1269.5278,448.6933 1269.0502,443.6889 1269.142,444.6529" fill="none" id="admin-to-db" style="stroke:#181818;stroke-width:1;"/><polygon fill="#181818" points="1269.711,450.6258,1272.8395,441.2871,1269.2368,445.6484,1264.8756,442.0457,1269.711,450.6258" style="stroke:#181818;stroke-width:1;"/><text fill="#000000" font-family="sans-serif" font-size="13" lengthAdjust="spacing" textLength="120.688" x="1284" y="343.9869">Manage Questions</text></g><!--link gateway to browser--><g class="link" data-entity-1="gateway" data-entity-2="browser" data-source-line="40" data-uid="lnk29" id="link_gateway_browser"><path d="M1412.9938,301.3315 C1412.9435,301.1681 1412.8929,301.0046 1412.842,300.8408 C1412.7402,300.5132 1412.6372,300.1847 1412.5331,299.8553 C1412.3248,299.1965 1412.1117,298.5342 1411.8938,297.8688 C1404.92,276.575 1392.98,252.1 1373,238.28 C1356.12,226.6 1301.44,232.12 1281,230.28 C1082.065,212.35 858.52,191.5 683.7425,175.04 C596.3538,166.81 521.1569,159.6775 467.3241,154.5563 C440.4077,151.9956 418.8323,149.9378 403.7444,148.497 C399.9725,148.1368 396.606,147.8152 393.6629,147.5339 C392.1913,147.3933 390.8256,147.2627 389.568,147.1425 C388.9392,147.0824 394.3101,147.596 393.7356,147.5411" fill="none" id="gateway-to-browser" style="stroke:#181818;stroke-width:1;"/><polygon fill="#181818" points="387.7629,146.9699,396.3412,151.8085,392.7402,147.4459,397.1028,143.8448,387.7629,146.9699" style="stroke:#181818;stroke-width:1;"/><text fill="#000000" font-family="sans-serif" font-size="13" lengthAdjust="spacing" textLength="159.5103" x="1282" y="218.8469">Embed External Content</text></g><!--link admin to gateway--><g class="link" data-entity-1="admin" data-entity-2="gateway" data-source-line="42" data-uid="lnk31" id="link_admin_gateway"><path d="M1883.4162,146.6089 C1883.1747,146.6232 1882.9283,146.6379 1882.6773,146.6529 C1882.1751,146.6829 1881.654,146.7142 1881.1142,146.7469 C1878.955,146.8777 1876.4972,147.0303 1873.7613,147.2058 C1862.8176,147.9075 1847.4239,148.9743 1828.8928,150.4723 C1791.8306,153.4684 1742.2188,158.1894 1690.5575,165.1638 C1587.235,179.1125 1475.715,202.075 1440,238.28 C1436.085,242.2475 1432.8458,246.7548 1430.1753,251.6091 C1429.8415,252.2159 1429.5166,252.8281 1429.2003,253.4454 C1429.1213,253.5997 1431.7402,248.3948 1431.6622,248.5498" fill="none" id="admin-to-gateway" style="stroke:#181818;stroke-width:1;"/><polygon fill="#181818" points="1428.9648,253.9092,1436.5839,247.6683,1431.2126,249.443,1429.4379,244.0718,1428.9648,253.9092" style="stroke:#181818;stroke-width:1;"/><text fill="#000000" font-family="sans-serif" font-size="13" lengthAdjust="spacing" textLength="147.9194" x="1515" y="218.8469">Authenticate Requests</text></g><!--link gateway to external--><g class="link" data-entity-1="gateway" data-entity-2="external" data-source-line="43" data-uid="lnk33" id="link_gateway_external"><path d="M1412.8993,357.1934 C1412.849,357.2852 1412.7985,357.3771 1412.7478,357.4693 C1412.6463,357.6537 1412.5439,357.839 1412.4407,358.0251 C1412.2341,358.3974 1412.024,358.7732 1411.8103,359.1522 C1411.383,359.9102 1410.9414,360.6811 1410.4858,361.463 C1409.5744,363.0266 1408.6067,364.6339 1407.5837,366.2687 C1399.4,379.3475 1387.68,394.19 1373,402.57 C1360.55,409.68 1318.49,399.83 1309,410.57 C1277.38,446.4 1321.5193,502.1574 1340.6893,523.4874" fill="none" id="gateway-to-external" style="stroke:#181818;stroke-width:1;"/><polygon fill="#181818" points="1344.7,527.95,1341.659,518.5824,1341.3578,524.2312,1335.709,523.9299,1344.7,527.95" style="stroke:#181818;stroke-width:1;"/><text fill="#000000" font-family="sans-serif" font-size="13" lengthAdjust="spacing" textLength="129.5366" x="1310" y="423.6369">Access S2S Projects</text></g><!--SRC=[PL91Rjim4Bph5OlSZG8z-b10aUqaW9swKTqSsXnMv4PcIv4gISLrY_wzIr8IwkGaOZYQsHakkg2UKGIuUgG6hfqzUN9NW1wQV8O_1S3NZKP_N3JeISBXxYb2MojGGnsimvOISeCTCO21O8U6KVTK_2qAd2rAsIa3U-i2wkI12KWEdmRoGLa3XrwoWakA6-iw-89QCSHt2Ii7gG9iRVjMVqTI8TJaNiOCNGAIVkaznTzGZjgP_B4FgbE_HwnQtKDbZI71iLw9LzOHb7slbKZ3v01zd-LZ3sUj3C7QjFn9SYiIoiTCdnrbf1PHfK8j1erlFLOOC9QSj6LpsOo71-gjLz4fYHtYy-oTRHrv_xhg_HtSS8ydF2UnDf_7OKaCJeKpR9IUgbx_ufFX5zqgymDkqKWztZnSbnNih1mq9PDfCHQB3sF1ItvrHzWnwqMHls34XlX-Q3f-jTBu4pd_pMmeY2FCfHMH5TcSUSanKRvxv05fJbVaJPafURzWhgQOyaN6PB-4TTVmmixH-6a3cL3agI-fAzAAruOvNHyT-R-qClzRJoPBA8TmPAMu2iJp_enpN0v1aocJXM11gD_NCSztNYx_3m00]--></g></svg>