<svg xmlns="http://www.w3.org/2000/svg" xmlns:xlink="http://www.w3.org/1999/xlink" contentStyleType="text/css" data-diagram-type="ACTIVITY" height="1300px" preserveAspectRatio="none" style="width:749px;height:1300px;background:#FFFFFF;" version="1.1" viewBox="0 0 749 1300" width="749px" zoomAndPan="magnify"><defs/><g><ellipse cx="497.3943" cy="20" fill="#222222" rx="10" ry="10" style="stroke:#222222;stroke-width:1;"/><rect fill="#F1F1F1" height="33.9688" rx="12.5" ry="12.5" style="stroke:#181818;stroke-width:0.5;" width="152.0996" x="421.3445" y="50"/><text fill="#000000" font-family="sans-serif" font-size="12" lengthAdjust="spacing" textLength="132.0996" x="431.3445" y="71.1387">User launches system</text><rect fill="#F1F1F1" height="33.9688" rx="12.5" ry="12.5" style="stroke:#181818;stroke-width:0.5;" width="163.3262" x="415.7312" y="103.9688"/><text fill="#000000" font-family="sans-serif" font-size="12" lengthAdjust="spacing" textLength="143.3262" x="425.7312" y="125.1074">Play introductory movie</text><polygon fill="#F1F1F1" points="444.9482,157.9375,549.8403,157.9375,561.8403,169.9375,549.8403,181.9375,444.9482,181.9375,432.9482,169.9375,444.9482,157.9375" style="stroke:#181818;stroke-width:0.5;"/><text fill="#000000" font-family="sans-serif" font-size="11" lengthAdjust="spacing" textLength="104.8921" x="444.9482" y="173.7456">User clicks to skip?</text><text fill="#000000" font-family="sans-serif" font-size="11" lengthAdjust="spacing" textLength="19.0083" x="413.9399" y="167.3433">yes</text><text fill="#000000" font-family="sans-serif" font-size="11" lengthAdjust="spacing" textLength="13.7017" x="561.8403" y="167.3433">no</text><rect fill="#F1F1F1" height="33.9688" rx="12.5" ry="12.5" style="stroke:#181818;stroke-width:0.5;" width="145.6836" x="337.5315" y="191.9375"/><text fill="#000000" font-family="sans-serif" font-size="12" lengthAdjust="spacing" textLength="125.6836" x="347.5315" y="213.0762">Stop movie playback</text><rect fill="#F1F1F1" height="33.9688" rx="12.5" ry="12.5" style="stroke:#181818;stroke-width:0.5;" width="162.4004" x="503.2151" y="191.9375"/><text fill="#000000" font-family="sans-serif" font-size="12" lengthAdjust="spacing" textLength="142.4004" x="513.2151" y="213.0762">Continue playing movie</text><polygon fill="#F1F1F1" points="497.3943,231.9063,509.3943,243.9063,497.3943,255.9063,485.3943,243.9063,497.3943,231.9063" style="stroke:#181818;stroke-width:0.5;"/><rect fill="#F1F1F1" height="33.9688" rx="12.5" ry="12.5" style="stroke:#181818;stroke-width:0.5;" width="164.8789" x="414.9548" y="275.9063"/><text fill="#000000" font-family="sans-serif" font-size="12" lengthAdjust="spacing" textLength="144.8789" x="424.9548" y="297.0449">Transition to Main Menu</text><rect fill="#F1F1F1" height="33.9688" rx="12.5" ry="12.5" style="stroke:#181818;stroke-width:0.5;" width="214.8125" x="389.988" y="329.875"/><text fill="#000000" font-family="sans-serif" font-size="12" lengthAdjust="spacing" textLength="194.8125" x="399.988" y="351.0137">Display Help, Start Button, Links</text><polygon fill="#F1F1F1" points="425.5371,383.8438,569.2515,383.8438,581.2515,395.8438,569.2515,407.8438,425.5371,407.8438,413.5371,395.8438,425.5371,383.8438" style="stroke:#181818;stroke-width:0.5;"/><text fill="#000000" font-family="sans-serif" font-size="11" lengthAdjust="spacing" textLength="143.7144" x="425.5371" y="399.6519">User selects "Start Game"</text><text fill="#000000" font-family="sans-serif" font-size="11" lengthAdjust="spacing" textLength="19.0083" x="394.5288" y="393.2495">yes</text><text fill="#000000" font-family="sans-serif" font-size="11" lengthAdjust="spacing" textLength="13.7017" x="581.2515" y="393.2495">no</text><rect fill="#F1F1F1" height="33.9688" rx="12.5" ry="12.5" style="stroke:#181818;stroke-width:0.5;" width="176.9492" x="237.1655" y="417.8438"/><text fill="#000000" font-family="sans-serif" font-size="12" lengthAdjust="spacing" textLength="156.9492" x="247.1655" y="438.9824">Load Gameplay Sequence</text><rect fill="#F1F1F1" height="33.9688" rx="12.5" ry="12.5" style="stroke:#181818;stroke-width:0.5;" width="171.0664" x="240.1069" y="515.8125"/><text fill="#000000" font-family="sans-serif" font-size="12" lengthAdjust="spacing" textLength="151.0664" x="250.1069" y="536.9512">Present fraction question</text><rect fill="#F1F1F1" height="33.9688" rx="12.5" ry="12.5" style="stroke:#181818;stroke-width:0.5;" width="132.6465" x="259.3169" y="569.7813"/><text fill="#000000" font-family="sans-serif" font-size="12" lengthAdjust="spacing" textLength="112.6465" x="269.3169" y="590.9199">Capture user input</text><rect fill="#F1F1F1" height="33.9688" rx="12.5" ry="12.5" style="stroke:#181818;stroke-width:0.5;" width="103.9707" x="273.6548" y="623.75"/><text fill="#000000" font-family="sans-serif" font-size="12" lengthAdjust="spacing" textLength="83.9707" x="283.6548" y="644.8887">Validate input</text><polygon fill="#F1F1F1" points="293.5586,677.7188,357.7217,677.7188,369.7217,689.7188,357.7217,701.7188,293.5586,701.7188,281.5586,689.7188,293.5586,677.7188" style="stroke:#181818;stroke-width:0.5;"/><text fill="#000000" font-family="sans-serif" font-size="11" lengthAdjust="spacing" textLength="64.1631" x="293.5586" y="693.5269">Input valid?</text><text fill="#000000" font-family="sans-serif" font-size="11" lengthAdjust="spacing" textLength="19.0083" x="262.5503" y="687.1245">yes</text><text fill="#000000" font-family="sans-serif" font-size="11" lengthAdjust="spacing" textLength="13.7017" x="369.7217" y="687.1245">no</text><rect fill="#F1F1F1" height="33.9688" rx="12.5" ry="12.5" style="stroke:#181818;stroke-width:0.5;" width="99.7813" x="133.0557" y="711.7188"/><text fill="#000000" font-family="sans-serif" font-size="12" lengthAdjust="spacing" textLength="79.7813" x="143.0557" y="732.8574">Update score</text><rect fill="#F1F1F1" height="33.9688" rx="12.5" ry="12.5" style="stroke:#181818;stroke-width:0.5;" width="237.0313" x="64.4307" y="765.6875"/><text fill="#000000" font-family="sans-serif" font-size="12" lengthAdjust="spacing" textLength="217.0313" x="74.4307" y="786.8262">Provide feedback (correct/incorrect)</text><polygon fill="#F1F1F1" points="135.2805,819.6563,230.6121,819.6563,242.6121,831.6563,230.6121,843.6563,135.2805,843.6563,123.2805,831.6563,135.2805,819.6563" style="stroke:#181818;stroke-width:0.5;"/><text fill="#000000" font-family="sans-serif" font-size="11" lengthAdjust="spacing" textLength="95.3315" x="135.2805" y="835.4644">Critical question?</text><text fill="#000000" font-family="sans-serif" font-size="11" lengthAdjust="spacing" textLength="19.0083" x="104.2722" y="829.062">yes</text><text fill="#000000" font-family="sans-serif" font-size="11" lengthAdjust="spacing" textLength="13.7017" x="242.6121" y="829.062">no</text><rect fill="#F1F1F1" height="33.9688" rx="12.5" ry="12.5" style="stroke:#181818;stroke-width:0.5;" width="159.0547" x="11" y="853.6563"/><text fill="#000000" font-family="sans-serif" font-size="12" lengthAdjust="spacing" textLength="139.0547" x="21" y="874.7949">Adjust storyline branch</text><rect fill="#F1F1F1" height="33.9688" rx="12.5" ry="12.5" style="stroke:#181818;stroke-width:0.5;" width="170.6211" x="190.0547" y="853.6563"/><text fill="#000000" font-family="sans-serif" font-size="12" lengthAdjust="spacing" textLength="150.6211" x="200.0547" y="874.7949">Proceed to next question</text><polygon fill="#F1F1F1" points="182.9463,893.625,194.9463,905.625,182.9463,917.625,170.9463,905.625,182.9463,893.625" style="stroke:#181818;stroke-width:0.5;"/><rect fill="#F1F1F1" height="33.9688" rx="12.5" ry="12.5" style="stroke:#181818;stroke-width:0.5;" width="155.3164" x="390.6758" y="711.7188"/><text fill="#000000" font-family="sans-serif" font-size="12" lengthAdjust="spacing" textLength="135.3164" x="400.6758" y="732.8574">Display error message</text><rect fill="#F1F1F1" height="33.9688" rx="12.5" ry="12.5" style="stroke:#181818;stroke-width:0.5;" width="132.582" x="402.043" y="765.6875"/><text fill="#000000" font-family="sans-serif" font-size="12" lengthAdjust="spacing" textLength="112.582" x="412.043" y="786.8262">Request new input</text><polygon fill="#F1F1F1" points="325.6401,923.625,337.6401,935.625,325.6401,947.625,313.6401,935.625,325.6401,923.625" style="stroke:#181818;stroke-width:0.5;"/><polygon fill="#F1F1F1" points="325.6401,471.8125,337.6401,483.8125,325.6401,495.8125,313.6401,483.8125,325.6401,471.8125" style="stroke:#181818;stroke-width:0.5;"/><polygon fill="#F1F1F1" points="280.5901,967.625,370.6902,967.625,382.6902,979.625,370.6902,991.625,280.5901,991.625,268.5901,979.625,280.5901,967.625" style="stroke:#181818;stroke-width:0.5;"/><text fill="#000000" font-family="sans-serif" font-size="11" lengthAdjust="spacing" textLength="90.1001" x="280.5901" y="983.4331">More questions?</text><rect fill="#F1F1F1" height="33.9688" rx="12.5" ry="12.5" style="stroke:#181818;stroke-width:0.5;" width="181.2324" x="235.0239" y="1011.625"/><text fill="#000000" font-family="sans-serif" font-size="12" lengthAdjust="spacing" textLength="161.2324" x="245.0239" y="1032.7637">Transition to Ending Scene</text><rect fill="#F1F1F1" height="33.9688" rx="12.5" ry="12.5" style="stroke:#181818;stroke-width:0.5;" width="282.5586" x="184.3608" y="1065.5938"/><text fill="#000000" font-family="sans-serif" font-size="12" lengthAdjust="spacing" textLength="262.5586" x="194.3608" y="1086.7324">Display final score and narrative conclusion</text><polygon fill="#F1F1F1" points="273.8413,1119.5625,377.439,1119.5625,389.439,1131.5625,377.439,1143.5625,273.8413,1143.5625,261.8413,1131.5625,273.8413,1119.5625" style="stroke:#181818;stroke-width:0.5;"/><text fill="#000000" font-family="sans-serif" font-size="11" lengthAdjust="spacing" textLength="103.5977" x="273.8413" y="1135.3706">User selects "Quit"</text><text fill="#000000" font-family="sans-serif" font-size="11" lengthAdjust="spacing" textLength="19.0083" x="242.833" y="1128.9683">yes</text><text fill="#000000" font-family="sans-serif" font-size="11" lengthAdjust="spacing" textLength="13.7017" x="389.439" y="1128.9683">no</text><rect fill="#F1F1F1" height="33.9688" rx="12.5" ry="12.5" style="stroke:#181818;stroke-width:0.5;" width="91.0391" x="206.3218" y="1153.5625"/><text fill="#000000" font-family="sans-serif" font-size="12" lengthAdjust="spacing" textLength="71.0391" x="216.3218" y="1174.7012">End session</text><rect fill="#F1F1F1" height="33.9688" rx="12.5" ry="12.5" style="stroke:#181818;stroke-width:0.5;" width="145.6543" x="326.6118" y="1153.5625"/><text fill="#000000" font-family="sans-serif" font-size="12" lengthAdjust="spacing" textLength="125.6543" x="336.6118" y="1174.7012">Return to Main Menu</text><polygon fill="#F1F1F1" points="325.6401,1193.5313,337.6401,1205.5313,325.6401,1217.5313,313.6401,1205.5313,325.6401,1193.5313" style="stroke:#181818;stroke-width:0.5;"/><rect fill="#F1F1F1" height="33.9688" rx="12.5" ry="12.5" style="stroke:#181818;stroke-width:0.5;" width="138.3125" x="599.9922" y="417.8438"/><text fill="#000000" font-family="sans-serif" font-size="12" lengthAdjust="spacing" textLength="118.3125" x="609.9922" y="438.9824">Wait for user action</text><polygon fill="#F1F1F1" points="497.3943,1223.5313,509.3943,1235.5313,497.3943,1247.5313,485.3943,1235.5313,497.3943,1223.5313" style="stroke:#181818;stroke-width:0.5;"/><ellipse cx="497.3943" cy="1278.5313" fill="none" rx="11" ry="11" style="stroke:#222222;stroke-width:1;"/><ellipse cx="497.3943" cy="1278.5313" fill="#222222" rx="6" ry="6" style="stroke:#222222;stroke-width:1;"/><line style="stroke:#181818;stroke-width:1;" x1="497.3943" x2="497.3943" y1="30" y2="50"/><polygon fill="#181818" points="493.3943,40,497.3943,50,501.3943,40,497.3943,44" style="stroke:#181818;stroke-width:1;"/><line style="stroke:#181818;stroke-width:1;" x1="497.3943" x2="497.3943" y1="83.9688" y2="103.9688"/><polygon fill="#181818" points="493.3943,93.9688,497.3943,103.9688,501.3943,93.9688,497.3943,97.9688" style="stroke:#181818;stroke-width:1;"/><line style="stroke:#181818;stroke-width:1;" x1="432.9482" x2="410.3733" y1="169.9375" y2="169.9375"/><line style="stroke:#181818;stroke-width:1;" x1="410.3733" x2="410.3733" y1="169.9375" y2="191.9375"/><polygon fill="#181818" points="406.3733,181.9375,410.3733,191.9375,414.3733,181.9375,410.3733,185.9375" style="stroke:#181818;stroke-width:1;"/><line style="stroke:#181818;stroke-width:1;" x1="561.8403" x2="584.4153" y1="169.9375" y2="169.9375"/><line style="stroke:#181818;stroke-width:1;" x1="584.4153" x2="584.4153" y1="169.9375" y2="191.9375"/><polygon fill="#181818" points="580.4153,181.9375,584.4153,191.9375,588.4153,181.9375,584.4153,185.9375" style="stroke:#181818;stroke-width:1;"/><line style="stroke:#181818;stroke-width:1;" x1="410.3733" x2="410.3733" y1="225.9063" y2="243.9063"/><line style="stroke:#181818;stroke-width:1;" x1="410.3733" x2="485.3943" y1="243.9063" y2="243.9063"/><polygon fill="#181818" points="475.3943,239.9063,485.3943,243.9063,475.3943,247.9063,479.3943,243.9063" style="stroke:#181818;stroke-width:1;"/><line style="stroke:#181818;stroke-width:1;" x1="584.4153" x2="584.4153" y1="225.9063" y2="243.9063"/><line style="stroke:#181818;stroke-width:1;" x1="584.4153" x2="509.3943" y1="243.9063" y2="243.9063"/><polygon fill="#181818" points="519.3943,239.9063,509.3943,243.9063,519.3943,247.9063,515.3943,243.9063" style="stroke:#181818;stroke-width:1;"/><line style="stroke:#181818;stroke-width:1;" x1="497.3943" x2="497.3943" y1="137.9375" y2="157.9375"/><polygon fill="#181818" points="493.3943,147.9375,497.3943,157.9375,501.3943,147.9375,497.3943,151.9375" style="stroke:#181818;stroke-width:1;"/><line style="stroke:#181818;stroke-width:1;" x1="497.3943" x2="497.3943" y1="255.9063" y2="275.9063"/><polygon fill="#181818" points="493.3943,265.9063,497.3943,275.9063,501.3943,265.9063,497.3943,269.9063" style="stroke:#181818;stroke-width:1;"/><line style="stroke:#181818;stroke-width:1;" x1="497.3943" x2="497.3943" y1="309.875" y2="329.875"/><polygon fill="#181818" points="493.3943,319.875,497.3943,329.875,501.3943,319.875,497.3943,323.875" style="stroke:#181818;stroke-width:1;"/><line style="stroke:#181818;stroke-width:1;" x1="325.6401" x2="325.6401" y1="549.7813" y2="569.7813"/><polygon fill="#181818" points="321.6401,559.7813,325.6401,569.7813,329.6401,559.7813,325.6401,563.7813" style="stroke:#181818;stroke-width:1;"/><line style="stroke:#181818;stroke-width:1;" x1="325.6401" x2="325.6401" y1="603.75" y2="623.75"/><polygon fill="#181818" points="321.6401,613.75,325.6401,623.75,329.6401,613.75,325.6401,617.75" style="stroke:#181818;stroke-width:1;"/><line style="stroke:#181818;stroke-width:1;" x1="182.9463" x2="182.9463" y1="745.6875" y2="765.6875"/><polygon fill="#181818" points="178.9463,755.6875,182.9463,765.6875,186.9463,755.6875,182.9463,759.6875" style="stroke:#181818;stroke-width:1;"/><line style="stroke:#181818;stroke-width:1;" x1="123.2805" x2="90.5273" y1="831.6563" y2="831.6563"/><line style="stroke:#181818;stroke-width:1;" x1="90.5273" x2="90.5273" y1="831.6563" y2="853.6563"/><polygon fill="#181818" points="86.5273,843.6563,90.5273,853.6563,94.5273,843.6563,90.5273,847.6563" style="stroke:#181818;stroke-width:1;"/><line style="stroke:#181818;stroke-width:1;" x1="242.6121" x2="275.3652" y1="831.6563" y2="831.6563"/><line style="stroke:#181818;stroke-width:1;" x1="275.3652" x2="275.3652" y1="831.6563" y2="853.6563"/><polygon fill="#181818" points="271.3652,843.6563,275.3652,853.6563,279.3652,843.6563,275.3652,847.6563" style="stroke:#181818;stroke-width:1;"/><line style="stroke:#181818;stroke-width:1;" x1="90.5273" x2="90.5273" y1="887.625" y2="905.625"/><line style="stroke:#181818;stroke-width:1;" x1="90.5273" x2="170.9463" y1="905.625" y2="905.625"/><polygon fill="#181818" points="160.9463,901.625,170.9463,905.625,160.9463,909.625,164.9463,905.625" style="stroke:#181818;stroke-width:1;"/><line style="stroke:#181818;stroke-width:1;" x1="275.3652" x2="275.3652" y1="887.625" y2="905.625"/><line style="stroke:#181818;stroke-width:1;" x1="275.3652" x2="194.9463" y1="905.625" y2="905.625"/><polygon fill="#181818" points="204.9463,901.625,194.9463,905.625,204.9463,909.625,200.9463,905.625" style="stroke:#181818;stroke-width:1;"/><line style="stroke:#181818;stroke-width:1;" x1="182.9463" x2="182.9463" y1="799.6563" y2="819.6563"/><polygon fill="#181818" points="178.9463,809.6563,182.9463,819.6563,186.9463,809.6563,182.9463,813.6563" style="stroke:#181818;stroke-width:1;"/><line style="stroke:#181818;stroke-width:1;" x1="468.334" x2="468.334" y1="745.6875" y2="765.6875"/><polygon fill="#181818" points="464.334,755.6875,468.334,765.6875,472.334,755.6875,468.334,759.6875" style="stroke:#181818;stroke-width:1;"/><line style="stroke:#181818;stroke-width:1;" x1="281.5586" x2="182.9463" y1="689.7188" y2="689.7188"/><line style="stroke:#181818;stroke-width:1;" x1="182.9463" x2="182.9463" y1="689.7188" y2="711.7188"/><polygon fill="#181818" points="178.9463,701.7188,182.9463,711.7188,186.9463,701.7188,182.9463,705.7188" style="stroke:#181818;stroke-width:1;"/><line style="stroke:#181818;stroke-width:1;" x1="369.7217" x2="468.334" y1="689.7188" y2="689.7188"/><line style="stroke:#181818;stroke-width:1;" x1="468.334" x2="468.334" y1="689.7188" y2="711.7188"/><polygon fill="#181818" points="464.334,701.7188,468.334,711.7188,472.334,701.7188,468.334,705.7188" style="stroke:#181818;stroke-width:1;"/><line style="stroke:#181818;stroke-width:1;" x1="182.9463" x2="182.9463" y1="917.625" y2="935.625"/><line style="stroke:#181818;stroke-width:1;" x1="182.9463" x2="313.6401" y1="935.625" y2="935.625"/><polygon fill="#181818" points="303.6401,931.625,313.6401,935.625,303.6401,939.625,307.6401,935.625" style="stroke:#181818;stroke-width:1;"/><line style="stroke:#181818;stroke-width:1;" x1="468.334" x2="468.334" y1="799.6563" y2="935.625"/><line style="stroke:#181818;stroke-width:1;" x1="468.334" x2="337.6401" y1="935.625" y2="935.625"/><polygon fill="#181818" points="347.6401,931.625,337.6401,935.625,347.6401,939.625,343.6401,935.625" style="stroke:#181818;stroke-width:1;"/><line style="stroke:#181818;stroke-width:1;" x1="325.6401" x2="325.6401" y1="657.7188" y2="677.7188"/><polygon fill="#181818" points="321.6401,667.7188,325.6401,677.7188,329.6401,667.7188,325.6401,671.7188" style="stroke:#181818;stroke-width:1;"/><line style="stroke:#181818;stroke-width:1;" x1="325.6401" x2="325.6401" y1="495.8125" y2="515.8125"/><polygon fill="#181818" points="321.6401,505.8125,325.6401,515.8125,329.6401,505.8125,325.6401,509.8125" style="stroke:#181818;stroke-width:1;"/><line style="stroke:#181818;stroke-width:1;" x1="382.6902" x2="567.9922" y1="979.625" y2="979.625"/><polygon fill="#181818" points="563.9922,734.2188,567.9922,724.2188,571.9922,734.2188,567.9922,730.2188" style="stroke:#181818;stroke-width:1;"/><line style="stroke:#181818;stroke-width:1;" x1="567.9922" x2="567.9922" y1="483.8125" y2="979.625"/><line style="stroke:#181818;stroke-width:1;" x1="567.9922" x2="337.6401" y1="483.8125" y2="483.8125"/><polygon fill="#181818" points="347.6401,479.8125,337.6401,483.8125,347.6401,487.8125,343.6401,483.8125" style="stroke:#181818;stroke-width:1;"/><line style="stroke:#181818;stroke-width:1;" x1="325.6401" x2="325.6401" y1="947.625" y2="967.625"/><polygon fill="#181818" points="321.6401,957.625,325.6401,967.625,329.6401,957.625,325.6401,961.625" style="stroke:#181818;stroke-width:1;"/><line style="stroke:#181818;stroke-width:1;" x1="325.6401" x2="325.6401" y1="451.8125" y2="471.8125"/><polygon fill="#181818" points="321.6401,461.8125,325.6401,471.8125,329.6401,461.8125,325.6401,465.8125" style="stroke:#181818;stroke-width:1;"/><line style="stroke:#181818;stroke-width:1;" x1="325.6401" x2="325.6401" y1="991.625" y2="1011.625"/><polygon fill="#181818" points="321.6401,1001.625,325.6401,1011.625,329.6401,1001.625,325.6401,1005.625" style="stroke:#181818;stroke-width:1;"/><line style="stroke:#181818;stroke-width:1;" x1="325.6401" x2="325.6401" y1="1045.5938" y2="1065.5938"/><polygon fill="#181818" points="321.6401,1055.5938,325.6401,1065.5938,329.6401,1055.5938,325.6401,1059.5938" style="stroke:#181818;stroke-width:1;"/><line style="stroke:#181818;stroke-width:1;" x1="261.8413" x2="251.8413" y1="1131.5625" y2="1131.5625"/><line style="stroke:#181818;stroke-width:1;" x1="251.8413" x2="251.8413" y1="1131.5625" y2="1153.5625"/><polygon fill="#181818" points="247.8413,1143.5625,251.8413,1153.5625,255.8413,1143.5625,251.8413,1147.5625" style="stroke:#181818;stroke-width:1;"/><line style="stroke:#181818;stroke-width:1;" x1="389.439" x2="399.439" y1="1131.5625" y2="1131.5625"/><line style="stroke:#181818;stroke-width:1;" x1="399.439" x2="399.439" y1="1131.5625" y2="1153.5625"/><polygon fill="#181818" points="395.439,1143.5625,399.439,1153.5625,403.439,1143.5625,399.439,1147.5625" style="stroke:#181818;stroke-width:1;"/><line style="stroke:#181818;stroke-width:1;" x1="251.8413" x2="251.8413" y1="1187.5313" y2="1205.5313"/><line style="stroke:#181818;stroke-width:1;" x1="251.8413" x2="313.6401" y1="1205.5313" y2="1205.5313"/><polygon fill="#181818" points="303.6401,1201.5313,313.6401,1205.5313,303.6401,1209.5313,307.6401,1205.5313" style="stroke:#181818;stroke-width:1;"/><line style="stroke:#181818;stroke-width:1;" x1="399.439" x2="399.439" y1="1187.5313" y2="1205.5313"/><line style="stroke:#181818;stroke-width:1;" x1="399.439" x2="337.6401" y1="1205.5313" y2="1205.5313"/><polygon fill="#181818" points="347.6401,1201.5313,337.6401,1205.5313,347.6401,1209.5313,343.6401,1205.5313" style="stroke:#181818;stroke-width:1;"/><line style="stroke:#181818;stroke-width:1;" x1="325.6401" x2="325.6401" y1="1099.5625" y2="1119.5625"/><polygon fill="#181818" points="321.6401,1109.5625,325.6401,1119.5625,329.6401,1109.5625,325.6401,1113.5625" style="stroke:#181818;stroke-width:1;"/><line style="stroke:#181818;stroke-width:1;" x1="413.5371" x2="325.6401" y1="395.8438" y2="395.8438"/><line style="stroke:#181818;stroke-width:1;" x1="325.6401" x2="325.6401" y1="395.8438" y2="417.8438"/><polygon fill="#181818" points="321.6401,407.8438,325.6401,417.8438,329.6401,407.8438,325.6401,411.8438" style="stroke:#181818;stroke-width:1;"/><line style="stroke:#181818;stroke-width:1;" x1="581.2515" x2="669.1484" y1="395.8438" y2="395.8438"/><line style="stroke:#181818;stroke-width:1;" x1="669.1484" x2="669.1484" y1="395.8438" y2="417.8438"/><polygon fill="#181818" points="665.1484,407.8438,669.1484,417.8438,673.1484,407.8438,669.1484,411.8438" style="stroke:#181818;stroke-width:1;"/><line style="stroke:#181818;stroke-width:1;" x1="325.6401" x2="325.6401" y1="1217.5313" y2="1235.5313"/><line style="stroke:#181818;stroke-width:1;" x1="325.6401" x2="485.3943" y1="1235.5313" y2="1235.5313"/><polygon fill="#181818" points="475.3943,1231.5313,485.3943,1235.5313,475.3943,1239.5313,479.3943,1235.5313" style="stroke:#181818;stroke-width:1;"/><line style="stroke:#181818;stroke-width:1;" x1="669.1484" x2="669.1484" y1="451.8125" y2="1235.5313"/><line style="stroke:#181818;stroke-width:1;" x1="669.1484" x2="509.3943" y1="1235.5313" y2="1235.5313"/><polygon fill="#181818" points="519.3943,1231.5313,509.3943,1235.5313,519.3943,1239.5313,515.3943,1235.5313" style="stroke:#181818;stroke-width:1;"/><line style="stroke:#181818;stroke-width:1;" x1="497.3943" x2="497.3943" y1="363.8438" y2="383.8438"/><polygon fill="#181818" points="493.3943,373.8438,497.3943,383.8438,501.3943,373.8438,497.3943,377.8438" style="stroke:#181818;stroke-width:1;"/><line style="stroke:#181818;stroke-width:1;" x1="497.3943" x2="497.3943" y1="1247.5313" y2="1267.5313"/><polygon fill="#181818" points="493.3943,1257.5313,497.3943,1267.5313,501.3943,1257.5313,497.3943,1261.5313" style="stroke:#181818;stroke-width:1;"/><!--SRC=[RLD1RXin3Bpt5OHFDX2WT_iGj6wH5eW1jsxQiwAbOyOojH4ff_vzANcxcurz4wJXS3WSYRga01_c3u89WiliToWW9r4yBCh3EhWJ46kAJVOQqmaEyKXOtcWBqrhd0_czW4QGFRMtCz0TCanFA3E30Smt6jjp7RJ6z-ZylX1W48GfnmwrZAp4-OmXVXew8JVMpDJyIew5b2ANRYj732laN9L-8Ic5y0r3UmEREjddh1hv1kw9zpBIB1ZGgy3a3Bnp1vnS2h-FhgblbNc3BndPLqa02LjqMe-6N2SKP8LjShxgCwYKm-8_OkbQpGaXb_R4RTR-wRSBr3Z5yNNH-hrSmB6yN_fQQn_QMYa-9bmCr-javZK8MyIc-0rJ0oGR-IDnTveDyD9gcSnOxqAl_7f3u_xKF6THa1A7G8pmQ6lnku5klDX1aJSnPN6CV_N282lhrdoTebymfXGJ7534FRqT-ITMIcD_7Hivy7OxUzrHCFQLMTRBaDjkv-ECVRLQY-B68tUzUXrROdEh6W-E6s2NabCw8lZ8FcJfXxjCtOzCEhdYxzpw6Kg6slT6s9WMeyly3sE- -rP_75aipR4Ql7CwttugMsFx3m00]--></g></svg>