<svg xmlns="http://www.w3.org/2000/svg" xmlns:xlink="http://www.w3.org/1999/xlink" contentStyleType="text/css" data-diagram-type="SEQUENCE" height="441px" preserveAspectRatio="none" style="width:919px;height:441px;background:#FFFFFF;" version="1.1" viewBox="0 0 919 441" width="919px" zoomAndPan="magnify"><defs/><g><rect fill="none" height="248.8672" style="stroke:#000000;stroke-width:1.5;" width="791.2217" x="121.2705" y="111.5625"/><g><title>User</title><rect fill="#000000" fill-opacity="0.00000" height="370.2656" width="8" x="23.9551" y="36.2969"/><line style="stroke:#181818;stroke-width:0.5;stroke-dasharray:5.0,5.0;" x1="27" x2="27" y1="36.2969" y2="406.5625"/></g><g><title>Frontend UI</title><rect fill="#000000" fill-opacity="0.00000" height="370.2656" width="8" x="175.2383" y="36.2969"/><line style="stroke:#181818;stroke-width:0.5;stroke-dasharray:5.0,5.0;" x1="178.2705" x2="178.2705" y1="36.2969" y2="406.5625"/></g><g><title>InputValidationModule</title><rect fill="#000000" fill-opacity="0.00000" height="370.2656" width="8" x="326.2676" y="36.2969"/><line style="stroke:#181818;stroke-width:0.5;stroke-dasharray:5.0,5.0;" x1="329.5791" x2="329.5791" y1="36.2969" y2="406.5625"/></g><g><title>ScoreCalculator</title><rect fill="#000000" fill-opacity="0.00000" height="370.2656" width="8" x="521.3115" y="36.2969"/><line style="stroke:#181818;stroke-width:0.5;stroke-dasharray:5.0,5.0;" x1="525.0054" x2="525.0054" y1="36.2969" y2="406.5625"/></g><g><title>StorylineEngine</title><rect fill="#000000" fill-opacity="0.00000" height="370.2656" width="8" x="706.4912" y="36.2969"/><line style="stroke:#181818;stroke-width:0.5;stroke-dasharray:5.0,5.0;" x1="710.3765" x2="710.3765" y1="36.2969" y2="406.5625"/></g><g><title>LocalStorage</title><rect fill="#000000" fill-opacity="0.00000" height="370.2656" width="8" x="845.8384" y="36.2969"/><line style="stroke:#181818;stroke-width:0.5;stroke-dasharray:5.0,5.0;" x1="849.1846" x2="849.1846" y1="36.2969" y2="406.5625"/></g><g class="participant participant-head" data-participant="U"><rect fill="#E2E2F0" height="30.2969" rx="2.5" ry="2.5" style="stroke:#181818;stroke-width:0.5;" width="45.9102" x="5" y="5"/><text fill="#000000" font-family="sans-serif" font-size="14" lengthAdjust="spacing" textLength="31.9102" x="12" y="24.9951">User</text></g><g class="participant participant-tail" data-participant="U"><rect fill="#E2E2F0" height="30.2969" rx="2.5" ry="2.5" style="stroke:#181818;stroke-width:0.5;" width="45.9102" x="5" y="405.5625"/><text fill="#000000" font-family="sans-serif" font-size="14" lengthAdjust="spacing" textLength="31.9102" x="12" y="425.5576">User</text></g><g class="participant participant-head" data-participant="FUI"><rect fill="#E2E2F0" height="30.2969" rx="2.5" ry="2.5" style="stroke:#181818;stroke-width:0.5;" width="95.9355" x="131.2705" y="5"/><text fill="#000000" font-family="sans-serif" font-size="14" lengthAdjust="spacing" textLength="81.9355" x="138.2705" y="24.9951">Frontend UI</text></g><g class="participant participant-tail" data-participant="FUI"><rect fill="#E2E2F0" height="30.2969" rx="2.5" ry="2.5" style="stroke:#181818;stroke-width:0.5;" width="95.9355" x="131.2705" y="405.5625"/><text fill="#000000" font-family="sans-serif" font-size="14" lengthAdjust="spacing" textLength="81.9355" x="138.2705" y="425.5576">Frontend UI</text></g><g class="participant participant-head" data-participant="IVM"><rect fill="#E2E2F0" height="30.2969" rx="2.5" ry="2.5" style="stroke:#181818;stroke-width:0.5;" width="171.377" x="244.5791" y="5"/><text fill="#000000" font-family="sans-serif" font-size="14" lengthAdjust="spacing" textLength="157.377" x="251.5791" y="24.9951">InputValidationModule</text></g><g class="participant participant-tail" data-participant="IVM"><rect fill="#E2E2F0" height="30.2969" rx="2.5" ry="2.5" style="stroke:#181818;stroke-width:0.5;" width="171.377" x="244.5791" y="405.5625"/><text fill="#000000" font-family="sans-serif" font-size="14" lengthAdjust="spacing" textLength="157.377" x="251.5791" y="425.5576">InputValidationModule</text></g><g class="participant participant-head" data-participant="SC"><rect fill="#E2E2F0" height="30.2969" rx="2.5" ry="2.5" style="stroke:#181818;stroke-width:0.5;" width="124.6123" x="463.0054" y="5"/><text fill="#000000" font-family="sans-serif" font-size="14" lengthAdjust="spacing" textLength="110.6123" x="470.0054" y="24.9951">ScoreCalculator</text></g><g class="participant participant-tail" data-participant="SC"><rect fill="#E2E2F0" height="30.2969" rx="2.5" ry="2.5" style="stroke:#181818;stroke-width:0.5;" width="124.6123" x="463.0054" y="405.5625"/><text fill="#000000" font-family="sans-serif" font-size="14" lengthAdjust="spacing" textLength="110.6123" x="470.0054" y="425.5576">ScoreCalculator</text></g><g class="participant participant-head" data-participant="SE"><rect fill="#E2E2F0" height="30.2969" rx="2.5" ry="2.5" style="stroke:#181818;stroke-width:0.5;" width="124.2295" x="648.3765" y="5"/><text fill="#000000" font-family="sans-serif" font-size="14" lengthAdjust="spacing" textLength="110.2295" x="655.3765" y="24.9951">StorylineEngine</text></g><g class="participant participant-tail" data-participant="SE"><rect fill="#E2E2F0" height="30.2969" rx="2.5" ry="2.5" style="stroke:#181818;stroke-width:0.5;" width="124.2295" x="648.3765" y="405.5625"/><text fill="#000000" font-family="sans-serif" font-size="14" lengthAdjust="spacing" textLength="110.2295" x="655.3765" y="425.5576">StorylineEngine</text></g><g class="participant participant-head" data-participant="LS"><rect fill="#E2E2F0" height="30.2969" rx="2.5" ry="2.5" style="stroke:#181818;stroke-width:0.5;" width="105.3076" x="797.1846" y="5"/><text fill="#000000" font-family="sans-serif" font-size="14" lengthAdjust="spacing" textLength="91.3076" x="804.1846" y="24.9951">LocalStorage</text></g><g class="participant participant-tail" data-participant="LS"><rect fill="#E2E2F0" height="30.2969" rx="2.5" ry="2.5" style="stroke:#181818;stroke-width:0.5;" width="105.3076" x="797.1846" y="405.5625"/><text fill="#000000" font-family="sans-serif" font-size="14" lengthAdjust="spacing" textLength="91.3076" x="804.1846" y="425.5576">LocalStorage</text></g><g class="message" data-participant-1="U" data-participant-2="FUI"><polygon fill="#181818" points="167.2383,63.4297,177.2383,67.4297,167.2383,71.4297,171.2383,67.4297" style="stroke:#181818;stroke-width:1;"/><line style="stroke:#181818;stroke-width:1;" x1="27.9551" x2="173.2383" y1="67.4297" y2="67.4297"/><text fill="#000000" font-family="sans-serif" font-size="13" lengthAdjust="spacing" textLength="120.5103" x="34.9551" y="62.3638">1. Submits answer</text></g><g class="message" data-participant-1="FUI" data-participant-2="IVM"><polygon fill="#181818" points="318.2676,92.5625,328.2676,96.5625,318.2676,100.5625,322.2676,96.5625" style="stroke:#181818;stroke-width:1;"/><line style="stroke:#181818;stroke-width:1;" x1="179.2383" x2="324.2676" y1="96.5625" y2="96.5625"/><text fill="#000000" font-family="sans-serif" font-size="13" lengthAdjust="spacing" textLength="127.0293" x="186.2383" y="91.4966">2. Validate(answer)</text></g><path d="M121.2705,111.5625 L185.7134,111.5625 L185.7134,118.6953 L175.7134,128.6953 L121.2705,128.6953 L121.2705,111.5625" fill="#EEEEEE" style="stroke:#000000;stroke-width:1.5;"/><rect fill="none" height="248.8672" style="stroke:#000000;stroke-width:1.5;" width="791.2217" x="121.2705" y="111.5625"/><text fill="#000000" font-family="sans-serif" font-size="13" font-weight="bold" lengthAdjust="spacing" textLength="19.4429" x="136.2705" y="124.6294">alt</text><text fill="#000000" font-family="sans-serif" font-size="11" font-weight="bold" lengthAdjust="spacing" textLength="40.063" x="200.7134" y="123.7729">[valid]</text><g class="message" data-participant-1="IVM" data-participant-2="SC"><polygon fill="#181818" points="513.3115,145.8281,523.3115,149.8281,513.3115,153.8281,517.3115,149.8281" style="stroke:#181818;stroke-width:1;"/><line style="stroke:#181818;stroke-width:1;" x1="330.2676" x2="519.3115" y1="149.8281" y2="149.8281"/><text fill="#000000" font-family="sans-serif" font-size="13" lengthAdjust="spacing" textLength="171.0439" x="337.2676" y="144.7622">3. CalculateScore(answer)</text></g><g class="message" data-participant-1="SC" data-participant-2="SE"><polygon fill="#181818" points="698.4912,174.9609,708.4912,178.9609,698.4912,182.9609,702.4912,178.9609" style="stroke:#181818;stroke-width:1;"/><line style="stroke:#181818;stroke-width:1;" x1="525.3115" x2="704.4912" y1="178.9609" y2="178.9609"/><text fill="#000000" font-family="sans-serif" font-size="13" lengthAdjust="spacing" textLength="161.1797" x="532.3115" y="173.895">4. NotifyCorrectAnswer()</text></g><g class="message" data-participant-1="SE" data-participant-2="SE"><line style="stroke:#181818;stroke-width:1;" x1="710.4912" x2="752.4912" y1="208.0938" y2="208.0938"/><line style="stroke:#181818;stroke-width:1;" x1="752.4912" x2="752.4912" y1="208.0938" y2="221.0938"/><line style="stroke:#181818;stroke-width:1;" x1="711.4912" x2="752.4912" y1="221.0938" y2="221.0938"/><polygon fill="#181818" points="721.4912,217.0938,711.4912,221.0938,721.4912,225.0938,717.4912,221.0938" style="stroke:#181818;stroke-width:1;"/><text fill="#000000" font-family="sans-serif" font-size="13" lengthAdjust="spacing" textLength="125.3472" x="717.4912" y="203.0278">5. AdjustStoryline()</text></g><g class="message" data-participant-1="SC" data-participant-2="LS"><polygon fill="#181818" points="837.8384,246.2266,847.8384,250.2266,837.8384,254.2266,841.8384,250.2266" style="stroke:#181818;stroke-width:1;"/><line style="stroke:#181818;stroke-width:1;" x1="525.3115" x2="843.8384" y1="250.2266" y2="250.2266"/><text fill="#000000" font-family="sans-serif" font-size="13" lengthAdjust="spacing" textLength="186.0371" x="532.3115" y="245.1606">6. SaveScore(updatedScore)</text></g><g class="message" data-participant-1="LS" data-participant-2="SC"><polygon fill="#181818" points="536.3115,275.3594,526.3115,279.3594,536.3115,283.3594,532.3115,279.3594" style="stroke:#181818;stroke-width:1;"/><line style="stroke:#181818;stroke-width:1;stroke-dasharray:2.0,2.0;" x1="530.3115" x2="848.8384" y1="279.3594" y2="279.3594"/><text fill="#000000" font-family="sans-serif" font-size="13" lengthAdjust="spacing" textLength="100.8706" x="542.3115" y="274.2935">7. Confirmation</text></g><g class="message" data-participant-1="SC" data-participant-2="FUI"><polygon fill="#181818" points="190.2383,304.4922,180.2383,308.4922,190.2383,312.4922,186.2383,308.4922" style="stroke:#181818;stroke-width:1;"/><line style="stroke:#181818;stroke-width:1;stroke-dasharray:2.0,2.0;" x1="184.2383" x2="524.3115" y1="308.4922" y2="308.4922"/><text fill="#000000" font-family="sans-serif" font-size="13" lengthAdjust="spacing" textLength="183.2505" x="196.2383" y="303.4263">8. DisplayFeedback(correct)</text></g><line style="stroke:#000000;stroke-width:1;stroke-dasharray:2.0,2.0;" x1="121.2705" x2="912.4922" y1="317.4922" y2="317.4922"/><text fill="#000000" font-family="sans-serif" font-size="11" font-weight="bold" lengthAdjust="spacing" textLength="51.6646" x="126.2705" y="327.7026">[invalid]</text><g class="message" data-participant-1="IVM" data-participant-2="FUI"><polygon fill="#181818" points="190.2383,348.4297,180.2383,352.4297,190.2383,356.4297,186.2383,352.4297" style="stroke:#181818;stroke-width:1;"/><line style="stroke:#181818;stroke-width:1;stroke-dasharray:2.0,2.0;" x1="184.2383" x2="329.2676" y1="352.4297" y2="352.4297"/><text fill="#000000" font-family="sans-serif" font-size="13" lengthAdjust="spacing" textLength="106.7993" x="196.2383" y="347.3638">3. DisplayError()</text></g><g class="message" data-participant-1="FUI" data-participant-2="U"><polygon fill="#181818" points="38.9551,384.5625,28.9551,388.5625,38.9551,392.5625,34.9551,388.5625" style="stroke:#181818;stroke-width:1;"/><line style="stroke:#181818;stroke-width:1;stroke-dasharray:2.0,2.0;" x1="32.9551" x2="178.2383" y1="388.5625" y2="388.5625"/><text fill="#000000" font-family="sans-serif" font-size="13" lengthAdjust="spacing" textLength="127.2832" x="44.9551" y="383.4966">9. Show updated UI</text></g><!--SRC=[PT8zRuCm40RWFR_Yb8aEGMhJJuPAKKeafAGB8ll5EAbRnqQsISI_xzac29450VUS_PwXGUC44mqg1_FASZC7j501p9fnPMEqSbpLK1K1RAfYIWhLj6wFKjJeX5OxNRUI1rpiTrDSCctu6YLh9JeTDotNTufAdHIAv-f4rwZogTfgXj9JF4MoBOdCAbXyXfmPFAPGjeUpS1PGsIitLFSL0ZvR1ayfzCbv4iK34PGEBlurtKEGr40fCrYcS0lFmoYZBl34mvpWSmhVsebZjzR6SEPMWIMzomVtaiAg_csj6qPEnclHH1cyqXHuwVTh6n-s3WzHabdSyhrHFgsEmfp3jnXM6axaFOKlOHk9tORp-e3iBs4neL-CIyj1gCdiG_DoQCwDqN4Q_s_qXqgk8lL1SN_q5VgazEVy0m00]--></g></svg>