<svg xmlns="http://www.w3.org/2000/svg" xmlns:xlink="http://www.w3.org/1999/xlink" contentStyleType="text/css" data-diagram-type="SEQUENCE" height="561px" preserveAspectRatio="none" style="width:876px;height:561px;background:#FFFFFF;" version="1.1" viewBox="0 0 876 561" width="876px" zoomAndPan="magnify"><defs/><g><g><title>Frontend UI</title><rect fill="#FFFFFF" height="350.2656" style="stroke:#181818;stroke-width:1;" width="10" x="158.7026" y="112.4297"/></g><g><title>InputValidationModule</title><rect fill="#FFFFFF" height="285" style="stroke:#181818;stroke-width:1;" width="10" x="302.3589" y="141.5625"/></g><g><title>ScoreCalculator</title><rect fill="#FFFFFF" height="187.7969" style="stroke:#181818;stroke-width:1;" width="10" x="485.8672" y="194.8281"/></g><g><title>StorylineEngine</title><rect fill="#FFFFFF" height="71.2656" style="stroke:#181818;stroke-width:1;" width="10" x="659.5112" y="223.9609"/></g><g><title>LocalStorage</title><rect fill="#FFFFFF" height="29.1328" style="stroke:#181818;stroke-width:1;" width="10" x="802.3228" y="324.3594"/></g><rect fill="none" height="278" style="stroke:#000000;stroke-width:1.5;" width="764.2417" x="105.7349" y="156.5625"/><g><title>User</title><rect fill="#000000" fill-opacity="0.00000" height="399.3984" width="8" x="19.9551" y="81.2969"/><line style="stroke:#181818;stroke-width:0.5;stroke-dasharray:5.0,5.0;" x1="23" x2="23" y1="81.2969" y2="480.6953"/></g><g><title>Frontend UI</title><rect fill="#000000" fill-opacity="0.00000" height="399.3984" width="8" x="159.7026" y="81.2969"/><line style="stroke:#181818;stroke-width:0.5;stroke-dasharray:5.0,5.0;" x1="162.7349" x2="162.7349" y1="81.2969" y2="480.6953"/></g><g><title>InputValidationModule</title><rect fill="#000000" fill-opacity="0.00000" height="399.3984" width="8" x="303.3589" y="81.2969"/><line style="stroke:#181818;stroke-width:0.5;stroke-dasharray:5.0,5.0;" x1="306.6704" x2="306.6704" y1="81.2969" y2="480.6953"/></g><g><title>ScoreCalculator</title><rect fill="#000000" fill-opacity="0.00000" height="399.3984" width="8" x="486.8672" y="81.2969"/><line style="stroke:#181818;stroke-width:0.5;stroke-dasharray:5.0,5.0;" x1="490.561" x2="490.561" y1="81.2969" y2="480.6953"/></g><g><title>StorylineEngine</title><rect fill="#000000" fill-opacity="0.00000" height="399.3984" width="8" x="660.5112" y="81.2969"/><line style="stroke:#181818;stroke-width:0.5;stroke-dasharray:5.0,5.0;" x1="664.3965" x2="664.3965" y1="81.2969" y2="480.6953"/></g><g><title>LocalStorage</title><rect fill="#000000" fill-opacity="0.00000" height="399.3984" width="8" x="803.3228" y="81.2969"/><line style="stroke:#181818;stroke-width:0.5;stroke-dasharray:5.0,5.0;" x1="806.6689" x2="806.6689" y1="81.2969" y2="480.6953"/></g><g class="participant participant-head" data-participant="User"><text fill="#000000" font-family="sans-serif" font-size="14" lengthAdjust="spacing" textLength="31.9102" x="5" y="77.9951">User</text><ellipse cx="23.9551" cy="13.5" fill="#E2E2F0" rx="8" ry="8" style="stroke:#181818;stroke-width:0.5;"/><path d="M23.9551,21.5 L23.9551,48.5 M10.9551,29.5 L36.9551,29.5 M23.9551,48.5 L10.9551,63.5 M23.9551,48.5 L36.9551,63.5" fill="none" style="stroke:#181818;stroke-width:0.5;"/></g><g class="participant participant-tail" data-participant="User"><text fill="#000000" font-family="sans-serif" font-size="14" lengthAdjust="spacing" textLength="31.9102" x="5" y="492.6904">User</text><ellipse cx="23.9551" cy="504.4922" fill="#E2E2F0" rx="8" ry="8" style="stroke:#181818;stroke-width:0.5;"/><path d="M23.9551,512.4922 L23.9551,539.4922 M10.9551,520.4922 L36.9551,520.4922 M23.9551,539.4922 L10.9551,554.4922 M23.9551,539.4922 L36.9551,554.4922" fill="none" style="stroke:#181818;stroke-width:0.5;"/></g><g class="participant participant-head" data-participant="ui"><rect fill="#E2E2F0" height="30.2969" rx="2.5" ry="2.5" style="stroke:#181818;stroke-width:0.5;" width="95.9355" x="115.7349" y="50"/><text fill="#000000" font-family="sans-serif" font-size="14" lengthAdjust="spacing" textLength="81.9355" x="122.7349" y="69.9951">Frontend UI</text></g><g class="participant participant-tail" data-participant="ui"><rect fill="#E2E2F0" height="30.2969" rx="2.5" ry="2.5" style="stroke:#181818;stroke-width:0.5;" width="95.9355" x="115.7349" y="479.6953"/><text fill="#000000" font-family="sans-serif" font-size="14" lengthAdjust="spacing" textLength="81.9355" x="122.7349" y="499.6904">Frontend UI</text></g><g class="participant participant-head" data-participant="ivm"><rect fill="#E2E2F0" height="30.2969" rx="2.5" ry="2.5" style="stroke:#181818;stroke-width:0.5;" width="171.377" x="221.6704" y="50"/><text fill="#000000" font-family="sans-serif" font-size="14" lengthAdjust="spacing" textLength="157.377" x="228.6704" y="69.9951">InputValidationModule</text></g><g class="participant participant-tail" data-participant="ivm"><rect fill="#E2E2F0" height="30.2969" rx="2.5" ry="2.5" style="stroke:#181818;stroke-width:0.5;" width="171.377" x="221.6704" y="479.6953"/><text fill="#000000" font-family="sans-serif" font-size="14" lengthAdjust="spacing" textLength="157.377" x="228.6704" y="499.6904">InputValidationModule</text></g><g class="participant participant-head" data-participant="sc"><rect fill="#E2E2F0" height="30.2969" rx="2.5" ry="2.5" style="stroke:#181818;stroke-width:0.5;" width="124.6123" x="428.561" y="50"/><text fill="#000000" font-family="sans-serif" font-size="14" lengthAdjust="spacing" textLength="110.6123" x="435.561" y="69.9951">ScoreCalculator</text></g><g class="participant participant-tail" data-participant="sc"><rect fill="#E2E2F0" height="30.2969" rx="2.5" ry="2.5" style="stroke:#181818;stroke-width:0.5;" width="124.6123" x="428.561" y="479.6953"/><text fill="#000000" font-family="sans-serif" font-size="14" lengthAdjust="spacing" textLength="110.6123" x="435.561" y="499.6904">ScoreCalculator</text></g><g class="participant participant-head" data-participant="se"><rect fill="#E2E2F0" height="30.2969" rx="2.5" ry="2.5" style="stroke:#181818;stroke-width:0.5;" width="124.2295" x="602.3965" y="50"/><text fill="#000000" font-family="sans-serif" font-size="14" lengthAdjust="spacing" textLength="110.2295" x="609.3965" y="69.9951">StorylineEngine</text></g><g class="participant participant-tail" data-participant="se"><rect fill="#E2E2F0" height="30.2969" rx="2.5" ry="2.5" style="stroke:#181818;stroke-width:0.5;" width="124.2295" x="602.3965" y="479.6953"/><text fill="#000000" font-family="sans-serif" font-size="14" lengthAdjust="spacing" textLength="110.2295" x="609.3965" y="499.6904">StorylineEngine</text></g><g class="participant participant-head" data-participant="ls"><rect fill="#E2E2F0" height="30.2969" rx="2.5" ry="2.5" style="stroke:#181818;stroke-width:0.5;" width="105.3076" x="754.6689" y="50"/><text fill="#000000" font-family="sans-serif" font-size="14" lengthAdjust="spacing" textLength="91.3076" x="761.6689" y="69.9951">LocalStorage</text></g><g class="participant participant-tail" data-participant="ls"><rect fill="#E2E2F0" height="30.2969" rx="2.5" ry="2.5" style="stroke:#181818;stroke-width:0.5;" width="105.3076" x="754.6689" y="479.6953"/><text fill="#000000" font-family="sans-serif" font-size="14" lengthAdjust="spacing" textLength="91.3076" x="761.6689" y="499.6904">LocalStorage</text></g><g><title>Frontend UI</title><rect fill="#FFFFFF" height="350.2656" style="stroke:#181818;stroke-width:1;" width="10" x="158.7026" y="112.4297"/></g><g><title>InputValidationModule</title><rect fill="#FFFFFF" height="285" style="stroke:#181818;stroke-width:1;" width="10" x="302.3589" y="141.5625"/></g><g><title>ScoreCalculator</title><rect fill="#FFFFFF" height="187.7969" style="stroke:#181818;stroke-width:1;" width="10" x="485.8672" y="194.8281"/></g><g><title>StorylineEngine</title><rect fill="#FFFFFF" height="71.2656" style="stroke:#181818;stroke-width:1;" width="10" x="659.5112" y="223.9609"/></g><g><title>LocalStorage</title><rect fill="#FFFFFF" height="29.1328" style="stroke:#181818;stroke-width:1;" width="10" x="802.3228" y="324.3594"/></g><g class="message" data-participant-1="User" data-participant-2="ui"><polygon fill="#181818" points="146.7026,108.4297,156.7026,112.4297,146.7026,116.4297,150.7026,112.4297" style="stroke:#181818;stroke-width:1;"/><line style="stroke:#181818;stroke-width:1;" x1="23.9551" x2="152.7026" y1="112.4297" y2="112.4297"/><text fill="#000000" font-family="sans-serif" font-size="13" lengthAdjust="spacing" textLength="103.9746" x="30.9551" y="107.3638">Submits answer</text></g><g class="message" data-participant-1="ui" data-participant-2="ivm"><polygon fill="#181818" points="290.3589,137.5625,300.3589,141.5625,290.3589,145.5625,294.3589,141.5625" style="stroke:#181818;stroke-width:1;"/><line style="stroke:#181818;stroke-width:1;" x1="168.7026" x2="296.3589" y1="141.5625" y2="141.5625"/><text fill="#000000" font-family="sans-serif" font-size="13" lengthAdjust="spacing" textLength="110.4937" x="175.7026" y="136.4966">Validate(answer)</text></g><path d="M105.7349,156.5625 L170.1777,156.5625 L170.1777,163.6953 L160.1777,173.6953 L105.7349,173.6953 L105.7349,156.5625" fill="#EEEEEE" style="stroke:#000000;stroke-width:1.5;"/><rect fill="none" height="278" style="stroke:#000000;stroke-width:1.5;" width="764.2417" x="105.7349" y="156.5625"/><text fill="#000000" font-family="sans-serif" font-size="13" font-weight="bold" lengthAdjust="spacing" textLength="19.4429" x="120.7349" y="169.6294">alt</text><text fill="#000000" font-family="sans-serif" font-size="11" font-weight="bold" lengthAdjust="spacing" textLength="76.4575" x="185.1777" y="168.7729">[valid input]</text><g class="message" data-participant-1="ivm" data-participant-2="sc"><polygon fill="#181818" points="473.8672,190.8281,483.8672,194.8281,473.8672,198.8281,477.8672,194.8281" style="stroke:#181818;stroke-width:1;"/><line style="stroke:#181818;stroke-width:1;" x1="312.3589" x2="479.8672" y1="194.8281" y2="194.8281"/><text fill="#000000" font-family="sans-serif" font-size="13" lengthAdjust="spacing" textLength="154.5083" x="319.3589" y="189.7622">CalculateScore(answer)</text></g><g class="message" data-participant-1="sc" data-participant-2="se"><polygon fill="#181818" points="647.5112,219.9609,657.5112,223.9609,647.5112,227.9609,651.5112,223.9609" style="stroke:#181818;stroke-width:1;"/><line style="stroke:#181818;stroke-width:1;" x1="495.8672" x2="653.5112" y1="223.9609" y2="223.9609"/><text fill="#000000" font-family="sans-serif" font-size="13" lengthAdjust="spacing" textLength="144.644" x="502.8672" y="218.895">NotifyCorrectAnswer()</text></g><g class="message" data-participant-1="se" data-participant-2="se"><line style="stroke:#181818;stroke-width:1;" x1="669.5112" x2="711.5112" y1="253.0938" y2="253.0938"/><line style="stroke:#181818;stroke-width:1;" x1="711.5112" x2="711.5112" y1="253.0938" y2="266.0938"/><line style="stroke:#181818;stroke-width:1;" x1="670.5112" x2="711.5112" y1="266.0938" y2="266.0938"/><polygon fill="#181818" points="680.5112,262.0938,670.5112,266.0938,680.5112,270.0938,676.5112,266.0938" style="stroke:#181818;stroke-width:1;"/><text fill="#000000" font-family="sans-serif" font-size="13" lengthAdjust="spacing" textLength="108.8115" x="676.5112" y="248.0278">AdjustStoryline()</text></g><g class="message" data-participant-1="se" data-participant-2="sc"><polygon fill="#181818" points="506.8672,291.2266,496.8672,295.2266,506.8672,299.2266,502.8672,295.2266" style="stroke:#181818;stroke-width:1;"/><line style="stroke:#181818;stroke-width:1;stroke-dasharray:2.0,2.0;" x1="500.8672" x2="663.5112" y1="295.2266" y2="295.2266"/><text fill="#000000" font-family="sans-serif" font-size="13" lengthAdjust="spacing" textLength="118.7266" x="512.8672" y="290.1606">Updated narrative</text></g><g class="message" data-participant-1="sc" data-participant-2="ls"><polygon fill="#181818" points="790.3228,320.3594,800.3228,324.3594,790.3228,328.3594,794.3228,324.3594" style="stroke:#181818;stroke-width:1;"/><line style="stroke:#181818;stroke-width:1;" x1="495.8672" x2="796.3228" y1="324.3594" y2="324.3594"/><text fill="#000000" font-family="sans-serif" font-size="13" lengthAdjust="spacing" textLength="169.5015" x="502.8672" y="319.2935">SaveScore(updatedScore)</text></g><g class="message" data-participant-1="ls" data-participant-2="sc"><polygon fill="#181818" points="506.8672,349.4922,496.8672,353.4922,506.8672,357.4922,502.8672,353.4922" style="stroke:#181818;stroke-width:1;"/><line style="stroke:#181818;stroke-width:1;stroke-dasharray:2.0,2.0;" x1="500.8672" x2="806.3228" y1="353.4922" y2="353.4922"/><text fill="#000000" font-family="sans-serif" font-size="13" lengthAdjust="spacing" textLength="84.335" x="512.8672" y="348.4263">Confirmation</text></g><g class="message" data-participant-1="sc" data-participant-2="ui"><polygon fill="#181818" points="179.7026,378.625,169.7026,382.625,179.7026,386.625,175.7026,382.625" style="stroke:#181818;stroke-width:1;"/><line style="stroke:#181818;stroke-width:1;stroke-dasharray:2.0,2.0;" x1="173.7026" x2="489.8672" y1="382.625" y2="382.625"/><text fill="#000000" font-family="sans-serif" font-size="13" lengthAdjust="spacing" textLength="166.7148" x="185.7026" y="377.5591">DisplayFeedback(correct)</text></g><line style="stroke:#000000;stroke-width:1;stroke-dasharray:2.0,2.0;" x1="105.7349" x2="869.9766" y1="391.625" y2="391.625"/><text fill="#000000" font-family="sans-serif" font-size="11" font-weight="bold" lengthAdjust="spacing" textLength="88.0591" x="110.7349" y="401.8354">[invalid input]</text><g class="message" data-participant-1="ivm" data-participant-2="ui"><polygon fill="#181818" points="179.7026,422.5625,169.7026,426.5625,179.7026,430.5625,175.7026,426.5625" style="stroke:#181818;stroke-width:1;"/><line style="stroke:#181818;stroke-width:1;stroke-dasharray:2.0,2.0;" x1="173.7026" x2="306.3589" y1="426.5625" y2="426.5625"/><text fill="#000000" font-family="sans-serif" font-size="13" lengthAdjust="spacing" textLength="90.2637" x="185.7026" y="421.4966">DisplayError()</text></g><g class="message" data-participant-1="ui" data-participant-2="User"><polygon fill="#181818" points="34.9551,458.6953,24.9551,462.6953,34.9551,466.6953,30.9551,462.6953" style="stroke:#181818;stroke-width:1;"/><line style="stroke:#181818;stroke-width:1;stroke-dasharray:2.0,2.0;" x1="28.9551" x2="162.7026" y1="462.6953" y2="462.6953"/><text fill="#000000" font-family="sans-serif" font-size="13" lengthAdjust="spacing" textLength="110.7476" x="40.9551" y="457.6294">Show updated UI</text></g><!--SRC=[RLBBRi8m4Bpp5IjESEWFSAY4A4X8fHT4xukpq6sD7VaHnDztRISHTNg95NjcTcTsKGNhuEJ90SnQT84LjsW2p7VEca2cWTD-3kWXSetOcpQ6JzJSO61h3hQ9cZAMkriDFYhhQ8DQHOrICiEycg3awQ7PqDPSvLjGLAFUhKATe7Wj4Eq5CiikNbvJfoiunlEDWmSq_fxDeGhSOQ1YH3w2J7skeBT0Yu9TFeEB4zG1keG2Jfxb1lABI8Y75Go-ABjyqW4ObR9PI4TYaR0-RE3BOsET8nNMcREeILH8D9BMpNVqOSof9oJ0qCofJMOQCEYS3AOh4WrDH7Cd4fs4XLtVUYpa_5FraaE6T8obDjPSsDto-EigFJnL6MRonhxL-DWHDMTKFmjLh2yd3QQeI4kVRFwDlHBSEcU7w9vaokpI2iDiSfqMG6JopaW0N_OElNTP-B-4oBy0]--></g></svg>