<svg xmlns="http://www.w3.org/2000/svg" xmlns:xlink="http://www.w3.org/1999/xlink" contentStyleType="text/css" data-diagram-type="DESCRIPTION" height="1472px" preserveAspectRatio="none" style="width:476px;height:1472px;background:#FFFFFF;" version="1.1" viewBox="0 0 476 1472" width="476px" zoomAndPan="magnify"><defs/><g><!--entity Student--><g class="entity" data-entity="Student" data-source-line="3" data-uid="ent0002" id="entity_Student"><ellipse cx="53.8457" cy="634" fill="#F1F1F1" rx="8" ry="8" style="stroke:#181818;stroke-width:0.5;"/><path d="M53.8457,642 L53.8457,669 M40.8457,650 L66.8457,650 M53.8457,669 L40.8457,684 M53.8457,669 L66.8457,684" fill="none" style="stroke:#181818;stroke-width:0.5;"/><text fill="#000000" font-family="sans-serif" font-size="14" lengthAdjust="spacing" textLength="55.1113" x="26.29" y="698.4951">Student</text></g><!--entity Administrator--><g class="entity" data-entity="Administrator" data-source-line="4" data-uid="ent0003" id="entity_Administrator"><ellipse cx="53.8413" cy="14" fill="#F1F1F1" rx="8" ry="8" style="stroke:#181818;stroke-width:0.5;"/><path d="M53.8413,22 L53.8413,49 M40.8413,30 L66.8413,30 M53.8413,49 L40.8413,64 M53.8413,49 L66.8413,64" fill="none" style="stroke:#181818;stroke-width:0.5;"/><text fill="#000000" font-family="sans-serif" font-size="14" lengthAdjust="spacing" textLength="95.6826" x="6" y="78.4951">Administrator</text></g><g class="entity" data-entity="UC1" data-source-line="6" data-uid="ent0004" id="entity_UC1"><ellipse cx="348.6985" cy="576.6517" fill="#F1F1F1" rx="102.8085" ry="22.9617" style="stroke:#181818;stroke-width:0.5;"/><text fill="#000000" font-family="sans-serif" font-size="14" lengthAdjust="spacing" textLength="170.2285" x="263.5842" y="579.4984">View Introductory Movie</text></g><g class="entity" data-entity="UC2" data-source-line="7" data-uid="ent0005" id="entity_UC2"><ellipse cx="348.6954" cy="479.6491" fill="#F1F1F1" rx="101.0954" ry="22.6191" style="stroke:#181818;stroke-width:0.5;"/><text fill="#000000" font-family="sans-serif" font-size="14" lengthAdjust="spacing" textLength="166.4688" x="265.461" y="482.4958">Skip Introductory Movie</text></g><g class="entity" data-entity="UC3" data-source-line="8" data-uid="ent0006" id="entity_UC3"><ellipse cx="348.6971" cy="653.6494" fill="#F1F1F1" rx="84.3971" ry="19.2794" style="stroke:#181818;stroke-width:0.5;"/><text fill="#000000" font-family="sans-serif" font-size="14" lengthAdjust="spacing" textLength="128.9326" x="284.1002" y="656.5413">Access Main Menu</text></g><g class="entity" data-entity="UC4" data-source-line="9" data-uid="ent0007" id="entity_UC4"><ellipse cx="348.7034" cy="1062.6467" fill="#F1F1F1" rx="65.5334" ry="15.5067" style="stroke:#181818;stroke-width:0.5;"/><text fill="#000000" font-family="sans-serif" font-size="14" lengthAdjust="spacing" textLength="80.3291" x="305.5389" y="1066.3942">Start Game</text></g><g class="entity" data-entity="UC5" data-source-line="10" data-uid="ent0008" id="entity_UC5"><ellipse cx="348.6966" cy="1298.6493" fill="#F1F1F1" rx="110.6466" ry="24.5293" style="stroke:#181818;stroke-width:0.5;"/><text fill="#000000" font-family="sans-serif" font-size="14" lengthAdjust="spacing" textLength="187.2773" x="255.0579" y="1301.496">Answer Fraction Questions</text></g><g class="entity" data-entity="UC6" data-source-line="11" data-uid="ent0009" id="entity_UC6"><ellipse cx="348.6988" cy="1222.6458" fill="#F1F1F1" rx="69.2288" ry="16.2458" style="stroke:#181818;stroke-width:0.5;"/><text fill="#000000" font-family="sans-serif" font-size="14" lengthAdjust="spacing" textLength="90.7266" x="300.3356" y="1226.3933">Request Hint</text></g><g class="entity" data-entity="UC7" data-source-line="12" data-uid="ent0010" id="entity_UC7"><ellipse cx="348.7037" cy="1150.6547" fill="#F1F1F1" rx="90.6237" ry="20.5247" style="stroke:#181818;stroke-width:0.5;"/><text fill="#000000" font-family="sans-serif" font-size="14" lengthAdjust="spacing" textLength="143.1514" x="277.128" y="1153.5014">View Final Feedback</text></g><g class="entity" data-entity="UC8" data-source-line="13" data-uid="ent0011" id="entity_UC8"><ellipse cx="348.6975" cy="1373.6495" fill="#F1F1F1" rx="67.4975" ry="15.8995" style="stroke:#181818;stroke-width:0.5;"/><text fill="#000000" font-family="sans-serif" font-size="14" lengthAdjust="spacing" textLength="85.9277" x="302.7337" y="1377.3971">Quit System</text></g><g class="entity" data-entity="UC9" data-source-line="14" data-uid="ent0012" id="entity_UC9"><ellipse cx="348.7024" cy="1445.6505" fill="#F1F1F1" rx="92.1524" ry="20.8305" style="stroke:#181818;stroke-width:0.5;"/><text fill="#000000" font-family="sans-serif" font-size="14" lengthAdjust="spacing" textLength="146.5967" x="275.4041" y="1448.4972">Return to Main Menu</text></g><g class="entity" data-entity="UC10" data-source-line="15" data-uid="ent0013" id="entity_UC10"><ellipse cx="348.6999" cy="747.646" fill="#F1F1F1" rx="103.2299" ry="23.046" style="stroke:#181818;stroke-width:0.5;"/><text fill="#000000" font-family="sans-serif" font-size="14" lengthAdjust="spacing" textLength="171.1514" x="263.1242" y="750.4927">Access External Projects</text></g><g class="entity" data-entity="UC11" data-source-line="16" data-uid="ent0014" id="entity_UC11"><ellipse cx="348.705" cy="991.655" fill="#F1F1F1" rx="89.675" ry="20.335" style="stroke:#181818;stroke-width:0.5;"/><text fill="#000000" font-family="sans-serif" font-size="14" lengthAdjust="spacing" textLength="141.0049" x="278.2025" y="994.5017">Access Help Section</text></g><g class="entity" data-entity="UC12" data-source-line="17" data-uid="ent0015" id="entity_UC12"><ellipse cx="348.7017" cy="915.6463" fill="#F1F1F1" rx="93.4317" ry="21.0863" style="stroke:#181818;stroke-width:0.5;"/><text fill="#000000" font-family="sans-serif" font-size="14" lengthAdjust="spacing" textLength="149.4678" x="273.9678" y="918.493">View Team Summary</text></g><g class="entity" data-entity="UC13" data-source-line="18" data-uid="ent0016" id="entity_UC13"><ellipse cx="348.701" cy="832.6542" fill="#F1F1F1" rx="122.021" ry="26.8042" style="stroke:#181818;stroke-width:0.5;"/><text fill="#000000" font-family="sans-serif" font-size="14" lengthAdjust="spacing" textLength="211.6611" x="242.8704" y="835.5009">View Denominators Web Page</text></g><g class="entity" data-entity="UC14" data-source-line="20" data-uid="ent0017" id="entity_UC14"><ellipse cx="348.7041" cy="407.6457" fill="#F1F1F1" rx="38.4641" ry="14.5557" style="stroke:#181818;stroke-width:0.5;"/><text fill="#000000" font-family="sans-serif" font-size="14" lengthAdjust="spacing" textLength="38.0146" x="327.83" y="411.1006">Login</text></g><g class="entity" data-entity="UC15" data-source-line="21" data-uid="ent0018" id="entity_UC15"><ellipse cx="348.699" cy="108.6478" fill="#F1F1F1" rx="82.739" ry="18.9478" style="stroke:#181818;stroke-width:0.5;"/><text fill="#000000" font-family="sans-serif" font-size="14" lengthAdjust="spacing" textLength="125.0635" x="285.4853" y="111.7239">Update Questions</text></g><g class="entity" data-entity="UC16" data-source-line="22" data-uid="ent0019" id="entity_UC16"><ellipse cx="348.6985" cy="340.6497" fill="#F1F1F1" rx="73.2485" ry="17.0497" style="stroke:#181818;stroke-width:0.5;"/><text fill="#000000" font-family="sans-serif" font-size="14" lengthAdjust="spacing" textLength="101.4727" x="294.9621" y="344.3973">Edit Questions</text></g><g class="entity" data-entity="UC17" data-source-line="23" data-uid="ent0020" id="entity_UC17"><ellipse cx="348.6994" cy="268.6539" fill="#F1F1F1" rx="85.6694" ry="19.5339" style="stroke:#181818;stroke-width:0.5;"/><text fill="#000000" font-family="sans-serif" font-size="14" lengthAdjust="spacing" textLength="131.8652" x="282.7668" y="271.5006">Validate Questions</text></g><g class="entity" data-entity="UC18" data-source-line="24" data-uid="ent0021" id="entity_UC18"><ellipse cx="348.6999" cy="196.652" fill="#F1F1F1" rx="76.0599" ry="17.612" style="stroke:#181818;stroke-width:0.5;"/><text fill="#000000" font-family="sans-serif" font-size="14" lengthAdjust="spacing" textLength="108.7256" x="291.3371" y="200.3995">Save Questions</text></g><!--link Student to UC1--><g class="link" data-entity-1="Student" data-entity-2="UC1" data-source-line="27" data-uid="lnk22" id="link_Student_UC1"><path d="M54.78,625.11 C55.51,520.23 63.8,233.68 131.68,175.65 C153.64,156.88 175.39,156.13 196.68,175.65 C253.25,227.5 182.8,456.7 226.68,519.65 C239.5,538.03 254.3211,548.3296 274.7011,556.9196" fill="none" id="Student-to-UC1" style="stroke:#181818;stroke-width:1;"/><polygon fill="#181818" points="280.23,559.25,273.4902,552.0684,275.6225,557.308,270.383,559.4404,280.23,559.25" style="stroke:#181818;stroke-width:1;"/></g><!--link Student to UC2--><g class="link" data-entity-1="Student" data-entity-2="UC2" data-source-line="28" data-uid="lnk23" id="link_Student_UC2"><path d="M54.35,625.31 C53.86,515.78 59.02,205.39 131.68,142.65 C153.55,123.77 175.25,123.28 196.68,142.65 C245.89,187.14 185.17,387.91 226.68,439.65 C236.58,451.99 244.8233,458.3213 259.5933,464.2613" fill="none" id="Student-to-UC2" style="stroke:#181818;stroke-width:1;"/><polygon fill="#181818" points="265.16,466.5,258.3025,459.4308,260.5211,464.6344,255.3175,466.853,265.16,466.5" style="stroke:#181818;stroke-width:1;"/></g><!--link Student to UC3--><g class="link" data-entity-1="Student" data-entity-2="UC3" data-source-line="29" data-uid="lnk24" id="link_Student_UC3"><path d="M55.26,625.18 C57.25,525.35 68.51,262.05 131.68,208.65 C153.75,190 175.52,188.99 196.68,208.65 C263.28,270.53 169.96,545.6 226.68,616.65 C238.06,630.9 249.0606,637.9866 266.4706,643.5066" fill="none" id="Student-to-UC3" style="stroke:#181818;stroke-width:1;"/><polygon fill="#181818" points="272.19,645.32,264.8198,638.787,267.4238,643.8088,262.402,646.4129,272.19,645.32" style="stroke:#181818;stroke-width:1;"/></g><!--link Student to UC8--><g class="link" data-entity-1="Student" data-entity-2="UC8" data-source-line="30" data-uid="lnk25" id="link_Student_UC8"><path d="M57.28,701.99 C63.31,784.22 82.18,982.98 131.68,1141.65 C160.87,1235.21 151.46,1277.83 226.68,1340.65 C243.4,1354.61 259.6663,1361.3832 280.4263,1366.0532" fill="none" id="Student-to-UC8" style="stroke:#181818;stroke-width:1;"/><polygon fill="#181818" points="286.28,1367.37,278.3773,1361.4923,281.4019,1366.2727,276.6216,1369.2973,286.28,1367.37" style="stroke:#181818;stroke-width:1;"/></g><!--link Student to UC9--><g class="link" data-entity-1="Student" data-entity-2="UC9" data-source-line="31" data-uid="lnk26" id="link_Student_UC9"><path d="M55.82,702.08 C59.52,825.7 75.4,1211.42 131.68,1320.65 C157.77,1371.28 177.36,1378.17 226.68,1406.65 C244.17,1416.75 258.8917,1422.8248 277.9517,1428.7648" fill="none" id="Student-to-UC9" style="stroke:#181818;stroke-width:1;"/><polygon fill="#181818" points="283.68,1430.55,276.2777,1424.0534,278.9064,1429.0623,273.8975,1431.691,283.68,1430.55" style="stroke:#181818;stroke-width:1;"/></g><!--link Student to UC10--><g class="link" data-entity-1="Student" data-entity-2="UC10" data-source-line="32" data-uid="lnk27" id="link_Student_UC10"><path d="M55.26,702.12 C57.25,801.95 68.51,1065.25 131.68,1118.65 C153.75,1137.3 175.35,1138.13 196.68,1118.65 C251.06,1068.99 181.11,846.49 226.68,788.65 C236.5,776.19 244.7196,769.7688 259.4796,763.7088" fill="none" id="Student-to-UC10" style="stroke:#181818;stroke-width:1;"/><polygon fill="#181818" points="265.03,761.43,255.1852,761.148,260.4047,763.329,258.2236,768.5485,265.03,761.43" style="stroke:#181818;stroke-width:1;"/></g><!--link UC2 to UC1--><g class="link" data-entity-1="UC2" data-entity-2="UC1" data-source-line="35" data-uid="lnk28" id="link_UC2_UC1"><path d="M348.7,502.47 C348.7,517.9 348.7,532.2 348.7,547.66" fill="none" id="UC2-to-UC1" style="stroke:#181818;stroke-width:1;stroke-dasharray:7.0,7.0;"/><polygon fill="#181818" points="348.7,553.66,352.7,544.66,348.7,548.66,344.7,544.66,348.7,553.66" style="stroke:#181818;stroke-width:1;"/><text fill="#000000" font-family="sans-serif" font-size="13" lengthAdjust="spacing" textLength="61.1851" x="306.7" y="532.5469">&#171;extend&#187;</text></g><!--link UC3 to UC4--><g class="link" data-entity-1="UC3" data-entity-2="UC4" data-source-line="36" data-uid="lnk29" id="link_UC3_UC4"><path d="M274.63,644.05 C235.19,643.42 189.4,650.75 162.44,682.15 C111.28,741.73 173.19,972.15 226.68,1029.65 C241.71,1045.8 257.8672,1053.1212 279.0872,1057.5612" fill="none" id="UC3-to-UC4" style="stroke:#181818;stroke-width:1;stroke-dasharray:7.0,7.0;"/><polygon fill="#181818" points="284.96,1058.79,276.97,1053.0316,280.066,1057.766,275.3316,1060.862,284.96,1058.79" style="stroke:#181818;stroke-width:1;"/><text fill="#000000" font-family="sans-serif" font-size="13" lengthAdjust="spacing" textLength="63.0068" x="132.68" y="695.2169">&#171;include&#187;</text></g><!--link UC3 to UC11--><g class="link" data-entity-1="UC3" data-entity-2="UC11" data-source-line="37" data-uid="lnk30" id="link_UC3_UC11"><path d="M266.71,658.42 C228.54,665.25 186.36,680.39 162.44,713.15 C96.93,802.84 148.77,875.5 226.68,954.65 C238.95,967.11 249.5721,973.53 266.2721,979.04" fill="none" id="UC3-to-UC11" style="stroke:#181818;stroke-width:1;stroke-dasharray:7.0,7.0;"/><polygon fill="#181818" points="271.97,980.92,264.6765,974.3015,267.2218,979.3534,262.1699,981.8986,271.97,980.92" style="stroke:#181818;stroke-width:1;"/><text fill="#000000" font-family="sans-serif" font-size="13" lengthAdjust="spacing" textLength="63.0068" x="132.68" y="726.2169">&#171;include&#187;</text></g><!--link UC3 to UC12--><g class="link" data-entity-1="UC3" data-entity-2="UC12" data-source-line="38" data-uid="lnk31" id="link_UC3_UC12"><path d="M292.65,668.39 C269.95,676.63 244.87,688.91 226.68,706.65 C117.39,813.29 145.32,839.43 162.44,862.15 C184.4,891.31 215.3004,904.2667 250.4304,910.7767" fill="none" id="UC3-to-UC12" style="stroke:#181818;stroke-width:1;stroke-dasharray:7.0,7.0;"/><polygon fill="#181818" points="256.33,911.87,248.2095,906.2971,251.4137,910.959,246.7518,914.1632,256.33,911.87" style="stroke:#181818;stroke-width:1;"/><text fill="#000000" font-family="sans-serif" font-size="13" lengthAdjust="spacing" textLength="63.0068" x="132.68" y="858.2169">&#171;include&#187;</text></g><!--link UC3 to UC13--><g class="link" data-entity-1="UC3" data-entity-2="UC13" data-source-line="39" data-uid="lnk32" id="link_UC3_UC13"><path d="M285.45,666.81 C217.75,683.91 124.85,717.9 162.44,770.15 C180.86,795.76 204.5446,809.3008 234.6146,818.3508" fill="none" id="UC3-to-UC13" style="stroke:#181818;stroke-width:1;stroke-dasharray:7.0,7.0;"/><polygon fill="#181818" points="240.36,820.08,232.8946,813.656,235.5721,818.639,230.5891,821.3165,240.36,820.08" style="stroke:#181818;stroke-width:1;"/><text fill="#000000" font-family="sans-serif" font-size="13" lengthAdjust="spacing" textLength="63.0068" x="132.68" y="766.2169">&#171;include&#187;</text></g><!--link UC3 to UC10--><g class="link" data-entity-1="UC3" data-entity-2="UC10" data-source-line="40" data-uid="lnk33" id="link_UC3_UC10"><path d="M348.7,673.13 C348.7,688.04 348.7,702.65 348.7,718.41" fill="none" id="UC3-to-UC10" style="stroke:#181818;stroke-width:1;stroke-dasharray:7.0,7.0;"/><polygon fill="#181818" points="348.7,724.41,352.7,715.41,348.7,719.41,344.7,715.41,348.7,724.41" style="stroke:#181818;stroke-width:1;"/><text fill="#000000" font-family="sans-serif" font-size="13" lengthAdjust="spacing" textLength="63.0068" x="305.7" y="703.3369">&#171;include&#187;</text></g><!--link UC4 to UC5--><g class="link" data-entity-1="UC4" data-entity-2="UC5" data-source-line="41" data-uid="lnk34" id="link_UC4_UC5"><path d="M302.98,1051.14 C259.97,1043.36 197.15,1040.42 162.44,1078.15 C105.34,1140.19 165.67,1198.45 226.68,1256.65 C238.11,1267.55 246.9356,1273.3855 261.7856,1279.3755" fill="none" id="UC4-to-UC5" style="stroke:#181818;stroke-width:1;stroke-dasharray:7.0,7.0;"/><polygon fill="#181818" points="267.35,1281.62,260.4998,1274.5437,262.713,1279.7496,257.5071,1281.9629,267.35,1281.62" style="stroke:#181818;stroke-width:1;"/><text fill="#000000" font-family="sans-serif" font-size="13" lengthAdjust="spacing" textLength="63.0068" x="132.68" y="1091.2169">&#171;include&#187;</text></g><!--link UC4 to UC6--><g class="link" data-entity-1="UC4" data-entity-2="UC6" data-source-line="42" data-uid="lnk35" id="link_UC4_UC6"><path d="M287.55,1056.77 C245.41,1056.44 191.9,1064.16 162.44,1100.15 C131.65,1137.76 185.38,1163.03 226.68,1188.65 C245.93,1200.59 263.606,1207.0285 284.836,1212.1285" fill="none" id="UC4-to-UC6" style="stroke:#181818;stroke-width:1;stroke-dasharray:7.0,7.0;"/><polygon fill="#181818" points="290.67,1213.53,282.8533,1207.5384,285.8083,1212.3621,280.9846,1215.3171,290.67,1213.53" style="stroke:#181818;stroke-width:1;"/><text fill="#000000" font-family="sans-serif" font-size="13" lengthAdjust="spacing" textLength="63.0068" x="132.68" y="1113.2169">&#171;include&#187;</text></g><!--link UC4 to UC7--><g class="link" data-entity-1="UC4" data-entity-2="UC7" data-source-line="43" data-uid="lnk36" id="link_UC4_UC7"><path d="M348.7,1078.4 C348.7,1092.75 348.7,1108.04 348.7,1123.79" fill="none" id="UC4-to-UC7" style="stroke:#181818;stroke-width:1;stroke-dasharray:7.0,7.0;"/><polygon fill="#181818" points="348.7,1129.79,352.7,1120.79,348.7,1124.79,344.7,1120.79,348.7,1129.79" style="stroke:#181818;stroke-width:1;"/><text fill="#000000" font-family="sans-serif" font-size="13" lengthAdjust="spacing" textLength="63.0068" x="305.7" y="1108.7069">&#171;include&#187;</text></g><!--link Administrator to UC14--><g class="link" data-entity-1="Administrator" data-entity-2="UC14" data-source-line="46" data-uid="lnk37" id="link_Administrator_UC14"><path d="M102.14,53.01 C134.13,61.94 174.47,78.79 196.68,109.65 C266.18,206.21 148.93,285.6 226.68,375.65 C247.07,399.25 276.6326,406.0621 303.9526,407.8321" fill="none" id="Administrator-to-UC14" style="stroke:#181818;stroke-width:1;"/><polygon fill="#181818" points="309.94,408.22,301.2174,403.6465,304.9505,407.8967,300.7002,411.6298,309.94,408.22" style="stroke:#181818;stroke-width:1;"/></g><!--link Administrator to UC15--><g class="link" data-entity-1="Administrator" data-entity-2="UC15" data-source-line="47" data-uid="lnk38" id="link_Administrator_UC15"><path d="M101.96,39.39 C129.8,38.01 165.57,38.22 196.68,44.65 C239.91,53.59 280.8381,72.3802 310.5981,88.0102" fill="none" id="Administrator-to-UC15" style="stroke:#181818;stroke-width:1;"/><polygon fill="#181818" points="315.91,90.8,309.802,83.0739,311.4834,88.4751,306.0822,90.1565,315.91,90.8" style="stroke:#181818;stroke-width:1;"/></g><!--link UC15 to UC14--><g class="link" data-entity-1="UC15" data-entity-2="UC14" data-source-line="50" data-uid="lnk39" id="link_UC15_UC14"><path d="M288.82,121.97 C244.01,135.6 186.49,161.86 162.44,210.15 C127.26,280.78 166.82,324.25 226.68,375.65 C249.78,395.48 277.8068,402.5464 304.0468,405.4664" fill="none" id="UC15-to-UC14" style="stroke:#181818;stroke-width:1;stroke-dasharray:7.0,7.0;"/><polygon fill="#181818" points="310.01,406.13,301.5076,401.1592,305.0407,405.577,300.6228,409.1101,310.01,406.13" style="stroke:#181818;stroke-width:1;"/><text fill="#000000" font-family="sans-serif" font-size="13" lengthAdjust="spacing" textLength="63.0068" x="132.68" y="223.2169">&#171;include&#187;</text></g><!--link UC15 to UC16--><g class="link" data-entity-1="UC15" data-entity-2="UC16" data-source-line="51" data-uid="lnk40" id="link_UC15_UC16"><path d="M294.69,123.36 C271.69,131.69 245.81,144.06 226.68,161.65 C138.29,242.95 145.77,277.25 162.44,298.15 C189.22,331.73 230.5786,341.8886 270.8386,344.0486" fill="none" id="UC15-to-UC16" style="stroke:#181818;stroke-width:1;stroke-dasharray:7.0,7.0;"/><polygon fill="#181818" points="276.83,344.37,268.0572,339.8936,271.8372,344.1021,267.6286,347.8821,276.83,344.37" style="stroke:#181818;stroke-width:1;"/><text fill="#000000" font-family="sans-serif" font-size="13" lengthAdjust="spacing" textLength="63.0068" x="132.68" y="294.2169">&#171;include&#187;</text></g><!--link UC15 to UC17--><g class="link" data-entity-1="UC15" data-entity-2="UC17" data-source-line="52" data-uid="lnk41" id="link_UC15_UC17"><path d="M297.18,123.83 C226.49,147.13 113.43,194.75 162.44,249.15 C191.81,281.76 236.0363,285.9611 276.9163,282.1211" fill="none" id="UC15-to-UC17" style="stroke:#181818;stroke-width:1;stroke-dasharray:7.0,7.0;"/><polygon fill="#181818" points="282.89,281.56,273.5554,278.4192,277.9119,282.0276,274.3035,286.3842,282.89,281.56" style="stroke:#181818;stroke-width:1;"/><text fill="#000000" font-family="sans-serif" font-size="13" lengthAdjust="spacing" textLength="63.0068" x="132.68" y="245.2169">&#171;include&#187;</text></g><!--link UC15 to UC18--><g class="link" data-entity-1="UC15" data-entity-2="UC18" data-source-line="53" data-uid="lnk42" id="link_UC15_UC18"><path d="M348.7,127.96 C348.7,143.12 348.7,158.08 348.7,172.84" fill="none" id="UC15-to-UC18" style="stroke:#181818;stroke-width:1;stroke-dasharray:7.0,7.0;"/><polygon fill="#181818" points="348.7,178.84,352.7,169.84,348.7,173.84,344.7,169.84,348.7,178.84" style="stroke:#181818;stroke-width:1;"/><text fill="#000000" font-family="sans-serif" font-size="13" lengthAdjust="spacing" textLength="63.0068" x="305.7" y="157.8869">&#171;include&#187;</text></g><!--SRC=[TPHDJyCm38Rl_HKM5qx0kkuBX2OXO83494RvE9lMZ42RZiG5zkzfkdPBq_LM-tdZnA_J9FJEm1aeiVnWY8MYY4KcFGyZpXI4dCSakOekubH8eLbX4NbUhYb2JN3m8kWNxYIhBCwDS0tpx4VG0Q26vqj_9mo_nAfRsDy9BwA8j8Ov2Wbpadcb2AnIZ8hX1jDwzS1QBVKlAPWfB9k1HKxQVEXAEjn97-dRGBWLaYiwSXgR2Oa9p8ZYDuo-Aj5u9rhaWY5SQwQqWXExFkTA6eVTNavRtLx_CIcpruFAFeivrCVrUotfBIKh23UpgbM-S-udmXJ2F4rHhMjDtz5SaSoAcPfvQdYbDtZ0vNPkWJNY-smfjZjPLZ-lOcHgEUnR5b_7XJyjWUqo9c9_5Slb47_s22QUTrXVKb2KO4a_n4fxTVReQ5fUmcRST-B0YITEVEhMwvcTpSHah4_kP9GKLCExzSyKcy1ngOKpE3-dKZkT5lbWan-KUR5PQmFVxoJzJX9qabwB33Pas0L6NM3iWCA3ngFWpA39AkS6-zD3KwnXPFEvCPAgeRPnMpJgHkDkD6cYVm00]--></g></svg>